G04*
G04 #@! TF.GenerationSoftware,Altium Limited,Altium Designer,19.0.14 (431)*
G04*
G04 Layer_Physical_Order=2*
G04 Layer_Color=16711680*
%FSLAX44Y44*%
%MOMM*%
G71*
G01*
G75*
%ADD12C,0.2000*%
%ADD67R,0.6000X0.5000*%
%ADD83R,1.0000X1.1000*%
%ADD87C,0.3000*%
%ADD90C,0.6000*%
%ADD91C,1.0000*%
%ADD92R,1.0000X1.0000*%
%ADD93R,0.7500X0.2500*%
%ADD94R,0.8500X0.2500*%
%ADD95R,0.2500X0.7500*%
%ADD96R,0.2500X0.8500*%
%ADD97R,2.6000X2.6000*%
%ADD98O,0.8500X0.2000*%
%ADD99O,0.2000X0.8500*%
%ADD100R,2.4000X2.4000*%
%ADD101R,3.1000X2.5000*%
%ADD102R,1.5500X1.0000*%
%ADD103R,1.1000X1.0000*%
%ADD104R,1.5000X2.3000*%
%ADD105R,0.8000X0.3000*%
G36*
X125715Y195926D02*
X125090Y194991D01*
X124702Y193040D01*
X125090Y191089D01*
X126195Y189435D01*
X127849Y188330D01*
X129800Y187942D01*
X131751Y188330D01*
X133405Y189435D01*
X133770Y189981D01*
X148462D01*
X149544Y188899D01*
X149207Y187441D01*
X147790Y186494D01*
X147506Y186068D01*
X84700D01*
X83334Y185797D01*
X82177Y185023D01*
X78402Y181249D01*
X78168Y181346D01*
X77470Y181438D01*
Y174000D01*
Y166562D01*
X78168Y166654D01*
X80002Y167414D01*
X81578Y168622D01*
X82090Y169290D01*
X83691D01*
X83908Y169007D01*
X85370Y167885D01*
X87073Y167180D01*
X88900Y166940D01*
X90727Y167180D01*
X92430Y167885D01*
X93892Y169007D01*
X94463Y169751D01*
X96037D01*
X96608Y169007D01*
X98070Y167885D01*
X99773Y167180D01*
X101600Y166940D01*
X103427Y167180D01*
X105130Y167885D01*
X106592Y169007D01*
X107163Y169751D01*
X108737D01*
X109308Y169007D01*
X110770Y167885D01*
X112473Y167180D01*
X114300Y166940D01*
X116127Y167180D01*
X117830Y167885D01*
X119292Y169007D01*
X120414Y170470D01*
X121120Y172173D01*
X121360Y174000D01*
X121120Y175827D01*
X120414Y177530D01*
X120213Y177792D01*
X120775Y178931D01*
X147506D01*
X147790Y178506D01*
X149622Y177281D01*
X150577Y177092D01*
X150995Y175714D01*
X145152Y169871D01*
X143510Y170198D01*
X141559Y169810D01*
X139905Y168705D01*
X138800Y167051D01*
X138412Y165100D01*
X138800Y163149D01*
X139905Y161495D01*
X141559Y160390D01*
X143510Y160002D01*
X144611Y160221D01*
X145881Y159260D01*
Y155940D01*
X145881Y155940D01*
X146114Y154769D01*
X146777Y153777D01*
X149160Y151394D01*
X149032Y150750D01*
X149420Y148799D01*
X150525Y147145D01*
X150637Y146010D01*
X149356Y144729D01*
X119370D01*
X119005Y145275D01*
X117351Y146380D01*
X115400Y146768D01*
X113449Y146380D01*
X111795Y145275D01*
X110878Y143902D01*
X110527Y143606D01*
X109371Y143498D01*
X108291Y144219D01*
X106340Y144607D01*
X104389Y144219D01*
X102735Y143114D01*
X101630Y141460D01*
X101242Y139509D01*
X101630Y137559D01*
X102735Y135905D01*
X104389Y134800D01*
X106340Y134411D01*
X107261Y134595D01*
X108349Y133507D01*
X109341Y132844D01*
X110512Y132611D01*
X159621D01*
X159621Y132611D01*
X160791Y132844D01*
X161784Y133507D01*
X166888Y138611D01*
X171218D01*
X172328Y137563D01*
X172322Y136767D01*
X172047Y136583D01*
X172047Y136583D01*
X163403Y127939D01*
X139860D01*
X139495Y128485D01*
X137841Y129590D01*
X135890Y129978D01*
X133939Y129590D01*
X132285Y128485D01*
X131920Y127939D01*
X85040D01*
X85040Y127939D01*
X83870Y127706D01*
X82877Y127043D01*
X82877Y127043D01*
X57527Y101693D01*
X56864Y100701D01*
X56631Y99530D01*
X56631Y99530D01*
Y61330D01*
X52070D01*
Y46466D01*
X45993Y40389D01*
X43370D01*
X43370Y40389D01*
X43074Y40330D01*
X38460D01*
Y41120D01*
X35844D01*
X35245Y42240D01*
X35699Y42918D01*
X35876Y43810D01*
X30480D01*
Y45080D01*
X29210D01*
Y50476D01*
X28318Y50299D01*
X27711Y49893D01*
X26441Y50572D01*
Y55616D01*
X26441Y56000D01*
X27384Y56790D01*
X30480D01*
Y61830D01*
Y66870D01*
X26210D01*
Y66870D01*
X25010Y67039D01*
Y67359D01*
X24738Y68725D01*
X23965Y69883D01*
X14010Y79838D01*
Y124041D01*
X14046Y124065D01*
X15151Y125719D01*
X15539Y127670D01*
X15151Y129621D01*
X14046Y131275D01*
X12392Y132380D01*
X10441Y132768D01*
X8490Y132380D01*
X6837Y131275D01*
X5731Y129621D01*
X5343Y127670D01*
X5731Y125719D01*
X6837Y124065D01*
X6873Y124041D01*
Y78359D01*
X7144Y76994D01*
X7918Y75836D01*
X16306Y67448D01*
X16750Y66330D01*
X16750D01*
X16750Y66330D01*
Y57330D01*
X17873D01*
Y56898D01*
X16975Y56000D01*
X16441D01*
Y56000D01*
X16441D01*
Y56000D01*
X6441D01*
Y51026D01*
X4807Y49392D01*
X4144Y48399D01*
X4074Y48046D01*
X2804Y48171D01*
Y197196D01*
X105078D01*
X105267Y197070D01*
X106340Y196856D01*
X107413Y197070D01*
X107603Y197196D01*
X125036D01*
X125715Y195926D01*
D02*
G37*
G36*
X336623Y180890D02*
X336215Y179501D01*
X334798Y178555D01*
X333821Y177092D01*
X324620Y167891D01*
X246787D01*
X241347Y173331D01*
Y179920D01*
X241347Y179921D01*
X241114Y181091D01*
X240451Y182083D01*
X240451Y182083D01*
X236936Y185598D01*
X235944Y186261D01*
X234773Y186494D01*
X234773Y186494D01*
X218855D01*
X218335Y187171D01*
X218880Y188441D01*
X248009D01*
X248417Y187239D01*
X248046Y186954D01*
X246483Y184917D01*
X245501Y182545D01*
X245166Y180000D01*
X245501Y177455D01*
X246483Y175083D01*
X248046Y173046D01*
X250083Y171483D01*
X252455Y170501D01*
X255000Y170166D01*
X257545Y170501D01*
X259917Y171483D01*
X261954Y173046D01*
X263517Y175083D01*
X264499Y177455D01*
X264834Y180000D01*
X264499Y182545D01*
X263517Y184917D01*
X261954Y186954D01*
X261583Y187239D01*
X261991Y188441D01*
X329071D01*
X336623Y180890D01*
D02*
G37*
G36*
X211076Y187171D02*
X210880Y187040D01*
X209775Y185386D01*
X209387Y183435D01*
X209775Y181484D01*
X210880Y179830D01*
X212534Y178725D01*
X213362Y178561D01*
X213848Y177387D01*
X213730Y177211D01*
X213342Y175260D01*
X213730Y173309D01*
X214835Y171655D01*
X216489Y170550D01*
X218440Y170162D01*
X220391Y170550D01*
X222045Y171655D01*
X223150Y173309D01*
X223261Y173867D01*
X228659D01*
X228683Y173830D01*
X230337Y172725D01*
X232288Y172337D01*
X233959Y172670D01*
X234789Y172274D01*
X235265Y171884D01*
X235462Y170894D01*
X236125Y169902D01*
X243357Y162669D01*
X243357Y162669D01*
X244350Y162006D01*
X245520Y161773D01*
X245520Y161773D01*
X303141D01*
Y157059D01*
X259705D01*
X259705Y157059D01*
X258534Y156826D01*
X257542Y156163D01*
X227608Y126229D01*
X222272D01*
X221673Y127349D01*
X221880Y127659D01*
X222268Y129609D01*
X221880Y131560D01*
X221271Y132472D01*
X221164Y133928D01*
X222389Y135760D01*
X222566Y136652D01*
X217170D01*
Y137922D01*
X215900D01*
Y143318D01*
X215008Y143141D01*
X215005Y143138D01*
X213615Y143596D01*
X213286Y144500D01*
X213519Y145670D01*
X213286Y146840D01*
X212732Y147670D01*
X213286Y148499D01*
X213519Y149670D01*
X213286Y150841D01*
X212732Y151670D01*
X213286Y152500D01*
X213519Y153670D01*
X213286Y154840D01*
X212732Y155670D01*
X213286Y156500D01*
X213519Y157670D01*
X213286Y158841D01*
X212732Y159670D01*
X213286Y160499D01*
X213519Y161670D01*
X213286Y162840D01*
X212732Y163670D01*
X213286Y164499D01*
X213519Y165670D01*
X213286Y166840D01*
X212623Y167833D01*
X211630Y168496D01*
X210460Y168729D01*
X204126D01*
X203744Y168945D01*
X203235Y169454D01*
X203019Y169836D01*
Y176170D01*
X202786Y177341D01*
X202123Y178333D01*
X201131Y178996D01*
X199960Y179229D01*
X198790Y178996D01*
X197960Y178442D01*
X197131Y178996D01*
X195960Y179229D01*
X195150Y179068D01*
X194752Y179266D01*
X194464Y180658D01*
X194533Y180842D01*
X202132Y188441D01*
X210691D01*
X211076Y187171D01*
D02*
G37*
G36*
X320141Y148000D02*
X333101D01*
X333135Y147914D01*
X333312Y146730D01*
X331717Y145664D01*
X330492Y143832D01*
X330315Y142940D01*
X335711D01*
Y140400D01*
X329394D01*
X325015Y136021D01*
X311152D01*
X310473Y137291D01*
X310780Y137749D01*
X311168Y139700D01*
X310780Y141651D01*
X309675Y143305D01*
X308021Y144410D01*
X306070Y144798D01*
X304119Y144410D01*
X302465Y143305D01*
X302100Y142759D01*
X298227D01*
X291315Y149671D01*
X291841Y150941D01*
X303141D01*
Y148000D01*
X318141D01*
Y161773D01*
X320141D01*
Y148000D01*
D02*
G37*
G36*
X257639Y145812D02*
X258585Y144395D01*
X260239Y143290D01*
X262190Y142902D01*
X264141Y143290D01*
X265795Y144395D01*
X266160Y144941D01*
X287393D01*
X294797Y137537D01*
X294797Y137537D01*
X295166Y137291D01*
X294781Y136021D01*
X290900D01*
X289534Y135749D01*
X288376Y134975D01*
X284979Y131579D01*
X269368D01*
X268144Y132803D01*
X268909Y133948D01*
X269086Y134839D01*
X258294D01*
X258471Y133948D01*
X259696Y132115D01*
X260535Y131555D01*
X260747Y130491D01*
X261520Y129333D01*
X265367Y125487D01*
X266127Y124979D01*
X265742Y123709D01*
X255430D01*
X255065Y124255D01*
X253411Y125360D01*
X251460Y125748D01*
X249509Y125360D01*
X247855Y124255D01*
X246750Y122601D01*
X246362Y120650D01*
X246481Y120051D01*
X245676Y119069D01*
X237666D01*
X235542Y121193D01*
X234549Y121856D01*
X233826Y122000D01*
X233331Y123196D01*
X233326Y123296D01*
X256250Y146219D01*
X257639Y145812D01*
D02*
G37*
G36*
X172729Y128404D02*
X173058Y126937D01*
X166137Y120016D01*
X165474Y119023D01*
X165241Y117853D01*
X165241Y117853D01*
Y102552D01*
X165241Y102552D01*
X165474Y101382D01*
X165737Y100988D01*
X165058Y99718D01*
X132529D01*
X132529Y99718D01*
X131359Y99485D01*
X130366Y98822D01*
X130366Y98822D01*
X121294Y89750D01*
X120650Y89878D01*
X118699Y89490D01*
X117045Y88385D01*
X115940Y86731D01*
X115552Y84780D01*
X115885Y83109D01*
X115191Y81839D01*
X85397D01*
X82440Y84796D01*
X82568Y85440D01*
X82180Y87391D01*
X81075Y89045D01*
X79421Y90150D01*
X77470Y90538D01*
X75519Y90150D01*
X73865Y89045D01*
X72760Y87391D01*
X72372Y85440D01*
X72760Y83489D01*
X73865Y81835D01*
X75519Y80730D01*
X77470Y80342D01*
X78114Y80470D01*
X79572Y79012D01*
X79086Y77839D01*
X72132D01*
X71044Y78927D01*
X71138Y79400D01*
X70750Y81351D01*
X69645Y83005D01*
X67991Y84110D01*
X66040Y84498D01*
X64089Y84110D01*
X63869Y83963D01*
X62749Y84561D01*
Y98263D01*
X86307Y121821D01*
X131920D01*
X132285Y121275D01*
X133939Y120170D01*
X135890Y119782D01*
X137841Y120170D01*
X139495Y121275D01*
X139860Y121821D01*
X164670D01*
X164670Y121821D01*
X165841Y122054D01*
X166833Y122717D01*
X172575Y128459D01*
X172729Y128404D01*
D02*
G37*
G36*
X295600Y120871D02*
X296441Y120421D01*
Y116952D01*
X301441D01*
Y88952D01*
X296441D01*
Y80695D01*
X295268Y80209D01*
X281000Y94476D01*
Y102300D01*
X267000D01*
Y97859D01*
X245181D01*
X244521Y98300D01*
X242570Y98688D01*
X240619Y98300D01*
X239256Y97389D01*
X238340Y98305D01*
X238390Y98379D01*
X238778Y100330D01*
X238390Y102281D01*
X237614Y103442D01*
X237732Y105047D01*
X237893Y105155D01*
X238998Y106809D01*
X239386Y108760D01*
X238998Y110711D01*
X238349Y111681D01*
X239028Y112951D01*
X246348D01*
X246812Y112487D01*
X247804Y111824D01*
X248975Y111591D01*
X253945D01*
X253945Y111591D01*
X255116Y111824D01*
X256108Y112487D01*
X256862Y113241D01*
X267000D01*
Y104300D01*
X281000D01*
Y117591D01*
X288290D01*
X288290Y117591D01*
X289461Y117824D01*
X290453Y118487D01*
X292726Y120760D01*
X293370Y120632D01*
X295171Y120990D01*
X295600Y120871D01*
D02*
G37*
G36*
X185230Y113164D02*
X186122Y113342D01*
X187954Y114566D01*
X189179Y116399D01*
X189510Y118064D01*
X189607Y118130D01*
X190835Y118407D01*
X190937Y118255D01*
X192325Y116867D01*
X192325Y116867D01*
X193317Y116204D01*
X194488Y115971D01*
X204091D01*
X204785Y114701D01*
X204452Y113030D01*
X204840Y111079D01*
X203736Y110615D01*
X203009Y110470D01*
X201355Y109365D01*
X200250Y107711D01*
X199862Y105760D01*
X200250Y103809D01*
X201355Y102155D01*
X203009Y101050D01*
X204960Y100662D01*
X206911Y101050D01*
X208565Y102155D01*
X208930Y102701D01*
X210577D01*
X210734Y102670D01*
X211905Y102903D01*
X212112Y103041D01*
X212342Y103009D01*
X213436Y102399D01*
X213730Y100919D01*
X214835Y99265D01*
X215381Y98900D01*
Y93900D01*
X215381Y93900D01*
X215614Y92730D01*
X216277Y91737D01*
X223520Y84494D01*
X223034Y83321D01*
X216152D01*
X216152Y83321D01*
X214982Y83088D01*
X213989Y82425D01*
X213989Y82425D01*
X212734Y81170D01*
X212090Y81298D01*
X210139Y80910D01*
X209154Y80252D01*
X208369Y79898D01*
X207527Y80576D01*
X206965Y81417D01*
X206419Y81782D01*
Y82627D01*
X206419Y82628D01*
X206186Y83798D01*
X205523Y84790D01*
X180230Y110084D01*
X180358Y110728D01*
X179970Y112678D01*
X179538Y113324D01*
X180454Y114240D01*
X181798Y113342D01*
X182690Y113164D01*
Y118560D01*
X185230D01*
Y113164D01*
D02*
G37*
G36*
X347921Y133812D02*
Y93987D01*
X342463Y88529D01*
X341441Y88952D01*
Y88952D01*
X336441D01*
Y116952D01*
X341441D01*
Y127847D01*
X341462Y127952D01*
X341462Y127952D01*
Y128966D01*
X346566Y134070D01*
X346566Y134070D01*
X346651Y134197D01*
X347921Y133812D01*
D02*
G37*
G36*
X228685Y100845D02*
X228582Y100330D01*
X228970Y98379D01*
X230075Y96725D01*
X231729Y95620D01*
X233680Y95232D01*
X235631Y95620D01*
X236994Y96531D01*
X237910Y95616D01*
X237860Y95541D01*
X237472Y93590D01*
X237860Y91639D01*
X238965Y89985D01*
X240619Y88880D01*
X242570Y88492D01*
X244521Y88880D01*
X246175Y89985D01*
X247280Y91639D01*
X247300Y91741D01*
X267000D01*
Y87300D01*
X279525D01*
X282393Y84432D01*
X281907Y83259D01*
X233407D01*
X221499Y95167D01*
Y98900D01*
X222045Y99265D01*
X223150Y100919D01*
X223538Y102870D01*
X223209Y104525D01*
X224263Y105267D01*
X228685Y100845D01*
D02*
G37*
G36*
X154484Y92331D02*
X153903Y91461D01*
X153726Y90570D01*
X159122D01*
Y88030D01*
X153726D01*
X153903Y87138D01*
X154740Y85885D01*
X154128Y84563D01*
X152800Y84298D01*
X151146Y83193D01*
X150114Y81648D01*
X149881Y81491D01*
X148674Y81176D01*
X148031Y81606D01*
X146860Y81839D01*
X146860Y81839D01*
X126109D01*
X125415Y83109D01*
X125748Y84780D01*
X125620Y85424D01*
X133796Y93601D01*
X153805D01*
X154484Y92331D01*
D02*
G37*
G36*
X397196Y2804D02*
X190300D01*
Y7451D01*
X191850D01*
X192043Y7490D01*
X192236Y7451D01*
X192236Y7451D01*
X221168D01*
X221168Y7451D01*
X222338Y7684D01*
X223331Y8347D01*
X226144Y11160D01*
X226250Y11181D01*
X228082Y12406D01*
X229307Y14238D01*
X229484Y15130D01*
X218692D01*
X218750Y14839D01*
X217906Y13569D01*
X203579D01*
X202885Y14839D01*
X203218Y16510D01*
X202830Y18461D01*
X202096Y19560D01*
X202766Y20830D01*
X205100D01*
Y29296D01*
X205315Y30365D01*
X206384Y30580D01*
X214850D01*
Y40580D01*
Y50580D01*
Y62080D01*
X206384D01*
X205315Y62295D01*
X205100Y63364D01*
Y64144D01*
X205147Y64214D01*
X205419Y65580D01*
Y72908D01*
X206462Y73722D01*
X207858Y73489D01*
X207923Y73436D01*
X208485Y72595D01*
X210139Y71490D01*
X212090Y71102D01*
X214041Y71490D01*
X215695Y72595D01*
X216800Y74249D01*
X217188Y76200D01*
X218231Y77203D01*
X225154D01*
X228320Y74037D01*
X228320Y74037D01*
X229313Y73374D01*
X230483Y73141D01*
X230483Y73141D01*
X277022D01*
X289565Y60598D01*
X289197Y59383D01*
X288879Y59320D01*
X287225Y58215D01*
X286120Y56561D01*
X285732Y54610D01*
X286120Y52659D01*
X287225Y51005D01*
X288879Y49900D01*
X290297Y49618D01*
X296758Y43158D01*
X296591Y42846D01*
Y37770D01*
X301667D01*
X301978Y37937D01*
X302079Y37837D01*
X303071Y37174D01*
X304242Y36941D01*
X304242Y36941D01*
X359250D01*
X359615Y36395D01*
X361269Y35290D01*
X363220Y34901D01*
X365171Y35290D01*
X366825Y36395D01*
X367930Y38049D01*
X368318Y39999D01*
X367930Y41950D01*
X366825Y43604D01*
X365171Y44709D01*
X363220Y45097D01*
X361269Y44709D01*
X359615Y43604D01*
X359250Y43058D01*
X336028D01*
X335429Y44178D01*
X335690Y44569D01*
X336078Y46520D01*
X335690Y48471D01*
X334585Y50125D01*
X332931Y51230D01*
X330980Y51618D01*
X329029Y51230D01*
X327375Y50125D01*
X327231Y49908D01*
X308907D01*
X305989Y52827D01*
X306474Y54000D01*
X317940D01*
Y63908D01*
X319050Y64382D01*
X319940Y63647D01*
Y54000D01*
X334940D01*
Y68000D01*
X324245D01*
X316130Y76115D01*
X315941Y76241D01*
Y88452D01*
X321941D01*
Y74952D01*
X341441D01*
Y79165D01*
X342375Y79789D01*
X353143Y90557D01*
X353143Y90557D01*
X353806Y91549D01*
X354039Y92720D01*
X354039Y92720D01*
Y170980D01*
X354585Y171345D01*
X355690Y172999D01*
X356078Y174950D01*
X355690Y176901D01*
X354585Y178555D01*
X352931Y179660D01*
X350980Y180048D01*
X349029Y179660D01*
X348273Y179155D01*
X348125Y179077D01*
X346614Y179527D01*
X346566Y179598D01*
X346566Y179598D01*
X332501Y193663D01*
X331509Y194326D01*
X330338Y194559D01*
X330338Y194559D01*
X200865D01*
X199694Y194326D01*
X198702Y193663D01*
X198702Y193663D01*
X185797Y180758D01*
X185134Y179766D01*
X184987Y179025D01*
X183960Y179229D01*
X182789Y178996D01*
X181960Y178442D01*
X181131Y178996D01*
X179960Y179229D01*
X179869Y179211D01*
X179106Y180354D01*
X179470Y180899D01*
X179858Y182850D01*
X179470Y184801D01*
X178365Y186455D01*
X176711Y187560D01*
X174760Y187948D01*
X172809Y187560D01*
X171155Y186455D01*
X170597Y185619D01*
X169689Y185013D01*
X167667Y182991D01*
X167004Y181998D01*
X166996Y181956D01*
X165781Y181240D01*
X165662Y181264D01*
X163830Y181628D01*
X162113Y181286D01*
X160843Y181959D01*
Y184985D01*
X160610Y186156D01*
X159947Y187148D01*
X151892Y195203D01*
X150900Y195866D01*
X150597Y195926D01*
X150722Y197196D01*
X397196D01*
Y2804D01*
D02*
G37*
G36*
X150229Y62600D02*
X149703Y61330D01*
X69099D01*
Y67150D01*
X69645Y67515D01*
X69783Y67721D01*
X115723D01*
X115940Y66629D01*
X117045Y64975D01*
X118699Y63870D01*
X120650Y63482D01*
X122601Y63870D01*
X124255Y64975D01*
X125360Y66629D01*
X125748Y68580D01*
X125376Y70451D01*
X125379Y70724D01*
X125912Y71721D01*
X141108D01*
X150229Y62600D01*
D02*
G37*
G36*
X202100Y61330D02*
X200600D01*
Y62330D01*
X203100D01*
X202100Y61330D01*
D02*
G37*
G36*
X178100D02*
X176600D01*
X175600Y62330D01*
X178100D01*
Y61330D01*
D02*
G37*
G36*
X205350Y57580D02*
X204350D01*
Y59080D01*
X205350Y60080D01*
Y57580D01*
D02*
G37*
G36*
X174350Y59080D02*
Y57580D01*
X173350D01*
Y60080D01*
X174350Y59080D01*
D02*
G37*
G36*
X205350Y32580D02*
X204350Y33580D01*
Y35080D01*
X205350D01*
Y32580D01*
D02*
G37*
G36*
X174350Y33580D02*
X173350Y32580D01*
Y35080D01*
X174350D01*
Y33580D01*
D02*
G37*
G36*
X203100Y30330D02*
X200600D01*
Y31330D01*
X202100D01*
X203100Y30330D01*
D02*
G37*
G36*
X178100D02*
X175600D01*
X176600Y31330D01*
X178100D01*
Y30330D01*
D02*
G37*
G36*
X4144Y13417D02*
X4807Y12424D01*
X7564Y9667D01*
X7564Y9667D01*
X8557Y9004D01*
X9727Y8771D01*
X47780D01*
X47780Y8771D01*
X48951Y9004D01*
X49943Y9667D01*
X50897Y10621D01*
X52070Y10135D01*
Y2804D01*
X2804D01*
Y13645D01*
X4074Y13770D01*
X4144Y13417D01*
D02*
G37*
%LPC*%
G36*
X74930Y181438D02*
X74232Y181346D01*
X72397Y180586D01*
X71770Y180105D01*
X70500Y180731D01*
Y181000D01*
X56500D01*
Y167000D01*
X70500D01*
Y167269D01*
X71770Y167895D01*
X72397Y167414D01*
X74232Y166654D01*
X74930Y166562D01*
Y174000D01*
Y181438D01*
D02*
G37*
G36*
X42250Y179088D02*
X40299Y178700D01*
X38645Y177595D01*
X37540Y175941D01*
X37152Y173990D01*
X37540Y172039D01*
X38645Y170385D01*
X39191Y170020D01*
Y160460D01*
X39191Y160460D01*
X39424Y159289D01*
X40087Y158297D01*
X61070Y137314D01*
X60942Y136670D01*
X61330Y134719D01*
X62435Y133065D01*
X64089Y131960D01*
X66040Y131572D01*
X67991Y131960D01*
X69645Y133065D01*
X70750Y134719D01*
X71138Y136670D01*
X70750Y138621D01*
X69645Y140275D01*
X67991Y141380D01*
X66040Y141768D01*
X65396Y141640D01*
X45309Y161727D01*
Y170020D01*
X45855Y170385D01*
X46960Y172039D01*
X47348Y173990D01*
X46960Y175941D01*
X45855Y177595D01*
X44201Y178700D01*
X42250Y179088D01*
D02*
G37*
G36*
X37290Y66870D02*
X33020D01*
Y63100D01*
X37290D01*
Y66870D01*
D02*
G37*
G36*
Y60560D02*
X33020D01*
Y56790D01*
X37290D01*
Y60560D01*
D02*
G37*
G36*
X26470Y119398D02*
X24519Y119010D01*
X22865Y117905D01*
X21760Y116251D01*
X21372Y114300D01*
X21760Y112349D01*
X22865Y110695D01*
X24519Y109590D01*
X26470Y109202D01*
X28421Y109590D01*
X30075Y110695D01*
X30680Y110755D01*
X39841Y101594D01*
Y55904D01*
X38645Y55105D01*
X37540Y53451D01*
X37152Y51500D01*
X37540Y49549D01*
X38645Y47895D01*
X40299Y46790D01*
X42250Y46402D01*
X44201Y46790D01*
X45855Y47895D01*
X46960Y49549D01*
X47348Y51500D01*
X46960Y53451D01*
X45959Y54949D01*
Y102861D01*
X45726Y104031D01*
X45063Y105024D01*
X33624Y116463D01*
X32631Y117126D01*
X31461Y117359D01*
X31461Y117359D01*
X30440D01*
X30075Y117905D01*
X28421Y119010D01*
X26470Y119398D01*
D02*
G37*
G36*
X31750Y50476D02*
Y46350D01*
X35876D01*
X35699Y47242D01*
X34474Y49074D01*
X32642Y50299D01*
X31750Y50476D01*
D02*
G37*
G36*
X225085Y158315D02*
Y154189D01*
X229210D01*
X229033Y155080D01*
X227809Y156913D01*
X225976Y158137D01*
X225085Y158315D01*
D02*
G37*
G36*
X222545D02*
X221653Y158137D01*
X219820Y156913D01*
X218596Y155080D01*
X218419Y154189D01*
X222545D01*
Y158315D01*
D02*
G37*
G36*
X229210Y151649D02*
X218419D01*
X218596Y150757D01*
X219820Y148925D01*
X220246Y148640D01*
Y146045D01*
X218440Y144239D01*
Y139192D01*
X223487D01*
X226338Y142043D01*
X227111Y143201D01*
X227383Y144567D01*
Y148640D01*
X227809Y148925D01*
X229033Y150757D01*
X229210Y151649D01*
D02*
G37*
G36*
X264960Y141505D02*
Y137379D01*
X269086D01*
X268909Y138271D01*
X267684Y140104D01*
X265851Y141328D01*
X264960Y141505D01*
D02*
G37*
G36*
X262420D02*
X261528Y141328D01*
X259696Y140104D01*
X258471Y138271D01*
X258294Y137379D01*
X262420D01*
Y141505D01*
D02*
G37*
G36*
X294051Y41896D02*
X293159Y41719D01*
X291327Y40494D01*
X290102Y38662D01*
X289925Y37770D01*
X294051D01*
Y41896D01*
D02*
G37*
G36*
X300717Y35230D02*
X296591D01*
Y31104D01*
X297482Y31281D01*
X299315Y32506D01*
X300539Y34339D01*
X300717Y35230D01*
D02*
G37*
G36*
X294051D02*
X289925D01*
X290102Y34339D01*
X291327Y32506D01*
X293159Y31281D01*
X294051Y31104D01*
Y35230D01*
D02*
G37*
G36*
X225358Y21796D02*
Y17670D01*
X229484D01*
X229307Y18562D01*
X228082Y20394D01*
X226250Y21618D01*
X225358Y21796D01*
D02*
G37*
G36*
X222818D02*
X221926Y21618D01*
X220094Y20394D01*
X218869Y18562D01*
X218692Y17670D01*
X222818D01*
Y21796D01*
D02*
G37*
%LPD*%
D12*
X324419Y63500D02*
X329210D01*
X344403Y136233D02*
Y177435D01*
X338403Y130233D02*
X344403Y136233D01*
X330338Y191500D02*
X344403Y177435D01*
X288660Y148000D02*
X296960Y139700D01*
X306070D01*
X209550Y113030D02*
X209864D01*
X85040Y124880D02*
X135890D01*
X164670D01*
X209807Y129609D02*
X217170D01*
X288290Y120650D02*
X293370Y125730D01*
X251460Y120650D02*
X288290D01*
X168300Y102552D02*
Y117853D01*
X183960Y118560D02*
Y134420D01*
X203360Y77812D02*
Y82628D01*
X175260Y110728D02*
X203360Y82628D01*
X218440Y102870D02*
Y104481D01*
Y93900D02*
Y102870D01*
X216829D02*
X218440Y104481D01*
Y93900D02*
X232140Y80200D01*
X209864Y113030D02*
X211333Y114499D01*
X228549D01*
X194488Y119030D02*
X233379D01*
X193100Y120418D02*
X194488Y119030D01*
X159122Y89300D02*
X174875D01*
X170620Y72830D02*
X177898D01*
X170180Y72390D02*
X170620Y72830D01*
X177898D02*
X181960Y76892D01*
X154892Y79730D02*
X175960D01*
X181960Y76892D02*
Y82215D01*
X174875Y89300D02*
X181960Y82215D01*
X170100Y70878D02*
X170180Y70958D01*
Y72390D01*
X154751Y79589D02*
X154892Y79730D01*
X307640Y46850D02*
X330980D01*
X174193Y96659D02*
X193040Y77812D01*
X168300Y102552D02*
X174193Y96659D01*
X132529D02*
X174193D01*
X120650Y84780D02*
X132529Y96659D01*
X204960Y105760D02*
X210703D01*
X210734Y105729D01*
X233379Y119030D02*
X236399Y116010D01*
X207368Y127170D02*
X209807Y129609D01*
X198303Y127170D02*
X207368D01*
X196646Y123170D02*
X228875D01*
X210734Y105729D02*
X215504Y110499D01*
X216829Y102870D02*
X218440D01*
X215504Y110499D02*
X223357D01*
X193100Y120418D02*
Y120595D01*
X189585Y124110D02*
X193100Y120595D01*
X189408Y124110D02*
X189585D01*
X189408D02*
X189497Y124199D01*
Y124199D01*
X187960Y125735D02*
X189497Y124199D01*
X191960Y127856D02*
X196646Y123170D01*
X191960Y127856D02*
Y134420D01*
X195960Y129513D02*
Y134420D01*
Y129513D02*
X198303Y127170D01*
X187960Y125735D02*
Y134420D01*
X216152Y80262D02*
X226421D01*
X212090Y76200D02*
X216152Y80262D01*
X226421D02*
X230483Y76200D01*
X278289D01*
X174210Y134420D02*
X175960D01*
X164670Y124880D02*
X174210Y134420D01*
X143510Y165100D02*
X144707D01*
X154130Y152400D02*
X156652D01*
X169830Y165670D02*
Y180828D01*
X171852Y182850D02*
X174760D01*
X169830Y180828D02*
X171852Y182850D01*
X163065Y175765D02*
X163830Y176530D01*
X157784Y178177D02*
Y184985D01*
X144707Y165100D02*
X157784Y178177D01*
X129800Y193040D02*
X149729D01*
X157784Y184985D01*
X160622Y175358D02*
X161028Y175765D01*
X163065D01*
X168710Y165670D02*
X169830D01*
X160622Y164670D02*
Y175358D01*
X148940Y161235D02*
X152455Y164750D01*
X148940Y155940D02*
Y161235D01*
X160622Y164670D02*
X163622Y161670D01*
X160542Y164750D02*
X160622Y164670D01*
X154940Y158750D02*
X156022D01*
X157102Y157670D01*
X168710D01*
X148940Y155940D02*
X152823Y152057D01*
X153786D01*
X154130Y152400D01*
X153703Y144750D02*
X159122D01*
X160042Y145670D01*
X168710D01*
X152455Y164750D02*
X160542D01*
X150623Y141670D02*
X153703Y144750D01*
X156652Y152400D02*
X159382Y149670D01*
X192236Y10510D02*
X221168D01*
X228875Y123170D02*
X259705Y154000D01*
X310141D01*
X310641Y154500D01*
X191850Y10896D02*
X192236Y10510D01*
X183112D02*
X191850D01*
X262190Y148000D02*
X288660D01*
X255595Y116300D02*
X269500D01*
X253945Y114650D02*
X255595Y116300D01*
X248975Y114650D02*
X253945D01*
X247615Y116010D02*
X248975Y114650D01*
X236399Y116010D02*
X247615D01*
X224088Y13430D02*
Y16400D01*
X221168Y10510D02*
X224088Y13430D01*
X183023Y10421D02*
X183112Y10510D01*
X185420Y16510D02*
X186592Y17682D01*
X181600Y21175D02*
Y26830D01*
X179420Y18995D02*
X181600Y21175D01*
X179420Y14025D02*
Y18995D01*
Y14025D02*
X183023Y10421D01*
X176850Y22590D02*
Y27080D01*
X172040Y17780D02*
X176850Y22590D01*
X191850Y10896D02*
Y27080D01*
X164510Y17780D02*
X172040D01*
X285294Y80200D02*
X295594Y69900D01*
X278289Y76200D02*
X307640Y46850D01*
X232140Y80200D02*
X285294D01*
X186592Y17682D02*
X186850D01*
X181600Y26830D02*
X181850Y27080D01*
X325887Y164832D02*
X336005Y174950D01*
X245520Y164832D02*
X325887D01*
X238288Y172064D02*
X245520Y164832D01*
X238288Y172064D02*
Y179921D01*
X234773Y183435D02*
X238288Y179921D01*
X200865Y191500D02*
X330338D01*
X187960Y178595D02*
X200865Y191500D01*
X336005Y174950D02*
X338403D01*
X214485Y183435D02*
X234773D01*
X163622Y161670D02*
X168710D01*
X313967Y73952D02*
X324419Y63500D01*
X297198Y73952D02*
X313967D01*
X274000Y94800D02*
X276350D01*
X244862D02*
X274000D01*
X269500Y116300D02*
X274000Y111800D01*
X290830Y53411D02*
Y54610D01*
Y53411D02*
X304242Y39999D01*
X363220D01*
X168710Y153670D02*
X183600D01*
X184860Y150570D02*
X185945Y151655D01*
X186850Y17682D02*
Y27080D01*
X196850Y17682D02*
Y27080D01*
X146860Y78780D02*
X160130Y65510D01*
X84130Y78780D02*
X146860D01*
X142375Y74780D02*
X154130Y63025D01*
X70865Y74780D02*
X142375D01*
X170100Y58830D02*
Y70878D01*
X154130Y28160D02*
X164510Y17780D01*
X154130Y28160D02*
Y63025D01*
X160130Y54131D02*
Y65510D01*
X242570Y93590D02*
X243652D01*
X244862Y94800D01*
X295594Y69900D02*
X306440D01*
X276350Y94800D02*
X297198Y73952D01*
X306440Y69900D02*
X310440Y65900D01*
X330980Y46520D02*
Y46850D01*
X168300Y117853D02*
X179960Y129513D01*
Y134420D01*
X184860Y140227D02*
Y150570D01*
X183960Y139327D02*
X184860Y140227D01*
X183960Y134420D02*
Y139327D01*
X187960Y172920D02*
Y178595D01*
X77470Y85440D02*
X84130Y78780D01*
X66245Y79400D02*
X70865Y74780D01*
X66040Y79400D02*
X66245D01*
X119568Y68580D02*
X120650D01*
X117368Y70780D02*
X119568Y68580D01*
X66380Y70780D02*
X117368D01*
X66040Y71120D02*
X66380Y70780D01*
X59690Y49760D02*
Y99530D01*
X47260Y37330D02*
X59690Y49760D01*
Y99530D02*
X85040Y124880D01*
X231096Y102760D02*
X233680Y100330D01*
X234343D01*
X223357Y110499D02*
X231096Y102760D01*
X228549Y114499D02*
X234288Y108760D01*
X340212Y81952D02*
X350980Y92720D01*
X331691Y81952D02*
X340212D01*
X350980Y92720D02*
Y174950D01*
X332123Y123952D02*
X335280Y127109D01*
X337561D01*
X331691Y123952D02*
X332123D01*
X337561Y127109D02*
X338403Y127952D01*
X329910Y123952D02*
X331691D01*
X338403Y127952D02*
Y130233D01*
X42250Y160460D02*
Y173990D01*
Y160460D02*
X66040Y136670D01*
X299441Y127952D02*
X303441Y123952D01*
X306191D01*
X329910D01*
X325910Y119952D02*
X329910Y123952D01*
X325910Y114452D02*
Y119952D01*
X316868Y105410D02*
X325910Y114452D01*
X314040Y105410D02*
X316868D01*
X314040D02*
X316498Y102952D01*
X318941D01*
X165460Y141509D02*
Y141670D01*
X159621Y135670D02*
X165460Y141509D01*
X110512Y135670D02*
X159621D01*
X106672Y139509D02*
X110512Y135670D01*
X106340Y139509D02*
X106672D01*
X165460Y141670D02*
X168710D01*
X115400D02*
X150623D01*
X43370Y37330D02*
X47260D01*
X42870Y36830D02*
X43370Y37330D01*
X42870Y30330D02*
X62800D01*
X66040Y33570D01*
Y71120D01*
X159382Y149670D02*
X168710D01*
X9727Y11830D02*
X47780D01*
X6970Y14587D02*
Y47229D01*
X48556Y23774D02*
X49920Y22410D01*
X42926Y23774D02*
X48556D01*
X42870Y23830D02*
X42926Y23774D01*
X49920Y13970D02*
Y22410D01*
X47780Y11830D02*
X49920Y13970D01*
X6970Y14587D02*
X9727Y11830D01*
X6970Y47229D02*
X9441Y49700D01*
Y50000D01*
X10941Y51500D01*
X11241D01*
X42900Y52150D02*
Y102861D01*
X31461Y114300D02*
X42900Y102861D01*
X26470Y114300D02*
X31461D01*
X42250Y51500D02*
X42900Y52150D01*
D67*
X31750Y61830D02*
D03*
X21750D02*
D03*
X21441Y51500D02*
D03*
X11441D02*
D03*
D83*
X274000Y111800D02*
D03*
Y94800D02*
D03*
D87*
X327641Y153860D02*
X331641D01*
X21441Y51500D02*
Y67359D01*
X14686Y36830D02*
Y42830D01*
X326493Y132452D02*
X335711Y141670D01*
X290900Y132452D02*
X326493D01*
X286458Y128010D02*
X290900Y132452D01*
X267890Y128010D02*
X286458D01*
X264044Y131856D02*
Y135756D01*
Y131856D02*
X267890Y128010D01*
X263690Y136109D02*
X264044Y135756D01*
X84700Y182500D02*
X151784D01*
X76200Y174000D02*
X84700Y182500D01*
X334801Y157020D02*
X337100D01*
X167350Y24330D02*
Y33580D01*
X220615Y177435D02*
X232288D01*
X218440Y175260D02*
X220615Y177435D01*
X331641Y153860D02*
X334801Y157020D01*
X217170Y137922D02*
X223815Y144567D01*
Y152919D01*
X17920Y30330D02*
X25170D01*
X13970D02*
X17920D01*
X21470Y33880D01*
Y42543D01*
X23227Y44300D01*
X27579D01*
X27785Y44506D01*
X29906D01*
X30480Y45080D01*
X20941Y51500D02*
X21441D01*
X19941Y50500D02*
X20941Y51500D01*
X19941Y48085D02*
Y50500D01*
X14686Y42830D02*
X19941Y48085D01*
X13970Y36830D02*
X14686D01*
X28420Y23398D02*
Y27080D01*
X25170Y30330D02*
X28420Y27080D01*
X25170Y23830D02*
X28420Y27080D01*
X13970Y23830D02*
X25170D01*
X22420Y17398D02*
X28420Y23398D01*
X18738Y17398D02*
X22420D01*
X18670Y17330D02*
X18738Y17398D01*
X13970Y17330D02*
X18670D01*
X28420Y23398D02*
X34420Y17398D01*
X38102D01*
X38170Y17330D01*
X42870D01*
X203360Y77000D02*
Y77812D01*
X193040Y77720D02*
Y77812D01*
X329941Y80202D02*
X331691Y81952D01*
X10441Y78359D02*
Y127670D01*
Y78359D02*
X21441Y67359D01*
X11241Y51500D02*
X11242Y51500D01*
X11441D01*
X193040Y77720D02*
X196850Y73910D01*
Y65580D02*
Y73910D01*
X201850Y75490D02*
X203360Y77000D01*
X201850Y65580D02*
Y75490D01*
X167350Y33580D02*
X167600Y33830D01*
X170100D01*
D90*
X255000Y180000D02*
D03*
X223357Y71715D02*
D03*
X233680Y44655D02*
D03*
X335711Y141670D02*
D03*
X306070Y139700D02*
D03*
X209550Y113030D02*
D03*
X135890Y124880D02*
D03*
X217170Y129609D02*
D03*
X183960Y118560D02*
D03*
X175260Y110728D02*
D03*
X154751Y79589D02*
D03*
X170180Y72390D02*
D03*
X175960Y79730D02*
D03*
X159122Y89300D02*
D03*
X204960Y105760D02*
D03*
X218440Y102870D02*
D03*
X163830Y176530D02*
D03*
X151784Y182500D02*
D03*
X174760Y182850D02*
D03*
X143510Y165100D02*
D03*
X86320Y134313D02*
D03*
X263690Y136109D02*
D03*
X154130Y150750D02*
D03*
X154940Y158750D02*
D03*
X129800Y193040D02*
D03*
X262190Y148000D02*
D03*
X251460Y120650D02*
D03*
X224088Y16400D02*
D03*
X198120Y16510D02*
D03*
X185420D02*
D03*
X167350Y24330D02*
D03*
X160130Y54131D02*
D03*
X212090Y76200D02*
D03*
X218440Y175260D02*
D03*
X214485Y183435D02*
D03*
X295321Y36500D02*
D03*
X217170Y137922D02*
D03*
X290830Y54610D02*
D03*
X363220Y39999D02*
D03*
X30480Y45080D02*
D03*
X193100Y151670D02*
D03*
X223815Y152919D02*
D03*
X242570Y93590D02*
D03*
X232288Y177435D02*
D03*
X77470Y85440D02*
D03*
X120650Y68580D02*
D03*
X293370Y125730D02*
D03*
X233680Y100330D02*
D03*
X234288Y108760D02*
D03*
X203360Y77812D02*
D03*
X193040D02*
D03*
X330980Y46520D02*
D03*
X350980Y174950D02*
D03*
X338403D02*
D03*
X42250Y173990D02*
D03*
X66040Y136670D02*
D03*
X106340Y139509D02*
D03*
X115400Y141670D02*
D03*
X120650Y84780D02*
D03*
X66040Y71120D02*
D03*
X337100Y157020D02*
D03*
X10441Y127670D02*
D03*
X66040Y79400D02*
D03*
X26470Y114300D02*
D03*
X42250Y51500D02*
D03*
D91*
X114300Y174000D02*
D03*
X101600D02*
D03*
X88900D02*
D03*
X76200D02*
D03*
D92*
X63500D02*
D03*
D93*
X209100Y58830D02*
D03*
Y33830D02*
D03*
X169600D02*
D03*
Y58830D02*
D03*
D94*
X208600Y53830D02*
D03*
Y48830D02*
D03*
Y43830D02*
D03*
Y38830D02*
D03*
X170100D02*
D03*
Y43830D02*
D03*
Y48830D02*
D03*
Y53830D02*
D03*
D95*
X201850Y26580D02*
D03*
X176850D02*
D03*
Y66080D02*
D03*
X201850D02*
D03*
D96*
X196850Y27080D02*
D03*
X191850D02*
D03*
X186850D02*
D03*
X181850D02*
D03*
Y65580D02*
D03*
X186850D02*
D03*
X191850D02*
D03*
X196850D02*
D03*
D97*
X189350Y46330D02*
D03*
D98*
X168710Y141670D02*
D03*
Y145670D02*
D03*
Y149670D02*
D03*
Y153670D02*
D03*
Y157670D02*
D03*
Y161670D02*
D03*
Y165670D02*
D03*
X207210D02*
D03*
Y161670D02*
D03*
Y157670D02*
D03*
Y153670D02*
D03*
Y149670D02*
D03*
Y145670D02*
D03*
Y141670D02*
D03*
D99*
X175960Y172920D02*
D03*
X179960D02*
D03*
X183960D02*
D03*
X187960D02*
D03*
X191960D02*
D03*
X195960D02*
D03*
X199960D02*
D03*
Y134420D02*
D03*
X195960D02*
D03*
X191960D02*
D03*
X187960D02*
D03*
X183960D02*
D03*
X179960D02*
D03*
X175960D02*
D03*
D100*
X187960Y153670D02*
D03*
D101*
X318941Y102952D02*
D03*
D102*
X306191Y81952D02*
D03*
X331691Y123952D02*
D03*
X306191D02*
D03*
X331691Y81952D02*
D03*
D103*
X310440Y61000D02*
D03*
X327440D02*
D03*
X310641Y155000D02*
D03*
X327641D02*
D03*
D104*
X28420Y27080D02*
D03*
D105*
X13970Y17330D02*
D03*
Y23830D02*
D03*
Y30330D02*
D03*
Y36830D02*
D03*
X42870Y17330D02*
D03*
Y23830D02*
D03*
Y30330D02*
D03*
Y36830D02*
D03*
M02*
