G04*
G04 #@! TF.GenerationSoftware,Altium Limited,Altium Designer,19.0.14 (431)*
G04*
G04 Layer_Physical_Order=1*
G04 Layer_Color=255*
%FSLAX44Y44*%
%MOMM*%
G71*
G01*
G75*
%ADD11C,0.2540*%
%ADD12C,0.2000*%
%ADD44R,0.2500X0.5500*%
%ADD65R,0.5000X0.6000*%
%ADD66R,0.9000X1.8000*%
%ADD67R,0.6000X0.5000*%
%ADD68R,0.9000X0.8000*%
%ADD69R,2.7000X1.7000*%
%ADD70R,0.5000X0.7500*%
%ADD71R,0.6500X0.6500*%
%ADD72R,1.3500X0.4000*%
%ADD73R,1.3500X0.6500*%
%ADD74R,1.2000X1.7000*%
%ADD75R,0.5000X1.0000*%
%ADD76R,1.0000X0.2500*%
%ADD77R,2.4000X1.6500*%
%ADD78R,0.2500X0.6000*%
%ADD79R,0.7000X0.9000*%
%ADD80R,1.0000X0.6000*%
%ADD81R,0.4100X0.9100*%
%ADD82R,0.9100X0.4100*%
%ADD83R,1.0000X1.1000*%
%ADD84R,1.3000X1.3000*%
%ADD85R,1.0000X0.5000*%
%ADD86R,1.7000X1.2000*%
%ADD87C,0.3000*%
%ADD88R,0.5000X0.9793*%
%ADD89R,1.0790X1.0299*%
%ADD90C,0.6000*%
%ADD91C,1.0000*%
%ADD92R,1.0000X1.0000*%
G36*
X71560Y195926D02*
X71017Y195563D01*
X60977Y185523D01*
X60203Y184366D01*
X59931Y183000D01*
Y181000D01*
X56500D01*
Y173977D01*
X55594Y173797D01*
X54436Y173023D01*
X45737Y164323D01*
X44963Y163166D01*
X44691Y161800D01*
Y139633D01*
X36297Y131239D01*
X14070D01*
X14046Y131275D01*
X12392Y132380D01*
X10441Y132768D01*
X8490Y132380D01*
X6837Y131275D01*
X5731Y129621D01*
X5343Y127670D01*
X5731Y125719D01*
X6837Y124065D01*
X6873Y124041D01*
Y113500D01*
X5500D01*
Y102000D01*
X14230D01*
X14500Y102000D01*
X15500D01*
X15770Y102000D01*
X24500D01*
Y108004D01*
X25826Y109330D01*
X26470Y109202D01*
X28421Y109590D01*
X30075Y110695D01*
X31180Y112349D01*
X31568Y114300D01*
X31180Y116251D01*
X30075Y117905D01*
X28421Y119010D01*
X26470Y119398D01*
X24519Y119010D01*
X22865Y117905D01*
X21760Y116251D01*
X21372Y114300D01*
X20236Y113500D01*
X15770D01*
X15500Y113500D01*
X14500D01*
X14010Y113990D01*
Y124041D01*
X14046Y124065D01*
X14070Y124101D01*
X37775D01*
X39141Y124373D01*
X40298Y125147D01*
X50783Y135632D01*
X50986Y135935D01*
X52616Y136098D01*
X90921Y97793D01*
Y90534D01*
X83670Y83282D01*
X83425Y83327D01*
X82436Y84779D01*
X82568Y85440D01*
X82180Y87391D01*
X81075Y89045D01*
X79421Y90150D01*
X77470Y90538D01*
X75519Y90150D01*
X75383Y90059D01*
X64150D01*
Y91050D01*
X54346D01*
X54050Y91109D01*
X53754Y91050D01*
X51050D01*
X51050Y91050D01*
Y91050D01*
X51050Y91050D01*
X49869Y91266D01*
X47173Y93963D01*
X46181Y94626D01*
X45360Y94789D01*
Y96750D01*
X36630D01*
X35360Y96750D01*
X34090Y96750D01*
X25360D01*
X24500Y97664D01*
Y98000D01*
X15770D01*
X15500Y98000D01*
X14500D01*
X14230Y98000D01*
X5500D01*
Y86500D01*
X6945D01*
X7174Y85350D01*
X7837Y84357D01*
X13077Y79117D01*
X13077Y79117D01*
X14070Y78454D01*
X15240Y78221D01*
X15240Y78221D01*
X20772D01*
X21670Y77323D01*
Y76780D01*
X21670Y75510D01*
Y67300D01*
X23611D01*
Y63860D01*
X23611Y63860D01*
X23844Y62690D01*
X24507Y61697D01*
X36796Y49409D01*
X36771Y49103D01*
X36375Y48139D01*
X35099D01*
X34474Y49074D01*
X32642Y50299D01*
X31750Y50476D01*
Y45080D01*
X29210D01*
Y50476D01*
X28318Y50299D01*
X27560Y49792D01*
X26290Y50471D01*
Y58040D01*
X16520D01*
Y49500D01*
X15250D01*
Y48230D01*
X4210D01*
Y40960D01*
X15549D01*
X15753Y39934D01*
X16527Y38777D01*
X18681Y36622D01*
Y27080D01*
Y19040D01*
X16520D01*
Y11770D01*
X26290D01*
Y19040D01*
X25819D01*
Y22431D01*
X27210D01*
Y20960D01*
X33480D01*
Y26000D01*
X36020D01*
Y20960D01*
X42290D01*
Y25795D01*
X43463Y26281D01*
X46107Y23637D01*
X46107Y23637D01*
X47099Y22974D01*
X48270Y22741D01*
X48270Y22741D01*
X52070D01*
Y2804D01*
X26290D01*
Y9230D01*
X15250D01*
X4210D01*
Y2804D01*
X2804D01*
Y197196D01*
X4210D01*
Y190770D01*
X15250D01*
X26290D01*
Y197196D01*
X71174D01*
X71560Y195926D01*
D02*
G37*
G36*
X397196Y2804D02*
X374290D01*
Y10260D01*
X357210D01*
Y2804D01*
X335290D01*
Y10260D01*
X318210D01*
Y2804D01*
X225039D01*
X224653Y4074D01*
X224823Y4187D01*
X232251Y11615D01*
X232251Y11615D01*
X232914Y12607D01*
X233147Y13778D01*
X233147Y13778D01*
Y35342D01*
X233147Y35342D01*
X232914Y36513D01*
X232251Y37505D01*
X232251Y37505D01*
X228750Y41006D01*
Y53581D01*
X238281D01*
X239646Y53853D01*
X240804Y54627D01*
X251351Y65174D01*
X252621Y64983D01*
Y52538D01*
X250083Y49999D01*
X238129D01*
Y32999D01*
X255129D01*
Y44953D01*
X258713Y48537D01*
X259487Y49694D01*
X259759Y51060D01*
Y64769D01*
X259920D01*
Y70059D01*
X262460D01*
Y64769D01*
X264920D01*
Y70059D01*
X267460D01*
Y64769D01*
X267621D01*
Y46920D01*
X267893Y45554D01*
X268111Y45229D01*
Y32999D01*
X283372D01*
Y27560D01*
X283644Y26194D01*
X284418Y25036D01*
X287847Y21607D01*
X289005Y20833D01*
X290371Y20561D01*
X318210D01*
Y12800D01*
X335290D01*
Y20561D01*
X337910D01*
X339276Y20833D01*
X340433Y21607D01*
X342857Y24030D01*
X345210D01*
Y23490D01*
X348980D01*
Y31030D01*
Y38570D01*
X346184D01*
Y39927D01*
X347440Y39959D01*
Y39959D01*
X351710D01*
Y44999D01*
Y50039D01*
X347440D01*
Y49499D01*
X345129D01*
Y75050D01*
X344857Y76416D01*
X344560Y76860D01*
Y78510D01*
X345850D01*
Y83010D01*
X350850D01*
Y85530D01*
X343310D01*
Y88070D01*
X350850D01*
Y90530D01*
X343310D01*
Y93070D01*
X350850D01*
Y95590D01*
X345850D01*
Y100090D01*
X344560D01*
Y108300D01*
X343062D01*
X342383Y109570D01*
X342552Y109821D01*
X348560D01*
Y109380D01*
X354600D01*
X354843Y108160D01*
X355081Y107803D01*
Y56140D01*
X355081Y56140D01*
X355314Y54970D01*
X355977Y53977D01*
X358733Y51221D01*
X358119Y50039D01*
X354250D01*
Y44999D01*
Y39959D01*
X358130D01*
X358510Y38049D01*
X359615Y36395D01*
X361269Y35290D01*
X363220Y34901D01*
X365171Y35290D01*
X366825Y36395D01*
X367930Y38049D01*
X368318Y39999D01*
X367930Y41950D01*
X366825Y43604D01*
X366279Y43969D01*
Y51060D01*
X366279Y51060D01*
X366046Y52231D01*
X365383Y53223D01*
X365383Y53223D01*
X361199Y57407D01*
Y107803D01*
X361437Y108160D01*
X361709Y109525D01*
Y109821D01*
X363360D01*
Y102500D01*
Y91540D01*
X362820D01*
Y87020D01*
X372110D01*
X381400D01*
Y91540D01*
X380860D01*
Y102500D01*
Y109000D01*
Y118991D01*
X381490Y119116D01*
X382152Y119558D01*
X382594Y120220D01*
X382749Y121000D01*
Y132061D01*
X392210D01*
X392990Y132216D01*
X393652Y132658D01*
X394094Y133320D01*
X394249Y134100D01*
Y146100D01*
X394094Y146880D01*
X393652Y147542D01*
X392990Y147984D01*
X392210Y148139D01*
X370410D01*
X369630Y147984D01*
X368968Y147542D01*
X368526Y146880D01*
X368371Y146100D01*
Y135039D01*
X365410D01*
X364630Y134884D01*
X363968Y134442D01*
X363526Y133780D01*
X363371Y133000D01*
Y129838D01*
X362659Y129697D01*
X361501Y128923D01*
X360527Y127949D01*
X358100D01*
Y129920D01*
X354330D01*
Y124380D01*
X353060D01*
Y123110D01*
X348020D01*
Y118840D01*
X348560D01*
Y116959D01*
X340191D01*
X338826Y116687D01*
X337668Y115913D01*
X335606Y113852D01*
X334242Y114283D01*
X334136Y114815D01*
X333473Y115807D01*
X333473Y115807D01*
X320590Y128690D01*
X321216Y129860D01*
X321612Y129781D01*
X337058D01*
X338424Y130053D01*
X339581Y130827D01*
X352583Y143829D01*
X353357Y144986D01*
X353629Y146352D01*
Y161983D01*
X353357Y163349D01*
X352583Y164506D01*
X347064Y170026D01*
X347874Y171012D01*
X349029Y170240D01*
X350980Y169852D01*
X352931Y170240D01*
X354585Y171345D01*
X355690Y172999D01*
X356078Y174950D01*
X355690Y176901D01*
X354585Y178555D01*
X352931Y179660D01*
X350980Y180048D01*
X349029Y179660D01*
X347375Y178555D01*
X347010Y178009D01*
X342373D01*
X342008Y178555D01*
X340354Y179660D01*
X338403Y180048D01*
X336452Y179660D01*
X335274Y180400D01*
X335200Y180774D01*
X334426Y181931D01*
X332144Y184213D01*
X330987Y184987D01*
X329621Y185259D01*
X318467D01*
Y186690D01*
X318467D01*
Y186690D01*
X318467D01*
Y191507D01*
X318656Y191789D01*
X318889Y192960D01*
X318656Y194130D01*
X318467Y194413D01*
Y196690D01*
X319528Y197196D01*
X397196D01*
Y2804D01*
D02*
G37*
G36*
X209269Y174412D02*
X210427Y173638D01*
X211792Y173367D01*
X213719D01*
X213730Y173309D01*
X214835Y171655D01*
X216489Y170550D01*
X218238Y170202D01*
X218887Y169055D01*
X214791Y164959D01*
X214018Y163801D01*
X213746Y162436D01*
Y148976D01*
X214018Y147611D01*
X214791Y146453D01*
X216510Y144734D01*
X216092Y143356D01*
X215008Y143141D01*
X213176Y141916D01*
X212892Y141491D01*
X207656D01*
X198747Y150400D01*
X193100D01*
Y151670D01*
X191830D01*
Y157066D01*
X190938Y156889D01*
X189910Y156201D01*
X188640Y156880D01*
Y158750D01*
X183100D01*
Y160020D01*
X181830D01*
Y165060D01*
X177560D01*
Y164520D01*
X168100D01*
Y163079D01*
X157461D01*
X156891Y163460D01*
X154940Y163848D01*
X152989Y163460D01*
X151335Y162355D01*
X150230Y160701D01*
X149842Y158750D01*
X150230Y156799D01*
X150745Y156029D01*
X150525Y154355D01*
X150197Y153865D01*
X148501Y153612D01*
X148250Y153817D01*
Y157950D01*
X147259D01*
Y161490D01*
X147259Y161490D01*
X147225Y161660D01*
X148220Y163149D01*
X148608Y165100D01*
X148220Y167051D01*
X147650Y167904D01*
X148478Y168950D01*
X152460D01*
Y173990D01*
X155000D01*
Y168950D01*
X159270D01*
Y172243D01*
X160540Y172715D01*
X161879Y171820D01*
X163830Y171432D01*
X165781Y171820D01*
X167435Y172925D01*
X167878Y173588D01*
X169786D01*
X169960Y173414D01*
Y168420D01*
X179420D01*
Y167880D01*
X183690D01*
Y172920D01*
X184960D01*
Y174190D01*
X190500D01*
Y175367D01*
X208314D01*
X209269Y174412D01*
D02*
G37*
G36*
X125129Y181084D02*
Y172450D01*
X132388D01*
X132951Y171192D01*
X132458Y170569D01*
X132259D01*
X131663Y170450D01*
X125129D01*
Y168568D01*
X123300D01*
X121934Y168297D01*
X120777Y167523D01*
X118977Y165723D01*
X118203Y164566D01*
X118104Y164069D01*
X108967D01*
X108481Y165242D01*
X111021Y167782D01*
X112473Y167180D01*
X114300Y166940D01*
X116127Y167180D01*
X117830Y167885D01*
X119292Y169007D01*
X120414Y170470D01*
X121120Y172173D01*
X121360Y174000D01*
X121120Y175827D01*
X120414Y177530D01*
X119292Y178992D01*
X117830Y180114D01*
X116127Y180820D01*
X114300Y181060D01*
X112473Y180820D01*
X110770Y180114D01*
X109308Y178992D01*
X108737Y178249D01*
X107163D01*
X106592Y178992D01*
X105130Y180114D01*
X103427Y180820D01*
X101600Y181060D01*
X99773Y180820D01*
X98070Y180114D01*
X96608Y178992D01*
X96037Y178249D01*
X94463D01*
X93892Y178992D01*
X92430Y180114D01*
X90727Y180820D01*
X88900Y181060D01*
X87073Y180820D01*
X85370Y180114D01*
X83908Y178992D01*
X83691Y178710D01*
X82090D01*
X81578Y179377D01*
X80002Y180586D01*
X78168Y181346D01*
X77470Y181438D01*
Y174000D01*
X74930D01*
Y181438D01*
X74232Y181346D01*
X72397Y180586D01*
X71770Y180105D01*
X70500Y180731D01*
Y181000D01*
X68343D01*
X67817Y182270D01*
X75018Y189471D01*
X116742D01*
X125129Y181084D01*
D02*
G37*
G36*
X300124Y190867D02*
X300300Y189670D01*
X300300D01*
Y180210D01*
X299760D01*
Y175940D01*
X304800D01*
X309840D01*
Y176690D01*
X318467D01*
Y178121D01*
X328143D01*
X328335Y177930D01*
Y172258D01*
X328606Y170892D01*
X329380Y169734D01*
X333187Y165927D01*
X334345Y165153D01*
X335711Y164881D01*
X342115D01*
X346491Y160505D01*
Y147830D01*
X342129Y143468D01*
X341401Y143688D01*
X340836Y143971D01*
X339705Y145664D01*
X337872Y146889D01*
X336981Y147066D01*
Y141670D01*
X334441D01*
Y147066D01*
X333549Y146889D01*
X331717Y145664D01*
X331432Y145239D01*
X328815D01*
X323343Y150710D01*
X323750Y151980D01*
X324797Y152520D01*
X333210D01*
Y152520D01*
X334480Y152757D01*
X335149Y152310D01*
X337100Y151922D01*
X339051Y152310D01*
X340705Y153415D01*
X341810Y155069D01*
X342198Y157020D01*
X341810Y158971D01*
X340705Y160625D01*
X339051Y161730D01*
X337100Y162118D01*
X335149Y161730D01*
X334480Y161283D01*
X333210Y161520D01*
Y161520D01*
X329477D01*
X321104Y169893D01*
X319946Y170667D01*
X318580Y170938D01*
X309840D01*
Y173400D01*
X304800D01*
X299760D01*
Y170938D01*
X261293D01*
X260862Y172208D01*
X261954Y173046D01*
X263517Y175083D01*
X264499Y177455D01*
X264834Y180000D01*
X264499Y182545D01*
X263517Y184917D01*
X261954Y186954D01*
X259917Y188517D01*
X257545Y189499D01*
X255000Y189834D01*
X252455Y189499D01*
X250083Y188517D01*
X248046Y186954D01*
X246483Y184917D01*
X245501Y182545D01*
X245166Y180000D01*
X245501Y177455D01*
X246483Y175083D01*
X248046Y173046D01*
X249138Y172208D01*
X248707Y170938D01*
X247008D01*
X242357Y175590D01*
Y180128D01*
X242085Y181493D01*
X241311Y182651D01*
X237504Y186459D01*
X236346Y187232D01*
X234980Y187504D01*
X224655D01*
X221956Y190203D01*
X222442Y191376D01*
X299615D01*
X300124Y190867D01*
D02*
G37*
G36*
X243007Y164847D02*
X244164Y164073D01*
X245530Y163801D01*
X286233D01*
X287133Y162683D01*
X286940Y161859D01*
X286374Y161747D01*
X285217Y160973D01*
X282253Y158010D01*
X269640D01*
Y149050D01*
X269100D01*
Y146862D01*
X268099Y146038D01*
X267163Y147372D01*
X267288Y148000D01*
X266900Y149951D01*
X265795Y151605D01*
X264141Y152710D01*
X262190Y153098D01*
X260239Y152710D01*
X258585Y151605D01*
X257480Y149951D01*
X257410Y149598D01*
X256140Y149723D01*
Y158010D01*
X242140D01*
Y155199D01*
X239559D01*
X239288Y155421D01*
Y163459D01*
X237256D01*
Y168937D01*
X238430Y169424D01*
X243007Y164847D01*
D02*
G37*
G36*
X184370Y145960D02*
X188640D01*
Y146460D01*
X189910Y147139D01*
X190938Y146451D01*
X193015Y146038D01*
X203655Y135399D01*
X204812Y134625D01*
X206178Y134353D01*
X212076D01*
X213121Y133178D01*
X213069Y132472D01*
X212460Y131560D01*
X212072Y129609D01*
X212460Y127659D01*
X213565Y126005D01*
X214111Y125640D01*
Y117315D01*
X212841Y116844D01*
X211501Y117740D01*
X209550Y118128D01*
X207599Y117740D01*
X205945Y116635D01*
X205580Y116089D01*
X193334D01*
X193334Y116089D01*
X192163Y115856D01*
X191171Y115193D01*
X191171Y115193D01*
X188382Y112404D01*
X187209Y112890D01*
Y114068D01*
X187954Y114566D01*
X189179Y116399D01*
X189356Y117290D01*
X178564D01*
X178741Y116399D01*
X179292Y115574D01*
X178377Y114658D01*
X177211Y115437D01*
X175260Y115826D01*
X174616Y115697D01*
X163270Y127043D01*
X162278Y127706D01*
X161607Y127839D01*
X161732Y129109D01*
X164560D01*
Y138569D01*
X165100D01*
Y142839D01*
X160060D01*
Y145379D01*
X165100D01*
Y147941D01*
X168100D01*
Y146500D01*
X177560D01*
Y145960D01*
X181830D01*
Y151000D01*
X184370D01*
Y145960D01*
D02*
G37*
G36*
X316936Y163330D02*
X316305Y162060D01*
X312670D01*
Y158290D01*
X318210D01*
Y155750D01*
X312670D01*
Y151980D01*
X315642D01*
Y149796D01*
X315913Y148431D01*
X316687Y147273D01*
X324813Y139147D01*
X325971Y138373D01*
X326898Y138189D01*
X326773Y136919D01*
X323091D01*
X311286Y148723D01*
X310128Y149497D01*
X308762Y149769D01*
X299792D01*
X298560Y149860D01*
Y162860D01*
X299353Y163801D01*
X316579D01*
X316936Y163330D01*
D02*
G37*
G36*
X140850Y144450D02*
Y136350D01*
Y128743D01*
X139580Y128357D01*
X139495Y128485D01*
X137841Y129590D01*
X135890Y129978D01*
X133939Y129590D01*
X132285Y128485D01*
X131180Y126831D01*
X130792Y124880D01*
X131180Y122929D01*
X132285Y121275D01*
X133939Y120170D01*
X135890Y119782D01*
X137841Y120170D01*
X139495Y121275D01*
X139580Y121403D01*
X140850Y121050D01*
Y113450D01*
Y105089D01*
X102277D01*
X71065Y136301D01*
X71138Y136670D01*
X70750Y138621D01*
X69645Y140275D01*
X67991Y141380D01*
X66040Y141768D01*
X64089Y141380D01*
X62435Y140275D01*
X61330Y138621D01*
X61199Y137963D01*
X59821Y137545D01*
X57109Y140257D01*
Y144850D01*
X73241D01*
X73277Y144797D01*
X78357Y139717D01*
X79514Y138943D01*
X80880Y138671D01*
X96250D01*
X97616Y138943D01*
X98774Y139717D01*
X100290Y141233D01*
X101460Y140607D01*
X101242Y139509D01*
X101630Y137559D01*
X102735Y135905D01*
X104389Y134800D01*
X106340Y134411D01*
X108291Y134800D01*
X109945Y135905D01*
X110862Y137277D01*
X111213Y137574D01*
X112369Y137682D01*
X113449Y136960D01*
X115400Y136572D01*
X117351Y136960D01*
X119005Y138065D01*
X120110Y139719D01*
X120498Y141670D01*
X120118Y143580D01*
X120087Y143807D01*
X120783Y144850D01*
X139746D01*
X140850Y144450D01*
D02*
G37*
G36*
X264960Y130714D02*
X265851Y130891D01*
X267684Y132115D01*
X268370Y133142D01*
X269640Y132757D01*
Y129010D01*
X272621D01*
Y122321D01*
X271730Y121420D01*
X267460D01*
Y116380D01*
X266190D01*
Y115110D01*
X260650D01*
Y111340D01*
X260650D01*
X261190Y110499D01*
Y101949D01*
X257460D01*
Y96659D01*
X254920D01*
Y101949D01*
X252400D01*
Y101409D01*
X247940D01*
Y99406D01*
X245449D01*
X244083Y99134D01*
X243221Y98558D01*
X242570Y98688D01*
X241373Y98450D01*
X240747Y99620D01*
X246003Y104876D01*
X246666Y105868D01*
X246899Y107039D01*
X246899Y107039D01*
Y111763D01*
X250816Y115680D01*
X251460Y115552D01*
X253411Y115940D01*
X255065Y117045D01*
X256170Y118699D01*
X256558Y120650D01*
X256170Y122601D01*
X255644Y123387D01*
X256146Y124764D01*
X256212Y124823D01*
X257145Y125447D01*
X259853Y128154D01*
X260516Y129147D01*
X260673Y129935D01*
X261149Y130467D01*
X262019Y130793D01*
X262420Y130714D01*
Y136109D01*
X264960D01*
Y130714D01*
D02*
G37*
G36*
X301303Y141361D02*
X300972Y139700D01*
X301360Y137749D01*
X302465Y136095D01*
X304119Y134990D01*
X306016Y134613D01*
X310599Y130030D01*
X310476Y129470D01*
X310044Y128789D01*
X297340D01*
X296975Y129335D01*
X295321Y130440D01*
X293370Y130828D01*
X291419Y130440D01*
X289765Y129335D01*
X288660Y127681D01*
X288272Y125730D01*
X288660Y123779D01*
X288900Y123420D01*
X288301Y122300D01*
X284520D01*
Y118030D01*
X294600D01*
Y120877D01*
X295321Y121020D01*
X296975Y122125D01*
X297340Y122671D01*
X309060D01*
X321718Y110013D01*
X321232Y108840D01*
X317520D01*
Y104570D01*
X321310D01*
Y102030D01*
X317520D01*
Y100090D01*
X316770D01*
Y95590D01*
X311770D01*
Y93070D01*
X319310D01*
Y90530D01*
X311770D01*
Y88070D01*
X319310D01*
Y85530D01*
X311770D01*
Y83010D01*
X316770D01*
Y78699D01*
X312441D01*
Y79800D01*
X302981D01*
Y80340D01*
X298711D01*
Y75300D01*
Y70260D01*
X302981D01*
Y70800D01*
X312441D01*
Y71562D01*
X318060D01*
Y70300D01*
X317481Y69270D01*
X310210D01*
Y67829D01*
X295052D01*
X295052Y67829D01*
X293881Y67596D01*
X292889Y66933D01*
X288667Y62711D01*
X288004Y61719D01*
X287771Y60548D01*
X287771Y60548D01*
Y58580D01*
X287225Y58215D01*
X286120Y56561D01*
X285950Y55707D01*
X284894Y55002D01*
X284560Y55068D01*
X279999D01*
X279968Y55099D01*
Y66281D01*
X283564D01*
X284929Y66553D01*
X286087Y67327D01*
X290631Y71871D01*
X290946Y71845D01*
X291901Y71449D01*
Y70260D01*
X296171D01*
Y75300D01*
Y80340D01*
X291901D01*
X291750Y81547D01*
Y95520D01*
X292083Y95854D01*
X292857Y97011D01*
X293129Y98377D01*
Y101760D01*
X294060D01*
Y111220D01*
X294600D01*
Y115490D01*
X284520D01*
Y111220D01*
X285060D01*
Y101760D01*
X285991D01*
Y100228D01*
X280029D01*
Y101499D01*
X281190D01*
Y110499D01*
X279759D01*
Y111880D01*
X281190D01*
Y120880D01*
X279759D01*
Y129010D01*
X283640D01*
Y129899D01*
X284416Y130053D01*
X285573Y130827D01*
X291607Y136860D01*
X298560D01*
Y142631D01*
X300604D01*
X301303Y141361D01*
D02*
G37*
G36*
X392210Y134100D02*
X380710D01*
Y121000D01*
X365410D01*
Y133000D01*
X370410D01*
Y146100D01*
X392210D01*
Y134100D01*
D02*
G37*
G36*
X170290Y111372D02*
X170162Y110728D01*
X170550Y108777D01*
X171655Y107123D01*
X173309Y106018D01*
X174338Y105813D01*
X174756Y104435D01*
X163570Y93249D01*
X163116Y93294D01*
X161283Y94518D01*
X160392Y94696D01*
Y89300D01*
X157851D01*
Y94696D01*
X156960Y94518D01*
X155220Y93356D01*
X154046Y93622D01*
X153950Y93651D01*
Y105850D01*
Y113450D01*
Y121821D01*
X159841D01*
X170290Y111372D01*
D02*
G37*
G36*
X226680Y82280D02*
X239107D01*
X239234Y82090D01*
X238556Y80820D01*
X234950D01*
Y72780D01*
Y64740D01*
X239165D01*
X239651Y63567D01*
X236803Y60719D01*
X224970D01*
X224704Y60897D01*
X223338Y61169D01*
X190300D01*
Y61190D01*
X190160Y61330D01*
X169189D01*
Y64586D01*
X173036Y68434D01*
X173699Y69426D01*
X173932Y70597D01*
X173699Y71767D01*
X173036Y72759D01*
X172044Y73423D01*
X170873Y73656D01*
X169703Y73423D01*
X168710Y72759D01*
X163967Y68016D01*
X163304Y67024D01*
X163071Y65853D01*
X162061Y65253D01*
X160679D01*
X160153Y66523D01*
X167103Y73472D01*
X167766Y74465D01*
X167999Y75635D01*
X167999Y75635D01*
Y77712D01*
X169642Y79355D01*
X171020Y78937D01*
X171250Y77779D01*
X172355Y76125D01*
X174009Y75020D01*
X175960Y74632D01*
X177911Y75020D01*
X179076Y75798D01*
X185237Y69637D01*
X186229Y68974D01*
X187400Y68741D01*
X187400Y68741D01*
X206580D01*
X206580Y68741D01*
X207750Y68974D01*
X208743Y69637D01*
X210520Y71414D01*
X212090Y71102D01*
X214041Y71490D01*
X215695Y72595D01*
X216800Y74249D01*
X217188Y76200D01*
X216800Y78151D01*
X215695Y79805D01*
X214041Y80910D01*
X212090Y81298D01*
X210139Y80910D01*
X209154Y80252D01*
X208369Y79898D01*
X207527Y80576D01*
X206965Y81417D01*
X206419Y81782D01*
Y85440D01*
X206350Y85785D01*
Y91440D01*
X206350D01*
Y91440D01*
X206350D01*
Y92801D01*
X221132D01*
X221484Y92871D01*
X226680D01*
Y82280D01*
D02*
G37*
G36*
X140850Y90650D02*
Y82950D01*
Y75350D01*
Y67750D01*
Y61330D01*
X79099D01*
Y64403D01*
X106337Y91641D01*
X140850D01*
Y90650D01*
D02*
G37*
G36*
X310210Y60270D02*
X318940D01*
X320210Y60270D01*
Y60270D01*
X320210D01*
Y60270D01*
X323082D01*
Y57840D01*
X320580D01*
Y58380D01*
X316310D01*
Y53340D01*
Y48300D01*
X320580D01*
Y48840D01*
X325106D01*
X326091Y47570D01*
X325882Y46520D01*
X324779Y45558D01*
X310990D01*
Y46999D01*
X301530D01*
Y47539D01*
X297260D01*
Y42499D01*
X294720D01*
Y47539D01*
X291420D01*
X291091Y48080D01*
X291539Y49611D01*
X291692Y49683D01*
X292781Y49900D01*
X294435Y51005D01*
X295540Y52659D01*
X295928Y54610D01*
X295540Y56561D01*
X294435Y58215D01*
X294414Y58229D01*
X294302Y59694D01*
X296319Y61711D01*
X310210D01*
Y60270D01*
D02*
G37*
G36*
X215750Y32180D02*
X227029D01*
Y22509D01*
X225759Y21716D01*
X225358Y21796D01*
Y16400D01*
X222818D01*
Y21796D01*
X221926Y21618D01*
X221360Y21240D01*
X220090Y21440D01*
Y21440D01*
X220090Y21440D01*
X215820D01*
Y16400D01*
X213280D01*
Y21440D01*
X209010D01*
Y20900D01*
X200550D01*
X200071Y21220D01*
X198120Y21608D01*
X198077Y21599D01*
X192823Y26853D01*
X191666Y27627D01*
X190300Y27899D01*
Y32180D01*
X193750D01*
Y54031D01*
X215750D01*
Y32180D01*
D02*
G37*
%LPC*%
G36*
X26290Y188230D02*
X16520D01*
Y180960D01*
X26290D01*
Y188230D01*
D02*
G37*
G36*
X13980D02*
X4210D01*
Y180960D01*
X13980D01*
Y188230D01*
D02*
G37*
G36*
X42250Y179088D02*
X40299Y178700D01*
X40000Y178500D01*
X27750D01*
Y171040D01*
X27210D01*
Y167270D01*
X34750D01*
X42290D01*
Y168900D01*
X44201Y169280D01*
X45855Y170385D01*
X46960Y172039D01*
X47348Y173990D01*
X46960Y175941D01*
X45855Y177595D01*
X44201Y178700D01*
X42250Y179088D01*
D02*
G37*
G36*
X42290Y164730D02*
X36020D01*
Y160960D01*
X42290D01*
Y164730D01*
D02*
G37*
G36*
X33480D02*
X27210D01*
Y160960D01*
X33480D01*
Y164730D01*
D02*
G37*
G36*
X26290Y159040D02*
X16520D01*
Y151770D01*
X26290D01*
Y159040D01*
D02*
G37*
G36*
X13980D02*
X4210D01*
Y151770D01*
X13980D01*
Y159040D01*
D02*
G37*
G36*
X26290Y149230D02*
X16520D01*
Y141960D01*
X26290D01*
Y149230D01*
D02*
G37*
G36*
X13980D02*
X4210D01*
Y141960D01*
X13980D01*
Y149230D01*
D02*
G37*
G36*
X13980Y58040D02*
X4210D01*
Y50770D01*
X13980D01*
Y58040D01*
D02*
G37*
G36*
Y19040D02*
X4210D01*
Y11770D01*
X13980D01*
Y19040D01*
D02*
G37*
G36*
X351790Y129920D02*
X348020D01*
Y125650D01*
X351790D01*
Y129920D01*
D02*
G37*
G36*
X381400Y84480D02*
X372110D01*
X362820D01*
Y79960D01*
X362820D01*
X363371Y78918D01*
Y67000D01*
X363526Y66220D01*
X363968Y65558D01*
X364630Y65116D01*
X365410Y64961D01*
X368371D01*
Y53900D01*
X368526Y53120D01*
X368968Y52458D01*
X369630Y52016D01*
X370410Y51861D01*
X392210Y51861D01*
X392990Y52016D01*
X393652Y52458D01*
X394094Y53120D01*
X394249Y53900D01*
Y65900D01*
X394094Y66680D01*
X393652Y67342D01*
X392990Y67784D01*
X392210Y67939D01*
X382749Y67939D01*
Y79000D01*
X382594Y79780D01*
X382152Y80442D01*
X381490Y80884D01*
X381400Y80902D01*
Y84480D01*
D02*
G37*
G36*
X355290Y38570D02*
X351520D01*
Y32300D01*
X355290D01*
Y38570D01*
D02*
G37*
G36*
Y29760D02*
X351520D01*
Y23490D01*
X355290D01*
Y29760D01*
D02*
G37*
G36*
X374290Y22570D02*
X367020D01*
Y12800D01*
X374290D01*
Y22570D01*
D02*
G37*
G36*
X364480D02*
X357210D01*
Y12800D01*
X364480D01*
Y22570D01*
D02*
G37*
%LPD*%
G36*
X380710Y65900D02*
X392210Y65900D01*
Y53900D01*
X370410Y53900D01*
Y67000D01*
X365410D01*
Y79000D01*
X380710D01*
Y65900D01*
D02*
G37*
%LPC*%
G36*
X190500Y171650D02*
X186230D01*
Y167880D01*
X190500D01*
Y171650D01*
D02*
G37*
G36*
X188640Y165060D02*
X184370D01*
Y161290D01*
X188640D01*
Y165060D01*
D02*
G37*
G36*
X194370Y157066D02*
Y152940D01*
X198496D01*
X198319Y153832D01*
X197094Y155664D01*
X195262Y156889D01*
X194370Y157066D01*
D02*
G37*
G36*
X185230Y123956D02*
Y119830D01*
X189356D01*
X189179Y120722D01*
X187954Y122554D01*
X186122Y123779D01*
X185230Y123956D01*
D02*
G37*
G36*
X182690D02*
X181798Y123779D01*
X179966Y122554D01*
X178741Y120722D01*
X178564Y119830D01*
X182690D01*
Y123956D01*
D02*
G37*
G36*
X264920Y121420D02*
X260650D01*
Y117650D01*
X264920D01*
Y121420D01*
D02*
G37*
G36*
X232410Y80820D02*
X226140D01*
Y74050D01*
X232410D01*
Y80820D01*
D02*
G37*
G36*
Y71510D02*
X226140D01*
Y64740D01*
X232410D01*
Y71510D01*
D02*
G37*
G36*
X120650Y89878D02*
X118699Y89490D01*
X117045Y88385D01*
X115940Y86731D01*
X115552Y84780D01*
X115940Y82829D01*
X117045Y81175D01*
X117591Y80810D01*
Y72550D01*
X117045Y72185D01*
X115940Y70531D01*
X115552Y68580D01*
X115940Y66629D01*
X117045Y64975D01*
X118699Y63870D01*
X120650Y63482D01*
X122601Y63870D01*
X124255Y64975D01*
X125360Y66629D01*
X125748Y68580D01*
X125360Y70531D01*
X124255Y72185D01*
X123709Y72550D01*
Y80810D01*
X124255Y81175D01*
X125360Y82829D01*
X125748Y84780D01*
X125360Y86731D01*
X124255Y88385D01*
X122601Y89490D01*
X120650Y89878D01*
D02*
G37*
G36*
X313770Y58380D02*
X309500D01*
Y54610D01*
X313770D01*
Y58380D01*
D02*
G37*
G36*
Y52070D02*
X309500D01*
Y48300D01*
X313770D01*
Y52070D01*
D02*
G37*
%LPD*%
D11*
X371250Y113390D02*
X372110Y114250D01*
D12*
X184150Y109503D02*
Y120020D01*
X182691Y118560D02*
X184150Y120020D01*
X321310Y96550D02*
X328560Y89300D01*
X214050Y16400D02*
X224088D01*
X171570Y13710D02*
Y16400D01*
X165890D02*
X171570D01*
X305662Y139292D02*
X331310Y113645D01*
X193334Y113030D02*
X209550D01*
X135890Y124880D02*
X161108D01*
X217170Y104140D02*
Y129609D01*
X331310Y103300D02*
Y113645D01*
X191721Y105760D02*
X204960D01*
X164940Y78980D02*
X191721Y105760D01*
X160940Y80636D02*
X193334Y113030D01*
X163947Y89300D02*
X184150Y109503D01*
X182691Y118560D02*
X183960D01*
X161108Y124880D02*
X175260Y110728D01*
X147400Y71800D02*
X155448D01*
X160940Y77292D02*
Y80636D01*
X155164Y57650D02*
X159707Y62194D01*
X164940Y75635D02*
Y78980D01*
X154555Y65250D02*
X164940Y75635D01*
X148450Y65250D02*
X154555D01*
X154657Y79494D02*
X154751Y79589D01*
X147494Y79494D02*
X154657D01*
X147400Y79400D02*
X147494Y79494D01*
X155448Y71800D02*
X160940Y77292D01*
X159707Y62194D02*
X166130D01*
Y45570D02*
Y62194D01*
Y65853D02*
X170873Y70597D01*
X179470Y79730D02*
X187400Y71800D01*
X175960Y79730D02*
X179470D01*
X187400Y71800D02*
X206580D01*
X166130Y62194D02*
Y65853D01*
X159122Y89300D02*
X163947D01*
X217170Y104140D02*
X218440Y102870D01*
X38679Y45080D02*
X43370Y40389D01*
X44863D01*
X30480Y45080D02*
X38679D01*
X44863Y40389D02*
X51222Y34030D01*
X57270D01*
X57600Y33700D01*
X48270Y25800D02*
X61690D01*
X40070Y34000D02*
X48270Y25800D01*
X34750Y34000D02*
X40070D01*
X328560Y89300D02*
X331310D01*
X321310Y96550D02*
Y103300D01*
X313970Y191500D02*
X315630Y193160D01*
X303817Y191500D02*
X313970D01*
X163830Y176647D02*
X171053D01*
X174300Y173400D01*
X174175Y183435D02*
X214485D01*
X174175D02*
X174760Y182850D01*
X131195Y194435D02*
X300882D01*
X129800Y193040D02*
X131195Y194435D01*
X300882D02*
X303817Y191500D01*
X144200Y151400D02*
Y161490D01*
X143510Y162180D02*
X144200Y161490D01*
X143510Y162180D02*
Y165100D01*
X257690Y130317D02*
Y143500D01*
X262190Y148000D01*
X254982Y127609D02*
X257690Y130317D01*
X303817Y185653D02*
Y191500D01*
Y185653D02*
X304800Y184670D01*
X315630Y193160D02*
X315830Y192960D01*
X154380Y151000D02*
X172100D01*
X154130Y150750D02*
X154380Y151000D01*
X154940Y160020D02*
X173100D01*
X234770Y114760D02*
X247619Y127609D01*
X234770Y109242D02*
Y114760D01*
X234288Y108760D02*
X234770Y109242D01*
X243840Y113030D02*
X251460Y120650D01*
X243840Y107039D02*
Y113030D01*
X237131Y100330D02*
X243840Y107039D01*
X233680Y100330D02*
X237131D01*
X247619Y127609D02*
X254982D01*
X230088Y13778D02*
Y35342D01*
X222660Y6350D02*
X230088Y13778D01*
X166910Y6350D02*
X222660D01*
X218109Y10421D02*
X224088Y16400D01*
X174859Y10421D02*
X218109D01*
X214050Y16400D02*
X214050Y16400D01*
X222250Y43180D02*
X230088Y35342D01*
X185365Y16455D02*
X185420Y16510D01*
X160940Y21350D02*
Y37680D01*
X171570Y13710D02*
X174859Y10421D01*
X156260Y17000D02*
X166910Y6350D01*
X156260Y17000D02*
Y42743D01*
X160130Y46613D01*
Y54131D01*
X212090Y76200D02*
X214090D01*
X210980D02*
X212090D01*
X206580Y71800D02*
X210980Y76200D01*
X160940Y21350D02*
X165890Y16400D01*
X40210Y91800D02*
X45010D01*
X39760Y92250D02*
X40210Y91800D01*
X45010D02*
X48360Y88450D01*
Y67526D02*
Y88450D01*
Y67526D02*
X51222Y64664D01*
X40830Y81280D02*
X44360Y77750D01*
Y65869D02*
Y77750D01*
Y65869D02*
X52579Y57650D01*
X36670Y81280D02*
X40830D01*
X295052Y64770D02*
X315210D01*
X290830Y60548D02*
X295052Y64770D01*
X290830Y54610D02*
Y60548D01*
X363220Y39999D02*
Y51060D01*
X358140Y56140D02*
X363220Y51060D01*
X358140Y56140D02*
Y109525D01*
X162060Y41500D02*
X166130Y45570D01*
X162060Y39200D02*
Y41500D01*
Y39200D02*
X162260Y39000D01*
X181125Y16455D02*
X185365D01*
X181070Y16400D02*
X181125Y16455D01*
X214050Y16400D02*
X214550D01*
X160940Y37680D02*
X162260Y39000D01*
X148450Y57650D02*
X155164D01*
X147400Y64200D02*
X148450Y65250D01*
X147400Y56600D02*
X148450Y57650D01*
X75910Y87000D02*
X77470Y85440D01*
X57600Y87000D02*
X75910D01*
X120650Y68580D02*
Y84780D01*
X293370Y125730D02*
X310327D01*
X306032Y30480D02*
X323426D01*
X336980Y44035D02*
Y58457D01*
X336310Y59127D02*
X336980Y58457D01*
X336310Y59127D02*
Y75300D01*
X323426Y30480D02*
X336980Y44035D01*
X330980Y46520D02*
X331210Y46750D01*
Y75200D01*
X331310Y75300D01*
X330980Y46190D02*
Y46520D01*
X327290Y42499D02*
X330980Y46190D01*
X338403Y174950D02*
X350980D01*
X54050Y138990D02*
X93980Y99060D01*
Y89267D02*
Y99060D01*
X72040Y67327D02*
X93980Y89267D01*
X72040Y45370D02*
Y67327D01*
X67670Y41000D02*
X72040Y45370D01*
X105070Y94700D02*
X147400D01*
X76040Y65670D02*
X105070Y94700D01*
X76040Y40150D02*
Y65670D01*
X61690Y25800D02*
X76040Y40150D01*
X42245Y173995D02*
X42250Y173990D01*
X34755Y173995D02*
X42245D01*
X34750Y174000D02*
X34755Y173995D01*
X66370Y136670D02*
X101010Y102030D01*
X66040Y136670D02*
X66370D01*
X54050Y138990D02*
Y157170D01*
X59830Y162950D01*
X78800D01*
X88900Y173050D02*
Y174000D01*
X78800Y162950D02*
X88900Y173050D01*
X101010Y102030D02*
X146730D01*
X147000Y102300D01*
X147400D01*
X106340Y139509D02*
Y151360D01*
X106300Y151400D02*
X106340Y151360D01*
X113800Y143850D02*
X115400Y142250D01*
Y141670D02*
Y142250D01*
X113800Y143850D02*
Y151400D01*
X65700Y71460D02*
X66040Y71120D01*
X57940Y71460D02*
X65700D01*
X57600Y71800D02*
X57940Y71460D01*
X57600Y79400D02*
X66040D01*
X147400Y132800D02*
X158751D01*
X160060Y134109D01*
X54050Y88050D02*
X55100Y87000D01*
X55880D01*
X19940Y107771D02*
X26470Y114300D01*
X19940Y107771D02*
X19979D01*
X20000Y107750D01*
X88513Y160903D02*
X96120D01*
X83400Y155790D02*
X88513Y160903D01*
X103914Y165000D02*
X112914Y174000D01*
X100217Y165000D02*
X103914D01*
X96120Y160903D02*
X100217Y165000D01*
X20000Y92250D02*
X20000Y92250D01*
X30360D01*
X15240Y81280D02*
X24870D01*
X24870Y81280D01*
X26670D01*
X271190Y96659D02*
Y100999D01*
X268190Y103999D02*
X271190Y100999D01*
X268190Y103999D02*
Y104499D01*
X266690Y105999D02*
X268190Y104499D01*
X266190Y105999D02*
X266690D01*
X83400Y151400D02*
Y155790D01*
X112914Y174000D02*
X114300D01*
X61650Y152450D02*
Y155693D01*
X60600Y151400D02*
X61650Y152450D01*
Y155693D02*
X64907Y158950D01*
X80457D01*
X86507Y165000D01*
X92710D01*
X92807Y164903D01*
X94463D01*
X101950Y172390D01*
X101600Y172740D02*
X101950Y172390D01*
X101600Y172740D02*
Y174000D01*
X57900Y41000D02*
X67670D01*
X57600Y41300D02*
X57900Y41000D01*
X37170Y65065D02*
Y72390D01*
Y65065D02*
X52285Y49950D01*
X56550D01*
X57600Y48900D01*
X36670Y71890D02*
X37170Y72390D01*
X36670Y71800D02*
Y71890D01*
X26670Y63860D02*
X39030Y51500D01*
X42250D01*
X52579Y57650D02*
X54050D01*
X55100Y56600D01*
X57600D01*
X51222Y64664D02*
X57136D01*
X57600Y64200D01*
X39760Y92250D02*
X39760Y92250D01*
X40360D01*
X26670Y63860D02*
Y71800D01*
X10000Y86520D02*
X15240Y81280D01*
X10000Y86520D02*
Y92250D01*
X305982Y30530D02*
X306032Y30480D01*
X305990Y42499D02*
X327290D01*
X326141Y52110D02*
Y54500D01*
Y63360D02*
Y75131D01*
Y54500D02*
Y63360D01*
Y75131D02*
X326310Y75300D01*
X310327Y125730D02*
X326310Y109747D01*
Y103300D02*
Y109747D01*
D44*
X251190Y70059D02*
D03*
X256190D02*
D03*
X261190D02*
D03*
X266190D02*
D03*
X271190D02*
D03*
X276190D02*
D03*
X251190Y96659D02*
D03*
X256190D02*
D03*
X261190D02*
D03*
X266190D02*
D03*
X271190D02*
D03*
X276190D02*
D03*
D65*
X313967Y181690D02*
D03*
Y191690D02*
D03*
X304800Y184670D02*
D03*
Y174670D02*
D03*
X193040Y96440D02*
D03*
Y86440D02*
D03*
X201850Y96440D02*
D03*
Y86440D02*
D03*
X160060Y144109D02*
D03*
Y134109D02*
D03*
X353060Y114380D02*
D03*
Y124380D02*
D03*
X289560Y106760D02*
D03*
Y116760D02*
D03*
D66*
X222250Y43180D02*
D03*
X187250D02*
D03*
D67*
X153730Y173990D02*
D03*
X143730D02*
D03*
X214550Y16400D02*
D03*
X204550D02*
D03*
X170100D02*
D03*
X180100D02*
D03*
X26670Y81280D02*
D03*
X36670D02*
D03*
X26670Y71800D02*
D03*
X36670D02*
D03*
X295990Y42499D02*
D03*
X305990D02*
D03*
X295982Y30530D02*
D03*
X305982D02*
D03*
X315040Y53340D02*
D03*
X325040D02*
D03*
X325210Y64770D02*
D03*
X315210D02*
D03*
X266190Y116380D02*
D03*
X276190D02*
D03*
X328210Y157020D02*
D03*
X318210D02*
D03*
X174960Y172920D02*
D03*
X184960D02*
D03*
X173100Y160020D02*
D03*
X183100D02*
D03*
X162260Y39000D02*
D03*
X172260D02*
D03*
X173100Y151000D02*
D03*
X183100D02*
D03*
X234288Y158959D02*
D03*
X224288D02*
D03*
X342980Y44999D02*
D03*
X352980D02*
D03*
X30360Y92250D02*
D03*
X40360D02*
D03*
X266190Y105999D02*
D03*
X276190D02*
D03*
X297441Y75300D02*
D03*
X307441D02*
D03*
D68*
X131629Y178450D02*
D03*
Y164450D02*
D03*
X234038Y146109D02*
D03*
Y132109D02*
D03*
D69*
X263690Y83359D02*
D03*
D70*
X10000Y107750D02*
D03*
X20000D02*
D03*
X10000Y92250D02*
D03*
X20000D02*
D03*
D71*
X372610Y126400D02*
D03*
X371610Y73000D02*
D03*
D72*
X372110Y100000D02*
D03*
Y106500D02*
D03*
Y93500D02*
D03*
D73*
Y114250D02*
D03*
Y85750D02*
D03*
D74*
X365750Y11530D02*
D03*
X326750D02*
D03*
D75*
X350250Y31030D02*
D03*
X342250D02*
D03*
D76*
X319310Y91800D02*
D03*
Y86800D02*
D03*
X343310D02*
D03*
Y91800D02*
D03*
D77*
X331310Y89300D02*
D03*
D78*
X321310Y75300D02*
D03*
X326310D02*
D03*
X331310D02*
D03*
X336310D02*
D03*
X341310D02*
D03*
X321310Y103300D02*
D03*
X326310D02*
D03*
X331310D02*
D03*
X336310D02*
D03*
X341310D02*
D03*
D79*
X293060Y156360D02*
D03*
Y143360D02*
D03*
D80*
X249140Y134010D02*
D03*
Y153010D02*
D03*
X276640D02*
D03*
Y143510D02*
D03*
Y134010D02*
D03*
D81*
X83400Y151400D02*
D03*
X75800D02*
D03*
X60600D02*
D03*
X68200D02*
D03*
X98700D02*
D03*
X91100D02*
D03*
X106300D02*
D03*
X113800D02*
D03*
X144200D02*
D03*
X136700D02*
D03*
X121500D02*
D03*
X129100D02*
D03*
D82*
X57600Y33700D02*
D03*
Y41300D02*
D03*
Y56600D02*
D03*
Y48900D02*
D03*
Y79400D02*
D03*
Y87000D02*
D03*
Y71800D02*
D03*
Y64200D02*
D03*
X147400Y125100D02*
D03*
Y117500D02*
D03*
Y132800D02*
D03*
Y140400D02*
D03*
Y109900D02*
D03*
Y102300D02*
D03*
Y87000D02*
D03*
Y94700D02*
D03*
Y64200D02*
D03*
Y56600D02*
D03*
Y71800D02*
D03*
Y79400D02*
D03*
D83*
X233680Y89780D02*
D03*
Y72780D02*
D03*
D84*
X276611Y41499D02*
D03*
X246629D02*
D03*
D85*
X34750Y174000D02*
D03*
Y166000D02*
D03*
Y34000D02*
D03*
Y26000D02*
D03*
D86*
X15250Y189500D02*
D03*
Y150500D02*
D03*
Y49500D02*
D03*
Y10500D02*
D03*
D87*
X232423Y74037D02*
X233680Y72780D01*
X233710Y93830D02*
X235720Y91820D01*
X245110Y82430D01*
X249940Y68809D02*
X250940D01*
X242570Y92958D02*
X245449Y95837D01*
X230988Y93830D02*
X233710D01*
X223338Y57600D02*
X223788Y57150D01*
X238281D01*
X249940Y68809D01*
X250940D02*
X251190Y69059D01*
Y70059D01*
X187250Y57600D02*
X223338D01*
X341560Y45249D02*
X342615Y44194D01*
X276190Y133350D02*
X283050D01*
X343593Y168450D02*
X350060Y161983D01*
Y146352D02*
Y161983D01*
X337058Y133350D02*
X350060Y146352D01*
X335711Y168450D02*
X343593D01*
X331903Y172258D02*
Y179408D01*
X329621Y181690D02*
X331903Y179408D01*
Y172258D02*
X335711Y168450D01*
X313967Y181690D02*
X329621D01*
X308762Y146200D02*
X321612Y133350D01*
X293060Y144200D02*
X295060Y146200D01*
X308762D01*
X283050Y133350D02*
X293060Y143360D01*
X276190Y116380D02*
Y133350D01*
X318580Y167370D02*
X328930Y157020D01*
X172350Y29330D02*
Y39000D01*
X192765Y151335D02*
X206178Y137922D01*
X296941Y31489D02*
Y36500D01*
X151784Y175380D02*
X153452Y173712D01*
X319210Y149796D02*
Y156020D01*
Y149796D02*
X327337Y141670D01*
X335711D01*
X318210Y157020D02*
X319210Y156020D01*
X321612Y133350D02*
X337058D01*
X293060Y143360D02*
Y144200D01*
X225976Y96440D02*
Y140315D01*
X271091Y143510D02*
X276640D01*
X263690Y136109D02*
X271091Y143510D01*
X221202Y96440D02*
X225976D01*
X201920Y96370D02*
X221132D01*
X201850Y96440D02*
X201920Y96370D01*
X221132D02*
X221202Y96440D01*
X225976D02*
X228378D01*
X230988Y93830D02*
X233680Y91138D01*
X228378Y96440D02*
X230988Y93830D01*
X233680Y89780D02*
Y91138D01*
X187170Y57600D02*
X187250D01*
X185410Y55840D02*
X187170Y57600D01*
X179340Y55840D02*
X185410D01*
X172260Y48760D02*
X179340Y55840D01*
X172260Y39000D02*
Y48760D01*
X289560Y98377D02*
Y106760D01*
X288182Y96999D02*
X289560Y98377D01*
X340191Y113390D02*
X358140D01*
X239559Y151630D02*
X249381D01*
X233688Y158959D02*
Y175224D01*
X174300Y173400D02*
X176160Y175260D01*
X180038Y178935D02*
X209792D01*
X177453Y176350D02*
X180038Y178935D01*
X177250Y176350D02*
X177453D01*
X176300Y175400D02*
X177250Y176350D01*
X176300Y175260D02*
Y175400D01*
X176160Y175260D02*
X176300D01*
X151784Y175380D02*
Y182500D01*
X139175Y189935D02*
X217177D01*
X133200Y183960D02*
X139175Y189935D01*
X217177D02*
X223177Y183935D01*
X134129Y167000D02*
X134154Y166975D01*
X141169Y173990D02*
X143590D01*
X134154Y166975D02*
X141169Y173990D01*
X217315Y148976D02*
X225976Y140315D01*
X217315Y148976D02*
Y162436D01*
X303800Y176170D02*
X304800Y175170D01*
Y174670D02*
Y175170D01*
X224940Y170061D02*
Y183935D01*
X234980D01*
X223177D02*
X224940D01*
X118220Y193040D02*
X127760Y183500D01*
X73540Y193040D02*
X118220D01*
X63500Y183000D02*
X73540Y193040D01*
X328930Y157020D02*
X337100D01*
X328210D02*
X328930D01*
X216765Y176935D02*
X218440Y175260D01*
X211792Y176935D02*
X216765D01*
X209792Y178935D02*
X211792Y176935D01*
X182651Y150550D02*
X183100Y151000D01*
X160060Y144109D02*
X160260Y144309D01*
X236538Y129609D02*
Y134010D01*
X249140D01*
X276711Y151800D02*
X278181Y153270D01*
X190300Y24330D02*
X198120Y16510D01*
X198175Y16455D01*
X167350Y24330D02*
X190300D01*
X167350D02*
X172350Y29330D01*
X202850Y78322D02*
Y85440D01*
Y78322D02*
X203360Y77812D01*
X238688Y174212D02*
Y174643D01*
X238788Y174743D01*
Y180128D01*
X234980Y183935D02*
X238788Y180128D01*
X245530Y167370D02*
X318580D01*
X238688Y174212D02*
X245530Y167370D01*
X133200Y181682D02*
Y183960D01*
X217315Y162436D02*
X224940Y170061D01*
X287740Y158450D02*
X293060D01*
X282560Y153270D02*
X287740Y158450D01*
X278181Y153270D02*
X282560D01*
X132259Y165080D02*
Y167000D01*
X131629Y164450D02*
X132259Y165080D01*
X127760Y183500D02*
X131383D01*
X133200Y181682D01*
X296941Y36519D02*
Y41548D01*
X295321Y36500D02*
X295340Y36519D01*
X296941D01*
X206178Y137922D02*
X217170D01*
X286941Y27560D02*
Y49119D01*
X284560Y51499D02*
X286941Y49119D01*
X278521Y51499D02*
X284560D01*
X286941Y27560D02*
X290371Y24130D01*
X276399Y53621D02*
X278521Y51499D01*
X276399Y53621D02*
Y69850D01*
X283564D01*
X288182Y74468D01*
X276190Y70059D02*
X276399Y69850D01*
X288182Y74468D02*
Y96999D01*
X358140Y113390D02*
X371250D01*
X358140Y109525D02*
Y113390D01*
X19050Y41300D02*
Y45700D01*
X15250Y49500D02*
X19050Y45700D01*
Y41300D02*
X22250Y38100D01*
Y33950D02*
Y38100D01*
Y27080D02*
Y33950D01*
Y15000D02*
Y27080D01*
X23330Y26000D01*
X34750D01*
X29906Y44506D02*
X30480Y45080D01*
X29906Y41606D02*
Y44506D01*
X22250Y33950D02*
X29906Y41606D01*
X17750Y10500D02*
X22250Y15000D01*
X15250Y10500D02*
X17750D01*
X295982Y30530D02*
X296941Y31489D01*
X295990Y42499D02*
X296941Y41548D01*
X183435Y151335D02*
X192765D01*
X183100Y151000D02*
X183435Y151335D01*
X223815Y152919D02*
Y158486D01*
X224288Y158959D01*
X353060Y124380D02*
X362005D01*
X364025Y126400D01*
X372610D01*
X371610Y73000D02*
X372110Y73500D01*
Y85750D01*
X204495Y16455D02*
X204550Y16400D01*
X198175Y16455D02*
X204495D01*
X10441Y127670D02*
X37775D01*
X48260Y138155D01*
Y161800D01*
X56960Y170500D01*
X60000D01*
X63500Y174000D01*
X242570Y92873D02*
X245110Y90333D01*
X242570Y92873D02*
Y92958D01*
X245110Y82430D02*
Y90333D01*
X232288Y176623D02*
Y177435D01*
Y176623D02*
X233688Y175224D01*
Y158959D02*
X233688Y158959D01*
X234288D01*
X193040Y77812D02*
Y86440D01*
X342615Y31395D02*
Y44194D01*
X342250Y31030D02*
X342615Y31395D01*
X341310Y75300D02*
X341560Y75050D01*
Y45249D02*
Y75050D01*
X307441Y75300D02*
X307610Y75131D01*
X321141D01*
X321310Y75300D01*
X287842Y96659D02*
X288182Y96999D01*
X187250Y43180D02*
Y57600D01*
X245110Y73200D02*
Y82430D01*
X193040Y96440D02*
X201850D01*
X337100Y157020D02*
X337100Y157020D01*
X172100Y151000D02*
X173100D01*
X10441Y108191D02*
Y127670D01*
X10000Y107750D02*
X10441Y108191D01*
X193040Y86440D02*
X193040Y86440D01*
X201850Y86440D02*
X202850Y85440D01*
X172260Y39000D02*
X172350D01*
X245110Y73200D02*
X247538Y70772D01*
X250940D01*
X245449Y95837D02*
X250940D01*
X251190Y96087D01*
Y96659D01*
X276190Y105999D02*
Y116380D01*
X249211Y151800D02*
X249381Y151630D01*
X234038Y146109D02*
X239559Y151630D01*
X234038Y146109D02*
Y158709D01*
X55880Y87000D02*
X57600D01*
X121500Y161290D02*
Y163200D01*
Y151400D02*
Y161290D01*
X120710Y160500D02*
X121500Y161290D01*
X102466Y160500D02*
X120710D01*
X99250Y157283D02*
X102466Y160500D01*
X99250Y151950D02*
Y157283D01*
X98700Y151400D02*
X99250Y151950D01*
X98700Y144690D02*
Y151400D01*
X96250Y142240D02*
X98700Y144690D01*
X80880Y142240D02*
X96250D01*
X75800Y147320D02*
X80880Y142240D01*
X75800Y147320D02*
Y151400D01*
X121500Y163200D02*
X123300Y165000D01*
X131129D01*
X131629Y165500D01*
Y166370D01*
X132259Y167000D01*
X134129D01*
X63500Y174000D02*
Y183000D01*
X234038Y158709D02*
X234288Y158959D01*
X234038Y132109D02*
X236538Y129609D01*
X276440Y98788D02*
X276460Y98808D01*
X276440Y96909D02*
Y98788D01*
X276190Y96659D02*
X276440Y96909D01*
X276460Y98808D02*
Y105729D01*
X276190Y105999D02*
X276460Y105729D01*
X256190Y51060D02*
Y70059D01*
X246629Y41499D02*
X256190Y51060D01*
X271190Y46920D02*
X276611Y41499D01*
X271190Y46920D02*
Y70059D01*
X276190Y96659D02*
X287842D01*
X290371Y24130D02*
X337910D01*
X341250Y27470D01*
Y27530D01*
X341750Y28030D01*
X341810D01*
X342250Y28470D01*
Y31030D01*
X336310Y103300D02*
Y109509D01*
X340191Y113390D01*
D88*
X263690Y74956D02*
D03*
D89*
X261585Y91510D02*
D03*
D90*
X255000Y180000D02*
D03*
X223357Y71715D02*
D03*
X233680Y44655D02*
D03*
X335711Y141670D02*
D03*
X306070Y139700D02*
D03*
X209550Y113030D02*
D03*
X135890Y124880D02*
D03*
X217170Y129609D02*
D03*
X183960Y118560D02*
D03*
X175260Y110728D02*
D03*
X154751Y79589D02*
D03*
X170180Y72390D02*
D03*
X175960Y79730D02*
D03*
X159122Y89300D02*
D03*
X204960Y105760D02*
D03*
X218440Y102870D02*
D03*
X163830Y176530D02*
D03*
X151784Y182500D02*
D03*
X174760Y182850D02*
D03*
X143510Y165100D02*
D03*
X86320Y134313D02*
D03*
X263690Y136109D02*
D03*
X154130Y150750D02*
D03*
X154940Y158750D02*
D03*
X129800Y193040D02*
D03*
X262190Y148000D02*
D03*
X251460Y120650D02*
D03*
X224088Y16400D02*
D03*
X198120Y16510D02*
D03*
X185420D02*
D03*
X167350Y24330D02*
D03*
X160130Y54131D02*
D03*
X212090Y76200D02*
D03*
X218440Y175260D02*
D03*
X214485Y183435D02*
D03*
X295321Y36500D02*
D03*
X217170Y137922D02*
D03*
X290830Y54610D02*
D03*
X363220Y39999D02*
D03*
X30480Y45080D02*
D03*
X193100Y151670D02*
D03*
X223815Y152919D02*
D03*
X242570Y93590D02*
D03*
X232288Y177435D02*
D03*
X77470Y85440D02*
D03*
X120650Y68580D02*
D03*
X293370Y125730D02*
D03*
X233680Y100330D02*
D03*
X234288Y108760D02*
D03*
X203360Y77812D02*
D03*
X193040D02*
D03*
X330980Y46520D02*
D03*
X350980Y174950D02*
D03*
X338403D02*
D03*
X42250Y173990D02*
D03*
X66040Y136670D02*
D03*
X106340Y139509D02*
D03*
X115400Y141670D02*
D03*
X120650Y84780D02*
D03*
X66040Y71120D02*
D03*
X337100Y157020D02*
D03*
X10441Y127670D02*
D03*
X66040Y79400D02*
D03*
X26470Y114300D02*
D03*
X42250Y51500D02*
D03*
D91*
X114300Y174000D02*
D03*
X101600D02*
D03*
X88900D02*
D03*
X76200D02*
D03*
D92*
X63500D02*
D03*
M02*
