M48
;Layer_Color=9474304
;FILE_FORMAT=4:4
METRIC,LZ
;TYPE=PLATED
T1F00S00C0.3000
T2F00S00C0.6000
T3F00S00C1.5500
%
T01
X0012065Y0006858
Y0008478
X00154751Y00079589
X00159122Y000893
X0017596Y0007973
X0017018Y0007239
X0019304Y00077812
X0020336
X0021209Y000762
X00223357Y00071715
X0021844Y0010287
X0020496Y0010576
X0020955Y0011303
X0021717Y00129609
Y00137922
X00223815Y00152919
X0021844Y0017526
X00214485Y00183435
X00232288Y00177435
X0026219Y00148
X0026369Y00136109
X0025146Y0012065
X00234288Y0010876
X0023368Y0010033
X0024257Y0009359
X0023368Y00044655
X00224088Y000164
X0019812Y0001651
X0018542
X0016735Y0002433
X0016013Y00054131
X0017526Y00110728
X0018396Y0011856
X001931Y0015167
X0015413Y0015075
X0015494Y0015875
X0014351Y001651
X00151784Y001825
X0016383Y0017653
X0017476Y0018285
X001298Y0019304
X001154Y0014167
X0013589Y0012488
X0029337Y0012573
X0030607Y001397
X00335711Y0014167
X003371Y0015702
X00338403Y0017495
X0035098
X0036322Y00039999
X0033098Y0004652
X00295321Y000365
X0029083Y0005461
X0006604Y0007112
Y000794
X0007747Y0008544
X0008632Y00134313
X0006604Y0013667
X0010634Y00139509
X0004225Y0017399
X0002647Y001143
X00010441Y0012767
X0003048Y0004508
X0004225Y000515
T02
X001143Y00174
X001016
X000889
X000762
X000635
T03
X00255Y0018
M30
