G04*
G04 #@! TF.GenerationSoftware,Altium Limited,Altium Designer,19.0.14 (431)*
G04*
G04 Layer_Color=32896*
%FSLAX44Y44*%
%MOMM*%
G71*
G01*
G75*
%ADD10C,0.1000*%
%ADD12C,0.2000*%
%ADD13C,0.2500*%
%ADD15C,0.1500*%
D10*
X49920Y44080D02*
G03*
X49920Y44080I-500J0D01*
G01*
X298481Y88322D02*
Y117392D01*
X315381Y77812D02*
X322431D01*
X339461Y88492D02*
Y117672D01*
X315501Y128562D02*
X322401D01*
X298541Y106952D02*
X301841D01*
X335941D02*
X339441D01*
X319141Y84252D02*
Y86952D01*
Y79852D02*
Y82252D01*
X317141D02*
X319141Y84252D01*
X321141Y82252D01*
X317141Y84252D02*
X321141D01*
X317141Y82252D02*
X321141D01*
X298941Y130952D02*
X338941D01*
X317670Y58250D02*
Y63500D01*
X320210Y58460D02*
Y63540D01*
X317670Y61000D02*
X320210Y58460D01*
X317670Y61000D02*
X320210D01*
X317670D02*
X320210Y63540D01*
X318940Y59730D02*
Y62270D01*
X319440Y59270D02*
Y62770D01*
X317871Y152250D02*
Y157500D01*
X320411Y152460D02*
Y157540D01*
X317871Y155000D02*
X320411Y152460D01*
X317871Y155000D02*
X320411D01*
X317871D02*
X320411Y157540D01*
X319141Y153730D02*
Y156270D01*
X319641Y153270D02*
Y156770D01*
X271250Y104570D02*
X276500D01*
X271460Y102030D02*
X276540D01*
X271460D02*
X274000Y104570D01*
Y102030D02*
Y104570D01*
X276540Y102030D01*
X272730Y103300D02*
X275270D01*
X272270Y102800D02*
X275770D01*
D12*
X211350Y64080D02*
Y68330D01*
X207100D02*
X211350D01*
X167350D02*
X171600D01*
X167350Y64080D02*
Y68330D01*
Y24330D02*
Y28580D01*
Y24330D02*
X171600D01*
X211350D02*
Y28580D01*
X207100Y24330D02*
X211350D01*
X165960Y131670D02*
Y136670D01*
Y131670D02*
X170960D01*
X204960D02*
X209960D01*
Y136670D01*
Y170670D02*
Y175670D01*
X204960D02*
X209960D01*
X165960Y170670D02*
Y175670D01*
X170960D01*
X11420Y10080D02*
X16970D01*
X39870D02*
X45420D01*
X11420Y44080D02*
X16970D01*
X39870D02*
X45420D01*
X11420Y10080D02*
Y11830D01*
Y42330D02*
Y44080D01*
X45420Y10080D02*
Y11830D01*
Y42330D02*
Y44080D01*
D13*
X219100Y66830D02*
G03*
X219100Y66830I-1250J0D01*
G01*
X160710Y133170D02*
G03*
X160710Y133170I-1250J0D01*
G01*
D15*
X325210Y141107D02*
Y133110D01*
X321212D01*
X319879Y134442D01*
Y139774D01*
X321212Y141107D01*
X325210D01*
X311881D02*
X317213D01*
Y137108D01*
X314547Y138441D01*
X313214D01*
X311881Y137108D01*
Y134442D01*
X313214Y133110D01*
X315880D01*
X317213Y134442D01*
X194460Y189607D02*
Y182943D01*
X193127Y181610D01*
X190461D01*
X189128Y182943D01*
Y189607D01*
X186463Y188274D02*
X185130Y189607D01*
X182464D01*
X181131Y188274D01*
Y186942D01*
X182464Y185609D01*
X183797D01*
X182464D01*
X181131Y184276D01*
Y182943D01*
X182464Y181610D01*
X185130D01*
X186463Y182943D01*
X263920Y116038D02*
Y108040D01*
X259921D01*
X258588Y109373D01*
Y114705D01*
X259921Y116038D01*
X263920D01*
X250591Y108040D02*
X255923D01*
X250591Y113372D01*
Y114705D01*
X251924Y116038D01*
X254590D01*
X255923Y114705D01*
X325410Y171807D02*
Y163810D01*
X321412D01*
X320079Y165143D01*
Y170474D01*
X321412Y171807D01*
X325410D01*
X317413Y170474D02*
X316080Y171807D01*
X313414D01*
X312081Y170474D01*
Y169142D01*
X313414Y167809D01*
X314747D01*
X313414D01*
X312081Y166476D01*
Y165143D01*
X313414Y163810D01*
X316080D01*
X317413Y165143D01*
X300582Y64927D02*
Y56930D01*
X296583D01*
X295250Y58263D01*
Y63594D01*
X296583Y64927D01*
X300582D01*
X288586Y56930D02*
Y64927D01*
X292584Y60929D01*
X287253D01*
X66040Y18497D02*
Y11833D01*
X64707Y10500D01*
X62041D01*
X60708Y11833D01*
Y18497D01*
X52711Y10500D02*
X58043D01*
X52711Y15832D01*
Y17164D01*
X54044Y18497D01*
X56710D01*
X58043Y17164D01*
X176070Y17108D02*
Y10444D01*
X174737Y9111D01*
X172071D01*
X170738Y10444D01*
Y17108D01*
X168073Y9111D02*
X165407D01*
X166740D01*
Y17108D01*
X168073Y15775D01*
X47780Y48000D02*
Y55998D01*
X43781D01*
X42448Y54665D01*
Y51999D01*
X43781Y50666D01*
X47780D01*
X45114D02*
X42448Y48000D01*
X39783D02*
X37117D01*
X38450D01*
Y55998D01*
X39783Y54665D01*
X27786Y48000D02*
X33118D01*
X27786Y53332D01*
Y54665D01*
X29119Y55998D01*
X31785D01*
X33118Y54665D01*
X28219Y74805D02*
X29551Y76137D01*
X32217D01*
X33550Y74805D01*
Y69473D01*
X32217Y68140D01*
X29551D01*
X28219Y69473D01*
X20221Y76137D02*
X25553D01*
Y72139D01*
X22887Y73472D01*
X21554D01*
X20221Y72139D01*
Y69473D01*
X21554Y68140D01*
X24220D01*
X25553Y69473D01*
M02*
