G04*
G04 #@! TF.GenerationSoftware,Altium Limited,Altium Designer,19.0.14 (431)*
G04*
G04 Layer_Color=8388736*
%FSLAX44Y44*%
%MOMM*%
G71*
G01*
G75*
%ADD39R,0.7032X0.8032*%
%ADD40R,1.1032X2.0032*%
%ADD41R,0.8032X0.7032*%
%ADD42R,1.1032X1.0032*%
%ADD43R,2.9032X1.9032*%
%ADD44R,0.2500X0.5500*%
%ADD45R,0.7032X0.9532*%
%ADD46R,0.8532X0.8532*%
%ADD47R,1.5532X0.6032*%
%ADD48R,1.5532X0.8532*%
%ADD49R,1.4032X1.9032*%
%ADD50R,0.7032X1.2032*%
%ADD51R,1.2032X0.4532*%
%ADD52R,2.6032X1.8532*%
%ADD53R,0.4532X0.8032*%
%ADD54R,0.9032X1.1032*%
%ADD55R,1.2032X0.8032*%
%ADD56R,0.6132X1.1132*%
%ADD57R,1.1132X0.6132*%
%ADD58R,1.2032X1.3032*%
%ADD59R,1.5032X1.5032*%
%ADD60R,1.2032X0.7032*%
%ADD61R,1.9032X1.4032*%
%ADD62C,0.8032*%
%ADD63C,1.2032*%
%ADD64R,1.2032X1.2032*%
G36*
X380843Y80009D02*
X380974Y79984D01*
X381100Y79941D01*
X381219Y79882D01*
X381330Y79808D01*
X381430Y79720D01*
X381518Y79620D01*
X381592Y79509D01*
X381651Y79390D01*
X381693Y79264D01*
X381720Y79133D01*
X381728Y79000D01*
Y66918D01*
X392210Y66918D01*
X392343Y66909D01*
X392473Y66884D01*
X392600Y66841D01*
X392719Y66782D01*
X392830Y66708D01*
X392930Y66620D01*
X393018Y66520D01*
X393092Y66409D01*
X393151Y66290D01*
X393194Y66164D01*
X393219Y66033D01*
X393228Y65900D01*
Y53900D01*
X393219Y53767D01*
X393194Y53636D01*
X393151Y53510D01*
X393092Y53391D01*
X393018Y53280D01*
X392930Y53180D01*
X392830Y53092D01*
X392719Y53018D01*
X392600Y52959D01*
X392473Y52916D01*
X392343Y52891D01*
X392210Y52882D01*
X370410Y52882D01*
X370277Y52891D01*
X370146Y52916D01*
X370020Y52959D01*
X369901Y53018D01*
X369790Y53092D01*
X369690Y53180D01*
X369602Y53280D01*
X369528Y53391D01*
X369469Y53510D01*
X369426Y53636D01*
X369400Y53767D01*
X369392Y53900D01*
Y65982D01*
X365410D01*
X365277Y65991D01*
X365146Y66017D01*
X365020Y66059D01*
X364901Y66118D01*
X364790Y66192D01*
X364690Y66280D01*
X364602Y66380D01*
X364528Y66491D01*
X364469Y66610D01*
X364426Y66736D01*
X364400Y66867D01*
X364392Y67000D01*
Y79000D01*
X364400Y79133D01*
X364426Y79264D01*
X364469Y79390D01*
X364528Y79509D01*
X364602Y79620D01*
X364690Y79720D01*
X364790Y79808D01*
X364901Y79882D01*
X365020Y79941D01*
X365146Y79984D01*
X365277Y80009D01*
X365410Y80018D01*
X380710D01*
X380843Y80009D01*
D02*
G37*
G36*
X392343Y147109D02*
X392473Y147084D01*
X392600Y147041D01*
X392719Y146982D01*
X392830Y146908D01*
X392930Y146820D01*
X393018Y146720D01*
X393092Y146609D01*
X393151Y146490D01*
X393194Y146363D01*
X393219Y146233D01*
X393228Y146100D01*
Y134100D01*
X393219Y133967D01*
X393194Y133836D01*
X393151Y133710D01*
X393092Y133591D01*
X393018Y133480D01*
X392930Y133380D01*
X392830Y133292D01*
X392719Y133218D01*
X392600Y133159D01*
X392473Y133117D01*
X392343Y133090D01*
X392210Y133082D01*
X381728D01*
Y121000D01*
X381720Y120867D01*
X381693Y120737D01*
X381651Y120610D01*
X381592Y120491D01*
X381518Y120380D01*
X381430Y120280D01*
X381330Y120192D01*
X381219Y120118D01*
X381100Y120059D01*
X380974Y120016D01*
X380843Y119991D01*
X380710Y119982D01*
X365410D01*
X365277Y119991D01*
X365146Y120016D01*
X365020Y120059D01*
X364901Y120118D01*
X364790Y120192D01*
X364690Y120280D01*
X364602Y120380D01*
X364528Y120491D01*
X364469Y120610D01*
X364426Y120737D01*
X364400Y120867D01*
X364392Y121000D01*
Y133000D01*
X364400Y133133D01*
X364426Y133264D01*
X364469Y133390D01*
X364528Y133509D01*
X364602Y133620D01*
X364690Y133720D01*
X364790Y133808D01*
X364901Y133882D01*
X365020Y133941D01*
X365146Y133983D01*
X365277Y134010D01*
X365410Y134018D01*
X369392D01*
Y146100D01*
X369400Y146233D01*
X369426Y146363D01*
X369469Y146490D01*
X369528Y146609D01*
X369602Y146720D01*
X369690Y146820D01*
X369790Y146908D01*
X369901Y146982D01*
X370020Y147041D01*
X370146Y147084D01*
X370277Y147109D01*
X370410Y147118D01*
X392210D01*
X392343Y147109D01*
D02*
G37*
D39*
X313967Y181690D02*
D03*
Y191690D02*
D03*
X304800Y184670D02*
D03*
Y174670D02*
D03*
X193040Y96440D02*
D03*
Y86440D02*
D03*
X201850Y96440D02*
D03*
Y86440D02*
D03*
X160060Y144109D02*
D03*
Y134109D02*
D03*
X353060Y114380D02*
D03*
Y124380D02*
D03*
X289560Y106760D02*
D03*
Y116760D02*
D03*
D40*
X222250Y43180D02*
D03*
X187250D02*
D03*
D41*
X153730Y173990D02*
D03*
X143730D02*
D03*
X214550Y16400D02*
D03*
X204550D02*
D03*
X170100D02*
D03*
X180100D02*
D03*
X26670Y81280D02*
D03*
X36670D02*
D03*
X26670Y71800D02*
D03*
X36670D02*
D03*
X295990Y42499D02*
D03*
X305990D02*
D03*
X295982Y30530D02*
D03*
X305982D02*
D03*
X315040Y53340D02*
D03*
X325040D02*
D03*
X325210Y64770D02*
D03*
X315210D02*
D03*
X266190Y116380D02*
D03*
X276190D02*
D03*
X328210Y157020D02*
D03*
X318210D02*
D03*
X174960Y172920D02*
D03*
X184960D02*
D03*
X173100Y160020D02*
D03*
X183100D02*
D03*
X162260Y39000D02*
D03*
X172260D02*
D03*
X173100Y151000D02*
D03*
X183100D02*
D03*
X234288Y158959D02*
D03*
X224288D02*
D03*
X342980Y44999D02*
D03*
X352980D02*
D03*
X30360Y92250D02*
D03*
X40360D02*
D03*
X266190Y105999D02*
D03*
X276190D02*
D03*
X297441Y75300D02*
D03*
X307441D02*
D03*
D42*
X131629Y178450D02*
D03*
Y164450D02*
D03*
X234038Y146109D02*
D03*
Y132109D02*
D03*
D43*
X263690Y83359D02*
D03*
D44*
X251190Y70059D02*
D03*
X256190D02*
D03*
X261190D02*
D03*
X266190D02*
D03*
X271190D02*
D03*
X276190D02*
D03*
X251190Y96659D02*
D03*
X256190D02*
D03*
X261190D02*
D03*
X266190D02*
D03*
X271190D02*
D03*
X276190D02*
D03*
D45*
X10000Y107750D02*
D03*
X20000D02*
D03*
X10000Y92250D02*
D03*
X20000D02*
D03*
D46*
X372610Y126400D02*
D03*
X371610Y73000D02*
D03*
D47*
X372110Y100000D02*
D03*
Y106500D02*
D03*
Y93500D02*
D03*
D48*
Y114250D02*
D03*
Y85750D02*
D03*
D49*
X365750Y11530D02*
D03*
X326750D02*
D03*
D50*
X350250Y31030D02*
D03*
X342250D02*
D03*
D51*
X319310Y91800D02*
D03*
Y86800D02*
D03*
X343310D02*
D03*
Y91800D02*
D03*
D52*
X331310Y89300D02*
D03*
D53*
X321310Y75300D02*
D03*
X326310D02*
D03*
X331310D02*
D03*
X336310D02*
D03*
X341310D02*
D03*
X321310Y103300D02*
D03*
X326310D02*
D03*
X331310D02*
D03*
X336310D02*
D03*
X341310D02*
D03*
D54*
X293060Y156360D02*
D03*
Y143360D02*
D03*
D55*
X249140Y134010D02*
D03*
Y153010D02*
D03*
X276640D02*
D03*
Y143510D02*
D03*
Y134010D02*
D03*
D56*
X83400Y151400D02*
D03*
X75800D02*
D03*
X60600D02*
D03*
X68200D02*
D03*
X98700D02*
D03*
X91100D02*
D03*
X106300D02*
D03*
X113800D02*
D03*
X144200D02*
D03*
X136700D02*
D03*
X121500D02*
D03*
X129100D02*
D03*
D57*
X57600Y33700D02*
D03*
Y41300D02*
D03*
Y56600D02*
D03*
Y48900D02*
D03*
Y79400D02*
D03*
Y87000D02*
D03*
Y71800D02*
D03*
Y64200D02*
D03*
X147400Y125100D02*
D03*
Y117500D02*
D03*
Y132800D02*
D03*
Y140400D02*
D03*
Y109900D02*
D03*
Y102300D02*
D03*
Y87000D02*
D03*
Y94700D02*
D03*
Y64200D02*
D03*
Y56600D02*
D03*
Y71800D02*
D03*
Y79400D02*
D03*
D58*
X233680Y89780D02*
D03*
Y72780D02*
D03*
D59*
X276611Y41499D02*
D03*
X246629D02*
D03*
D60*
X34750Y174000D02*
D03*
Y166000D02*
D03*
Y34000D02*
D03*
Y26000D02*
D03*
D61*
X15250Y189500D02*
D03*
Y150500D02*
D03*
Y49500D02*
D03*
Y10500D02*
D03*
D62*
X255000Y180000D02*
D03*
D63*
X114300Y174000D02*
D03*
X101600D02*
D03*
X88900D02*
D03*
X76200D02*
D03*
D64*
X63500D02*
D03*
M02*
