G04*
G04 #@! TF.GenerationSoftware,Altium Limited,Altium Designer,19.0.14 (431)*
G04*
G04 Layer_Color=65535*
%FSLAX44Y44*%
%MOMM*%
G71*
G01*
G75*
%ADD10C,0.1000*%
%ADD11C,0.2540*%
%ADD12C,0.2000*%
%ADD13C,0.2500*%
%ADD14C,0.1270*%
%ADD15C,0.1500*%
D10*
X280061Y101531D02*
G03*
X280061Y101531I-500J0D01*
G01*
X345181Y104821D02*
G03*
X345181Y104821I-500J0D01*
G01*
X22500Y97250D02*
Y102750D01*
X7500Y97250D02*
Y102750D01*
X13750Y108000D02*
X16250D01*
X13750Y92000D02*
X16250D01*
X248574Y49667D02*
X261585Y62677D01*
X261620Y62713D02*
X274525Y49808D01*
X248538Y33368D02*
X258615Y23291D01*
X264625Y23291D01*
X274666Y33332D01*
D11*
X4658Y111100D02*
G03*
X4658Y111100I-158J0D01*
G01*
D12*
X337250Y37030D02*
G03*
X337250Y37030I-1000J0D01*
G01*
X41750Y180000D02*
G03*
X41750Y180000I-1000J0D01*
G01*
Y40000D02*
G03*
X41750Y40000I-1000J0D01*
G01*
X184150Y63680D02*
X225150D01*
Y54480D02*
Y63680D01*
Y22680D02*
Y31980D01*
X184050Y22680D02*
X225150D01*
X184050D02*
Y31880D01*
Y63580D02*
X184150Y63680D01*
X184050Y54480D02*
Y63580D01*
X128129Y185450D02*
X135129D01*
X230538Y125109D02*
X237538D01*
X257890Y128010D02*
Y159010D01*
X267890Y128010D02*
Y159010D01*
X257890D02*
X267890D01*
X257890Y128010D02*
X267890D01*
X55000Y0D02*
Y29100D01*
Y91500D02*
Y154000D01*
X148700D02*
X150000D01*
Y145500D02*
Y154000D01*
X55000Y0D02*
X149000D01*
Y51700D01*
X123300Y165000D02*
Y183000D01*
X54500D02*
X123300D01*
X54500Y165000D02*
Y183000D01*
Y165000D02*
X123300D01*
D13*
X277890Y125510D02*
G03*
X277890Y125510I-1250J0D01*
G01*
D14*
X335250Y6530D02*
X357250D01*
X355250Y33530D02*
X357250D01*
X335250D02*
X337250D01*
X365250Y22030D02*
Y30530D01*
X327250Y22030D02*
Y30530D01*
X357250D02*
X365250D01*
X357250D02*
Y33530D01*
X335250Y30530D02*
Y33530D01*
X327250Y30530D02*
X335250D01*
X34250Y181000D02*
Y189000D01*
Y181000D02*
X37250D01*
X34250Y159000D02*
X37250D01*
X34250Y151000D02*
Y159000D01*
X25750Y189000D02*
X34250D01*
X25750Y151000D02*
X34250D01*
X37250Y179000D02*
Y181000D01*
Y159000D02*
Y161000D01*
X10250Y159000D02*
Y181000D01*
X34250Y41000D02*
Y49000D01*
Y41000D02*
X37250D01*
X34250Y19000D02*
X37250D01*
X34250Y11000D02*
Y19000D01*
X25750Y49000D02*
X34250D01*
X25750Y11000D02*
X34250D01*
X37250Y39000D02*
Y41000D01*
Y19000D02*
Y21000D01*
X10250Y19000D02*
Y41000D01*
D15*
X300590Y168240D02*
X308587D01*
Y164241D01*
X307255Y162908D01*
X304589D01*
X303256Y164241D01*
Y168240D01*
Y165574D02*
X300590Y162908D01*
Y160243D02*
Y157577D01*
Y158910D01*
X308587D01*
X307255Y160243D01*
X308587Y148246D02*
Y153578D01*
X304589D01*
X305922Y150912D01*
Y149579D01*
X304589Y148246D01*
X301923D01*
X300590Y149579D01*
Y152245D01*
X301923Y153578D01*
X321348Y192690D02*
X329345D01*
Y188691D01*
X328012Y187358D01*
X325346D01*
X324013Y188691D01*
Y192690D01*
Y190024D02*
X321348Y187358D01*
X322681Y184693D02*
X321348Y183360D01*
Y180694D01*
X322681Y179361D01*
X328012D01*
X329345Y180694D01*
Y183360D01*
X328012Y184693D01*
X326679D01*
X325346Y183360D01*
Y179361D01*
X360082Y145919D02*
X357416D01*
X358749D01*
Y139255D01*
X357416Y137922D01*
X356083D01*
X354750Y139255D01*
X362747Y137922D02*
X365413D01*
X364080D01*
Y145919D01*
X362747Y144586D01*
X155825Y98601D02*
Y106598D01*
X158491Y103932D01*
X161157Y106598D01*
Y98601D01*
X163823D02*
X166488D01*
X165156D01*
Y106598D01*
X163823Y105265D01*
X289560Y183500D02*
X297557D01*
Y179501D01*
X296224Y178168D01*
X293559D01*
X292226Y179501D01*
Y183500D01*
Y180834D02*
X289560Y178168D01*
Y175502D02*
Y172837D01*
Y174170D01*
X297557D01*
X296224Y175502D01*
X289560Y164839D02*
X297557D01*
X293559Y168838D01*
Y163506D01*
X242570Y162436D02*
Y170433D01*
X246569D01*
X247902Y169100D01*
Y166434D01*
X246569Y165102D01*
X242570D01*
X250567Y170433D02*
Y162436D01*
X253233Y165102D01*
X255899Y162436D01*
Y170433D01*
X258565Y162436D02*
X261231D01*
X259898D01*
Y170433D01*
X258565Y169100D01*
X265229Y162436D02*
Y163769D01*
X266562D01*
Y162436D01*
X265229D01*
X271894Y169100D02*
X273227Y170433D01*
X275893D01*
X277225Y169100D01*
Y167767D01*
X275893Y166434D01*
X277225Y165102D01*
Y163769D01*
X275893Y162436D01*
X273227D01*
X271894Y163769D01*
Y165102D01*
X273227Y166434D01*
X271894Y167767D01*
Y169100D01*
X273227Y166434D02*
X275893D01*
X279891Y170433D02*
Y165102D01*
X282557Y162436D01*
X285223Y165102D01*
Y170433D01*
X222980Y121387D02*
Y113390D01*
X228312D01*
X230977Y120055D02*
X232310Y121387D01*
X234976D01*
X236309Y120055D01*
Y118722D01*
X234976Y117389D01*
X233643D01*
X234976D01*
X236309Y116056D01*
Y114723D01*
X234976Y113390D01*
X232310D01*
X230977Y114723D01*
X186792Y145654D02*
X185459Y146987D01*
X182793D01*
X181460Y145654D01*
Y140323D01*
X182793Y138990D01*
X185459D01*
X186792Y140323D01*
X189457Y138990D02*
X192123D01*
X190790D01*
Y146987D01*
X189457Y145654D01*
X201453Y138990D02*
X196122D01*
X201453Y144322D01*
Y145654D01*
X200121Y146987D01*
X197455D01*
X196122Y145654D01*
X196322Y175135D02*
X194989Y176467D01*
X192323D01*
X190990Y175135D01*
Y169803D01*
X192323Y168470D01*
X194989D01*
X196322Y169803D01*
X198987Y168470D02*
X201653D01*
X200320D01*
Y176467D01*
X198987Y175135D01*
X209651Y168470D02*
Y176467D01*
X205652Y172469D01*
X210984D01*
X319943Y149919D02*
X318610Y151252D01*
X315944D01*
X314611Y149919D01*
Y144587D01*
X315944Y143254D01*
X318610D01*
X319943Y144587D01*
X322609Y143254D02*
X325275D01*
X323942D01*
Y151252D01*
X322609Y149919D01*
X329273Y143254D02*
X331939D01*
X330606D01*
Y151252D01*
X329273Y149919D01*
X224192Y172794D02*
X222859Y174127D01*
X220194D01*
X218860Y172794D01*
Y167462D01*
X220194Y166129D01*
X222859D01*
X224192Y167462D01*
X226858Y166129D02*
X229524D01*
X228191D01*
Y174127D01*
X226858Y172794D01*
X238854Y174127D02*
X236188Y172794D01*
X233522Y170128D01*
Y167462D01*
X234855Y166129D01*
X237521D01*
X238854Y167462D01*
Y168795D01*
X237521Y170128D01*
X233522D01*
X194162Y162395D02*
X192829Y163728D01*
X190163D01*
X188830Y162395D01*
Y157064D01*
X190163Y155731D01*
X192829D01*
X194162Y157064D01*
X196827Y155731D02*
X199493D01*
X198160D01*
Y163728D01*
X196827Y162395D01*
X203492D02*
X204825Y163728D01*
X207491D01*
X208824Y162395D01*
Y161062D01*
X207491Y159729D01*
X206158D01*
X207491D01*
X208824Y158396D01*
Y157064D01*
X207491Y155731D01*
X204825D01*
X203492Y157064D01*
X244870Y120035D02*
X243537Y121367D01*
X240871D01*
X239538Y120035D01*
Y114703D01*
X240871Y113370D01*
X243537D01*
X244870Y114703D01*
X247535Y113370D02*
X250201D01*
X248868D01*
Y121367D01*
X247535Y120035D01*
X259532Y121367D02*
X254200D01*
Y117369D01*
X256866Y118702D01*
X258199D01*
X259532Y117369D01*
Y114703D01*
X258199Y113370D01*
X255533D01*
X254200Y114703D01*
X12952Y138744D02*
X11619Y140077D01*
X8953D01*
X7620Y138744D01*
Y133413D01*
X8953Y132080D01*
X11619D01*
X12952Y133413D01*
X15617Y140077D02*
Y132080D01*
X20949D01*
X23615Y140077D02*
X26281D01*
X24948D01*
Y132080D01*
X23615D01*
X26281D01*
X30279D02*
Y140077D01*
X34278D01*
X35611Y138744D01*
Y136079D01*
X34278Y134746D01*
X30279D01*
X228538Y30077D02*
Y22080D01*
X233870D01*
X241867Y28744D02*
X240534Y30077D01*
X237868D01*
X236535Y28744D01*
Y27412D01*
X237868Y26079D01*
X240534D01*
X241867Y24746D01*
Y23413D01*
X240534Y22080D01*
X237868D01*
X236535Y23413D01*
X244533Y22080D02*
X247199D01*
X245866D01*
Y30077D01*
X244533Y28744D01*
X6350Y65997D02*
X11682D01*
X9016D01*
Y58000D01*
X15680D02*
X18346D01*
X19679Y59333D01*
Y61999D01*
X18346Y63332D01*
X15680D01*
X14347Y61999D01*
Y59333D01*
X15680Y58000D01*
X22345Y63332D02*
Y59333D01*
X23678Y58000D01*
X27676D01*
Y63332D01*
X35674D02*
X31675D01*
X30342Y61999D01*
Y59333D01*
X31675Y58000D01*
X35674D01*
X38340Y65997D02*
Y58000D01*
Y61999D01*
X39673Y63332D01*
X42338D01*
X43671Y61999D01*
Y58000D01*
X239538Y102750D02*
Y110747D01*
X243537D01*
X244870Y109415D01*
Y106749D01*
X243537Y105416D01*
X239538D01*
X242204D02*
X244870Y102750D01*
X247535D02*
X250201D01*
X248868D01*
Y110747D01*
X247535Y109415D01*
X254200D02*
X255533Y110747D01*
X258199D01*
X259532Y109415D01*
Y108082D01*
X258199Y106749D01*
X256866D01*
X258199D01*
X259532Y105416D01*
Y104083D01*
X258199Y102750D01*
X255533D01*
X254200Y104083D01*
X179070Y99800D02*
X187067D01*
Y95801D01*
X185735Y94468D01*
X183069D01*
X181736Y95801D01*
Y99800D01*
Y97134D02*
X179070Y94468D01*
Y91803D02*
Y89137D01*
Y90470D01*
X187067D01*
X185735Y91803D01*
X179070Y85138D02*
Y82472D01*
Y83805D01*
X187067D01*
X185735Y85138D01*
X207850Y99800D02*
X215847D01*
Y95801D01*
X214515Y94468D01*
X211849D01*
X210516Y95801D01*
Y99800D01*
Y97134D02*
X207850Y94468D01*
Y91803D02*
Y89137D01*
Y90470D01*
X215847D01*
X214515Y91803D01*
Y85138D02*
X215847Y83805D01*
Y81139D01*
X214515Y79806D01*
X209183D01*
X207850Y81139D01*
Y83805D01*
X209183Y85138D01*
X214515D01*
X28560Y98060D02*
Y106057D01*
X32559D01*
X33892Y104724D01*
Y102058D01*
X32559Y100726D01*
X28560D01*
X31226D02*
X33892Y98060D01*
X36558Y104724D02*
X37890Y106057D01*
X40556D01*
X41889Y104724D01*
Y103391D01*
X40556Y102058D01*
X41889Y100726D01*
Y99393D01*
X40556Y98060D01*
X37890D01*
X36558Y99393D01*
Y100726D01*
X37890Y102058D01*
X36558Y103391D01*
Y104724D01*
X37890Y102058D02*
X40556D01*
X5080Y78280D02*
Y86277D01*
X9079D01*
X10412Y84944D01*
Y82279D01*
X9079Y80946D01*
X5080D01*
X7746D02*
X10412Y78280D01*
X13077Y86277D02*
X18409D01*
Y84944D01*
X13077Y79613D01*
Y78280D01*
X5080Y68300D02*
Y76297D01*
X9079D01*
X10412Y74965D01*
Y72299D01*
X9079Y70966D01*
X5080D01*
X7746D02*
X10412Y68300D01*
X18409Y76297D02*
X15743Y74965D01*
X13077Y72299D01*
Y69633D01*
X14410Y68300D01*
X17076D01*
X18409Y69633D01*
Y70966D01*
X17076Y72299D01*
X13077D01*
X295050Y49530D02*
Y57527D01*
X299049D01*
X300382Y56195D01*
Y53529D01*
X299049Y52196D01*
X295050D01*
X297716D02*
X300382Y49530D01*
X308379Y57527D02*
X303047D01*
Y53529D01*
X305713Y54862D01*
X307046D01*
X308379Y53529D01*
Y50863D01*
X307046Y49530D01*
X304380D01*
X303047Y50863D01*
X295140Y60960D02*
Y68957D01*
X299139D01*
X300472Y67625D01*
Y64959D01*
X299139Y63626D01*
X295140D01*
X297806D02*
X300472Y60960D01*
X307136D02*
Y68957D01*
X303138Y64959D01*
X308469D01*
X295140Y81280D02*
Y89277D01*
X299139D01*
X300472Y87944D01*
Y85279D01*
X299139Y83946D01*
X295140D01*
X297806D02*
X300472Y81280D01*
X303138Y87944D02*
X304471Y89277D01*
X307136D01*
X308469Y87944D01*
Y86612D01*
X307136Y85279D01*
X305804D01*
X307136D01*
X308469Y83946D01*
Y82613D01*
X307136Y81280D01*
X304471D01*
X303138Y82613D01*
X313482Y38530D02*
Y46528D01*
X317481D01*
X318813Y45195D01*
Y42529D01*
X317481Y41196D01*
X313482D01*
X316148D02*
X318813Y38530D01*
X326811D02*
X321479D01*
X326811Y43862D01*
Y45195D01*
X325478Y46528D01*
X322812D01*
X321479Y45195D01*
X313482Y27030D02*
Y35027D01*
X317481D01*
X318813Y33695D01*
Y31029D01*
X317481Y29696D01*
X313482D01*
X316148D02*
X318813Y27030D01*
X321479D02*
X324145D01*
X322812D01*
Y35027D01*
X321479Y33695D01*
X280670Y96659D02*
X288667D01*
Y92661D01*
X287334Y91328D01*
X284669D01*
X283336Y92661D01*
Y96659D01*
X288667Y88662D02*
X280670D01*
X283336Y85996D01*
X280670Y83330D01*
X288667D01*
X287334Y80665D02*
X288667Y79332D01*
Y76666D01*
X287334Y75333D01*
X286002D01*
X284669Y76666D01*
Y77999D01*
Y76666D01*
X283336Y75333D01*
X282003D01*
X280670Y76666D01*
Y79332D01*
X282003Y80665D01*
X280670Y72667D02*
X282003D01*
Y71334D01*
X280670D01*
Y72667D01*
X287334Y66003D02*
X288667Y64670D01*
Y62004D01*
X287334Y60671D01*
X286002D01*
X284669Y62004D01*
Y63337D01*
Y62004D01*
X283336Y60671D01*
X282003D01*
X280670Y62004D01*
Y64670D01*
X282003Y66003D01*
X288667Y58005D02*
X283336D01*
X280670Y55339D01*
X283336Y52674D01*
X288667D01*
X275590Y28317D02*
Y20320D01*
X280922D01*
X288919D02*
X283587D01*
X288919Y25652D01*
Y26985D01*
X287586Y28317D01*
X284920D01*
X283587Y26985D01*
X126129Y195957D02*
Y187960D01*
X131461D01*
X134127D02*
X136792D01*
X135459D01*
Y195957D01*
X134127Y194625D01*
X54610Y195957D02*
Y187960D01*
X58609D01*
X59942Y189293D01*
Y194625D01*
X58609Y195957D01*
X54610D01*
X66606Y187960D02*
X63940D01*
X62607Y189293D01*
Y191959D01*
X63940Y193292D01*
X66606D01*
X67939Y191959D01*
Y190626D01*
X62607D01*
X70605Y195957D02*
Y187960D01*
X74604D01*
X75936Y189293D01*
Y190626D01*
Y191959D01*
X74604Y193292D01*
X70605D01*
X78602D02*
Y189293D01*
X79935Y187960D01*
X83934D01*
Y193292D01*
X89265Y185294D02*
X90598D01*
X91931Y186627D01*
Y193292D01*
X87933D01*
X86600Y191959D01*
Y189293D01*
X87933Y187960D01*
X91931D01*
X8890Y123567D02*
Y115570D01*
X12889D01*
X14222Y116903D01*
Y122234D01*
X12889Y123567D01*
X8890D01*
X16887Y115570D02*
X19553D01*
X18220D01*
Y123567D01*
X16887Y122234D01*
X269492Y11745D02*
X268159Y13077D01*
X265493D01*
X264160Y11745D01*
Y6413D01*
X265493Y5080D01*
X268159D01*
X269492Y6413D01*
X276156Y13077D02*
X273490D01*
X272157Y11745D01*
Y6413D01*
X273490Y5080D01*
X276156D01*
X277489Y6413D01*
Y11745D01*
X276156Y13077D01*
X280155Y5080D02*
Y13077D01*
X285486Y5080D01*
Y13077D01*
X288152Y3747D02*
X293484D01*
X296150Y13077D02*
Y5080D01*
X300148D01*
X301481Y6413D01*
Y7746D01*
X300148Y9079D01*
X296150D01*
X300148D01*
X301481Y10412D01*
Y11745D01*
X300148Y13077D01*
X296150D01*
X304147Y5080D02*
Y10412D01*
X306813Y13077D01*
X309479Y10412D01*
Y5080D01*
Y9079D01*
X304147D01*
X312145Y13077D02*
X317476D01*
X314810D01*
Y5080D01*
X359645Y102709D02*
X360977Y104042D01*
Y106707D01*
X359645Y108040D01*
X354313D01*
X352980Y106707D01*
Y104042D01*
X354313Y102709D01*
X360977Y100043D02*
X352980D01*
X356979D01*
X358312Y98710D01*
Y96044D01*
X356979Y94711D01*
X352980D01*
X358312Y90713D02*
Y88047D01*
X356979Y86714D01*
X352980D01*
Y90713D01*
X354313Y92045D01*
X355646Y90713D01*
Y86714D01*
X358312Y84048D02*
X352980D01*
X355646D01*
X356979Y82715D01*
X358312Y81382D01*
Y80049D01*
X350314Y73385D02*
Y72052D01*
X351647Y70719D01*
X358312D01*
Y74718D01*
X356979Y76051D01*
X354313D01*
X352980Y74718D01*
Y70719D01*
Y64055D02*
Y66720D01*
X354313Y68053D01*
X356979D01*
X358312Y66720D01*
Y64055D01*
X356979Y62722D01*
X355646D01*
Y68053D01*
X204182Y9204D02*
X202849Y10537D01*
X200183D01*
X198850Y9204D01*
Y3873D01*
X200183Y2540D01*
X202849D01*
X204182Y3873D01*
X206847Y2540D02*
X209513D01*
X208180D01*
Y10537D01*
X206847Y9204D01*
X213512D02*
X214845Y10537D01*
X217511D01*
X218844Y9204D01*
Y3873D01*
X217511Y2540D01*
X214845D01*
X213512Y3873D01*
Y9204D01*
X173462Y9204D02*
X172129Y10537D01*
X169463D01*
X168130Y9204D01*
Y3873D01*
X169463Y2540D01*
X172129D01*
X173462Y3873D01*
X176127D02*
X177460Y2540D01*
X180126D01*
X181459Y3873D01*
Y9204D01*
X180126Y10537D01*
X177460D01*
X176127Y9204D01*
Y7871D01*
X177460Y6539D01*
X181459D01*
X237036Y58628D02*
X238369Y59961D01*
Y62627D01*
X237036Y63960D01*
X231705D01*
X230372Y62627D01*
Y59961D01*
X231705Y58628D01*
X237036Y55963D02*
X238369Y54630D01*
Y51964D01*
X237036Y50631D01*
X235704D01*
X234371Y51964D01*
X233038Y50631D01*
X231705D01*
X230372Y51964D01*
Y54630D01*
X231705Y55963D01*
X233038D01*
X234371Y54630D01*
X235704Y55963D01*
X237036D01*
X234371Y54630D02*
Y51964D01*
X166592Y51525D02*
X165259Y52857D01*
X162593D01*
X161260Y51525D01*
Y46193D01*
X162593Y44860D01*
X165259D01*
X166592Y46193D01*
X169258Y52857D02*
X174589D01*
Y51525D01*
X169258Y46193D01*
Y44860D01*
X301925Y112428D02*
X303258Y113761D01*
Y116427D01*
X301925Y117760D01*
X296593D01*
X295260Y116427D01*
Y113761D01*
X296593Y112428D01*
X303258Y104431D02*
X301925Y107097D01*
X299259Y109763D01*
X296593D01*
X295260Y108430D01*
Y105764D01*
X296593Y104431D01*
X297926D01*
X299259Y105764D01*
Y109763D01*
X162794Y122060D02*
X164127Y123393D01*
Y126059D01*
X162794Y127392D01*
X157463D01*
X156130Y126059D01*
Y123393D01*
X157463Y122060D01*
X156130Y115396D02*
X164127D01*
X160129Y119395D01*
Y114063D01*
X146504Y187708D02*
X147837Y189041D01*
Y191707D01*
X146504Y193040D01*
X141173D01*
X139840Y191707D01*
Y189041D01*
X141173Y187708D01*
X146504Y185043D02*
X147837Y183710D01*
Y181044D01*
X146504Y179711D01*
X145172D01*
X143839Y181044D01*
Y182377D01*
Y181044D01*
X142506Y179711D01*
X141173D01*
X139840Y181044D01*
Y183710D01*
X141173Y185043D01*
X346511Y58435D02*
X345178Y59768D01*
X342513D01*
X341180Y58435D01*
Y53103D01*
X342513Y51770D01*
X345178D01*
X346511Y53103D01*
X354509Y51770D02*
X349177D01*
X354509Y57102D01*
Y58435D01*
X353176Y59768D01*
X350510D01*
X349177Y58435D01*
X341882Y127664D02*
X340549Y128997D01*
X337883D01*
X336550Y127664D01*
Y122333D01*
X337883Y121000D01*
X340549D01*
X341882Y122333D01*
X344547Y121000D02*
X347213D01*
X345880D01*
Y128997D01*
X344547Y127664D01*
M02*
