G04*
G04 #@! TF.GenerationSoftware,Altium Limited,Altium Designer,19.0.14 (431)*
G04*
G04 Layer_Color=8421504*
%FSLAX44Y44*%
%MOMM*%
G71*
G01*
G75*
%ADD16R,0.4000X0.5000*%
%ADD17R,0.8000X1.7000*%
%ADD18R,0.5000X0.4000*%
%ADD19R,0.8000X0.7000*%
%ADD20R,2.6000X1.6000*%
%ADD21R,0.1500X0.4500*%
%ADD22R,0.4000X0.6500*%
%ADD23R,0.5500X0.5500*%
%ADD24R,1.2500X0.3000*%
%ADD25R,1.2500X0.5500*%
%ADD26R,1.1000X1.6000*%
%ADD27R,0.4000X0.9000*%
%ADD28R,0.9000X0.1500*%
%ADD29R,2.3000X1.5500*%
%ADD30R,0.1500X0.5000*%
%ADD31R,0.6000X0.8000*%
%ADD32R,0.9000X0.5000*%
%ADD33R,0.3100X0.8100*%
%ADD34R,0.8100X0.3100*%
%ADD35R,0.9000X1.0000*%
%ADD36R,1.2000X1.2000*%
%ADD37R,0.9000X0.4000*%
%ADD38R,1.6000X1.1000*%
G36*
X380208Y65900D02*
X380217Y65802D01*
X380246Y65708D01*
X380292Y65621D01*
X380355Y65545D01*
X380431Y65482D01*
X380518Y65436D01*
X380612Y65407D01*
X380710Y65398D01*
X391708Y65398D01*
Y54402D01*
X370912Y54402D01*
Y67000D01*
X370903Y67098D01*
X370874Y67192D01*
X370828Y67279D01*
X370765Y67355D01*
X370689Y67418D01*
X370602Y67464D01*
X370508Y67493D01*
X370410Y67502D01*
X365912D01*
Y78498D01*
X380208D01*
Y65900D01*
D02*
G37*
G36*
X391708Y134602D02*
X380710D01*
X380612Y134593D01*
X380518Y134564D01*
X380431Y134518D01*
X380355Y134455D01*
X380292Y134379D01*
X380246Y134292D01*
X380217Y134198D01*
X380208Y134100D01*
Y121502D01*
X365912D01*
Y132498D01*
X370410D01*
X370508Y132507D01*
X370602Y132536D01*
X370689Y132582D01*
X370765Y132645D01*
X370828Y132721D01*
X370874Y132808D01*
X370903Y132902D01*
X370912Y133000D01*
Y145598D01*
X391708D01*
Y134602D01*
D02*
G37*
D16*
X313967Y181690D02*
D03*
Y191690D02*
D03*
X304800Y184670D02*
D03*
Y174670D02*
D03*
X193040Y96440D02*
D03*
Y86440D02*
D03*
X201850Y96440D02*
D03*
Y86440D02*
D03*
X160060Y144109D02*
D03*
Y134109D02*
D03*
X353060Y114380D02*
D03*
Y124380D02*
D03*
X289560Y106760D02*
D03*
Y116760D02*
D03*
D17*
X222250Y43180D02*
D03*
X187250D02*
D03*
D18*
X153730Y173990D02*
D03*
X143730D02*
D03*
X214550Y16400D02*
D03*
X204550D02*
D03*
X170100D02*
D03*
X180100D02*
D03*
X26670Y81280D02*
D03*
X36670D02*
D03*
X26670Y71800D02*
D03*
X36670D02*
D03*
X295990Y42499D02*
D03*
X305990D02*
D03*
X295982Y30530D02*
D03*
X305982D02*
D03*
X315040Y53340D02*
D03*
X325040D02*
D03*
X325210Y64770D02*
D03*
X315210D02*
D03*
X266190Y116380D02*
D03*
X276190D02*
D03*
X328210Y157020D02*
D03*
X318210D02*
D03*
X174960Y172920D02*
D03*
X184960D02*
D03*
X173100Y160020D02*
D03*
X183100D02*
D03*
X162260Y39000D02*
D03*
X172260D02*
D03*
X173100Y151000D02*
D03*
X183100D02*
D03*
X234288Y158959D02*
D03*
X224288D02*
D03*
X342980Y44999D02*
D03*
X352980D02*
D03*
X30360Y92250D02*
D03*
X40360D02*
D03*
X266190Y105999D02*
D03*
X276190D02*
D03*
X297441Y75300D02*
D03*
X307441D02*
D03*
D19*
X131629Y178450D02*
D03*
Y164450D02*
D03*
X234038Y146109D02*
D03*
Y132109D02*
D03*
D20*
X263690Y83359D02*
D03*
D21*
X251190Y70059D02*
D03*
X256190D02*
D03*
X261190D02*
D03*
X266190D02*
D03*
X271190D02*
D03*
X276190D02*
D03*
X251190Y96659D02*
D03*
X256190D02*
D03*
X261190D02*
D03*
X266190D02*
D03*
X271190D02*
D03*
X276190D02*
D03*
D22*
X10000Y107750D02*
D03*
X20000D02*
D03*
X10000Y92250D02*
D03*
X20000D02*
D03*
D23*
X372610Y126400D02*
D03*
X371610Y73000D02*
D03*
D24*
X372110Y100000D02*
D03*
Y106500D02*
D03*
Y93500D02*
D03*
D25*
Y114250D02*
D03*
Y85750D02*
D03*
D26*
X365750Y11530D02*
D03*
X326750D02*
D03*
D27*
X350250Y31030D02*
D03*
X342250D02*
D03*
D28*
X319310Y91800D02*
D03*
Y86800D02*
D03*
X343310D02*
D03*
Y91800D02*
D03*
D29*
X331310Y89300D02*
D03*
D30*
X321310Y75300D02*
D03*
X326310D02*
D03*
X331310D02*
D03*
X336310D02*
D03*
X341310D02*
D03*
X321310Y103300D02*
D03*
X326310D02*
D03*
X331310D02*
D03*
X336310D02*
D03*
X341310D02*
D03*
D31*
X293060Y156360D02*
D03*
Y143360D02*
D03*
D32*
X249140Y134010D02*
D03*
Y153010D02*
D03*
X276640D02*
D03*
Y143510D02*
D03*
Y134010D02*
D03*
D33*
X83400Y151400D02*
D03*
X75800D02*
D03*
X60600D02*
D03*
X68200D02*
D03*
X98700D02*
D03*
X91100D02*
D03*
X106300D02*
D03*
X113800D02*
D03*
X144200D02*
D03*
X136700D02*
D03*
X121500D02*
D03*
X129100D02*
D03*
D34*
X57600Y33700D02*
D03*
Y41300D02*
D03*
Y56600D02*
D03*
Y48900D02*
D03*
Y79400D02*
D03*
Y87000D02*
D03*
Y71800D02*
D03*
Y64200D02*
D03*
X147400Y125100D02*
D03*
Y117500D02*
D03*
Y132800D02*
D03*
Y140400D02*
D03*
Y109900D02*
D03*
Y102300D02*
D03*
Y87000D02*
D03*
Y94700D02*
D03*
Y64200D02*
D03*
Y56600D02*
D03*
Y71800D02*
D03*
Y79400D02*
D03*
D35*
X233680Y89780D02*
D03*
Y72780D02*
D03*
D36*
X276611Y41499D02*
D03*
X246629D02*
D03*
D37*
X34750Y174000D02*
D03*
Y166000D02*
D03*
Y34000D02*
D03*
Y26000D02*
D03*
D38*
X15250Y189500D02*
D03*
Y150500D02*
D03*
Y49500D02*
D03*
Y10500D02*
D03*
M02*
