G04*
G04 #@! TF.GenerationSoftware,Altium Limited,Altium Designer,19.0.14 (431)*
G04*
G04 Layer_Color=128*
%FSLAX44Y44*%
%MOMM*%
G71*
G01*
G75*
%ADD18R,0.5000X0.4000*%
%ADD35R,0.9000X1.0000*%
%ADD120R,0.6500X0.1500*%
%ADD121R,0.7500X0.1500*%
%ADD122R,0.1500X0.6500*%
%ADD123R,0.1500X0.7500*%
%ADD124R,2.5000X2.5000*%
%ADD125O,0.7500X0.1000*%
%ADD126O,0.1000X0.7500*%
%ADD127R,2.3000X2.3000*%
%ADD128R,3.0000X2.4000*%
%ADD129R,1.4500X0.9000*%
%ADD130R,1.0000X0.9000*%
%ADD131R,1.4000X2.2000*%
%ADD132R,0.7000X0.2000*%
G36*
X173350Y32580D02*
X174350Y33580D01*
Y35080D01*
X173350D01*
Y32580D01*
D02*
G37*
G36*
X175600Y30330D02*
X176600Y31330D01*
X178100D01*
Y30330D01*
X175600D01*
D02*
G37*
G36*
X173350Y60080D02*
X174350Y59080D01*
Y57580D01*
X173350D01*
Y60080D01*
D02*
G37*
G36*
X175600Y62330D02*
X176600Y61330D01*
X178100D01*
Y62330D01*
X175600D01*
D02*
G37*
G36*
X203100Y30330D02*
X202100Y31330D01*
X200600D01*
Y30330D01*
X203100D01*
D02*
G37*
G36*
X205350Y32580D02*
X204350Y33580D01*
Y35080D01*
X205350D01*
Y32580D01*
D02*
G37*
G36*
X203100Y62330D02*
X202100Y61330D01*
X200600D01*
Y62330D01*
X203100D01*
D02*
G37*
G36*
X205350Y60080D02*
X204350Y59080D01*
Y57580D01*
X205350D01*
Y60080D01*
D02*
G37*
D18*
X31750Y61830D02*
D03*
X21750D02*
D03*
X21441Y51500D02*
D03*
X11441D02*
D03*
D35*
X274000Y111800D02*
D03*
Y94800D02*
D03*
D120*
X209100Y58830D02*
D03*
Y33830D02*
D03*
X169600D02*
D03*
Y58830D02*
D03*
D121*
X208600Y53830D02*
D03*
Y48830D02*
D03*
Y43830D02*
D03*
Y38830D02*
D03*
X170100D02*
D03*
Y43830D02*
D03*
Y48830D02*
D03*
Y53830D02*
D03*
D122*
X201850Y26580D02*
D03*
X176850D02*
D03*
Y66080D02*
D03*
X201850D02*
D03*
D123*
X196850Y27080D02*
D03*
X191850D02*
D03*
X186850D02*
D03*
X181850D02*
D03*
Y65580D02*
D03*
X186850D02*
D03*
X191850D02*
D03*
X196850D02*
D03*
D124*
X189350Y46330D02*
D03*
D125*
X168710Y141670D02*
D03*
Y145670D02*
D03*
Y149670D02*
D03*
Y153670D02*
D03*
Y157670D02*
D03*
Y161670D02*
D03*
Y165670D02*
D03*
X207210D02*
D03*
Y161670D02*
D03*
Y157670D02*
D03*
Y153670D02*
D03*
Y149670D02*
D03*
Y145670D02*
D03*
Y141670D02*
D03*
D126*
X175960Y172920D02*
D03*
X179960D02*
D03*
X183960D02*
D03*
X187960D02*
D03*
X191960D02*
D03*
X195960D02*
D03*
X199960D02*
D03*
Y134420D02*
D03*
X195960D02*
D03*
X191960D02*
D03*
X187960D02*
D03*
X183960D02*
D03*
X179960D02*
D03*
X175960D02*
D03*
D127*
X187960Y153670D02*
D03*
D128*
X318941Y102952D02*
D03*
D129*
X306191Y81952D02*
D03*
X331691Y123952D02*
D03*
X306191D02*
D03*
X331691Y81952D02*
D03*
D130*
X310440Y61000D02*
D03*
X327440D02*
D03*
X310641Y155000D02*
D03*
X327641D02*
D03*
D131*
X28420Y27080D02*
D03*
D132*
X13970Y17330D02*
D03*
Y23830D02*
D03*
Y30330D02*
D03*
Y36830D02*
D03*
X42870Y17330D02*
D03*
Y23830D02*
D03*
Y30330D02*
D03*
Y36830D02*
D03*
M02*
