G04*
G04 #@! TF.GenerationSoftware,Altium Limited,Altium Designer,19.0.14 (431)*
G04*
G04 Layer_Color=32896*
%FSLAX44Y44*%
%MOMM*%
G71*
G01*
G75*
%ADD14C,0.1270*%
D14*
X357250Y30530D02*
X365250D01*
X357250D02*
Y33530D01*
X335250D02*
X357250D01*
X335250Y30530D02*
Y33530D01*
X327250Y30530D02*
X335250D01*
X327250Y6530D02*
Y30530D01*
X365250Y6530D02*
Y30530D01*
X327250Y6530D02*
X365250D01*
X357250Y30530D02*
X365250D01*
X357250D02*
Y33530D01*
X335250D02*
X357250D01*
X335250Y30530D02*
Y33530D01*
X327250Y30530D02*
X335250D01*
X327250Y6530D02*
Y30530D01*
X365250Y6530D02*
Y30530D01*
X327250Y6530D02*
X365250D01*
X10250Y151000D02*
Y189000D01*
Y151000D02*
X34250D01*
X10250Y189000D02*
X34250D01*
Y181000D02*
Y189000D01*
Y181000D02*
X37250D01*
Y159000D02*
Y181000D01*
X34250Y159000D02*
X37250D01*
X34250Y151000D02*
Y159000D01*
X10250Y151000D02*
Y189000D01*
Y151000D02*
X34250D01*
X10250Y189000D02*
X34250D01*
Y181000D02*
Y189000D01*
Y181000D02*
X37250D01*
Y159000D02*
Y181000D01*
X34250Y159000D02*
X37250D01*
X34250Y151000D02*
Y159000D01*
X10250Y11000D02*
Y49000D01*
Y11000D02*
X34250D01*
X10250Y49000D02*
X34250D01*
Y41000D02*
Y49000D01*
Y41000D02*
X37250D01*
Y19000D02*
Y41000D01*
X34250Y19000D02*
X37250D01*
X34250Y11000D02*
Y19000D01*
X10250Y11000D02*
Y49000D01*
Y11000D02*
X34250D01*
X10250Y49000D02*
X34250D01*
Y41000D02*
Y49000D01*
Y41000D02*
X37250D01*
Y19000D02*
Y41000D01*
X34250Y19000D02*
X37250D01*
X34250Y11000D02*
Y19000D01*
M02*
