G04*
G04 #@! TF.GenerationSoftware,Altium Limited,Altium Designer,19.0.12 (326)*
G04*
G04 Layer_Color=255*
%FSLAX44Y44*%
%MOMM*%
G71*
G01*
G75*
%ADD17R,0.6000X0.5000*%
%ADD35R,1.0000X1.1000*%
%ADD67C,0.6000*%
%ADD68C,1.0000*%
%ADD69R,1.0000X1.0000*%
%ADD70R,0.7500X0.2500*%
%ADD71R,0.8500X0.2500*%
%ADD72R,0.2500X0.7500*%
%ADD73R,0.2500X0.8500*%
%ADD74R,2.6000X2.6000*%
%ADD75O,0.8500X0.2000*%
%ADD76O,0.2000X0.8500*%
%ADD77R,2.4000X2.4000*%
%ADD78R,3.1000X2.5000*%
%ADD79R,1.5500X1.0000*%
%ADD80R,1.1000X1.0000*%
%ADD81R,1.5000X2.3000*%
%ADD82R,0.8000X0.3000*%
D17*
X31750Y61830D02*
D03*
X21750D02*
D03*
X21441Y51500D02*
D03*
X11441D02*
D03*
D35*
X274000Y111800D02*
D03*
Y94800D02*
D03*
D67*
X255000Y180000D02*
D03*
D68*
X114300Y174000D02*
D03*
X101600D02*
D03*
X88900D02*
D03*
X76200D02*
D03*
D69*
X63500D02*
D03*
D70*
X209100Y58830D02*
D03*
Y33830D02*
D03*
X169600D02*
D03*
Y58830D02*
D03*
D71*
X208600Y53830D02*
D03*
Y48830D02*
D03*
Y43830D02*
D03*
Y38830D02*
D03*
X170100D02*
D03*
Y43830D02*
D03*
Y48830D02*
D03*
Y53830D02*
D03*
D72*
X201850Y26580D02*
D03*
X176850D02*
D03*
Y66080D02*
D03*
X201850D02*
D03*
D73*
X196850Y27080D02*
D03*
X191850D02*
D03*
X186850D02*
D03*
X181850D02*
D03*
Y65580D02*
D03*
X186850D02*
D03*
X191850D02*
D03*
X196850D02*
D03*
D74*
X189350Y46330D02*
D03*
D75*
X168710Y141670D02*
D03*
Y145670D02*
D03*
Y149670D02*
D03*
Y153670D02*
D03*
Y157670D02*
D03*
Y161670D02*
D03*
Y165670D02*
D03*
X207210D02*
D03*
Y161670D02*
D03*
Y157670D02*
D03*
Y153670D02*
D03*
Y149670D02*
D03*
Y145670D02*
D03*
Y141670D02*
D03*
D76*
X175960Y172920D02*
D03*
X179960D02*
D03*
X183960D02*
D03*
X187960D02*
D03*
X191960D02*
D03*
X195960D02*
D03*
X199960D02*
D03*
Y134420D02*
D03*
X195960D02*
D03*
X191960D02*
D03*
X187960D02*
D03*
X183960D02*
D03*
X179960D02*
D03*
X175960D02*
D03*
D77*
X187960Y153670D02*
D03*
D78*
X318941Y102952D02*
D03*
D79*
X306191Y81952D02*
D03*
X331691Y123952D02*
D03*
X306191D02*
D03*
X331691Y81952D02*
D03*
D80*
X310440Y61000D02*
D03*
X327440D02*
D03*
X310641Y155000D02*
D03*
X327641D02*
D03*
D81*
X28420Y27080D02*
D03*
D82*
X13970Y17330D02*
D03*
Y23830D02*
D03*
Y30330D02*
D03*
Y36830D02*
D03*
X42870Y17330D02*
D03*
Y23830D02*
D03*
Y30330D02*
D03*
Y36830D02*
D03*
M02*
