M48
;Layer_Color=9474304
;FILE_FORMAT=4:4
METRIC,LZ
;TYPE=PLATED
T1F00S00C0.3000
T2F00S00C0.6000
T3F00S00C1.5500
%
T01
X0012065Y0006858
Y0008478
X0015494Y000794
X001718Y0007366
X0018296Y00079
X0019304Y00077812
X0020336
X0021209Y000762
X002166Y00104499
X0020447Y001118
X00198303Y00105729
X001871Y0011811
X0017907Y0012065
X001931Y0015167
X00223815Y00152919
X0021717Y00137922
Y00129609
X00234288Y0010876
X0023368Y0010033
X0024257Y0009359
X0025146Y0012065
X0026219Y00148
X0030099Y0013567
X0029337Y0012573
X0029083Y0005461
X00295321Y000365
X0033098Y0004652
X0036322Y00039999
X0035098Y0017495
X00338403
X0033393Y00162436
X00232288Y00177435
X0021844Y0017526
X00214485Y00183435
X0016889Y0018285
X0016256Y001778
X0015379
X0015113Y0015867
X0015875Y001524
X0013589Y0012488
X001154Y0014167
X0016013Y00054131
X0016735Y0002433
X0018542Y0001651
X0019812
X00224088Y000164
X0006604Y0007112
Y000794
X0007747Y0008544
X0006604Y0013667
X0010634Y00139509
X0004225Y0017399
X0002647Y001143
X00010441Y0012767
X0003048Y0004508
X0004225Y000515
T02
X001143Y00174
X001016
X000889
X000762
X000635
T03
X00255Y0018
M30
