G04*
G04 #@! TF.GenerationSoftware,Altium Limited,Altium Designer,19.0.14 (431)*
G04*
G04 Layer_Color=8388736*
%FSLAX44Y44*%
%MOMM*%
G71*
G01*
G75*
%ADD16R,0.2500X0.5500*%
%ADD81R,3.0000X3.0000*%
%ADD82R,0.7032X0.8032*%
%ADD83R,1.1032X2.0032*%
%ADD84R,0.8032X0.7032*%
%ADD85R,1.1032X1.0032*%
%ADD86R,2.9032X1.9032*%
%ADD87R,0.7032X0.9532*%
%ADD88R,0.8532X0.8532*%
%ADD89R,1.5532X0.6032*%
%ADD90R,1.5532X0.8532*%
%ADD91R,1.4032X1.9032*%
%ADD92R,0.7032X1.2032*%
%ADD93R,1.2032X0.4532*%
%ADD94R,2.6032X1.8532*%
%ADD95R,0.4532X0.8032*%
%ADD96R,0.9032X1.1032*%
%ADD97R,1.2032X0.8032*%
%ADD98R,0.6132X1.1132*%
%ADD99R,1.1132X0.6132*%
%ADD100R,1.2032X1.3032*%
%ADD101R,1.5032X1.5032*%
%ADD102R,1.2032X0.7032*%
%ADD103R,1.9032X1.4032*%
%ADD104C,0.8032*%
%ADD105C,1.2032*%
%ADD106R,1.2032X1.2032*%
G36*
X1393097Y947113D02*
X1393227Y947087D01*
X1393353Y947045D01*
X1393473Y946986D01*
X1393584Y946912D01*
X1393684Y946824D01*
X1393772Y946724D01*
X1393846Y946613D01*
X1393905Y946494D01*
X1393947Y946367D01*
X1393973Y946237D01*
X1393982Y946104D01*
Y934104D01*
X1393973Y933971D01*
X1393947Y933840D01*
X1393905Y933714D01*
X1393846Y933595D01*
X1393772Y933484D01*
X1393684Y933384D01*
X1393584Y933296D01*
X1393473Y933222D01*
X1393353Y933163D01*
X1393227Y933120D01*
X1393097Y933094D01*
X1392964Y933086D01*
X1382482D01*
Y921004D01*
X1382473Y920871D01*
X1382447Y920740D01*
X1382404Y920614D01*
X1382346Y920495D01*
X1382272Y920384D01*
X1382184Y920284D01*
X1382084Y920196D01*
X1381973Y920122D01*
X1381853Y920063D01*
X1381727Y920020D01*
X1381597Y919994D01*
X1381464Y919986D01*
X1366164D01*
X1366031Y919994D01*
X1365900Y920020D01*
X1365774Y920063D01*
X1365655Y920122D01*
X1365544Y920196D01*
X1365444Y920284D01*
X1365356Y920384D01*
X1365282Y920495D01*
X1365223Y920614D01*
X1365180Y920740D01*
X1365154Y920871D01*
X1365146Y921004D01*
Y933004D01*
X1365154Y933137D01*
X1365180Y933267D01*
X1365223Y933393D01*
X1365282Y933513D01*
X1365356Y933624D01*
X1365444Y933724D01*
X1365544Y933812D01*
X1365655Y933886D01*
X1365774Y933944D01*
X1365900Y933987D01*
X1366031Y934013D01*
X1366164Y934022D01*
X1370146D01*
Y946104D01*
X1370154Y946237D01*
X1370180Y946367D01*
X1370223Y946494D01*
X1370282Y946613D01*
X1370356Y946724D01*
X1370444Y946824D01*
X1370544Y946912D01*
X1370655Y946986D01*
X1370774Y947045D01*
X1370900Y947087D01*
X1371031Y947113D01*
X1371164Y947122D01*
X1392964D01*
X1393097Y947113D01*
D02*
G37*
G36*
X893097D02*
X893227Y947087D01*
X893353Y947045D01*
X893473Y946986D01*
X893584Y946912D01*
X893684Y946824D01*
X893772Y946724D01*
X893846Y946613D01*
X893904Y946494D01*
X893947Y946367D01*
X893973Y946237D01*
X893982Y946104D01*
Y934104D01*
X893973Y933971D01*
X893947Y933840D01*
X893904Y933714D01*
X893846Y933595D01*
X893772Y933484D01*
X893684Y933384D01*
X893584Y933296D01*
X893473Y933222D01*
X893353Y933163D01*
X893227Y933120D01*
X893097Y933094D01*
X892964Y933086D01*
X882482D01*
Y921004D01*
X882473Y920871D01*
X882447Y920740D01*
X882404Y920614D01*
X882346Y920495D01*
X882272Y920384D01*
X882184Y920284D01*
X882084Y920196D01*
X881973Y920122D01*
X881853Y920063D01*
X881727Y920020D01*
X881597Y919994D01*
X881464Y919986D01*
X866164D01*
X866031Y919994D01*
X865900Y920020D01*
X865774Y920063D01*
X865655Y920122D01*
X865544Y920196D01*
X865444Y920284D01*
X865356Y920384D01*
X865282Y920495D01*
X865223Y920614D01*
X865180Y920740D01*
X865154Y920871D01*
X865146Y921004D01*
Y933004D01*
X865154Y933137D01*
X865180Y933267D01*
X865223Y933393D01*
X865282Y933513D01*
X865356Y933624D01*
X865444Y933724D01*
X865544Y933812D01*
X865655Y933886D01*
X865774Y933944D01*
X865900Y933987D01*
X866031Y934013D01*
X866164Y934022D01*
X870146D01*
Y946104D01*
X870154Y946237D01*
X870180Y946367D01*
X870223Y946494D01*
X870282Y946613D01*
X870356Y946724D01*
X870444Y946824D01*
X870544Y946912D01*
X870655Y946986D01*
X870774Y947045D01*
X870900Y947087D01*
X871031Y947113D01*
X871164Y947122D01*
X892964D01*
X893097Y947113D01*
D02*
G37*
G36*
X393097D02*
X393227Y947087D01*
X393353Y947045D01*
X393473Y946986D01*
X393584Y946912D01*
X393684Y946824D01*
X393772Y946724D01*
X393845Y946613D01*
X393904Y946494D01*
X393947Y946367D01*
X393973Y946237D01*
X393982Y946104D01*
Y934104D01*
X393973Y933971D01*
X393947Y933840D01*
X393904Y933714D01*
X393845Y933595D01*
X393772Y933484D01*
X393684Y933384D01*
X393584Y933296D01*
X393473Y933222D01*
X393353Y933163D01*
X393227Y933120D01*
X393097Y933094D01*
X392964Y933086D01*
X382482D01*
Y921004D01*
X382473Y920871D01*
X382447Y920740D01*
X382405Y920614D01*
X382346Y920495D01*
X382272Y920384D01*
X382184Y920284D01*
X382084Y920196D01*
X381973Y920122D01*
X381853Y920063D01*
X381727Y920020D01*
X381597Y919994D01*
X381464Y919986D01*
X366164D01*
X366031Y919994D01*
X365900Y920020D01*
X365774Y920063D01*
X365655Y920122D01*
X365544Y920196D01*
X365444Y920284D01*
X365356Y920384D01*
X365282Y920495D01*
X365223Y920614D01*
X365180Y920740D01*
X365154Y920871D01*
X365146Y921004D01*
Y933004D01*
X365154Y933137D01*
X365180Y933267D01*
X365223Y933393D01*
X365282Y933513D01*
X365356Y933624D01*
X365444Y933724D01*
X365544Y933812D01*
X365655Y933886D01*
X365774Y933944D01*
X365900Y933987D01*
X366031Y934013D01*
X366164Y934022D01*
X370146D01*
Y946104D01*
X370154Y946237D01*
X370180Y946367D01*
X370223Y946494D01*
X370282Y946613D01*
X370356Y946724D01*
X370444Y946824D01*
X370544Y946912D01*
X370655Y946986D01*
X370774Y947045D01*
X370900Y947087D01*
X371031Y947113D01*
X371164Y947122D01*
X392964D01*
X393097Y947113D01*
D02*
G37*
G36*
X1381597Y880013D02*
X1381727Y879987D01*
X1381853Y879945D01*
X1381973Y879886D01*
X1382084Y879812D01*
X1382184Y879724D01*
X1382272Y879624D01*
X1382346Y879513D01*
X1382404Y879393D01*
X1382447Y879267D01*
X1382473Y879137D01*
X1382482Y879004D01*
Y866922D01*
X1392964Y866922D01*
X1393097Y866913D01*
X1393227Y866887D01*
X1393353Y866844D01*
X1393473Y866786D01*
X1393584Y866712D01*
X1393684Y866624D01*
X1393772Y866524D01*
X1393846Y866413D01*
X1393905Y866293D01*
X1393947Y866167D01*
X1393973Y866037D01*
X1393982Y865904D01*
Y853904D01*
X1393973Y853771D01*
X1393947Y853640D01*
X1393905Y853514D01*
X1393846Y853395D01*
X1393772Y853284D01*
X1393684Y853184D01*
X1393584Y853096D01*
X1393473Y853022D01*
X1393353Y852963D01*
X1393227Y852920D01*
X1393097Y852894D01*
X1392964Y852886D01*
X1371164Y852886D01*
X1371031Y852894D01*
X1370900Y852920D01*
X1370774Y852963D01*
X1370655Y853022D01*
X1370544Y853096D01*
X1370444Y853184D01*
X1370356Y853284D01*
X1370282Y853395D01*
X1370223Y853514D01*
X1370180Y853640D01*
X1370154Y853771D01*
X1370146Y853904D01*
Y865986D01*
X1366164D01*
X1366031Y865994D01*
X1365900Y866020D01*
X1365774Y866063D01*
X1365655Y866122D01*
X1365544Y866196D01*
X1365444Y866284D01*
X1365356Y866384D01*
X1365282Y866495D01*
X1365223Y866614D01*
X1365180Y866740D01*
X1365154Y866871D01*
X1365146Y867004D01*
Y879004D01*
X1365154Y879137D01*
X1365180Y879267D01*
X1365223Y879393D01*
X1365282Y879513D01*
X1365356Y879624D01*
X1365444Y879724D01*
X1365544Y879812D01*
X1365655Y879886D01*
X1365774Y879945D01*
X1365900Y879987D01*
X1366031Y880013D01*
X1366164Y880022D01*
X1381464D01*
X1381597Y880013D01*
D02*
G37*
G36*
X881597D02*
X881727Y879987D01*
X881853Y879945D01*
X881973Y879886D01*
X882084Y879812D01*
X882184Y879724D01*
X882272Y879624D01*
X882346Y879513D01*
X882404Y879393D01*
X882447Y879267D01*
X882473Y879137D01*
X882482Y879004D01*
Y866922D01*
X892964Y866922D01*
X893097Y866913D01*
X893227Y866887D01*
X893353Y866844D01*
X893473Y866786D01*
X893584Y866712D01*
X893684Y866624D01*
X893772Y866524D01*
X893846Y866413D01*
X893904Y866293D01*
X893947Y866167D01*
X893973Y866037D01*
X893982Y865904D01*
Y853904D01*
X893973Y853771D01*
X893947Y853640D01*
X893904Y853514D01*
X893846Y853395D01*
X893772Y853284D01*
X893684Y853184D01*
X893584Y853096D01*
X893473Y853022D01*
X893353Y852963D01*
X893227Y852920D01*
X893097Y852894D01*
X892964Y852886D01*
X871164Y852886D01*
X871031Y852894D01*
X870900Y852920D01*
X870774Y852963D01*
X870655Y853022D01*
X870544Y853096D01*
X870444Y853184D01*
X870356Y853284D01*
X870282Y853395D01*
X870223Y853514D01*
X870180Y853640D01*
X870154Y853771D01*
X870146Y853904D01*
Y865986D01*
X866164D01*
X866031Y865994D01*
X865900Y866020D01*
X865774Y866063D01*
X865655Y866122D01*
X865544Y866196D01*
X865444Y866284D01*
X865356Y866384D01*
X865282Y866495D01*
X865223Y866614D01*
X865180Y866740D01*
X865154Y866871D01*
X865146Y867004D01*
Y879004D01*
X865154Y879137D01*
X865180Y879267D01*
X865223Y879393D01*
X865282Y879513D01*
X865356Y879624D01*
X865444Y879724D01*
X865544Y879812D01*
X865655Y879886D01*
X865774Y879945D01*
X865900Y879987D01*
X866031Y880013D01*
X866164Y880022D01*
X881464D01*
X881597Y880013D01*
D02*
G37*
G36*
X381597D02*
X381727Y879987D01*
X381853Y879945D01*
X381973Y879886D01*
X382084Y879812D01*
X382184Y879724D01*
X382272Y879624D01*
X382346Y879513D01*
X382405Y879393D01*
X382447Y879267D01*
X382473Y879137D01*
X382482Y879004D01*
Y866922D01*
X392964Y866922D01*
X393097Y866913D01*
X393227Y866887D01*
X393353Y866844D01*
X393473Y866786D01*
X393584Y866712D01*
X393684Y866624D01*
X393772Y866524D01*
X393845Y866413D01*
X393904Y866293D01*
X393947Y866167D01*
X393973Y866037D01*
X393982Y865904D01*
Y853904D01*
X393973Y853771D01*
X393947Y853640D01*
X393904Y853514D01*
X393845Y853395D01*
X393772Y853284D01*
X393684Y853184D01*
X393584Y853096D01*
X393473Y853022D01*
X393353Y852963D01*
X393227Y852920D01*
X393097Y852894D01*
X392964Y852886D01*
X371164Y852886D01*
X371031Y852894D01*
X370900Y852920D01*
X370774Y852963D01*
X370655Y853022D01*
X370544Y853096D01*
X370444Y853184D01*
X370356Y853284D01*
X370282Y853395D01*
X370223Y853514D01*
X370180Y853640D01*
X370154Y853771D01*
X370146Y853904D01*
Y865986D01*
X366164D01*
X366031Y865994D01*
X365900Y866020D01*
X365774Y866063D01*
X365655Y866122D01*
X365544Y866196D01*
X365444Y866284D01*
X365356Y866384D01*
X365282Y866495D01*
X365223Y866614D01*
X365180Y866740D01*
X365154Y866871D01*
X365146Y867004D01*
Y879004D01*
X365154Y879137D01*
X365180Y879267D01*
X365223Y879393D01*
X365282Y879513D01*
X365356Y879624D01*
X365444Y879724D01*
X365544Y879812D01*
X365655Y879886D01*
X365774Y879945D01*
X365900Y879987D01*
X366031Y880013D01*
X366164Y880022D01*
X381464D01*
X381597Y880013D01*
D02*
G37*
G36*
X1393097Y747113D02*
X1393227Y747087D01*
X1393353Y747045D01*
X1393473Y746986D01*
X1393584Y746912D01*
X1393684Y746824D01*
X1393772Y746724D01*
X1393846Y746613D01*
X1393905Y746494D01*
X1393947Y746367D01*
X1393973Y746237D01*
X1393982Y746104D01*
Y734104D01*
X1393973Y733971D01*
X1393947Y733840D01*
X1393905Y733714D01*
X1393846Y733595D01*
X1393772Y733484D01*
X1393684Y733384D01*
X1393584Y733296D01*
X1393473Y733222D01*
X1393353Y733163D01*
X1393227Y733120D01*
X1393097Y733094D01*
X1392964Y733086D01*
X1382482D01*
Y721004D01*
X1382473Y720871D01*
X1382447Y720740D01*
X1382404Y720614D01*
X1382346Y720495D01*
X1382272Y720384D01*
X1382184Y720284D01*
X1382084Y720196D01*
X1381973Y720122D01*
X1381853Y720063D01*
X1381727Y720020D01*
X1381597Y719994D01*
X1381464Y719986D01*
X1366164D01*
X1366031Y719994D01*
X1365900Y720020D01*
X1365774Y720063D01*
X1365655Y720122D01*
X1365544Y720196D01*
X1365444Y720284D01*
X1365356Y720384D01*
X1365282Y720495D01*
X1365223Y720614D01*
X1365180Y720740D01*
X1365154Y720871D01*
X1365146Y721004D01*
Y733004D01*
X1365154Y733137D01*
X1365180Y733267D01*
X1365223Y733393D01*
X1365282Y733513D01*
X1365356Y733624D01*
X1365444Y733724D01*
X1365544Y733812D01*
X1365655Y733886D01*
X1365774Y733944D01*
X1365900Y733987D01*
X1366031Y734013D01*
X1366164Y734022D01*
X1370146D01*
Y746104D01*
X1370154Y746237D01*
X1370180Y746367D01*
X1370223Y746494D01*
X1370282Y746613D01*
X1370356Y746724D01*
X1370444Y746824D01*
X1370544Y746912D01*
X1370655Y746986D01*
X1370774Y747045D01*
X1370900Y747087D01*
X1371031Y747113D01*
X1371164Y747122D01*
X1392964D01*
X1393097Y747113D01*
D02*
G37*
G36*
X893097D02*
X893227Y747087D01*
X893353Y747045D01*
X893473Y746986D01*
X893584Y746912D01*
X893684Y746824D01*
X893772Y746724D01*
X893846Y746613D01*
X893904Y746494D01*
X893947Y746367D01*
X893973Y746237D01*
X893982Y746104D01*
Y734104D01*
X893973Y733971D01*
X893947Y733840D01*
X893904Y733714D01*
X893846Y733595D01*
X893772Y733484D01*
X893684Y733384D01*
X893584Y733296D01*
X893473Y733222D01*
X893353Y733163D01*
X893227Y733120D01*
X893097Y733094D01*
X892964Y733086D01*
X882482D01*
Y721004D01*
X882473Y720871D01*
X882447Y720740D01*
X882404Y720614D01*
X882346Y720495D01*
X882272Y720384D01*
X882184Y720284D01*
X882084Y720196D01*
X881973Y720122D01*
X881853Y720063D01*
X881727Y720020D01*
X881597Y719994D01*
X881464Y719986D01*
X866164D01*
X866031Y719994D01*
X865900Y720020D01*
X865774Y720063D01*
X865655Y720122D01*
X865544Y720196D01*
X865444Y720284D01*
X865356Y720384D01*
X865282Y720495D01*
X865223Y720614D01*
X865180Y720740D01*
X865154Y720871D01*
X865146Y721004D01*
Y733004D01*
X865154Y733137D01*
X865180Y733267D01*
X865223Y733393D01*
X865282Y733513D01*
X865356Y733624D01*
X865444Y733724D01*
X865544Y733812D01*
X865655Y733886D01*
X865774Y733944D01*
X865900Y733987D01*
X866031Y734013D01*
X866164Y734022D01*
X870146D01*
Y746104D01*
X870154Y746237D01*
X870180Y746367D01*
X870223Y746494D01*
X870282Y746613D01*
X870356Y746724D01*
X870444Y746824D01*
X870544Y746912D01*
X870655Y746986D01*
X870774Y747045D01*
X870900Y747087D01*
X871031Y747113D01*
X871164Y747122D01*
X892964D01*
X893097Y747113D01*
D02*
G37*
G36*
X393097D02*
X393227Y747087D01*
X393353Y747045D01*
X393473Y746986D01*
X393584Y746912D01*
X393684Y746824D01*
X393772Y746724D01*
X393845Y746613D01*
X393904Y746494D01*
X393947Y746367D01*
X393973Y746237D01*
X393982Y746104D01*
Y734104D01*
X393973Y733971D01*
X393947Y733840D01*
X393904Y733714D01*
X393845Y733595D01*
X393772Y733484D01*
X393684Y733384D01*
X393584Y733296D01*
X393473Y733222D01*
X393353Y733163D01*
X393227Y733120D01*
X393097Y733094D01*
X392964Y733086D01*
X382482D01*
Y721004D01*
X382473Y720871D01*
X382447Y720740D01*
X382405Y720614D01*
X382346Y720495D01*
X382272Y720384D01*
X382184Y720284D01*
X382084Y720196D01*
X381973Y720122D01*
X381853Y720063D01*
X381727Y720020D01*
X381597Y719994D01*
X381464Y719986D01*
X366164D01*
X366031Y719994D01*
X365900Y720020D01*
X365774Y720063D01*
X365655Y720122D01*
X365544Y720196D01*
X365444Y720284D01*
X365356Y720384D01*
X365282Y720495D01*
X365223Y720614D01*
X365180Y720740D01*
X365154Y720871D01*
X365146Y721004D01*
Y733004D01*
X365154Y733137D01*
X365180Y733267D01*
X365223Y733393D01*
X365282Y733513D01*
X365356Y733624D01*
X365444Y733724D01*
X365544Y733812D01*
X365655Y733886D01*
X365774Y733944D01*
X365900Y733987D01*
X366031Y734013D01*
X366164Y734022D01*
X370146D01*
Y746104D01*
X370154Y746237D01*
X370180Y746367D01*
X370223Y746494D01*
X370282Y746613D01*
X370356Y746724D01*
X370444Y746824D01*
X370544Y746912D01*
X370655Y746986D01*
X370774Y747045D01*
X370900Y747087D01*
X371031Y747113D01*
X371164Y747122D01*
X392964D01*
X393097Y747113D01*
D02*
G37*
G36*
X1381597Y680013D02*
X1381727Y679987D01*
X1381853Y679945D01*
X1381973Y679886D01*
X1382084Y679812D01*
X1382184Y679724D01*
X1382272Y679624D01*
X1382346Y679513D01*
X1382404Y679393D01*
X1382447Y679267D01*
X1382473Y679137D01*
X1382482Y679004D01*
Y666922D01*
X1392964Y666922D01*
X1393097Y666913D01*
X1393227Y666887D01*
X1393353Y666844D01*
X1393473Y666786D01*
X1393584Y666712D01*
X1393684Y666624D01*
X1393772Y666524D01*
X1393846Y666413D01*
X1393905Y666293D01*
X1393947Y666167D01*
X1393973Y666037D01*
X1393982Y665904D01*
Y653904D01*
X1393973Y653771D01*
X1393947Y653640D01*
X1393905Y653514D01*
X1393846Y653395D01*
X1393772Y653284D01*
X1393684Y653184D01*
X1393584Y653096D01*
X1393473Y653022D01*
X1393353Y652963D01*
X1393227Y652920D01*
X1393097Y652894D01*
X1392964Y652886D01*
X1371164Y652886D01*
X1371031Y652894D01*
X1370900Y652920D01*
X1370774Y652963D01*
X1370655Y653022D01*
X1370544Y653096D01*
X1370444Y653184D01*
X1370356Y653284D01*
X1370282Y653395D01*
X1370223Y653514D01*
X1370180Y653640D01*
X1370154Y653771D01*
X1370146Y653904D01*
Y665986D01*
X1366164D01*
X1366031Y665994D01*
X1365900Y666020D01*
X1365774Y666063D01*
X1365655Y666122D01*
X1365544Y666196D01*
X1365444Y666284D01*
X1365356Y666384D01*
X1365282Y666495D01*
X1365223Y666614D01*
X1365180Y666740D01*
X1365154Y666871D01*
X1365146Y667004D01*
Y679004D01*
X1365154Y679137D01*
X1365180Y679267D01*
X1365223Y679393D01*
X1365282Y679513D01*
X1365356Y679624D01*
X1365444Y679724D01*
X1365544Y679812D01*
X1365655Y679886D01*
X1365774Y679945D01*
X1365900Y679987D01*
X1366031Y680013D01*
X1366164Y680022D01*
X1381464D01*
X1381597Y680013D01*
D02*
G37*
G36*
X881597D02*
X881727Y679987D01*
X881853Y679945D01*
X881973Y679886D01*
X882084Y679812D01*
X882184Y679724D01*
X882272Y679624D01*
X882346Y679513D01*
X882404Y679393D01*
X882447Y679267D01*
X882473Y679137D01*
X882482Y679004D01*
Y666922D01*
X892964Y666922D01*
X893097Y666913D01*
X893227Y666887D01*
X893353Y666844D01*
X893473Y666786D01*
X893584Y666712D01*
X893684Y666624D01*
X893772Y666524D01*
X893846Y666413D01*
X893904Y666293D01*
X893947Y666167D01*
X893973Y666037D01*
X893982Y665904D01*
Y653904D01*
X893973Y653771D01*
X893947Y653640D01*
X893904Y653514D01*
X893846Y653395D01*
X893772Y653284D01*
X893684Y653184D01*
X893584Y653096D01*
X893473Y653022D01*
X893353Y652963D01*
X893227Y652920D01*
X893097Y652894D01*
X892964Y652886D01*
X871164Y652886D01*
X871031Y652894D01*
X870900Y652920D01*
X870774Y652963D01*
X870655Y653022D01*
X870544Y653096D01*
X870444Y653184D01*
X870356Y653284D01*
X870282Y653395D01*
X870223Y653514D01*
X870180Y653640D01*
X870154Y653771D01*
X870146Y653904D01*
Y665986D01*
X866164D01*
X866031Y665994D01*
X865900Y666020D01*
X865774Y666063D01*
X865655Y666122D01*
X865544Y666196D01*
X865444Y666284D01*
X865356Y666384D01*
X865282Y666495D01*
X865223Y666614D01*
X865180Y666740D01*
X865154Y666871D01*
X865146Y667004D01*
Y679004D01*
X865154Y679137D01*
X865180Y679267D01*
X865223Y679393D01*
X865282Y679513D01*
X865356Y679624D01*
X865444Y679724D01*
X865544Y679812D01*
X865655Y679886D01*
X865774Y679945D01*
X865900Y679987D01*
X866031Y680013D01*
X866164Y680022D01*
X881464D01*
X881597Y680013D01*
D02*
G37*
G36*
X381597D02*
X381727Y679987D01*
X381853Y679945D01*
X381973Y679886D01*
X382084Y679812D01*
X382184Y679724D01*
X382272Y679624D01*
X382346Y679513D01*
X382405Y679393D01*
X382447Y679267D01*
X382473Y679137D01*
X382482Y679004D01*
Y666922D01*
X392964Y666922D01*
X393097Y666913D01*
X393227Y666887D01*
X393353Y666844D01*
X393473Y666786D01*
X393584Y666712D01*
X393684Y666624D01*
X393772Y666524D01*
X393845Y666413D01*
X393904Y666293D01*
X393947Y666167D01*
X393973Y666037D01*
X393982Y665904D01*
Y653904D01*
X393973Y653771D01*
X393947Y653640D01*
X393904Y653514D01*
X393845Y653395D01*
X393772Y653284D01*
X393684Y653184D01*
X393584Y653096D01*
X393473Y653022D01*
X393353Y652963D01*
X393227Y652920D01*
X393097Y652894D01*
X392964Y652886D01*
X371164Y652886D01*
X371031Y652894D01*
X370900Y652920D01*
X370774Y652963D01*
X370655Y653022D01*
X370544Y653096D01*
X370444Y653184D01*
X370356Y653284D01*
X370282Y653395D01*
X370223Y653514D01*
X370180Y653640D01*
X370154Y653771D01*
X370146Y653904D01*
Y665986D01*
X366164D01*
X366031Y665994D01*
X365900Y666020D01*
X365774Y666063D01*
X365655Y666122D01*
X365544Y666196D01*
X365444Y666284D01*
X365356Y666384D01*
X365282Y666495D01*
X365223Y666614D01*
X365180Y666740D01*
X365154Y666871D01*
X365146Y667004D01*
Y679004D01*
X365154Y679137D01*
X365180Y679267D01*
X365223Y679393D01*
X365282Y679513D01*
X365356Y679624D01*
X365444Y679724D01*
X365544Y679812D01*
X365655Y679886D01*
X365774Y679945D01*
X365900Y679987D01*
X366031Y680013D01*
X366164Y680022D01*
X381464D01*
X381597Y680013D01*
D02*
G37*
G36*
X1393097Y547113D02*
X1393227Y547087D01*
X1393353Y547044D01*
X1393473Y546986D01*
X1393584Y546912D01*
X1393684Y546824D01*
X1393772Y546724D01*
X1393846Y546613D01*
X1393905Y546493D01*
X1393947Y546367D01*
X1393973Y546237D01*
X1393982Y546104D01*
Y534104D01*
X1393973Y533971D01*
X1393947Y533840D01*
X1393905Y533714D01*
X1393846Y533595D01*
X1393772Y533484D01*
X1393684Y533384D01*
X1393584Y533296D01*
X1393473Y533222D01*
X1393353Y533163D01*
X1393227Y533120D01*
X1393097Y533094D01*
X1392964Y533086D01*
X1382482D01*
Y521004D01*
X1382473Y520871D01*
X1382447Y520740D01*
X1382404Y520614D01*
X1382346Y520495D01*
X1382272Y520384D01*
X1382184Y520284D01*
X1382084Y520196D01*
X1381973Y520122D01*
X1381853Y520063D01*
X1381727Y520020D01*
X1381597Y519994D01*
X1381464Y519986D01*
X1366164D01*
X1366031Y519994D01*
X1365900Y520020D01*
X1365774Y520063D01*
X1365655Y520122D01*
X1365544Y520196D01*
X1365444Y520284D01*
X1365356Y520384D01*
X1365282Y520495D01*
X1365223Y520614D01*
X1365180Y520740D01*
X1365154Y520871D01*
X1365146Y521004D01*
Y533004D01*
X1365154Y533137D01*
X1365180Y533267D01*
X1365223Y533393D01*
X1365282Y533513D01*
X1365356Y533624D01*
X1365444Y533724D01*
X1365544Y533812D01*
X1365655Y533886D01*
X1365774Y533945D01*
X1365900Y533987D01*
X1366031Y534013D01*
X1366164Y534022D01*
X1370146D01*
Y546104D01*
X1370154Y546237D01*
X1370180Y546367D01*
X1370223Y546493D01*
X1370282Y546613D01*
X1370356Y546724D01*
X1370444Y546824D01*
X1370544Y546912D01*
X1370655Y546986D01*
X1370774Y547044D01*
X1370900Y547087D01*
X1371031Y547113D01*
X1371164Y547122D01*
X1392964D01*
X1393097Y547113D01*
D02*
G37*
G36*
X893097D02*
X893227Y547087D01*
X893353Y547044D01*
X893473Y546986D01*
X893584Y546912D01*
X893684Y546824D01*
X893772Y546724D01*
X893846Y546613D01*
X893904Y546493D01*
X893947Y546367D01*
X893973Y546237D01*
X893982Y546104D01*
Y534104D01*
X893973Y533971D01*
X893947Y533840D01*
X893904Y533714D01*
X893846Y533595D01*
X893772Y533484D01*
X893684Y533384D01*
X893584Y533296D01*
X893473Y533222D01*
X893353Y533163D01*
X893227Y533120D01*
X893097Y533094D01*
X892964Y533086D01*
X882482D01*
Y521004D01*
X882473Y520871D01*
X882447Y520740D01*
X882404Y520614D01*
X882346Y520495D01*
X882272Y520384D01*
X882184Y520284D01*
X882084Y520196D01*
X881973Y520122D01*
X881853Y520063D01*
X881727Y520020D01*
X881597Y519994D01*
X881464Y519986D01*
X866164D01*
X866031Y519994D01*
X865900Y520020D01*
X865774Y520063D01*
X865655Y520122D01*
X865544Y520196D01*
X865444Y520284D01*
X865356Y520384D01*
X865282Y520495D01*
X865223Y520614D01*
X865180Y520740D01*
X865154Y520871D01*
X865146Y521004D01*
Y533004D01*
X865154Y533137D01*
X865180Y533267D01*
X865223Y533393D01*
X865282Y533513D01*
X865356Y533624D01*
X865444Y533724D01*
X865544Y533812D01*
X865655Y533886D01*
X865774Y533945D01*
X865900Y533987D01*
X866031Y534013D01*
X866164Y534022D01*
X870146D01*
Y546104D01*
X870154Y546237D01*
X870180Y546367D01*
X870223Y546493D01*
X870282Y546613D01*
X870356Y546724D01*
X870444Y546824D01*
X870544Y546912D01*
X870655Y546986D01*
X870774Y547044D01*
X870900Y547087D01*
X871031Y547113D01*
X871164Y547122D01*
X892964D01*
X893097Y547113D01*
D02*
G37*
G36*
X393097D02*
X393227Y547087D01*
X393353Y547044D01*
X393473Y546986D01*
X393584Y546912D01*
X393684Y546824D01*
X393772Y546724D01*
X393845Y546613D01*
X393904Y546493D01*
X393947Y546367D01*
X393973Y546237D01*
X393982Y546104D01*
Y534104D01*
X393973Y533971D01*
X393947Y533840D01*
X393904Y533714D01*
X393845Y533595D01*
X393772Y533484D01*
X393684Y533384D01*
X393584Y533296D01*
X393473Y533222D01*
X393353Y533163D01*
X393227Y533120D01*
X393097Y533094D01*
X392964Y533086D01*
X382482D01*
Y521004D01*
X382473Y520871D01*
X382447Y520740D01*
X382405Y520614D01*
X382346Y520495D01*
X382272Y520384D01*
X382184Y520284D01*
X382084Y520196D01*
X381973Y520122D01*
X381853Y520063D01*
X381727Y520020D01*
X381597Y519994D01*
X381464Y519986D01*
X366164D01*
X366031Y519994D01*
X365900Y520020D01*
X365774Y520063D01*
X365655Y520122D01*
X365544Y520196D01*
X365444Y520284D01*
X365356Y520384D01*
X365282Y520495D01*
X365223Y520614D01*
X365180Y520740D01*
X365154Y520871D01*
X365146Y521004D01*
Y533004D01*
X365154Y533137D01*
X365180Y533267D01*
X365223Y533393D01*
X365282Y533513D01*
X365356Y533624D01*
X365444Y533724D01*
X365544Y533812D01*
X365655Y533886D01*
X365774Y533945D01*
X365900Y533987D01*
X366031Y534013D01*
X366164Y534022D01*
X370146D01*
Y546104D01*
X370154Y546237D01*
X370180Y546367D01*
X370223Y546493D01*
X370282Y546613D01*
X370356Y546724D01*
X370444Y546824D01*
X370544Y546912D01*
X370655Y546986D01*
X370774Y547044D01*
X370900Y547087D01*
X371031Y547113D01*
X371164Y547122D01*
X392964D01*
X393097Y547113D01*
D02*
G37*
G36*
X1381597Y480013D02*
X1381727Y479987D01*
X1381853Y479944D01*
X1381973Y479886D01*
X1382084Y479812D01*
X1382184Y479724D01*
X1382272Y479624D01*
X1382346Y479513D01*
X1382404Y479393D01*
X1382447Y479267D01*
X1382473Y479137D01*
X1382482Y479004D01*
Y466922D01*
X1392964Y466922D01*
X1393097Y466913D01*
X1393227Y466887D01*
X1393353Y466844D01*
X1393473Y466786D01*
X1393584Y466712D01*
X1393684Y466624D01*
X1393772Y466524D01*
X1393846Y466413D01*
X1393905Y466293D01*
X1393947Y466167D01*
X1393973Y466037D01*
X1393982Y465904D01*
Y453904D01*
X1393973Y453771D01*
X1393947Y453640D01*
X1393905Y453514D01*
X1393846Y453395D01*
X1393772Y453284D01*
X1393684Y453184D01*
X1393584Y453096D01*
X1393473Y453022D01*
X1393353Y452963D01*
X1393227Y452920D01*
X1393097Y452894D01*
X1392964Y452886D01*
X1371164Y452886D01*
X1371031Y452894D01*
X1370900Y452920D01*
X1370774Y452963D01*
X1370655Y453022D01*
X1370544Y453096D01*
X1370444Y453184D01*
X1370356Y453284D01*
X1370282Y453395D01*
X1370223Y453514D01*
X1370180Y453640D01*
X1370154Y453771D01*
X1370146Y453904D01*
Y465986D01*
X1366164D01*
X1366031Y465994D01*
X1365900Y466020D01*
X1365774Y466063D01*
X1365655Y466122D01*
X1365544Y466196D01*
X1365444Y466284D01*
X1365356Y466384D01*
X1365282Y466495D01*
X1365223Y466614D01*
X1365180Y466740D01*
X1365154Y466871D01*
X1365146Y467004D01*
Y479004D01*
X1365154Y479137D01*
X1365180Y479267D01*
X1365223Y479393D01*
X1365282Y479513D01*
X1365356Y479624D01*
X1365444Y479724D01*
X1365544Y479812D01*
X1365655Y479886D01*
X1365774Y479944D01*
X1365900Y479987D01*
X1366031Y480013D01*
X1366164Y480022D01*
X1381464D01*
X1381597Y480013D01*
D02*
G37*
G36*
X881597D02*
X881727Y479987D01*
X881853Y479944D01*
X881973Y479886D01*
X882084Y479812D01*
X882184Y479724D01*
X882272Y479624D01*
X882346Y479513D01*
X882404Y479393D01*
X882447Y479267D01*
X882473Y479137D01*
X882482Y479004D01*
Y466922D01*
X892964Y466922D01*
X893097Y466913D01*
X893227Y466887D01*
X893353Y466844D01*
X893473Y466786D01*
X893584Y466712D01*
X893684Y466624D01*
X893772Y466524D01*
X893846Y466413D01*
X893904Y466293D01*
X893947Y466167D01*
X893973Y466037D01*
X893982Y465904D01*
Y453904D01*
X893973Y453771D01*
X893947Y453640D01*
X893904Y453514D01*
X893846Y453395D01*
X893772Y453284D01*
X893684Y453184D01*
X893584Y453096D01*
X893473Y453022D01*
X893353Y452963D01*
X893227Y452920D01*
X893097Y452894D01*
X892964Y452886D01*
X871164Y452886D01*
X871031Y452894D01*
X870900Y452920D01*
X870774Y452963D01*
X870655Y453022D01*
X870544Y453096D01*
X870444Y453184D01*
X870356Y453284D01*
X870282Y453395D01*
X870223Y453514D01*
X870180Y453640D01*
X870154Y453771D01*
X870146Y453904D01*
Y465986D01*
X866164D01*
X866031Y465994D01*
X865900Y466020D01*
X865774Y466063D01*
X865655Y466122D01*
X865544Y466196D01*
X865444Y466284D01*
X865356Y466384D01*
X865282Y466495D01*
X865223Y466614D01*
X865180Y466740D01*
X865154Y466871D01*
X865146Y467004D01*
Y479004D01*
X865154Y479137D01*
X865180Y479267D01*
X865223Y479393D01*
X865282Y479513D01*
X865356Y479624D01*
X865444Y479724D01*
X865544Y479812D01*
X865655Y479886D01*
X865774Y479944D01*
X865900Y479987D01*
X866031Y480013D01*
X866164Y480022D01*
X881464D01*
X881597Y480013D01*
D02*
G37*
G36*
X381597D02*
X381727Y479987D01*
X381853Y479944D01*
X381973Y479886D01*
X382084Y479812D01*
X382184Y479724D01*
X382272Y479624D01*
X382346Y479513D01*
X382405Y479393D01*
X382447Y479267D01*
X382473Y479137D01*
X382482Y479004D01*
Y466922D01*
X392964Y466922D01*
X393097Y466913D01*
X393227Y466887D01*
X393353Y466844D01*
X393473Y466786D01*
X393584Y466712D01*
X393684Y466624D01*
X393772Y466524D01*
X393845Y466413D01*
X393904Y466293D01*
X393947Y466167D01*
X393973Y466037D01*
X393982Y465904D01*
Y453904D01*
X393973Y453771D01*
X393947Y453640D01*
X393904Y453514D01*
X393845Y453395D01*
X393772Y453284D01*
X393684Y453184D01*
X393584Y453096D01*
X393473Y453022D01*
X393353Y452963D01*
X393227Y452920D01*
X393097Y452894D01*
X392964Y452886D01*
X371164Y452886D01*
X371031Y452894D01*
X370900Y452920D01*
X370774Y452963D01*
X370655Y453022D01*
X370544Y453096D01*
X370444Y453184D01*
X370356Y453284D01*
X370282Y453395D01*
X370223Y453514D01*
X370180Y453640D01*
X370154Y453771D01*
X370146Y453904D01*
Y465986D01*
X366164D01*
X366031Y465994D01*
X365900Y466020D01*
X365774Y466063D01*
X365655Y466122D01*
X365544Y466196D01*
X365444Y466284D01*
X365356Y466384D01*
X365282Y466495D01*
X365223Y466614D01*
X365180Y466740D01*
X365154Y466871D01*
X365146Y467004D01*
Y479004D01*
X365154Y479137D01*
X365180Y479267D01*
X365223Y479393D01*
X365282Y479513D01*
X365356Y479624D01*
X365444Y479724D01*
X365544Y479812D01*
X365655Y479886D01*
X365774Y479944D01*
X365900Y479987D01*
X366031Y480013D01*
X366164Y480022D01*
X381464D01*
X381597Y480013D01*
D02*
G37*
G36*
X1393097Y347113D02*
X1393227Y347087D01*
X1393353Y347044D01*
X1393473Y346986D01*
X1393584Y346912D01*
X1393684Y346824D01*
X1393772Y346724D01*
X1393846Y346613D01*
X1393905Y346493D01*
X1393947Y346367D01*
X1393973Y346237D01*
X1393982Y346104D01*
Y334104D01*
X1393973Y333971D01*
X1393947Y333840D01*
X1393905Y333714D01*
X1393846Y333595D01*
X1393772Y333484D01*
X1393684Y333384D01*
X1393584Y333296D01*
X1393473Y333222D01*
X1393353Y333163D01*
X1393227Y333120D01*
X1393097Y333094D01*
X1392964Y333086D01*
X1382482D01*
Y321004D01*
X1382473Y320871D01*
X1382447Y320740D01*
X1382404Y320614D01*
X1382346Y320495D01*
X1382272Y320384D01*
X1382184Y320284D01*
X1382084Y320196D01*
X1381973Y320122D01*
X1381853Y320063D01*
X1381727Y320020D01*
X1381597Y319994D01*
X1381464Y319986D01*
X1366164D01*
X1366031Y319994D01*
X1365900Y320020D01*
X1365774Y320063D01*
X1365655Y320122D01*
X1365544Y320196D01*
X1365444Y320284D01*
X1365356Y320384D01*
X1365282Y320495D01*
X1365223Y320614D01*
X1365180Y320740D01*
X1365154Y320871D01*
X1365146Y321004D01*
Y333004D01*
X1365154Y333137D01*
X1365180Y333267D01*
X1365223Y333393D01*
X1365282Y333513D01*
X1365356Y333624D01*
X1365444Y333724D01*
X1365544Y333812D01*
X1365655Y333886D01*
X1365774Y333945D01*
X1365900Y333987D01*
X1366031Y334013D01*
X1366164Y334022D01*
X1370146D01*
Y346104D01*
X1370154Y346237D01*
X1370180Y346367D01*
X1370223Y346493D01*
X1370282Y346613D01*
X1370356Y346724D01*
X1370444Y346824D01*
X1370544Y346912D01*
X1370655Y346986D01*
X1370774Y347044D01*
X1370900Y347087D01*
X1371031Y347113D01*
X1371164Y347122D01*
X1392964D01*
X1393097Y347113D01*
D02*
G37*
G36*
X893097D02*
X893227Y347087D01*
X893353Y347044D01*
X893473Y346986D01*
X893584Y346912D01*
X893684Y346824D01*
X893772Y346724D01*
X893846Y346613D01*
X893904Y346493D01*
X893947Y346367D01*
X893973Y346237D01*
X893982Y346104D01*
Y334104D01*
X893973Y333971D01*
X893947Y333840D01*
X893904Y333714D01*
X893846Y333595D01*
X893772Y333484D01*
X893684Y333384D01*
X893584Y333296D01*
X893473Y333222D01*
X893353Y333163D01*
X893227Y333120D01*
X893097Y333094D01*
X892964Y333086D01*
X882482D01*
Y321004D01*
X882473Y320871D01*
X882447Y320740D01*
X882404Y320614D01*
X882346Y320495D01*
X882272Y320384D01*
X882184Y320284D01*
X882084Y320196D01*
X881973Y320122D01*
X881853Y320063D01*
X881727Y320020D01*
X881597Y319994D01*
X881464Y319986D01*
X866164D01*
X866031Y319994D01*
X865900Y320020D01*
X865774Y320063D01*
X865655Y320122D01*
X865544Y320196D01*
X865444Y320284D01*
X865356Y320384D01*
X865282Y320495D01*
X865223Y320614D01*
X865180Y320740D01*
X865154Y320871D01*
X865146Y321004D01*
Y333004D01*
X865154Y333137D01*
X865180Y333267D01*
X865223Y333393D01*
X865282Y333513D01*
X865356Y333624D01*
X865444Y333724D01*
X865544Y333812D01*
X865655Y333886D01*
X865774Y333945D01*
X865900Y333987D01*
X866031Y334013D01*
X866164Y334022D01*
X870146D01*
Y346104D01*
X870154Y346237D01*
X870180Y346367D01*
X870223Y346493D01*
X870282Y346613D01*
X870356Y346724D01*
X870444Y346824D01*
X870544Y346912D01*
X870655Y346986D01*
X870774Y347044D01*
X870900Y347087D01*
X871031Y347113D01*
X871164Y347122D01*
X892964D01*
X893097Y347113D01*
D02*
G37*
G36*
X393097D02*
X393227Y347087D01*
X393353Y347044D01*
X393473Y346986D01*
X393584Y346912D01*
X393684Y346824D01*
X393772Y346724D01*
X393845Y346613D01*
X393904Y346493D01*
X393947Y346367D01*
X393973Y346237D01*
X393982Y346104D01*
Y334104D01*
X393973Y333971D01*
X393947Y333840D01*
X393904Y333714D01*
X393845Y333595D01*
X393772Y333484D01*
X393684Y333384D01*
X393584Y333296D01*
X393473Y333222D01*
X393353Y333163D01*
X393227Y333120D01*
X393097Y333094D01*
X392964Y333086D01*
X382482D01*
Y321004D01*
X382473Y320871D01*
X382447Y320740D01*
X382405Y320614D01*
X382346Y320495D01*
X382272Y320384D01*
X382184Y320284D01*
X382084Y320196D01*
X381973Y320122D01*
X381853Y320063D01*
X381727Y320020D01*
X381597Y319994D01*
X381464Y319986D01*
X366164D01*
X366031Y319994D01*
X365900Y320020D01*
X365774Y320063D01*
X365655Y320122D01*
X365544Y320196D01*
X365444Y320284D01*
X365356Y320384D01*
X365282Y320495D01*
X365223Y320614D01*
X365180Y320740D01*
X365154Y320871D01*
X365146Y321004D01*
Y333004D01*
X365154Y333137D01*
X365180Y333267D01*
X365223Y333393D01*
X365282Y333513D01*
X365356Y333624D01*
X365444Y333724D01*
X365544Y333812D01*
X365655Y333886D01*
X365774Y333945D01*
X365900Y333987D01*
X366031Y334013D01*
X366164Y334022D01*
X370146D01*
Y346104D01*
X370154Y346237D01*
X370180Y346367D01*
X370223Y346493D01*
X370282Y346613D01*
X370356Y346724D01*
X370444Y346824D01*
X370544Y346912D01*
X370655Y346986D01*
X370774Y347044D01*
X370900Y347087D01*
X371031Y347113D01*
X371164Y347122D01*
X392964D01*
X393097Y347113D01*
D02*
G37*
G36*
X1381597Y280013D02*
X1381727Y279987D01*
X1381853Y279944D01*
X1381973Y279886D01*
X1382084Y279812D01*
X1382184Y279724D01*
X1382272Y279624D01*
X1382346Y279513D01*
X1382404Y279393D01*
X1382447Y279267D01*
X1382473Y279137D01*
X1382482Y279004D01*
Y266922D01*
X1392964Y266922D01*
X1393097Y266913D01*
X1393227Y266887D01*
X1393353Y266845D01*
X1393473Y266786D01*
X1393584Y266712D01*
X1393684Y266624D01*
X1393772Y266524D01*
X1393846Y266413D01*
X1393905Y266293D01*
X1393947Y266167D01*
X1393973Y266037D01*
X1393982Y265904D01*
Y253904D01*
X1393973Y253771D01*
X1393947Y253640D01*
X1393905Y253514D01*
X1393846Y253395D01*
X1393772Y253284D01*
X1393684Y253184D01*
X1393584Y253096D01*
X1393473Y253022D01*
X1393353Y252963D01*
X1393227Y252920D01*
X1393097Y252894D01*
X1392964Y252886D01*
X1371164Y252886D01*
X1371031Y252894D01*
X1370900Y252920D01*
X1370774Y252963D01*
X1370655Y253022D01*
X1370544Y253096D01*
X1370444Y253184D01*
X1370356Y253284D01*
X1370282Y253395D01*
X1370223Y253514D01*
X1370180Y253640D01*
X1370154Y253771D01*
X1370146Y253904D01*
Y265986D01*
X1366164D01*
X1366031Y265994D01*
X1365900Y266020D01*
X1365774Y266063D01*
X1365655Y266122D01*
X1365544Y266196D01*
X1365444Y266284D01*
X1365356Y266384D01*
X1365282Y266495D01*
X1365223Y266614D01*
X1365180Y266740D01*
X1365154Y266871D01*
X1365146Y267004D01*
Y279004D01*
X1365154Y279137D01*
X1365180Y279267D01*
X1365223Y279393D01*
X1365282Y279513D01*
X1365356Y279624D01*
X1365444Y279724D01*
X1365544Y279812D01*
X1365655Y279886D01*
X1365774Y279944D01*
X1365900Y279987D01*
X1366031Y280013D01*
X1366164Y280022D01*
X1381464D01*
X1381597Y280013D01*
D02*
G37*
G36*
X881597D02*
X881727Y279987D01*
X881853Y279944D01*
X881973Y279886D01*
X882084Y279812D01*
X882184Y279724D01*
X882272Y279624D01*
X882346Y279513D01*
X882404Y279393D01*
X882447Y279267D01*
X882473Y279137D01*
X882482Y279004D01*
Y266922D01*
X892964Y266922D01*
X893097Y266913D01*
X893227Y266887D01*
X893353Y266845D01*
X893473Y266786D01*
X893584Y266712D01*
X893684Y266624D01*
X893772Y266524D01*
X893846Y266413D01*
X893904Y266293D01*
X893947Y266167D01*
X893973Y266037D01*
X893982Y265904D01*
Y253904D01*
X893973Y253771D01*
X893947Y253640D01*
X893904Y253514D01*
X893846Y253395D01*
X893772Y253284D01*
X893684Y253184D01*
X893584Y253096D01*
X893473Y253022D01*
X893353Y252963D01*
X893227Y252920D01*
X893097Y252894D01*
X892964Y252886D01*
X871164Y252886D01*
X871031Y252894D01*
X870900Y252920D01*
X870774Y252963D01*
X870655Y253022D01*
X870544Y253096D01*
X870444Y253184D01*
X870356Y253284D01*
X870282Y253395D01*
X870223Y253514D01*
X870180Y253640D01*
X870154Y253771D01*
X870146Y253904D01*
Y265986D01*
X866164D01*
X866031Y265994D01*
X865900Y266020D01*
X865774Y266063D01*
X865655Y266122D01*
X865544Y266196D01*
X865444Y266284D01*
X865356Y266384D01*
X865282Y266495D01*
X865223Y266614D01*
X865180Y266740D01*
X865154Y266871D01*
X865146Y267004D01*
Y279004D01*
X865154Y279137D01*
X865180Y279267D01*
X865223Y279393D01*
X865282Y279513D01*
X865356Y279624D01*
X865444Y279724D01*
X865544Y279812D01*
X865655Y279886D01*
X865774Y279944D01*
X865900Y279987D01*
X866031Y280013D01*
X866164Y280022D01*
X881464D01*
X881597Y280013D01*
D02*
G37*
G36*
X381597D02*
X381727Y279987D01*
X381853Y279944D01*
X381973Y279886D01*
X382084Y279812D01*
X382184Y279724D01*
X382272Y279624D01*
X382346Y279513D01*
X382405Y279393D01*
X382447Y279267D01*
X382473Y279137D01*
X382482Y279004D01*
Y266922D01*
X392964Y266922D01*
X393097Y266913D01*
X393227Y266887D01*
X393353Y266845D01*
X393473Y266786D01*
X393584Y266712D01*
X393684Y266624D01*
X393772Y266524D01*
X393845Y266413D01*
X393904Y266293D01*
X393947Y266167D01*
X393973Y266037D01*
X393982Y265904D01*
Y253904D01*
X393973Y253771D01*
X393947Y253640D01*
X393904Y253514D01*
X393845Y253395D01*
X393772Y253284D01*
X393684Y253184D01*
X393584Y253096D01*
X393473Y253022D01*
X393353Y252963D01*
X393227Y252920D01*
X393097Y252894D01*
X392964Y252886D01*
X371164Y252886D01*
X371031Y252894D01*
X370900Y252920D01*
X370774Y252963D01*
X370655Y253022D01*
X370544Y253096D01*
X370444Y253184D01*
X370356Y253284D01*
X370282Y253395D01*
X370223Y253514D01*
X370180Y253640D01*
X370154Y253771D01*
X370146Y253904D01*
Y265986D01*
X366164D01*
X366031Y265994D01*
X365900Y266020D01*
X365774Y266063D01*
X365655Y266122D01*
X365544Y266196D01*
X365444Y266284D01*
X365356Y266384D01*
X365282Y266495D01*
X365223Y266614D01*
X365180Y266740D01*
X365154Y266871D01*
X365146Y267004D01*
Y279004D01*
X365154Y279137D01*
X365180Y279267D01*
X365223Y279393D01*
X365282Y279513D01*
X365356Y279624D01*
X365444Y279724D01*
X365544Y279812D01*
X365655Y279886D01*
X365774Y279944D01*
X365900Y279987D01*
X366031Y280013D01*
X366164Y280022D01*
X381464D01*
X381597Y280013D01*
D02*
G37*
G36*
X1393097Y147113D02*
X1393227Y147087D01*
X1393353Y147044D01*
X1393473Y146986D01*
X1393584Y146912D01*
X1393684Y146824D01*
X1393772Y146724D01*
X1393846Y146613D01*
X1393905Y146493D01*
X1393947Y146367D01*
X1393973Y146237D01*
X1393982Y146104D01*
Y134104D01*
X1393973Y133971D01*
X1393947Y133840D01*
X1393905Y133714D01*
X1393846Y133595D01*
X1393772Y133484D01*
X1393684Y133384D01*
X1393584Y133296D01*
X1393473Y133222D01*
X1393353Y133163D01*
X1393227Y133120D01*
X1393097Y133094D01*
X1392964Y133086D01*
X1382482D01*
Y121004D01*
X1382473Y120871D01*
X1382447Y120740D01*
X1382404Y120614D01*
X1382346Y120495D01*
X1382272Y120384D01*
X1382184Y120284D01*
X1382084Y120196D01*
X1381973Y120122D01*
X1381853Y120063D01*
X1381727Y120020D01*
X1381597Y119994D01*
X1381464Y119986D01*
X1366164D01*
X1366031Y119994D01*
X1365900Y120020D01*
X1365774Y120063D01*
X1365655Y120122D01*
X1365544Y120196D01*
X1365444Y120284D01*
X1365356Y120384D01*
X1365282Y120495D01*
X1365223Y120614D01*
X1365180Y120740D01*
X1365154Y120871D01*
X1365146Y121004D01*
Y133004D01*
X1365154Y133137D01*
X1365180Y133267D01*
X1365223Y133393D01*
X1365282Y133513D01*
X1365356Y133624D01*
X1365444Y133724D01*
X1365544Y133812D01*
X1365655Y133886D01*
X1365774Y133945D01*
X1365900Y133987D01*
X1366031Y134013D01*
X1366164Y134022D01*
X1370146D01*
Y146104D01*
X1370154Y146237D01*
X1370180Y146367D01*
X1370223Y146493D01*
X1370282Y146613D01*
X1370356Y146724D01*
X1370444Y146824D01*
X1370544Y146912D01*
X1370655Y146986D01*
X1370774Y147044D01*
X1370900Y147087D01*
X1371031Y147113D01*
X1371164Y147122D01*
X1392964D01*
X1393097Y147113D01*
D02*
G37*
G36*
X893097D02*
X893227Y147087D01*
X893353Y147044D01*
X893473Y146986D01*
X893584Y146912D01*
X893684Y146824D01*
X893772Y146724D01*
X893846Y146613D01*
X893904Y146493D01*
X893947Y146367D01*
X893973Y146237D01*
X893982Y146104D01*
Y134104D01*
X893973Y133971D01*
X893947Y133840D01*
X893904Y133714D01*
X893846Y133595D01*
X893772Y133484D01*
X893684Y133384D01*
X893584Y133296D01*
X893473Y133222D01*
X893353Y133163D01*
X893227Y133120D01*
X893097Y133094D01*
X892964Y133086D01*
X882482D01*
Y121004D01*
X882473Y120871D01*
X882447Y120740D01*
X882404Y120614D01*
X882346Y120495D01*
X882272Y120384D01*
X882184Y120284D01*
X882084Y120196D01*
X881973Y120122D01*
X881853Y120063D01*
X881727Y120020D01*
X881597Y119994D01*
X881464Y119986D01*
X866164D01*
X866031Y119994D01*
X865900Y120020D01*
X865774Y120063D01*
X865655Y120122D01*
X865544Y120196D01*
X865444Y120284D01*
X865356Y120384D01*
X865282Y120495D01*
X865223Y120614D01*
X865180Y120740D01*
X865154Y120871D01*
X865146Y121004D01*
Y133004D01*
X865154Y133137D01*
X865180Y133267D01*
X865223Y133393D01*
X865282Y133513D01*
X865356Y133624D01*
X865444Y133724D01*
X865544Y133812D01*
X865655Y133886D01*
X865774Y133945D01*
X865900Y133987D01*
X866031Y134013D01*
X866164Y134022D01*
X870146D01*
Y146104D01*
X870154Y146237D01*
X870180Y146367D01*
X870223Y146493D01*
X870282Y146613D01*
X870356Y146724D01*
X870444Y146824D01*
X870544Y146912D01*
X870655Y146986D01*
X870774Y147044D01*
X870900Y147087D01*
X871031Y147113D01*
X871164Y147122D01*
X892964D01*
X893097Y147113D01*
D02*
G37*
G36*
X393097D02*
X393227Y147087D01*
X393353Y147044D01*
X393473Y146986D01*
X393584Y146912D01*
X393684Y146824D01*
X393772Y146724D01*
X393845Y146613D01*
X393904Y146493D01*
X393947Y146367D01*
X393973Y146237D01*
X393982Y146104D01*
Y134104D01*
X393973Y133971D01*
X393947Y133840D01*
X393904Y133714D01*
X393845Y133595D01*
X393772Y133484D01*
X393684Y133384D01*
X393584Y133296D01*
X393473Y133222D01*
X393353Y133163D01*
X393227Y133120D01*
X393097Y133094D01*
X392964Y133086D01*
X382482D01*
Y121004D01*
X382473Y120871D01*
X382447Y120740D01*
X382405Y120614D01*
X382346Y120495D01*
X382272Y120384D01*
X382184Y120284D01*
X382084Y120196D01*
X381973Y120122D01*
X381853Y120063D01*
X381727Y120020D01*
X381597Y119994D01*
X381464Y119986D01*
X366164D01*
X366031Y119994D01*
X365900Y120020D01*
X365774Y120063D01*
X365655Y120122D01*
X365544Y120196D01*
X365444Y120284D01*
X365356Y120384D01*
X365282Y120495D01*
X365223Y120614D01*
X365180Y120740D01*
X365154Y120871D01*
X365146Y121004D01*
Y133004D01*
X365154Y133137D01*
X365180Y133267D01*
X365223Y133393D01*
X365282Y133513D01*
X365356Y133624D01*
X365444Y133724D01*
X365544Y133812D01*
X365655Y133886D01*
X365774Y133945D01*
X365900Y133987D01*
X366031Y134013D01*
X366164Y134022D01*
X370146D01*
Y146104D01*
X370154Y146237D01*
X370180Y146367D01*
X370223Y146493D01*
X370282Y146613D01*
X370356Y146724D01*
X370444Y146824D01*
X370544Y146912D01*
X370655Y146986D01*
X370774Y147044D01*
X370900Y147087D01*
X371031Y147113D01*
X371164Y147122D01*
X392964D01*
X393097Y147113D01*
D02*
G37*
G36*
X1381597Y80013D02*
X1381727Y79987D01*
X1381853Y79945D01*
X1381973Y79886D01*
X1382084Y79812D01*
X1382184Y79724D01*
X1382272Y79624D01*
X1382346Y79513D01*
X1382404Y79393D01*
X1382447Y79267D01*
X1382473Y79137D01*
X1382482Y79004D01*
Y66922D01*
X1392964Y66922D01*
X1393097Y66913D01*
X1393227Y66887D01*
X1393353Y66845D01*
X1393473Y66786D01*
X1393584Y66712D01*
X1393684Y66624D01*
X1393772Y66524D01*
X1393846Y66413D01*
X1393905Y66293D01*
X1393947Y66167D01*
X1393973Y66037D01*
X1393982Y65904D01*
Y53904D01*
X1393973Y53771D01*
X1393947Y53640D01*
X1393905Y53514D01*
X1393846Y53395D01*
X1393772Y53284D01*
X1393684Y53184D01*
X1393584Y53096D01*
X1393473Y53022D01*
X1393353Y52963D01*
X1393227Y52920D01*
X1393097Y52894D01*
X1392964Y52886D01*
X1371164Y52886D01*
X1371031Y52894D01*
X1370900Y52920D01*
X1370774Y52963D01*
X1370655Y53022D01*
X1370544Y53096D01*
X1370444Y53184D01*
X1370356Y53284D01*
X1370282Y53395D01*
X1370223Y53514D01*
X1370180Y53640D01*
X1370154Y53771D01*
X1370146Y53904D01*
Y65986D01*
X1366164D01*
X1366031Y65994D01*
X1365900Y66020D01*
X1365774Y66063D01*
X1365655Y66122D01*
X1365544Y66196D01*
X1365444Y66284D01*
X1365356Y66384D01*
X1365282Y66495D01*
X1365223Y66614D01*
X1365180Y66740D01*
X1365154Y66871D01*
X1365146Y67004D01*
Y79004D01*
X1365154Y79137D01*
X1365180Y79267D01*
X1365223Y79393D01*
X1365282Y79513D01*
X1365356Y79624D01*
X1365444Y79724D01*
X1365544Y79812D01*
X1365655Y79886D01*
X1365774Y79945D01*
X1365900Y79987D01*
X1366031Y80013D01*
X1366164Y80022D01*
X1381464D01*
X1381597Y80013D01*
D02*
G37*
G36*
X881597D02*
X881727Y79987D01*
X881853Y79945D01*
X881973Y79886D01*
X882084Y79812D01*
X882184Y79724D01*
X882272Y79624D01*
X882346Y79513D01*
X882404Y79393D01*
X882447Y79267D01*
X882473Y79137D01*
X882482Y79004D01*
Y66922D01*
X892964Y66922D01*
X893097Y66913D01*
X893227Y66887D01*
X893353Y66845D01*
X893473Y66786D01*
X893584Y66712D01*
X893684Y66624D01*
X893772Y66524D01*
X893846Y66413D01*
X893904Y66293D01*
X893947Y66167D01*
X893973Y66037D01*
X893982Y65904D01*
Y53904D01*
X893973Y53771D01*
X893947Y53640D01*
X893904Y53514D01*
X893846Y53395D01*
X893772Y53284D01*
X893684Y53184D01*
X893584Y53096D01*
X893473Y53022D01*
X893353Y52963D01*
X893227Y52920D01*
X893097Y52894D01*
X892964Y52886D01*
X871164Y52886D01*
X871031Y52894D01*
X870900Y52920D01*
X870774Y52963D01*
X870655Y53022D01*
X870544Y53096D01*
X870444Y53184D01*
X870356Y53284D01*
X870282Y53395D01*
X870223Y53514D01*
X870180Y53640D01*
X870154Y53771D01*
X870146Y53904D01*
Y65986D01*
X866164D01*
X866031Y65994D01*
X865900Y66020D01*
X865774Y66063D01*
X865655Y66122D01*
X865544Y66196D01*
X865444Y66284D01*
X865356Y66384D01*
X865282Y66495D01*
X865223Y66614D01*
X865180Y66740D01*
X865154Y66871D01*
X865146Y67004D01*
Y79004D01*
X865154Y79137D01*
X865180Y79267D01*
X865223Y79393D01*
X865282Y79513D01*
X865356Y79624D01*
X865444Y79724D01*
X865544Y79812D01*
X865655Y79886D01*
X865774Y79945D01*
X865900Y79987D01*
X866031Y80013D01*
X866164Y80022D01*
X881464D01*
X881597Y80013D01*
D02*
G37*
G36*
X381597D02*
X381727Y79987D01*
X381853Y79945D01*
X381973Y79886D01*
X382084Y79812D01*
X382184Y79724D01*
X382272Y79624D01*
X382346Y79513D01*
X382405Y79393D01*
X382447Y79267D01*
X382473Y79137D01*
X382482Y79004D01*
Y66922D01*
X392964Y66922D01*
X393097Y66913D01*
X393227Y66887D01*
X393353Y66845D01*
X393473Y66786D01*
X393584Y66712D01*
X393684Y66624D01*
X393772Y66524D01*
X393845Y66413D01*
X393904Y66293D01*
X393947Y66167D01*
X393973Y66037D01*
X393982Y65904D01*
Y53904D01*
X393973Y53771D01*
X393947Y53640D01*
X393904Y53514D01*
X393845Y53395D01*
X393772Y53284D01*
X393684Y53184D01*
X393584Y53096D01*
X393473Y53022D01*
X393353Y52963D01*
X393227Y52920D01*
X393097Y52894D01*
X392964Y52886D01*
X371164Y52886D01*
X371031Y52894D01*
X370900Y52920D01*
X370774Y52963D01*
X370655Y53022D01*
X370544Y53096D01*
X370444Y53184D01*
X370356Y53284D01*
X370282Y53395D01*
X370223Y53514D01*
X370180Y53640D01*
X370154Y53771D01*
X370146Y53904D01*
Y65986D01*
X366164D01*
X366031Y65994D01*
X365900Y66020D01*
X365774Y66063D01*
X365655Y66122D01*
X365544Y66196D01*
X365444Y66284D01*
X365356Y66384D01*
X365282Y66495D01*
X365223Y66614D01*
X365180Y66740D01*
X365154Y66871D01*
X365146Y67004D01*
Y79004D01*
X365154Y79137D01*
X365180Y79267D01*
X365223Y79393D01*
X365282Y79513D01*
X365356Y79624D01*
X365444Y79724D01*
X365544Y79812D01*
X365655Y79886D01*
X365774Y79945D01*
X365900Y79987D01*
X366031Y80013D01*
X366164Y80022D01*
X381464D01*
X381597Y80013D01*
D02*
G37*
D16*
X1251944Y70063D02*
D03*
X1256944D02*
D03*
X1261944D02*
D03*
X1266944D02*
D03*
X1271944D02*
D03*
X1276944D02*
D03*
X1251944Y96663D02*
D03*
X1256944D02*
D03*
X1261944D02*
D03*
X1266944D02*
D03*
X1271944D02*
D03*
X1276944D02*
D03*
X1251944Y270063D02*
D03*
X1256944D02*
D03*
X1261944D02*
D03*
X1266944D02*
D03*
X1271944D02*
D03*
X1276944D02*
D03*
X1251944Y296663D02*
D03*
X1256944D02*
D03*
X1261944D02*
D03*
X1266944D02*
D03*
X1271944D02*
D03*
X1276944D02*
D03*
X1251944Y470063D02*
D03*
X1256944D02*
D03*
X1261944D02*
D03*
X1266944D02*
D03*
X1271944D02*
D03*
X1276944D02*
D03*
X1251944Y496663D02*
D03*
X1256944D02*
D03*
X1261944D02*
D03*
X1266944D02*
D03*
X1271944D02*
D03*
X1276944D02*
D03*
X1251944Y670063D02*
D03*
X1256944D02*
D03*
X1261944D02*
D03*
X1266944D02*
D03*
X1271944D02*
D03*
X1276944D02*
D03*
X1251944Y696663D02*
D03*
X1256944D02*
D03*
X1261944D02*
D03*
X1266944D02*
D03*
X1271944D02*
D03*
X1276944D02*
D03*
X1251944Y870063D02*
D03*
X1256944D02*
D03*
X1261944D02*
D03*
X1266944D02*
D03*
X1271944D02*
D03*
X1276944D02*
D03*
X1251944Y896663D02*
D03*
X1256944D02*
D03*
X1261944D02*
D03*
X1266944D02*
D03*
X1271944D02*
D03*
X1276944D02*
D03*
X751944Y70063D02*
D03*
X756944D02*
D03*
X761944D02*
D03*
X766944D02*
D03*
X771944D02*
D03*
X776944D02*
D03*
X751944Y96663D02*
D03*
X756944D02*
D03*
X761944D02*
D03*
X766944D02*
D03*
X771944D02*
D03*
X776944D02*
D03*
X751944Y270063D02*
D03*
X756944D02*
D03*
X761944D02*
D03*
X766944D02*
D03*
X771944D02*
D03*
X776944D02*
D03*
X751944Y296663D02*
D03*
X756944D02*
D03*
X761944D02*
D03*
X766944D02*
D03*
X771944D02*
D03*
X776944D02*
D03*
X751944Y470063D02*
D03*
X756944D02*
D03*
X761944D02*
D03*
X766944D02*
D03*
X771944D02*
D03*
X776944D02*
D03*
X751944Y496663D02*
D03*
X756944D02*
D03*
X761944D02*
D03*
X766944D02*
D03*
X771944D02*
D03*
X776944D02*
D03*
X751944Y670063D02*
D03*
X756944D02*
D03*
X761944D02*
D03*
X766944D02*
D03*
X771944D02*
D03*
X776944D02*
D03*
X751944Y696663D02*
D03*
X756944D02*
D03*
X761944D02*
D03*
X766944D02*
D03*
X771944D02*
D03*
X776944D02*
D03*
X751944Y870063D02*
D03*
X756944D02*
D03*
X761944D02*
D03*
X766944D02*
D03*
X771944D02*
D03*
X776944D02*
D03*
X751944Y896663D02*
D03*
X756944D02*
D03*
X761944D02*
D03*
X766944D02*
D03*
X771944D02*
D03*
X776944D02*
D03*
X251944Y70063D02*
D03*
X256944D02*
D03*
X261944D02*
D03*
X266944D02*
D03*
X271944D02*
D03*
X276944D02*
D03*
X251944Y96663D02*
D03*
X256944D02*
D03*
X261944D02*
D03*
X266944D02*
D03*
X271944D02*
D03*
X276944D02*
D03*
X251944Y270063D02*
D03*
X256944D02*
D03*
X261944D02*
D03*
X266944D02*
D03*
X271944D02*
D03*
X276944D02*
D03*
X251944Y296663D02*
D03*
X256944D02*
D03*
X261944D02*
D03*
X266944D02*
D03*
X271944D02*
D03*
X276944D02*
D03*
X251944Y470063D02*
D03*
X256944D02*
D03*
X261944D02*
D03*
X266944D02*
D03*
X271944D02*
D03*
X276944D02*
D03*
X251944Y496663D02*
D03*
X256944D02*
D03*
X261944D02*
D03*
X266944D02*
D03*
X271944D02*
D03*
X276944D02*
D03*
X251944Y670063D02*
D03*
X256944D02*
D03*
X261944D02*
D03*
X266944D02*
D03*
X271944D02*
D03*
X276944D02*
D03*
X251944Y696663D02*
D03*
X256944D02*
D03*
X261944D02*
D03*
X266944D02*
D03*
X271944D02*
D03*
X276944D02*
D03*
X251944Y870063D02*
D03*
X256944D02*
D03*
X261944D02*
D03*
X266944D02*
D03*
X271944D02*
D03*
X276944D02*
D03*
X251944Y896663D02*
D03*
X256944D02*
D03*
X261944D02*
D03*
X266944D02*
D03*
X271944D02*
D03*
X276944D02*
D03*
D81*
X50000Y1050000D02*
D03*
Y-50000D02*
D03*
X1350000D02*
D03*
Y1050000D02*
D03*
D82*
X1314721Y181694D02*
D03*
Y191694D02*
D03*
X1305554Y184674D02*
D03*
Y174674D02*
D03*
X1193794Y96444D02*
D03*
Y86444D02*
D03*
X1202604Y96444D02*
D03*
Y86444D02*
D03*
X1160814Y144113D02*
D03*
Y134113D02*
D03*
X1353814Y114384D02*
D03*
Y124384D02*
D03*
X1290314Y106764D02*
D03*
Y116764D02*
D03*
X1314721Y381694D02*
D03*
Y391694D02*
D03*
X1305554Y384674D02*
D03*
Y374674D02*
D03*
X1193794Y296444D02*
D03*
Y286444D02*
D03*
X1202604Y296444D02*
D03*
Y286444D02*
D03*
X1160814Y344113D02*
D03*
Y334113D02*
D03*
X1353814Y314384D02*
D03*
Y324384D02*
D03*
X1290314Y306764D02*
D03*
Y316764D02*
D03*
X1314721Y581694D02*
D03*
Y591694D02*
D03*
X1305554Y584674D02*
D03*
Y574674D02*
D03*
X1193794Y496444D02*
D03*
Y486444D02*
D03*
X1202604Y496444D02*
D03*
Y486444D02*
D03*
X1160814Y544113D02*
D03*
Y534113D02*
D03*
X1353814Y514384D02*
D03*
Y524384D02*
D03*
X1290314Y506764D02*
D03*
Y516764D02*
D03*
X1314721Y781694D02*
D03*
Y791694D02*
D03*
X1305554Y784674D02*
D03*
Y774674D02*
D03*
X1193794Y696444D02*
D03*
Y686444D02*
D03*
X1202604Y696444D02*
D03*
Y686444D02*
D03*
X1160814Y744113D02*
D03*
Y734113D02*
D03*
X1353814Y714384D02*
D03*
Y724384D02*
D03*
X1290314Y706764D02*
D03*
Y716764D02*
D03*
X1314721Y981694D02*
D03*
Y991694D02*
D03*
X1305554Y984674D02*
D03*
Y974674D02*
D03*
X1193794Y896444D02*
D03*
Y886444D02*
D03*
X1202604Y896444D02*
D03*
Y886444D02*
D03*
X1160814Y944113D02*
D03*
Y934113D02*
D03*
X1353814Y914384D02*
D03*
Y924384D02*
D03*
X1290314Y906764D02*
D03*
Y916764D02*
D03*
X814721Y181694D02*
D03*
Y191694D02*
D03*
X805554Y184674D02*
D03*
Y174674D02*
D03*
X693794Y96444D02*
D03*
Y86444D02*
D03*
X702604Y96444D02*
D03*
Y86444D02*
D03*
X660814Y144113D02*
D03*
Y134113D02*
D03*
X853814Y114384D02*
D03*
Y124384D02*
D03*
X790314Y106764D02*
D03*
Y116764D02*
D03*
X814721Y381694D02*
D03*
Y391694D02*
D03*
X805554Y384674D02*
D03*
Y374674D02*
D03*
X693794Y296444D02*
D03*
Y286444D02*
D03*
X702604Y296444D02*
D03*
Y286444D02*
D03*
X660814Y344113D02*
D03*
Y334113D02*
D03*
X853814Y314384D02*
D03*
Y324384D02*
D03*
X790314Y306764D02*
D03*
Y316764D02*
D03*
X814721Y581694D02*
D03*
Y591694D02*
D03*
X805554Y584674D02*
D03*
Y574674D02*
D03*
X693794Y496444D02*
D03*
Y486444D02*
D03*
X702604Y496444D02*
D03*
Y486444D02*
D03*
X660814Y544113D02*
D03*
Y534113D02*
D03*
X853814Y514384D02*
D03*
Y524384D02*
D03*
X790314Y506764D02*
D03*
Y516764D02*
D03*
X814721Y781694D02*
D03*
Y791694D02*
D03*
X805554Y784674D02*
D03*
Y774674D02*
D03*
X693794Y696444D02*
D03*
Y686444D02*
D03*
X702604Y696444D02*
D03*
Y686444D02*
D03*
X660814Y744113D02*
D03*
Y734113D02*
D03*
X853814Y714384D02*
D03*
Y724384D02*
D03*
X790314Y706764D02*
D03*
Y716764D02*
D03*
X814721Y981694D02*
D03*
Y991694D02*
D03*
X805554Y984674D02*
D03*
Y974674D02*
D03*
X693794Y896444D02*
D03*
Y886444D02*
D03*
X702604Y896444D02*
D03*
Y886444D02*
D03*
X660814Y944113D02*
D03*
Y934113D02*
D03*
X853814Y914384D02*
D03*
Y924384D02*
D03*
X790314Y906764D02*
D03*
Y916764D02*
D03*
X314721Y181694D02*
D03*
Y191694D02*
D03*
X305554Y184674D02*
D03*
Y174674D02*
D03*
X193794Y96444D02*
D03*
Y86444D02*
D03*
X202604Y96444D02*
D03*
Y86444D02*
D03*
X160814Y144113D02*
D03*
Y134113D02*
D03*
X353814Y114384D02*
D03*
Y124384D02*
D03*
X290314Y106764D02*
D03*
Y116764D02*
D03*
X314721Y381694D02*
D03*
Y391694D02*
D03*
X305554Y384674D02*
D03*
Y374674D02*
D03*
X193794Y296444D02*
D03*
Y286444D02*
D03*
X202604Y296444D02*
D03*
Y286444D02*
D03*
X160814Y344113D02*
D03*
Y334113D02*
D03*
X353814Y314384D02*
D03*
Y324384D02*
D03*
X290314Y306764D02*
D03*
Y316764D02*
D03*
X314721Y581694D02*
D03*
Y591694D02*
D03*
X305554Y584674D02*
D03*
Y574674D02*
D03*
X193794Y496444D02*
D03*
Y486444D02*
D03*
X202604Y496444D02*
D03*
Y486444D02*
D03*
X160814Y544113D02*
D03*
Y534113D02*
D03*
X353814Y514384D02*
D03*
Y524384D02*
D03*
X290314Y506764D02*
D03*
Y516764D02*
D03*
X314721Y781694D02*
D03*
Y791694D02*
D03*
X305554Y784674D02*
D03*
Y774674D02*
D03*
X193794Y696444D02*
D03*
Y686444D02*
D03*
X202604Y696444D02*
D03*
Y686444D02*
D03*
X160814Y744113D02*
D03*
Y734113D02*
D03*
X353814Y714384D02*
D03*
Y724384D02*
D03*
X290314Y706764D02*
D03*
Y716764D02*
D03*
X314721Y981694D02*
D03*
Y991694D02*
D03*
X305554Y984674D02*
D03*
Y974674D02*
D03*
X193794Y896444D02*
D03*
Y886444D02*
D03*
X202604Y896444D02*
D03*
Y886444D02*
D03*
X160814Y944113D02*
D03*
Y934113D02*
D03*
X353814Y914384D02*
D03*
Y924384D02*
D03*
X290314Y906764D02*
D03*
Y916764D02*
D03*
D83*
X1223004Y43184D02*
D03*
X1188004D02*
D03*
X1223004Y243184D02*
D03*
X1188004D02*
D03*
X1223004Y443184D02*
D03*
X1188004D02*
D03*
X1223004Y643184D02*
D03*
X1188004D02*
D03*
X1223004Y843184D02*
D03*
X1188004D02*
D03*
X723004Y43184D02*
D03*
X688004D02*
D03*
X723004Y243184D02*
D03*
X688004D02*
D03*
X723004Y443184D02*
D03*
X688004D02*
D03*
X723004Y643184D02*
D03*
X688004D02*
D03*
X723004Y843184D02*
D03*
X688004D02*
D03*
X223004Y43184D02*
D03*
X188004D02*
D03*
X223004Y243184D02*
D03*
X188004D02*
D03*
X223004Y443184D02*
D03*
X188004D02*
D03*
X223004Y643184D02*
D03*
X188004D02*
D03*
X223004Y843184D02*
D03*
X188004D02*
D03*
D84*
X1154484Y173994D02*
D03*
X1144484D02*
D03*
X1215304Y16404D02*
D03*
X1205304D02*
D03*
X1170854D02*
D03*
X1180854D02*
D03*
X1027424Y81284D02*
D03*
X1037424D02*
D03*
X1027424Y71804D02*
D03*
X1037424D02*
D03*
X1296744Y42503D02*
D03*
X1306744D02*
D03*
X1296736Y30534D02*
D03*
X1306736D02*
D03*
X1315794Y53344D02*
D03*
X1325794D02*
D03*
X1325964Y64774D02*
D03*
X1315964D02*
D03*
X1266944Y116384D02*
D03*
X1276944D02*
D03*
X1328964Y157024D02*
D03*
X1318964D02*
D03*
X1175714Y172924D02*
D03*
X1185714D02*
D03*
X1173854Y160024D02*
D03*
X1183854D02*
D03*
X1163014Y39004D02*
D03*
X1173014D02*
D03*
X1173854Y151004D02*
D03*
X1183854D02*
D03*
X1235042Y158963D02*
D03*
X1225042D02*
D03*
X1343734Y45003D02*
D03*
X1353734D02*
D03*
X1031114Y92254D02*
D03*
X1041114D02*
D03*
X1266944Y106003D02*
D03*
X1276944D02*
D03*
X1298195Y75304D02*
D03*
X1308195D02*
D03*
X1154484Y373994D02*
D03*
X1144484D02*
D03*
X1215304Y216404D02*
D03*
X1205304D02*
D03*
X1170854D02*
D03*
X1180854D02*
D03*
X1027424Y281284D02*
D03*
X1037424D02*
D03*
X1027424Y271804D02*
D03*
X1037424D02*
D03*
X1296744Y242503D02*
D03*
X1306744D02*
D03*
X1296736Y230534D02*
D03*
X1306736D02*
D03*
X1315794Y253344D02*
D03*
X1325794D02*
D03*
X1325964Y264774D02*
D03*
X1315964D02*
D03*
X1266944Y316384D02*
D03*
X1276944D02*
D03*
X1328964Y357024D02*
D03*
X1318964D02*
D03*
X1175714Y372924D02*
D03*
X1185714D02*
D03*
X1173854Y360024D02*
D03*
X1183854D02*
D03*
X1163014Y239004D02*
D03*
X1173014D02*
D03*
X1173854Y351004D02*
D03*
X1183854D02*
D03*
X1235042Y358963D02*
D03*
X1225042D02*
D03*
X1343734Y245003D02*
D03*
X1353734D02*
D03*
X1031114Y292254D02*
D03*
X1041114D02*
D03*
X1266944Y306003D02*
D03*
X1276944D02*
D03*
X1298195Y275304D02*
D03*
X1308195D02*
D03*
X1154484Y573994D02*
D03*
X1144484D02*
D03*
X1215304Y416404D02*
D03*
X1205304D02*
D03*
X1170854D02*
D03*
X1180854D02*
D03*
X1027424Y481284D02*
D03*
X1037424D02*
D03*
X1027424Y471804D02*
D03*
X1037424D02*
D03*
X1296744Y442503D02*
D03*
X1306744D02*
D03*
X1296736Y430534D02*
D03*
X1306736D02*
D03*
X1315794Y453344D02*
D03*
X1325794D02*
D03*
X1325964Y464774D02*
D03*
X1315964D02*
D03*
X1266944Y516384D02*
D03*
X1276944D02*
D03*
X1328964Y557024D02*
D03*
X1318964D02*
D03*
X1175714Y572924D02*
D03*
X1185714D02*
D03*
X1173854Y560024D02*
D03*
X1183854D02*
D03*
X1163014Y439004D02*
D03*
X1173014D02*
D03*
X1173854Y551004D02*
D03*
X1183854D02*
D03*
X1235042Y558963D02*
D03*
X1225042D02*
D03*
X1343734Y445003D02*
D03*
X1353734D02*
D03*
X1031114Y492254D02*
D03*
X1041114D02*
D03*
X1266944Y506003D02*
D03*
X1276944D02*
D03*
X1298195Y475304D02*
D03*
X1308195D02*
D03*
X1154484Y773994D02*
D03*
X1144484D02*
D03*
X1215304Y616404D02*
D03*
X1205304D02*
D03*
X1170854D02*
D03*
X1180854D02*
D03*
X1027424Y681284D02*
D03*
X1037424D02*
D03*
X1027424Y671804D02*
D03*
X1037424D02*
D03*
X1296744Y642503D02*
D03*
X1306744D02*
D03*
X1296736Y630534D02*
D03*
X1306736D02*
D03*
X1315794Y653344D02*
D03*
X1325794D02*
D03*
X1325964Y664774D02*
D03*
X1315964D02*
D03*
X1266944Y716384D02*
D03*
X1276944D02*
D03*
X1328964Y757024D02*
D03*
X1318964D02*
D03*
X1175714Y772924D02*
D03*
X1185714D02*
D03*
X1173854Y760024D02*
D03*
X1183854D02*
D03*
X1163014Y639004D02*
D03*
X1173014D02*
D03*
X1173854Y751004D02*
D03*
X1183854D02*
D03*
X1235042Y758963D02*
D03*
X1225042D02*
D03*
X1343734Y645003D02*
D03*
X1353734D02*
D03*
X1031114Y692254D02*
D03*
X1041114D02*
D03*
X1266944Y706003D02*
D03*
X1276944D02*
D03*
X1298195Y675304D02*
D03*
X1308195D02*
D03*
X1154484Y973994D02*
D03*
X1144484D02*
D03*
X1215304Y816404D02*
D03*
X1205304D02*
D03*
X1170854D02*
D03*
X1180854D02*
D03*
X1027424Y881284D02*
D03*
X1037424D02*
D03*
X1027424Y871804D02*
D03*
X1037424D02*
D03*
X1296744Y842503D02*
D03*
X1306744D02*
D03*
X1296736Y830534D02*
D03*
X1306736D02*
D03*
X1315794Y853344D02*
D03*
X1325794D02*
D03*
X1325964Y864774D02*
D03*
X1315964D02*
D03*
X1266944Y916384D02*
D03*
X1276944D02*
D03*
X1328964Y957024D02*
D03*
X1318964D02*
D03*
X1175714Y972924D02*
D03*
X1185714D02*
D03*
X1173854Y960024D02*
D03*
X1183854D02*
D03*
X1163014Y839004D02*
D03*
X1173014D02*
D03*
X1173854Y951004D02*
D03*
X1183854D02*
D03*
X1235042Y958963D02*
D03*
X1225042D02*
D03*
X1343734Y845003D02*
D03*
X1353734D02*
D03*
X1031114Y892254D02*
D03*
X1041114D02*
D03*
X1266944Y906003D02*
D03*
X1276944D02*
D03*
X1298195Y875304D02*
D03*
X1308195D02*
D03*
X654484Y173994D02*
D03*
X644484D02*
D03*
X715304Y16404D02*
D03*
X705304D02*
D03*
X670854D02*
D03*
X680854D02*
D03*
X527424Y81284D02*
D03*
X537424D02*
D03*
X527424Y71804D02*
D03*
X537424D02*
D03*
X796744Y42503D02*
D03*
X806744D02*
D03*
X796736Y30534D02*
D03*
X806736D02*
D03*
X815794Y53344D02*
D03*
X825794D02*
D03*
X825964Y64774D02*
D03*
X815964D02*
D03*
X766944Y116384D02*
D03*
X776944D02*
D03*
X828964Y157024D02*
D03*
X818964D02*
D03*
X675714Y172924D02*
D03*
X685714D02*
D03*
X673854Y160024D02*
D03*
X683854D02*
D03*
X663014Y39004D02*
D03*
X673014D02*
D03*
X673854Y151004D02*
D03*
X683854D02*
D03*
X735042Y158963D02*
D03*
X725042D02*
D03*
X843734Y45003D02*
D03*
X853734D02*
D03*
X531114Y92254D02*
D03*
X541114D02*
D03*
X766944Y106003D02*
D03*
X776944D02*
D03*
X798195Y75304D02*
D03*
X808195D02*
D03*
X654484Y373994D02*
D03*
X644484D02*
D03*
X715304Y216404D02*
D03*
X705304D02*
D03*
X670854D02*
D03*
X680854D02*
D03*
X527424Y281284D02*
D03*
X537424D02*
D03*
X527424Y271804D02*
D03*
X537424D02*
D03*
X796744Y242503D02*
D03*
X806744D02*
D03*
X796736Y230534D02*
D03*
X806736D02*
D03*
X815794Y253344D02*
D03*
X825794D02*
D03*
X825964Y264774D02*
D03*
X815964D02*
D03*
X766944Y316384D02*
D03*
X776944D02*
D03*
X828964Y357024D02*
D03*
X818964D02*
D03*
X675714Y372924D02*
D03*
X685714D02*
D03*
X673854Y360024D02*
D03*
X683854D02*
D03*
X663014Y239004D02*
D03*
X673014D02*
D03*
X673854Y351004D02*
D03*
X683854D02*
D03*
X735042Y358963D02*
D03*
X725042D02*
D03*
X843734Y245003D02*
D03*
X853734D02*
D03*
X531114Y292254D02*
D03*
X541114D02*
D03*
X766944Y306003D02*
D03*
X776944D02*
D03*
X798195Y275304D02*
D03*
X808195D02*
D03*
X654484Y573994D02*
D03*
X644484D02*
D03*
X715304Y416404D02*
D03*
X705304D02*
D03*
X670854D02*
D03*
X680854D02*
D03*
X527424Y481284D02*
D03*
X537424D02*
D03*
X527424Y471804D02*
D03*
X537424D02*
D03*
X796744Y442503D02*
D03*
X806744D02*
D03*
X796736Y430534D02*
D03*
X806736D02*
D03*
X815794Y453344D02*
D03*
X825794D02*
D03*
X825964Y464774D02*
D03*
X815964D02*
D03*
X766944Y516384D02*
D03*
X776944D02*
D03*
X828964Y557024D02*
D03*
X818964D02*
D03*
X675714Y572924D02*
D03*
X685714D02*
D03*
X673854Y560024D02*
D03*
X683854D02*
D03*
X663014Y439004D02*
D03*
X673014D02*
D03*
X673854Y551004D02*
D03*
X683854D02*
D03*
X735042Y558963D02*
D03*
X725042D02*
D03*
X843734Y445003D02*
D03*
X853734D02*
D03*
X531114Y492254D02*
D03*
X541114D02*
D03*
X766944Y506003D02*
D03*
X776944D02*
D03*
X798195Y475304D02*
D03*
X808195D02*
D03*
X654484Y773994D02*
D03*
X644484D02*
D03*
X715304Y616404D02*
D03*
X705304D02*
D03*
X670854D02*
D03*
X680854D02*
D03*
X527424Y681284D02*
D03*
X537424D02*
D03*
X527424Y671804D02*
D03*
X537424D02*
D03*
X796744Y642503D02*
D03*
X806744D02*
D03*
X796736Y630534D02*
D03*
X806736D02*
D03*
X815794Y653344D02*
D03*
X825794D02*
D03*
X825964Y664774D02*
D03*
X815964D02*
D03*
X766944Y716384D02*
D03*
X776944D02*
D03*
X828964Y757024D02*
D03*
X818964D02*
D03*
X675714Y772924D02*
D03*
X685714D02*
D03*
X673854Y760024D02*
D03*
X683854D02*
D03*
X663014Y639004D02*
D03*
X673014D02*
D03*
X673854Y751004D02*
D03*
X683854D02*
D03*
X735042Y758963D02*
D03*
X725042D02*
D03*
X843734Y645003D02*
D03*
X853734D02*
D03*
X531114Y692254D02*
D03*
X541114D02*
D03*
X766944Y706003D02*
D03*
X776944D02*
D03*
X798195Y675304D02*
D03*
X808195D02*
D03*
X654484Y973994D02*
D03*
X644484D02*
D03*
X715304Y816404D02*
D03*
X705304D02*
D03*
X670854D02*
D03*
X680854D02*
D03*
X527424Y881284D02*
D03*
X537424D02*
D03*
X527424Y871804D02*
D03*
X537424D02*
D03*
X796744Y842503D02*
D03*
X806744D02*
D03*
X796736Y830534D02*
D03*
X806736D02*
D03*
X815794Y853344D02*
D03*
X825794D02*
D03*
X825964Y864774D02*
D03*
X815964D02*
D03*
X766944Y916384D02*
D03*
X776944D02*
D03*
X828964Y957024D02*
D03*
X818964D02*
D03*
X675714Y972924D02*
D03*
X685714D02*
D03*
X673854Y960024D02*
D03*
X683854D02*
D03*
X663014Y839004D02*
D03*
X673014D02*
D03*
X673854Y951004D02*
D03*
X683854D02*
D03*
X735042Y958963D02*
D03*
X725042D02*
D03*
X843734Y845003D02*
D03*
X853734D02*
D03*
X531114Y892254D02*
D03*
X541114D02*
D03*
X766944Y906003D02*
D03*
X776944D02*
D03*
X798195Y875304D02*
D03*
X808195D02*
D03*
X154484Y173994D02*
D03*
X144484D02*
D03*
X215304Y16404D02*
D03*
X205304D02*
D03*
X170854D02*
D03*
X180854D02*
D03*
X27424Y81284D02*
D03*
X37424D02*
D03*
X27424Y71804D02*
D03*
X37424D02*
D03*
X296744Y42503D02*
D03*
X306744D02*
D03*
X296736Y30534D02*
D03*
X306736D02*
D03*
X315794Y53344D02*
D03*
X325794D02*
D03*
X325964Y64774D02*
D03*
X315964D02*
D03*
X266944Y116384D02*
D03*
X276944D02*
D03*
X328964Y157024D02*
D03*
X318964D02*
D03*
X175714Y172924D02*
D03*
X185714D02*
D03*
X173854Y160024D02*
D03*
X183854D02*
D03*
X163014Y39004D02*
D03*
X173014D02*
D03*
X173854Y151004D02*
D03*
X183854D02*
D03*
X235042Y158963D02*
D03*
X225042D02*
D03*
X343734Y45003D02*
D03*
X353734D02*
D03*
X31114Y92254D02*
D03*
X41114D02*
D03*
X266944Y106003D02*
D03*
X276944D02*
D03*
X298195Y75304D02*
D03*
X308195D02*
D03*
X154484Y373994D02*
D03*
X144484D02*
D03*
X215304Y216404D02*
D03*
X205304D02*
D03*
X170854D02*
D03*
X180854D02*
D03*
X27424Y281284D02*
D03*
X37424D02*
D03*
X27424Y271804D02*
D03*
X37424D02*
D03*
X296744Y242503D02*
D03*
X306744D02*
D03*
X296736Y230534D02*
D03*
X306736D02*
D03*
X315794Y253344D02*
D03*
X325794D02*
D03*
X325964Y264774D02*
D03*
X315964D02*
D03*
X266944Y316384D02*
D03*
X276944D02*
D03*
X328964Y357024D02*
D03*
X318964D02*
D03*
X175714Y372924D02*
D03*
X185714D02*
D03*
X173854Y360024D02*
D03*
X183854D02*
D03*
X163014Y239004D02*
D03*
X173014D02*
D03*
X173854Y351004D02*
D03*
X183854D02*
D03*
X235042Y358963D02*
D03*
X225042D02*
D03*
X343734Y245003D02*
D03*
X353734D02*
D03*
X31114Y292254D02*
D03*
X41114D02*
D03*
X266944Y306003D02*
D03*
X276944D02*
D03*
X298195Y275304D02*
D03*
X308195D02*
D03*
X154484Y573994D02*
D03*
X144484D02*
D03*
X215304Y416404D02*
D03*
X205304D02*
D03*
X170854D02*
D03*
X180854D02*
D03*
X27424Y481284D02*
D03*
X37424D02*
D03*
X27424Y471804D02*
D03*
X37424D02*
D03*
X296744Y442503D02*
D03*
X306744D02*
D03*
X296736Y430534D02*
D03*
X306736D02*
D03*
X315794Y453344D02*
D03*
X325794D02*
D03*
X325964Y464774D02*
D03*
X315964D02*
D03*
X266944Y516384D02*
D03*
X276944D02*
D03*
X328964Y557024D02*
D03*
X318964D02*
D03*
X175714Y572924D02*
D03*
X185714D02*
D03*
X173854Y560024D02*
D03*
X183854D02*
D03*
X163014Y439004D02*
D03*
X173014D02*
D03*
X173854Y551004D02*
D03*
X183854D02*
D03*
X235042Y558963D02*
D03*
X225042D02*
D03*
X343734Y445003D02*
D03*
X353734D02*
D03*
X31114Y492254D02*
D03*
X41114D02*
D03*
X266944Y506003D02*
D03*
X276944D02*
D03*
X298195Y475304D02*
D03*
X308195D02*
D03*
X154484Y773994D02*
D03*
X144484D02*
D03*
X215304Y616404D02*
D03*
X205304D02*
D03*
X170854D02*
D03*
X180854D02*
D03*
X27424Y681284D02*
D03*
X37424D02*
D03*
X27424Y671804D02*
D03*
X37424D02*
D03*
X296744Y642503D02*
D03*
X306744D02*
D03*
X296736Y630534D02*
D03*
X306736D02*
D03*
X315794Y653344D02*
D03*
X325794D02*
D03*
X325964Y664774D02*
D03*
X315964D02*
D03*
X266944Y716384D02*
D03*
X276944D02*
D03*
X328964Y757024D02*
D03*
X318964D02*
D03*
X175714Y772924D02*
D03*
X185714D02*
D03*
X173854Y760024D02*
D03*
X183854D02*
D03*
X163014Y639004D02*
D03*
X173014D02*
D03*
X173854Y751004D02*
D03*
X183854D02*
D03*
X235042Y758963D02*
D03*
X225042D02*
D03*
X343734Y645003D02*
D03*
X353734D02*
D03*
X31114Y692254D02*
D03*
X41114D02*
D03*
X266944Y706003D02*
D03*
X276944D02*
D03*
X298195Y675304D02*
D03*
X308195D02*
D03*
X154484Y973994D02*
D03*
X144484D02*
D03*
X215304Y816404D02*
D03*
X205304D02*
D03*
X170854D02*
D03*
X180854D02*
D03*
X27424Y881284D02*
D03*
X37424D02*
D03*
X27424Y871804D02*
D03*
X37424D02*
D03*
X296744Y842503D02*
D03*
X306744D02*
D03*
X296736Y830534D02*
D03*
X306736D02*
D03*
X315794Y853344D02*
D03*
X325794D02*
D03*
X325964Y864774D02*
D03*
X315964D02*
D03*
X266944Y916384D02*
D03*
X276944D02*
D03*
X328964Y957024D02*
D03*
X318964D02*
D03*
X175714Y972924D02*
D03*
X185714D02*
D03*
X173854Y960024D02*
D03*
X183854D02*
D03*
X163014Y839004D02*
D03*
X173014D02*
D03*
X173854Y951004D02*
D03*
X183854D02*
D03*
X235042Y958963D02*
D03*
X225042D02*
D03*
X343734Y845003D02*
D03*
X353734D02*
D03*
X31114Y892254D02*
D03*
X41114D02*
D03*
X266944Y906003D02*
D03*
X276944D02*
D03*
X298195Y875304D02*
D03*
X308195D02*
D03*
D85*
X1132383Y178454D02*
D03*
Y164454D02*
D03*
X1234792Y146113D02*
D03*
Y132113D02*
D03*
X1132383Y378454D02*
D03*
Y364454D02*
D03*
X1234792Y346113D02*
D03*
Y332113D02*
D03*
X1132383Y578454D02*
D03*
Y564454D02*
D03*
X1234792Y546113D02*
D03*
Y532113D02*
D03*
X1132383Y778454D02*
D03*
Y764454D02*
D03*
X1234792Y746113D02*
D03*
Y732113D02*
D03*
X1132383Y978454D02*
D03*
Y964454D02*
D03*
X1234792Y946113D02*
D03*
Y932113D02*
D03*
X632383Y178454D02*
D03*
Y164454D02*
D03*
X734792Y146113D02*
D03*
Y132113D02*
D03*
X632383Y378454D02*
D03*
Y364454D02*
D03*
X734792Y346113D02*
D03*
Y332113D02*
D03*
X632383Y578454D02*
D03*
Y564454D02*
D03*
X734792Y546113D02*
D03*
Y532113D02*
D03*
X632383Y778454D02*
D03*
Y764454D02*
D03*
X734792Y746113D02*
D03*
Y732113D02*
D03*
X632383Y978454D02*
D03*
Y964454D02*
D03*
X734792Y946113D02*
D03*
Y932113D02*
D03*
X132383Y178454D02*
D03*
Y164454D02*
D03*
X234792Y146113D02*
D03*
Y132113D02*
D03*
X132383Y378454D02*
D03*
Y364454D02*
D03*
X234792Y346113D02*
D03*
Y332113D02*
D03*
X132383Y578454D02*
D03*
Y564454D02*
D03*
X234792Y546113D02*
D03*
Y532113D02*
D03*
X132383Y778454D02*
D03*
Y764454D02*
D03*
X234792Y746113D02*
D03*
Y732113D02*
D03*
X132383Y978454D02*
D03*
Y964454D02*
D03*
X234792Y946113D02*
D03*
Y932113D02*
D03*
D86*
X1264444Y83363D02*
D03*
Y283363D02*
D03*
Y483363D02*
D03*
Y683363D02*
D03*
Y883363D02*
D03*
X764444Y83363D02*
D03*
Y283363D02*
D03*
Y483363D02*
D03*
Y683363D02*
D03*
Y883363D02*
D03*
X264444Y83363D02*
D03*
Y283363D02*
D03*
Y483363D02*
D03*
Y683363D02*
D03*
Y883363D02*
D03*
D87*
X1010754Y107754D02*
D03*
X1020754D02*
D03*
X1010754Y92254D02*
D03*
X1020754D02*
D03*
X1010754Y307754D02*
D03*
X1020754D02*
D03*
X1010754Y292254D02*
D03*
X1020754D02*
D03*
X1010754Y507754D02*
D03*
X1020754D02*
D03*
X1010754Y492254D02*
D03*
X1020754D02*
D03*
X1010754Y707754D02*
D03*
X1020754D02*
D03*
X1010754Y692254D02*
D03*
X1020754D02*
D03*
X1010754Y907754D02*
D03*
X1020754D02*
D03*
X1010754Y892254D02*
D03*
X1020754D02*
D03*
X510754Y107754D02*
D03*
X520754D02*
D03*
X510754Y92254D02*
D03*
X520754D02*
D03*
X510754Y307754D02*
D03*
X520754D02*
D03*
X510754Y292254D02*
D03*
X520754D02*
D03*
X510754Y507754D02*
D03*
X520754D02*
D03*
X510754Y492254D02*
D03*
X520754D02*
D03*
X510754Y707754D02*
D03*
X520754D02*
D03*
X510754Y692254D02*
D03*
X520754D02*
D03*
X510754Y907754D02*
D03*
X520754D02*
D03*
X510754Y892254D02*
D03*
X520754D02*
D03*
X10754Y107754D02*
D03*
X20754D02*
D03*
X10754Y92254D02*
D03*
X20754D02*
D03*
X10754Y307754D02*
D03*
X20754D02*
D03*
X10754Y292254D02*
D03*
X20754D02*
D03*
X10754Y507754D02*
D03*
X20754D02*
D03*
X10754Y492254D02*
D03*
X20754D02*
D03*
X10754Y707754D02*
D03*
X20754D02*
D03*
X10754Y692254D02*
D03*
X20754D02*
D03*
X10754Y907754D02*
D03*
X20754D02*
D03*
X10754Y892254D02*
D03*
X20754D02*
D03*
D88*
X1373364Y126404D02*
D03*
X1372364Y73004D02*
D03*
X1373364Y326404D02*
D03*
X1372364Y273004D02*
D03*
X1373364Y526404D02*
D03*
X1372364Y473004D02*
D03*
X1373364Y726404D02*
D03*
X1372364Y673004D02*
D03*
X1373364Y926404D02*
D03*
X1372364Y873004D02*
D03*
X873364Y126404D02*
D03*
X872364Y73004D02*
D03*
X873364Y326404D02*
D03*
X872364Y273004D02*
D03*
X873364Y526404D02*
D03*
X872364Y473004D02*
D03*
X873364Y726404D02*
D03*
X872364Y673004D02*
D03*
X873364Y926404D02*
D03*
X872364Y873004D02*
D03*
X373364Y126404D02*
D03*
X372364Y73004D02*
D03*
X373364Y326404D02*
D03*
X372364Y273004D02*
D03*
X373364Y526404D02*
D03*
X372364Y473004D02*
D03*
X373364Y726404D02*
D03*
X372364Y673004D02*
D03*
X373364Y926404D02*
D03*
X372364Y873004D02*
D03*
D89*
X1372864Y100004D02*
D03*
Y106504D02*
D03*
Y93504D02*
D03*
Y300004D02*
D03*
Y306504D02*
D03*
Y293504D02*
D03*
Y500004D02*
D03*
Y506504D02*
D03*
Y493504D02*
D03*
Y700004D02*
D03*
Y706504D02*
D03*
Y693504D02*
D03*
Y900004D02*
D03*
Y906504D02*
D03*
Y893504D02*
D03*
X872864Y100004D02*
D03*
Y106504D02*
D03*
Y93504D02*
D03*
Y300004D02*
D03*
Y306504D02*
D03*
Y293504D02*
D03*
Y500004D02*
D03*
Y506504D02*
D03*
Y493504D02*
D03*
Y700004D02*
D03*
Y706504D02*
D03*
Y693504D02*
D03*
Y900004D02*
D03*
Y906504D02*
D03*
Y893504D02*
D03*
X372864Y100004D02*
D03*
Y106504D02*
D03*
Y93504D02*
D03*
Y300004D02*
D03*
Y306504D02*
D03*
Y293504D02*
D03*
Y500004D02*
D03*
Y506504D02*
D03*
Y493504D02*
D03*
Y700004D02*
D03*
Y706504D02*
D03*
Y693504D02*
D03*
Y900004D02*
D03*
Y906504D02*
D03*
Y893504D02*
D03*
D90*
X1372864Y114254D02*
D03*
Y85754D02*
D03*
Y314254D02*
D03*
Y285754D02*
D03*
Y514254D02*
D03*
Y485754D02*
D03*
Y714254D02*
D03*
Y685754D02*
D03*
Y914254D02*
D03*
Y885754D02*
D03*
X872864Y114254D02*
D03*
Y85754D02*
D03*
Y314254D02*
D03*
Y285754D02*
D03*
Y514254D02*
D03*
Y485754D02*
D03*
Y714254D02*
D03*
Y685754D02*
D03*
Y914254D02*
D03*
Y885754D02*
D03*
X372864Y114254D02*
D03*
Y85754D02*
D03*
Y314254D02*
D03*
Y285754D02*
D03*
Y514254D02*
D03*
Y485754D02*
D03*
Y714254D02*
D03*
Y685754D02*
D03*
Y914254D02*
D03*
Y885754D02*
D03*
D91*
X1366504Y11534D02*
D03*
X1327504D02*
D03*
X1366504Y211534D02*
D03*
X1327504D02*
D03*
X1366504Y411534D02*
D03*
X1327504D02*
D03*
X1366504Y611534D02*
D03*
X1327504D02*
D03*
X1366504Y811534D02*
D03*
X1327504D02*
D03*
X866504Y11534D02*
D03*
X827504D02*
D03*
X866504Y211534D02*
D03*
X827504D02*
D03*
X866504Y411534D02*
D03*
X827504D02*
D03*
X866504Y611534D02*
D03*
X827504D02*
D03*
X866504Y811534D02*
D03*
X827504D02*
D03*
X366504Y11534D02*
D03*
X327504D02*
D03*
X366504Y211534D02*
D03*
X327504D02*
D03*
X366504Y411534D02*
D03*
X327504D02*
D03*
X366504Y611534D02*
D03*
X327504D02*
D03*
X366504Y811534D02*
D03*
X327504D02*
D03*
D92*
X1351004Y31034D02*
D03*
X1343004D02*
D03*
X1351004Y231034D02*
D03*
X1343004D02*
D03*
X1351004Y431034D02*
D03*
X1343004D02*
D03*
X1351004Y631034D02*
D03*
X1343004D02*
D03*
X1351004Y831034D02*
D03*
X1343004D02*
D03*
X851004Y31034D02*
D03*
X843004D02*
D03*
X851004Y231034D02*
D03*
X843004D02*
D03*
X851004Y431034D02*
D03*
X843004D02*
D03*
X851004Y631034D02*
D03*
X843004D02*
D03*
X851004Y831034D02*
D03*
X843004D02*
D03*
X351004Y31034D02*
D03*
X343004D02*
D03*
X351004Y231034D02*
D03*
X343004D02*
D03*
X351004Y431034D02*
D03*
X343004D02*
D03*
X351004Y631034D02*
D03*
X343004D02*
D03*
X351004Y831034D02*
D03*
X343004D02*
D03*
D93*
X1320064Y91804D02*
D03*
Y86804D02*
D03*
X1344064D02*
D03*
Y91804D02*
D03*
X1320064Y291804D02*
D03*
Y286804D02*
D03*
X1344064D02*
D03*
Y291804D02*
D03*
X1320064Y491804D02*
D03*
Y486804D02*
D03*
X1344064D02*
D03*
Y491804D02*
D03*
X1320064Y691804D02*
D03*
Y686804D02*
D03*
X1344064D02*
D03*
Y691804D02*
D03*
X1320064Y891804D02*
D03*
Y886804D02*
D03*
X1344064D02*
D03*
Y891804D02*
D03*
X820064Y91804D02*
D03*
Y86804D02*
D03*
X844064D02*
D03*
Y91804D02*
D03*
X820064Y291804D02*
D03*
Y286804D02*
D03*
X844064D02*
D03*
Y291804D02*
D03*
X820064Y491804D02*
D03*
Y486804D02*
D03*
X844064D02*
D03*
Y491804D02*
D03*
X820064Y691804D02*
D03*
Y686804D02*
D03*
X844064D02*
D03*
Y691804D02*
D03*
X820064Y891804D02*
D03*
Y886804D02*
D03*
X844064D02*
D03*
Y891804D02*
D03*
X320064Y91804D02*
D03*
Y86804D02*
D03*
X344064D02*
D03*
Y91804D02*
D03*
X320064Y291804D02*
D03*
Y286804D02*
D03*
X344064D02*
D03*
Y291804D02*
D03*
X320064Y491804D02*
D03*
Y486804D02*
D03*
X344064D02*
D03*
Y491804D02*
D03*
X320064Y691804D02*
D03*
Y686804D02*
D03*
X344064D02*
D03*
Y691804D02*
D03*
X320064Y891804D02*
D03*
Y886804D02*
D03*
X344064D02*
D03*
Y891804D02*
D03*
D94*
X1332064Y89304D02*
D03*
Y289304D02*
D03*
Y489304D02*
D03*
Y689304D02*
D03*
Y889304D02*
D03*
X832064Y89304D02*
D03*
Y289304D02*
D03*
Y489304D02*
D03*
Y689304D02*
D03*
Y889304D02*
D03*
X332064Y89304D02*
D03*
Y289304D02*
D03*
Y489304D02*
D03*
Y689304D02*
D03*
Y889304D02*
D03*
D95*
X1322064Y75304D02*
D03*
X1327064D02*
D03*
X1332064D02*
D03*
X1337064D02*
D03*
X1342064D02*
D03*
X1322064Y103304D02*
D03*
X1327064D02*
D03*
X1332064D02*
D03*
X1337064D02*
D03*
X1342064D02*
D03*
X1322064Y275304D02*
D03*
X1327064D02*
D03*
X1332064D02*
D03*
X1337064D02*
D03*
X1342064D02*
D03*
X1322064Y303304D02*
D03*
X1327064D02*
D03*
X1332064D02*
D03*
X1337064D02*
D03*
X1342064D02*
D03*
X1322064Y475304D02*
D03*
X1327064D02*
D03*
X1332064D02*
D03*
X1337064D02*
D03*
X1342064D02*
D03*
X1322064Y503304D02*
D03*
X1327064D02*
D03*
X1332064D02*
D03*
X1337064D02*
D03*
X1342064D02*
D03*
X1322064Y675304D02*
D03*
X1327064D02*
D03*
X1332064D02*
D03*
X1337064D02*
D03*
X1342064D02*
D03*
X1322064Y703304D02*
D03*
X1327064D02*
D03*
X1332064D02*
D03*
X1337064D02*
D03*
X1342064D02*
D03*
X1322064Y875304D02*
D03*
X1327064D02*
D03*
X1332064D02*
D03*
X1337064D02*
D03*
X1342064D02*
D03*
X1322064Y903304D02*
D03*
X1327064D02*
D03*
X1332064D02*
D03*
X1337064D02*
D03*
X1342064D02*
D03*
X822064Y75304D02*
D03*
X827064D02*
D03*
X832064D02*
D03*
X837064D02*
D03*
X842064D02*
D03*
X822064Y103304D02*
D03*
X827064D02*
D03*
X832064D02*
D03*
X837064D02*
D03*
X842064D02*
D03*
X822064Y275304D02*
D03*
X827064D02*
D03*
X832064D02*
D03*
X837064D02*
D03*
X842064D02*
D03*
X822064Y303304D02*
D03*
X827064D02*
D03*
X832064D02*
D03*
X837064D02*
D03*
X842064D02*
D03*
X822064Y475304D02*
D03*
X827064D02*
D03*
X832064D02*
D03*
X837064D02*
D03*
X842064D02*
D03*
X822064Y503304D02*
D03*
X827064D02*
D03*
X832064D02*
D03*
X837064D02*
D03*
X842064D02*
D03*
X822064Y675304D02*
D03*
X827064D02*
D03*
X832064D02*
D03*
X837064D02*
D03*
X842064D02*
D03*
X822064Y703304D02*
D03*
X827064D02*
D03*
X832064D02*
D03*
X837064D02*
D03*
X842064D02*
D03*
X822064Y875304D02*
D03*
X827064D02*
D03*
X832064D02*
D03*
X837064D02*
D03*
X842064D02*
D03*
X822064Y903304D02*
D03*
X827064D02*
D03*
X832064D02*
D03*
X837064D02*
D03*
X842064D02*
D03*
X322064Y75304D02*
D03*
X327064D02*
D03*
X332064D02*
D03*
X337064D02*
D03*
X342064D02*
D03*
X322064Y103304D02*
D03*
X327064D02*
D03*
X332064D02*
D03*
X337064D02*
D03*
X342064D02*
D03*
X322064Y275304D02*
D03*
X327064D02*
D03*
X332064D02*
D03*
X337064D02*
D03*
X342064D02*
D03*
X322064Y303304D02*
D03*
X327064D02*
D03*
X332064D02*
D03*
X337064D02*
D03*
X342064D02*
D03*
X322064Y475304D02*
D03*
X327064D02*
D03*
X332064D02*
D03*
X337064D02*
D03*
X342064D02*
D03*
X322064Y503304D02*
D03*
X327064D02*
D03*
X332064D02*
D03*
X337064D02*
D03*
X342064D02*
D03*
X322064Y675304D02*
D03*
X327064D02*
D03*
X332064D02*
D03*
X337064D02*
D03*
X342064D02*
D03*
X322064Y703304D02*
D03*
X327064D02*
D03*
X332064D02*
D03*
X337064D02*
D03*
X342064D02*
D03*
X322064Y875304D02*
D03*
X327064D02*
D03*
X332064D02*
D03*
X337064D02*
D03*
X342064D02*
D03*
X322064Y903304D02*
D03*
X327064D02*
D03*
X332064D02*
D03*
X337064D02*
D03*
X342064D02*
D03*
D96*
X1293814Y156364D02*
D03*
Y143364D02*
D03*
Y356364D02*
D03*
Y343364D02*
D03*
Y556364D02*
D03*
Y543364D02*
D03*
Y756364D02*
D03*
Y743364D02*
D03*
Y956364D02*
D03*
Y943364D02*
D03*
X793814Y156364D02*
D03*
Y143364D02*
D03*
Y356364D02*
D03*
Y343364D02*
D03*
Y556364D02*
D03*
Y543364D02*
D03*
Y756364D02*
D03*
Y743364D02*
D03*
Y956364D02*
D03*
Y943364D02*
D03*
X293814Y156364D02*
D03*
Y143364D02*
D03*
Y356364D02*
D03*
Y343364D02*
D03*
Y556364D02*
D03*
Y543364D02*
D03*
Y756364D02*
D03*
Y743364D02*
D03*
Y956364D02*
D03*
Y943364D02*
D03*
D97*
X1249894Y134014D02*
D03*
Y153014D02*
D03*
X1277394D02*
D03*
Y143514D02*
D03*
Y134014D02*
D03*
X1249894Y334014D02*
D03*
Y353014D02*
D03*
X1277394D02*
D03*
Y343514D02*
D03*
Y334014D02*
D03*
X1249894Y534014D02*
D03*
Y553014D02*
D03*
X1277394D02*
D03*
Y543514D02*
D03*
Y534014D02*
D03*
X1249894Y734014D02*
D03*
Y753014D02*
D03*
X1277394D02*
D03*
Y743514D02*
D03*
Y734014D02*
D03*
X1249894Y934014D02*
D03*
Y953014D02*
D03*
X1277394D02*
D03*
Y943514D02*
D03*
Y934014D02*
D03*
X749894Y134014D02*
D03*
Y153014D02*
D03*
X777394D02*
D03*
Y143514D02*
D03*
Y134014D02*
D03*
X749894Y334014D02*
D03*
Y353014D02*
D03*
X777394D02*
D03*
Y343514D02*
D03*
Y334014D02*
D03*
X749894Y534014D02*
D03*
Y553014D02*
D03*
X777394D02*
D03*
Y543514D02*
D03*
Y534014D02*
D03*
X749894Y734014D02*
D03*
Y753014D02*
D03*
X777394D02*
D03*
Y743514D02*
D03*
Y734014D02*
D03*
X749894Y934014D02*
D03*
Y953014D02*
D03*
X777394D02*
D03*
Y943514D02*
D03*
Y934014D02*
D03*
X249894Y134014D02*
D03*
Y153014D02*
D03*
X277394D02*
D03*
Y143514D02*
D03*
Y134014D02*
D03*
X249894Y334014D02*
D03*
Y353014D02*
D03*
X277394D02*
D03*
Y343514D02*
D03*
Y334014D02*
D03*
X249894Y534014D02*
D03*
Y553014D02*
D03*
X277394D02*
D03*
Y543514D02*
D03*
Y534014D02*
D03*
X249894Y734014D02*
D03*
Y753014D02*
D03*
X277394D02*
D03*
Y743514D02*
D03*
Y734014D02*
D03*
X249894Y934014D02*
D03*
Y953014D02*
D03*
X277394D02*
D03*
Y943514D02*
D03*
Y934014D02*
D03*
D98*
X1084154Y151404D02*
D03*
X1076554D02*
D03*
X1061354D02*
D03*
X1068954D02*
D03*
X1099454D02*
D03*
X1091854D02*
D03*
X1107054D02*
D03*
X1114554D02*
D03*
X1144954D02*
D03*
X1137454D02*
D03*
X1122254D02*
D03*
X1129854D02*
D03*
X1084154Y351404D02*
D03*
X1076554D02*
D03*
X1061354D02*
D03*
X1068954D02*
D03*
X1099454D02*
D03*
X1091854D02*
D03*
X1107054D02*
D03*
X1114554D02*
D03*
X1144954D02*
D03*
X1137454D02*
D03*
X1122254D02*
D03*
X1129854D02*
D03*
X1084154Y551404D02*
D03*
X1076554D02*
D03*
X1061354D02*
D03*
X1068954D02*
D03*
X1099454D02*
D03*
X1091854D02*
D03*
X1107054D02*
D03*
X1114554D02*
D03*
X1144954D02*
D03*
X1137454D02*
D03*
X1122254D02*
D03*
X1129854D02*
D03*
X1084154Y751404D02*
D03*
X1076554D02*
D03*
X1061354D02*
D03*
X1068954D02*
D03*
X1099454D02*
D03*
X1091854D02*
D03*
X1107054D02*
D03*
X1114554D02*
D03*
X1144954D02*
D03*
X1137454D02*
D03*
X1122254D02*
D03*
X1129854D02*
D03*
X1084154Y951404D02*
D03*
X1076554D02*
D03*
X1061354D02*
D03*
X1068954D02*
D03*
X1099454D02*
D03*
X1091854D02*
D03*
X1107054D02*
D03*
X1114554D02*
D03*
X1144954D02*
D03*
X1137454D02*
D03*
X1122254D02*
D03*
X1129854D02*
D03*
X584154Y151404D02*
D03*
X576554D02*
D03*
X561354D02*
D03*
X568954D02*
D03*
X599454D02*
D03*
X591854D02*
D03*
X607054D02*
D03*
X614554D02*
D03*
X644954D02*
D03*
X637454D02*
D03*
X622254D02*
D03*
X629854D02*
D03*
X584154Y351404D02*
D03*
X576554D02*
D03*
X561354D02*
D03*
X568954D02*
D03*
X599454D02*
D03*
X591854D02*
D03*
X607054D02*
D03*
X614554D02*
D03*
X644954D02*
D03*
X637454D02*
D03*
X622254D02*
D03*
X629854D02*
D03*
X584154Y551404D02*
D03*
X576554D02*
D03*
X561354D02*
D03*
X568954D02*
D03*
X599454D02*
D03*
X591854D02*
D03*
X607054D02*
D03*
X614554D02*
D03*
X644954D02*
D03*
X637454D02*
D03*
X622254D02*
D03*
X629854D02*
D03*
X584154Y751404D02*
D03*
X576554D02*
D03*
X561354D02*
D03*
X568954D02*
D03*
X599454D02*
D03*
X591854D02*
D03*
X607054D02*
D03*
X614554D02*
D03*
X644954D02*
D03*
X637454D02*
D03*
X622254D02*
D03*
X629854D02*
D03*
X584154Y951404D02*
D03*
X576554D02*
D03*
X561354D02*
D03*
X568954D02*
D03*
X599454D02*
D03*
X591854D02*
D03*
X607054D02*
D03*
X614554D02*
D03*
X644954D02*
D03*
X637454D02*
D03*
X622254D02*
D03*
X629854D02*
D03*
X84154Y151404D02*
D03*
X76554D02*
D03*
X61354D02*
D03*
X68954D02*
D03*
X99454D02*
D03*
X91854D02*
D03*
X107054D02*
D03*
X114554D02*
D03*
X144954D02*
D03*
X137454D02*
D03*
X122254D02*
D03*
X129854D02*
D03*
X84154Y351404D02*
D03*
X76554D02*
D03*
X61354D02*
D03*
X68954D02*
D03*
X99454D02*
D03*
X91854D02*
D03*
X107054D02*
D03*
X114554D02*
D03*
X144954D02*
D03*
X137454D02*
D03*
X122254D02*
D03*
X129854D02*
D03*
X84154Y551404D02*
D03*
X76554D02*
D03*
X61354D02*
D03*
X68954D02*
D03*
X99454D02*
D03*
X91854D02*
D03*
X107054D02*
D03*
X114554D02*
D03*
X144954D02*
D03*
X137454D02*
D03*
X122254D02*
D03*
X129854D02*
D03*
X84154Y751404D02*
D03*
X76554D02*
D03*
X61354D02*
D03*
X68954D02*
D03*
X99454D02*
D03*
X91854D02*
D03*
X107054D02*
D03*
X114554D02*
D03*
X144954D02*
D03*
X137454D02*
D03*
X122254D02*
D03*
X129854D02*
D03*
X84154Y951404D02*
D03*
X76554D02*
D03*
X61354D02*
D03*
X68954D02*
D03*
X99454D02*
D03*
X91854D02*
D03*
X107054D02*
D03*
X114554D02*
D03*
X144954D02*
D03*
X137454D02*
D03*
X122254D02*
D03*
X129854D02*
D03*
D99*
X1058354Y33704D02*
D03*
Y41304D02*
D03*
Y56604D02*
D03*
Y48904D02*
D03*
Y79404D02*
D03*
Y87004D02*
D03*
Y71804D02*
D03*
Y64204D02*
D03*
X1148154Y125104D02*
D03*
Y117504D02*
D03*
Y132804D02*
D03*
Y140404D02*
D03*
Y109904D02*
D03*
Y102304D02*
D03*
Y87004D02*
D03*
Y94704D02*
D03*
Y64204D02*
D03*
Y56604D02*
D03*
Y71804D02*
D03*
Y79404D02*
D03*
X1058354Y233704D02*
D03*
Y241304D02*
D03*
Y256604D02*
D03*
Y248904D02*
D03*
Y279404D02*
D03*
Y287004D02*
D03*
Y271804D02*
D03*
Y264204D02*
D03*
X1148154Y325104D02*
D03*
Y317504D02*
D03*
Y332804D02*
D03*
Y340404D02*
D03*
Y309904D02*
D03*
Y302304D02*
D03*
Y287004D02*
D03*
Y294704D02*
D03*
Y264204D02*
D03*
Y256604D02*
D03*
Y271804D02*
D03*
Y279404D02*
D03*
X1058354Y433704D02*
D03*
Y441304D02*
D03*
Y456604D02*
D03*
Y448904D02*
D03*
Y479404D02*
D03*
Y487004D02*
D03*
Y471804D02*
D03*
Y464204D02*
D03*
X1148154Y525104D02*
D03*
Y517504D02*
D03*
Y532804D02*
D03*
Y540404D02*
D03*
Y509904D02*
D03*
Y502304D02*
D03*
Y487004D02*
D03*
Y494704D02*
D03*
Y464204D02*
D03*
Y456604D02*
D03*
Y471804D02*
D03*
Y479404D02*
D03*
X1058354Y633704D02*
D03*
Y641304D02*
D03*
Y656604D02*
D03*
Y648904D02*
D03*
Y679404D02*
D03*
Y687004D02*
D03*
Y671804D02*
D03*
Y664204D02*
D03*
X1148154Y725104D02*
D03*
Y717504D02*
D03*
Y732804D02*
D03*
Y740404D02*
D03*
Y709904D02*
D03*
Y702304D02*
D03*
Y687004D02*
D03*
Y694704D02*
D03*
Y664204D02*
D03*
Y656604D02*
D03*
Y671804D02*
D03*
Y679404D02*
D03*
X1058354Y833704D02*
D03*
Y841304D02*
D03*
Y856604D02*
D03*
Y848904D02*
D03*
Y879404D02*
D03*
Y887004D02*
D03*
Y871804D02*
D03*
Y864204D02*
D03*
X1148154Y925104D02*
D03*
Y917504D02*
D03*
Y932804D02*
D03*
Y940404D02*
D03*
Y909904D02*
D03*
Y902304D02*
D03*
Y887004D02*
D03*
Y894704D02*
D03*
Y864204D02*
D03*
Y856604D02*
D03*
Y871804D02*
D03*
Y879404D02*
D03*
X558354Y33704D02*
D03*
Y41304D02*
D03*
Y56604D02*
D03*
Y48904D02*
D03*
Y79404D02*
D03*
Y87004D02*
D03*
Y71804D02*
D03*
Y64204D02*
D03*
X648154Y125104D02*
D03*
Y117504D02*
D03*
Y132804D02*
D03*
Y140404D02*
D03*
Y109904D02*
D03*
Y102304D02*
D03*
Y87004D02*
D03*
Y94704D02*
D03*
Y64204D02*
D03*
Y56604D02*
D03*
Y71804D02*
D03*
Y79404D02*
D03*
X558354Y233704D02*
D03*
Y241304D02*
D03*
Y256604D02*
D03*
Y248904D02*
D03*
Y279404D02*
D03*
Y287004D02*
D03*
Y271804D02*
D03*
Y264204D02*
D03*
X648154Y325104D02*
D03*
Y317504D02*
D03*
Y332804D02*
D03*
Y340404D02*
D03*
Y309904D02*
D03*
Y302304D02*
D03*
Y287004D02*
D03*
Y294704D02*
D03*
Y264204D02*
D03*
Y256604D02*
D03*
Y271804D02*
D03*
Y279404D02*
D03*
X558354Y433704D02*
D03*
Y441304D02*
D03*
Y456604D02*
D03*
Y448904D02*
D03*
Y479404D02*
D03*
Y487004D02*
D03*
Y471804D02*
D03*
Y464204D02*
D03*
X648154Y525104D02*
D03*
Y517504D02*
D03*
Y532804D02*
D03*
Y540404D02*
D03*
Y509904D02*
D03*
Y502304D02*
D03*
Y487004D02*
D03*
Y494704D02*
D03*
Y464204D02*
D03*
Y456604D02*
D03*
Y471804D02*
D03*
Y479404D02*
D03*
X558354Y633704D02*
D03*
Y641304D02*
D03*
Y656604D02*
D03*
Y648904D02*
D03*
Y679404D02*
D03*
Y687004D02*
D03*
Y671804D02*
D03*
Y664204D02*
D03*
X648154Y725104D02*
D03*
Y717504D02*
D03*
Y732804D02*
D03*
Y740404D02*
D03*
Y709904D02*
D03*
Y702304D02*
D03*
Y687004D02*
D03*
Y694704D02*
D03*
Y664204D02*
D03*
Y656604D02*
D03*
Y671804D02*
D03*
Y679404D02*
D03*
X558354Y833704D02*
D03*
Y841304D02*
D03*
Y856604D02*
D03*
Y848904D02*
D03*
Y879404D02*
D03*
Y887004D02*
D03*
Y871804D02*
D03*
Y864204D02*
D03*
X648154Y925104D02*
D03*
Y917504D02*
D03*
Y932804D02*
D03*
Y940404D02*
D03*
Y909904D02*
D03*
Y902304D02*
D03*
Y887004D02*
D03*
Y894704D02*
D03*
Y864204D02*
D03*
Y856604D02*
D03*
Y871804D02*
D03*
Y879404D02*
D03*
X58354Y33704D02*
D03*
Y41304D02*
D03*
Y56604D02*
D03*
Y48904D02*
D03*
Y79404D02*
D03*
Y87004D02*
D03*
Y71804D02*
D03*
Y64204D02*
D03*
X148154Y125104D02*
D03*
Y117504D02*
D03*
Y132804D02*
D03*
Y140404D02*
D03*
Y109904D02*
D03*
Y102304D02*
D03*
Y87004D02*
D03*
Y94704D02*
D03*
Y64204D02*
D03*
Y56604D02*
D03*
Y71804D02*
D03*
Y79404D02*
D03*
X58354Y233704D02*
D03*
Y241304D02*
D03*
Y256604D02*
D03*
Y248904D02*
D03*
Y279404D02*
D03*
Y287004D02*
D03*
Y271804D02*
D03*
Y264204D02*
D03*
X148154Y325104D02*
D03*
Y317504D02*
D03*
Y332804D02*
D03*
Y340404D02*
D03*
Y309904D02*
D03*
Y302304D02*
D03*
Y287004D02*
D03*
Y294704D02*
D03*
Y264204D02*
D03*
Y256604D02*
D03*
Y271804D02*
D03*
Y279404D02*
D03*
X58354Y433704D02*
D03*
Y441304D02*
D03*
Y456604D02*
D03*
Y448904D02*
D03*
Y479404D02*
D03*
Y487004D02*
D03*
Y471804D02*
D03*
Y464204D02*
D03*
X148154Y525104D02*
D03*
Y517504D02*
D03*
Y532804D02*
D03*
Y540404D02*
D03*
Y509904D02*
D03*
Y502304D02*
D03*
Y487004D02*
D03*
Y494704D02*
D03*
Y464204D02*
D03*
Y456604D02*
D03*
Y471804D02*
D03*
Y479404D02*
D03*
X58354Y633704D02*
D03*
Y641304D02*
D03*
Y656604D02*
D03*
Y648904D02*
D03*
Y679404D02*
D03*
Y687004D02*
D03*
Y671804D02*
D03*
Y664204D02*
D03*
X148154Y725104D02*
D03*
Y717504D02*
D03*
Y732804D02*
D03*
Y740404D02*
D03*
Y709904D02*
D03*
Y702304D02*
D03*
Y687004D02*
D03*
Y694704D02*
D03*
Y664204D02*
D03*
Y656604D02*
D03*
Y671804D02*
D03*
Y679404D02*
D03*
X58354Y833704D02*
D03*
Y841304D02*
D03*
Y856604D02*
D03*
Y848904D02*
D03*
Y879404D02*
D03*
Y887004D02*
D03*
Y871804D02*
D03*
Y864204D02*
D03*
X148154Y925104D02*
D03*
Y917504D02*
D03*
Y932804D02*
D03*
Y940404D02*
D03*
Y909904D02*
D03*
Y902304D02*
D03*
Y887004D02*
D03*
Y894704D02*
D03*
Y864204D02*
D03*
Y856604D02*
D03*
Y871804D02*
D03*
Y879404D02*
D03*
D100*
X1234434Y89784D02*
D03*
Y72784D02*
D03*
Y289784D02*
D03*
Y272784D02*
D03*
Y489784D02*
D03*
Y472784D02*
D03*
Y689784D02*
D03*
Y672784D02*
D03*
Y889784D02*
D03*
Y872784D02*
D03*
X734434Y89784D02*
D03*
Y72784D02*
D03*
Y289784D02*
D03*
Y272784D02*
D03*
Y489784D02*
D03*
Y472784D02*
D03*
Y689784D02*
D03*
Y672784D02*
D03*
Y889784D02*
D03*
Y872784D02*
D03*
X234434Y89784D02*
D03*
Y72784D02*
D03*
Y289784D02*
D03*
Y272784D02*
D03*
Y489784D02*
D03*
Y472784D02*
D03*
Y689784D02*
D03*
Y672784D02*
D03*
Y889784D02*
D03*
Y872784D02*
D03*
D101*
X1277365Y41503D02*
D03*
X1247383D02*
D03*
X1277365Y241503D02*
D03*
X1247383D02*
D03*
X1277365Y441503D02*
D03*
X1247383D02*
D03*
X1277365Y641503D02*
D03*
X1247383D02*
D03*
X1277365Y841503D02*
D03*
X1247383D02*
D03*
X777365Y41503D02*
D03*
X747383D02*
D03*
X777365Y241503D02*
D03*
X747383D02*
D03*
X777365Y441503D02*
D03*
X747383D02*
D03*
X777365Y641503D02*
D03*
X747383D02*
D03*
X777365Y841503D02*
D03*
X747383D02*
D03*
X277365Y41503D02*
D03*
X247383D02*
D03*
X277365Y241503D02*
D03*
X247383D02*
D03*
X277365Y441503D02*
D03*
X247383D02*
D03*
X277365Y641503D02*
D03*
X247383D02*
D03*
X277365Y841503D02*
D03*
X247383D02*
D03*
D102*
X1035504Y174004D02*
D03*
Y166004D02*
D03*
Y34004D02*
D03*
Y26004D02*
D03*
Y374004D02*
D03*
Y366004D02*
D03*
Y234004D02*
D03*
Y226004D02*
D03*
Y574004D02*
D03*
Y566004D02*
D03*
Y434004D02*
D03*
Y426004D02*
D03*
Y774004D02*
D03*
Y766004D02*
D03*
Y634004D02*
D03*
Y626004D02*
D03*
Y974004D02*
D03*
Y966004D02*
D03*
Y834004D02*
D03*
Y826004D02*
D03*
X535504Y174004D02*
D03*
Y166004D02*
D03*
Y34004D02*
D03*
Y26004D02*
D03*
Y374004D02*
D03*
Y366004D02*
D03*
Y234004D02*
D03*
Y226004D02*
D03*
Y574004D02*
D03*
Y566004D02*
D03*
Y434004D02*
D03*
Y426004D02*
D03*
Y774004D02*
D03*
Y766004D02*
D03*
Y634004D02*
D03*
Y626004D02*
D03*
Y974004D02*
D03*
Y966004D02*
D03*
Y834004D02*
D03*
Y826004D02*
D03*
X35504Y174004D02*
D03*
Y166004D02*
D03*
Y34004D02*
D03*
Y26004D02*
D03*
Y374004D02*
D03*
Y366004D02*
D03*
Y234004D02*
D03*
Y226004D02*
D03*
Y574004D02*
D03*
Y566004D02*
D03*
Y434004D02*
D03*
Y426004D02*
D03*
Y774004D02*
D03*
Y766004D02*
D03*
Y634004D02*
D03*
Y626004D02*
D03*
Y974004D02*
D03*
Y966004D02*
D03*
Y834004D02*
D03*
Y826004D02*
D03*
D103*
X1016004Y189504D02*
D03*
Y150504D02*
D03*
Y49504D02*
D03*
Y10504D02*
D03*
Y389504D02*
D03*
Y350504D02*
D03*
Y249504D02*
D03*
Y210504D02*
D03*
Y589504D02*
D03*
Y550504D02*
D03*
Y449504D02*
D03*
Y410504D02*
D03*
Y789504D02*
D03*
Y750504D02*
D03*
Y649504D02*
D03*
Y610504D02*
D03*
Y989504D02*
D03*
Y950504D02*
D03*
Y849504D02*
D03*
Y810504D02*
D03*
X516004Y189504D02*
D03*
Y150504D02*
D03*
Y49504D02*
D03*
Y10504D02*
D03*
Y389504D02*
D03*
Y350504D02*
D03*
Y249504D02*
D03*
Y210504D02*
D03*
Y589504D02*
D03*
Y550504D02*
D03*
Y449504D02*
D03*
Y410504D02*
D03*
Y789504D02*
D03*
Y750504D02*
D03*
Y649504D02*
D03*
Y610504D02*
D03*
Y989504D02*
D03*
Y950504D02*
D03*
Y849504D02*
D03*
Y810504D02*
D03*
X16004Y189504D02*
D03*
Y150504D02*
D03*
Y49504D02*
D03*
Y10504D02*
D03*
Y389504D02*
D03*
Y350504D02*
D03*
Y249504D02*
D03*
Y210504D02*
D03*
Y589504D02*
D03*
Y550504D02*
D03*
Y449504D02*
D03*
Y410504D02*
D03*
Y789504D02*
D03*
Y750504D02*
D03*
Y649504D02*
D03*
Y610504D02*
D03*
Y989504D02*
D03*
Y950504D02*
D03*
Y849504D02*
D03*
Y810504D02*
D03*
D104*
X1255754Y180004D02*
D03*
Y380004D02*
D03*
Y580004D02*
D03*
Y780004D02*
D03*
Y980004D02*
D03*
X755754Y180004D02*
D03*
Y380004D02*
D03*
Y580004D02*
D03*
Y780004D02*
D03*
Y980004D02*
D03*
X255754Y180004D02*
D03*
Y380004D02*
D03*
Y580004D02*
D03*
Y780004D02*
D03*
Y980004D02*
D03*
D105*
X1115054Y174004D02*
D03*
X1102354D02*
D03*
X1089654D02*
D03*
X1076954D02*
D03*
X1115054Y374004D02*
D03*
X1102354D02*
D03*
X1089654D02*
D03*
X1076954D02*
D03*
X1115054Y574004D02*
D03*
X1102354D02*
D03*
X1089654D02*
D03*
X1076954D02*
D03*
X1115054Y774004D02*
D03*
X1102354D02*
D03*
X1089654D02*
D03*
X1076954D02*
D03*
X1115054Y974004D02*
D03*
X1102354D02*
D03*
X1089654D02*
D03*
X1076954D02*
D03*
X615054Y174004D02*
D03*
X602354D02*
D03*
X589654D02*
D03*
X576954D02*
D03*
X615054Y374004D02*
D03*
X602354D02*
D03*
X589654D02*
D03*
X576954D02*
D03*
X615054Y574004D02*
D03*
X602354D02*
D03*
X589654D02*
D03*
X576954D02*
D03*
X615054Y774004D02*
D03*
X602354D02*
D03*
X589654D02*
D03*
X576954D02*
D03*
X615054Y974004D02*
D03*
X602354D02*
D03*
X589654D02*
D03*
X576954D02*
D03*
X115054Y174004D02*
D03*
X102354D02*
D03*
X89654D02*
D03*
X76954D02*
D03*
X115054Y374004D02*
D03*
X102354D02*
D03*
X89654D02*
D03*
X76954D02*
D03*
X115054Y574004D02*
D03*
X102354D02*
D03*
X89654D02*
D03*
X76954D02*
D03*
X115054Y774004D02*
D03*
X102354D02*
D03*
X89654D02*
D03*
X76954D02*
D03*
X115054Y974004D02*
D03*
X102354D02*
D03*
X89654D02*
D03*
X76954D02*
D03*
D106*
X1064254Y174004D02*
D03*
Y374004D02*
D03*
Y574004D02*
D03*
Y774004D02*
D03*
Y974004D02*
D03*
X564254Y174004D02*
D03*
Y374004D02*
D03*
Y574004D02*
D03*
Y774004D02*
D03*
Y974004D02*
D03*
X64254Y174004D02*
D03*
Y374004D02*
D03*
Y574004D02*
D03*
Y774004D02*
D03*
Y974004D02*
D03*
M02*
