G04*
G04 #@! TF.GenerationSoftware,Altium Limited,Altium Designer,19.0.14 (431)*
G04*
G04 Layer_Color=32896*
%FSLAX44Y44*%
%MOMM*%
G71*
G01*
G75*
%ADD56C,0.1270*%
D56*
X1358004Y30534D02*
X1366004D01*
X1358004D02*
Y33534D01*
X1336004D02*
X1358004D01*
X1336004Y30534D02*
Y33534D01*
X1328004Y30534D02*
X1336004D01*
X1328004Y6534D02*
Y30534D01*
X1366004Y6534D02*
Y30534D01*
X1328004Y6534D02*
X1366004D01*
X1358004Y30534D02*
X1366004D01*
X1358004D02*
Y33534D01*
X1336004D02*
X1358004D01*
X1336004Y30534D02*
Y33534D01*
X1328004Y30534D02*
X1336004D01*
X1328004Y6534D02*
Y30534D01*
X1366004Y6534D02*
Y30534D01*
X1328004Y6534D02*
X1366004D01*
X1011004Y151004D02*
Y189004D01*
Y151004D02*
X1035004D01*
X1011004Y189004D02*
X1035004D01*
Y181004D02*
Y189004D01*
Y181004D02*
X1038004D01*
Y159004D02*
Y181004D01*
X1035004Y159004D02*
X1038004D01*
X1035004Y151004D02*
Y159004D01*
X1011004Y151004D02*
Y189004D01*
Y151004D02*
X1035004D01*
X1011004Y189004D02*
X1035004D01*
Y181004D02*
Y189004D01*
Y181004D02*
X1038004D01*
Y159004D02*
Y181004D01*
X1035004Y159004D02*
X1038004D01*
X1035004Y151004D02*
Y159004D01*
X1011004Y11004D02*
Y49004D01*
Y11004D02*
X1035004D01*
X1011004Y49004D02*
X1035004D01*
Y41004D02*
Y49004D01*
Y41004D02*
X1038004D01*
Y19004D02*
Y41004D01*
X1035004Y19004D02*
X1038004D01*
X1035004Y11004D02*
Y19004D01*
X1011004Y11004D02*
Y49004D01*
Y11004D02*
X1035004D01*
X1011004Y49004D02*
X1035004D01*
Y41004D02*
Y49004D01*
Y41004D02*
X1038004D01*
Y19004D02*
Y41004D01*
X1035004Y19004D02*
X1038004D01*
X1035004Y11004D02*
Y19004D01*
X1358004Y230534D02*
X1366004D01*
X1358004D02*
Y233534D01*
X1336004D02*
X1358004D01*
X1336004Y230534D02*
Y233534D01*
X1328004Y230534D02*
X1336004D01*
X1328004Y206534D02*
Y230534D01*
X1366004Y206534D02*
Y230534D01*
X1328004Y206534D02*
X1366004D01*
X1358004Y230534D02*
X1366004D01*
X1358004D02*
Y233534D01*
X1336004D02*
X1358004D01*
X1336004Y230534D02*
Y233534D01*
X1328004Y230534D02*
X1336004D01*
X1328004Y206534D02*
Y230534D01*
X1366004Y206534D02*
Y230534D01*
X1328004Y206534D02*
X1366004D01*
X1011004Y351004D02*
Y389004D01*
Y351004D02*
X1035004D01*
X1011004Y389004D02*
X1035004D01*
Y381004D02*
Y389004D01*
Y381004D02*
X1038004D01*
Y359004D02*
Y381004D01*
X1035004Y359004D02*
X1038004D01*
X1035004Y351004D02*
Y359004D01*
X1011004Y351004D02*
Y389004D01*
Y351004D02*
X1035004D01*
X1011004Y389004D02*
X1035004D01*
Y381004D02*
Y389004D01*
Y381004D02*
X1038004D01*
Y359004D02*
Y381004D01*
X1035004Y359004D02*
X1038004D01*
X1035004Y351004D02*
Y359004D01*
X1011004Y211004D02*
Y249004D01*
Y211004D02*
X1035004D01*
X1011004Y249004D02*
X1035004D01*
Y241004D02*
Y249004D01*
Y241004D02*
X1038004D01*
Y219004D02*
Y241004D01*
X1035004Y219004D02*
X1038004D01*
X1035004Y211004D02*
Y219004D01*
X1011004Y211004D02*
Y249004D01*
Y211004D02*
X1035004D01*
X1011004Y249004D02*
X1035004D01*
Y241004D02*
Y249004D01*
Y241004D02*
X1038004D01*
Y219004D02*
Y241004D01*
X1035004Y219004D02*
X1038004D01*
X1035004Y211004D02*
Y219004D01*
X1358004Y430534D02*
X1366004D01*
X1358004D02*
Y433534D01*
X1336004D02*
X1358004D01*
X1336004Y430534D02*
Y433534D01*
X1328004Y430534D02*
X1336004D01*
X1328004Y406534D02*
Y430534D01*
X1366004Y406534D02*
Y430534D01*
X1328004Y406534D02*
X1366004D01*
X1358004Y430534D02*
X1366004D01*
X1358004D02*
Y433534D01*
X1336004D02*
X1358004D01*
X1336004Y430534D02*
Y433534D01*
X1328004Y430534D02*
X1336004D01*
X1328004Y406534D02*
Y430534D01*
X1366004Y406534D02*
Y430534D01*
X1328004Y406534D02*
X1366004D01*
X1011004Y551004D02*
Y589004D01*
Y551004D02*
X1035004D01*
X1011004Y589004D02*
X1035004D01*
Y581004D02*
Y589004D01*
Y581004D02*
X1038004D01*
Y559004D02*
Y581004D01*
X1035004Y559004D02*
X1038004D01*
X1035004Y551004D02*
Y559004D01*
X1011004Y551004D02*
Y589004D01*
Y551004D02*
X1035004D01*
X1011004Y589004D02*
X1035004D01*
Y581004D02*
Y589004D01*
Y581004D02*
X1038004D01*
Y559004D02*
Y581004D01*
X1035004Y559004D02*
X1038004D01*
X1035004Y551004D02*
Y559004D01*
X1011004Y411004D02*
Y449004D01*
Y411004D02*
X1035004D01*
X1011004Y449004D02*
X1035004D01*
Y441004D02*
Y449004D01*
Y441004D02*
X1038004D01*
Y419004D02*
Y441004D01*
X1035004Y419004D02*
X1038004D01*
X1035004Y411004D02*
Y419004D01*
X1011004Y411004D02*
Y449004D01*
Y411004D02*
X1035004D01*
X1011004Y449004D02*
X1035004D01*
Y441004D02*
Y449004D01*
Y441004D02*
X1038004D01*
Y419004D02*
Y441004D01*
X1035004Y419004D02*
X1038004D01*
X1035004Y411004D02*
Y419004D01*
X1358004Y630534D02*
X1366004D01*
X1358004D02*
Y633534D01*
X1336004D02*
X1358004D01*
X1336004Y630534D02*
Y633534D01*
X1328004Y630534D02*
X1336004D01*
X1328004Y606534D02*
Y630534D01*
X1366004Y606534D02*
Y630534D01*
X1328004Y606534D02*
X1366004D01*
X1358004Y630534D02*
X1366004D01*
X1358004D02*
Y633534D01*
X1336004D02*
X1358004D01*
X1336004Y630534D02*
Y633534D01*
X1328004Y630534D02*
X1336004D01*
X1328004Y606534D02*
Y630534D01*
X1366004Y606534D02*
Y630534D01*
X1328004Y606534D02*
X1366004D01*
X1011004Y751004D02*
Y789004D01*
Y751004D02*
X1035004D01*
X1011004Y789004D02*
X1035004D01*
Y781004D02*
Y789004D01*
Y781004D02*
X1038004D01*
Y759004D02*
Y781004D01*
X1035004Y759004D02*
X1038004D01*
X1035004Y751004D02*
Y759004D01*
X1011004Y751004D02*
Y789004D01*
Y751004D02*
X1035004D01*
X1011004Y789004D02*
X1035004D01*
Y781004D02*
Y789004D01*
Y781004D02*
X1038004D01*
Y759004D02*
Y781004D01*
X1035004Y759004D02*
X1038004D01*
X1035004Y751004D02*
Y759004D01*
X1011004Y611004D02*
Y649004D01*
Y611004D02*
X1035004D01*
X1011004Y649004D02*
X1035004D01*
Y641004D02*
Y649004D01*
Y641004D02*
X1038004D01*
Y619004D02*
Y641004D01*
X1035004Y619004D02*
X1038004D01*
X1035004Y611004D02*
Y619004D01*
X1011004Y611004D02*
Y649004D01*
Y611004D02*
X1035004D01*
X1011004Y649004D02*
X1035004D01*
Y641004D02*
Y649004D01*
Y641004D02*
X1038004D01*
Y619004D02*
Y641004D01*
X1035004Y619004D02*
X1038004D01*
X1035004Y611004D02*
Y619004D01*
X1358004Y830534D02*
X1366004D01*
X1358004D02*
Y833534D01*
X1336004D02*
X1358004D01*
X1336004Y830534D02*
Y833534D01*
X1328004Y830534D02*
X1336004D01*
X1328004Y806534D02*
Y830534D01*
X1366004Y806534D02*
Y830534D01*
X1328004Y806534D02*
X1366004D01*
X1358004Y830534D02*
X1366004D01*
X1358004D02*
Y833534D01*
X1336004D02*
X1358004D01*
X1336004Y830534D02*
Y833534D01*
X1328004Y830534D02*
X1336004D01*
X1328004Y806534D02*
Y830534D01*
X1366004Y806534D02*
Y830534D01*
X1328004Y806534D02*
X1366004D01*
X1011004Y951004D02*
Y989004D01*
Y951004D02*
X1035004D01*
X1011004Y989004D02*
X1035004D01*
Y981004D02*
Y989004D01*
Y981004D02*
X1038004D01*
Y959004D02*
Y981004D01*
X1035004Y959004D02*
X1038004D01*
X1035004Y951004D02*
Y959004D01*
X1011004Y951004D02*
Y989004D01*
Y951004D02*
X1035004D01*
X1011004Y989004D02*
X1035004D01*
Y981004D02*
Y989004D01*
Y981004D02*
X1038004D01*
Y959004D02*
Y981004D01*
X1035004Y959004D02*
X1038004D01*
X1035004Y951004D02*
Y959004D01*
X1011004Y811004D02*
Y849004D01*
Y811004D02*
X1035004D01*
X1011004Y849004D02*
X1035004D01*
Y841004D02*
Y849004D01*
Y841004D02*
X1038004D01*
Y819004D02*
Y841004D01*
X1035004Y819004D02*
X1038004D01*
X1035004Y811004D02*
Y819004D01*
X1011004Y811004D02*
Y849004D01*
Y811004D02*
X1035004D01*
X1011004Y849004D02*
X1035004D01*
Y841004D02*
Y849004D01*
Y841004D02*
X1038004D01*
Y819004D02*
Y841004D01*
X1035004Y819004D02*
X1038004D01*
X1035004Y811004D02*
Y819004D01*
X858004Y30534D02*
X866004D01*
X858004D02*
Y33534D01*
X836004D02*
X858004D01*
X836004Y30534D02*
Y33534D01*
X828004Y30534D02*
X836004D01*
X828004Y6534D02*
Y30534D01*
X866004Y6534D02*
Y30534D01*
X828004Y6534D02*
X866004D01*
X858004Y30534D02*
X866004D01*
X858004D02*
Y33534D01*
X836004D02*
X858004D01*
X836004Y30534D02*
Y33534D01*
X828004Y30534D02*
X836004D01*
X828004Y6534D02*
Y30534D01*
X866004Y6534D02*
Y30534D01*
X828004Y6534D02*
X866004D01*
X511004Y151004D02*
Y189004D01*
Y151004D02*
X535004D01*
X511004Y189004D02*
X535004D01*
Y181004D02*
Y189004D01*
Y181004D02*
X538004D01*
Y159004D02*
Y181004D01*
X535004Y159004D02*
X538004D01*
X535004Y151004D02*
Y159004D01*
X511004Y151004D02*
Y189004D01*
Y151004D02*
X535004D01*
X511004Y189004D02*
X535004D01*
Y181004D02*
Y189004D01*
Y181004D02*
X538004D01*
Y159004D02*
Y181004D01*
X535004Y159004D02*
X538004D01*
X535004Y151004D02*
Y159004D01*
X511004Y11004D02*
Y49004D01*
Y11004D02*
X535004D01*
X511004Y49004D02*
X535004D01*
Y41004D02*
Y49004D01*
Y41004D02*
X538004D01*
Y19004D02*
Y41004D01*
X535004Y19004D02*
X538004D01*
X535004Y11004D02*
Y19004D01*
X511004Y11004D02*
Y49004D01*
Y11004D02*
X535004D01*
X511004Y49004D02*
X535004D01*
Y41004D02*
Y49004D01*
Y41004D02*
X538004D01*
Y19004D02*
Y41004D01*
X535004Y19004D02*
X538004D01*
X535004Y11004D02*
Y19004D01*
X858004Y230534D02*
X866004D01*
X858004D02*
Y233534D01*
X836004D02*
X858004D01*
X836004Y230534D02*
Y233534D01*
X828004Y230534D02*
X836004D01*
X828004Y206534D02*
Y230534D01*
X866004Y206534D02*
Y230534D01*
X828004Y206534D02*
X866004D01*
X858004Y230534D02*
X866004D01*
X858004D02*
Y233534D01*
X836004D02*
X858004D01*
X836004Y230534D02*
Y233534D01*
X828004Y230534D02*
X836004D01*
X828004Y206534D02*
Y230534D01*
X866004Y206534D02*
Y230534D01*
X828004Y206534D02*
X866004D01*
X511004Y351004D02*
Y389004D01*
Y351004D02*
X535004D01*
X511004Y389004D02*
X535004D01*
Y381004D02*
Y389004D01*
Y381004D02*
X538004D01*
Y359004D02*
Y381004D01*
X535004Y359004D02*
X538004D01*
X535004Y351004D02*
Y359004D01*
X511004Y351004D02*
Y389004D01*
Y351004D02*
X535004D01*
X511004Y389004D02*
X535004D01*
Y381004D02*
Y389004D01*
Y381004D02*
X538004D01*
Y359004D02*
Y381004D01*
X535004Y359004D02*
X538004D01*
X535004Y351004D02*
Y359004D01*
X511004Y211004D02*
Y249004D01*
Y211004D02*
X535004D01*
X511004Y249004D02*
X535004D01*
Y241004D02*
Y249004D01*
Y241004D02*
X538004D01*
Y219004D02*
Y241004D01*
X535004Y219004D02*
X538004D01*
X535004Y211004D02*
Y219004D01*
X511004Y211004D02*
Y249004D01*
Y211004D02*
X535004D01*
X511004Y249004D02*
X535004D01*
Y241004D02*
Y249004D01*
Y241004D02*
X538004D01*
Y219004D02*
Y241004D01*
X535004Y219004D02*
X538004D01*
X535004Y211004D02*
Y219004D01*
X858004Y430534D02*
X866004D01*
X858004D02*
Y433534D01*
X836004D02*
X858004D01*
X836004Y430534D02*
Y433534D01*
X828004Y430534D02*
X836004D01*
X828004Y406534D02*
Y430534D01*
X866004Y406534D02*
Y430534D01*
X828004Y406534D02*
X866004D01*
X858004Y430534D02*
X866004D01*
X858004D02*
Y433534D01*
X836004D02*
X858004D01*
X836004Y430534D02*
Y433534D01*
X828004Y430534D02*
X836004D01*
X828004Y406534D02*
Y430534D01*
X866004Y406534D02*
Y430534D01*
X828004Y406534D02*
X866004D01*
X511004Y551004D02*
Y589004D01*
Y551004D02*
X535004D01*
X511004Y589004D02*
X535004D01*
Y581004D02*
Y589004D01*
Y581004D02*
X538004D01*
Y559004D02*
Y581004D01*
X535004Y559004D02*
X538004D01*
X535004Y551004D02*
Y559004D01*
X511004Y551004D02*
Y589004D01*
Y551004D02*
X535004D01*
X511004Y589004D02*
X535004D01*
Y581004D02*
Y589004D01*
Y581004D02*
X538004D01*
Y559004D02*
Y581004D01*
X535004Y559004D02*
X538004D01*
X535004Y551004D02*
Y559004D01*
X511004Y411004D02*
Y449004D01*
Y411004D02*
X535004D01*
X511004Y449004D02*
X535004D01*
Y441004D02*
Y449004D01*
Y441004D02*
X538004D01*
Y419004D02*
Y441004D01*
X535004Y419004D02*
X538004D01*
X535004Y411004D02*
Y419004D01*
X511004Y411004D02*
Y449004D01*
Y411004D02*
X535004D01*
X511004Y449004D02*
X535004D01*
Y441004D02*
Y449004D01*
Y441004D02*
X538004D01*
Y419004D02*
Y441004D01*
X535004Y419004D02*
X538004D01*
X535004Y411004D02*
Y419004D01*
X858004Y630534D02*
X866004D01*
X858004D02*
Y633534D01*
X836004D02*
X858004D01*
X836004Y630534D02*
Y633534D01*
X828004Y630534D02*
X836004D01*
X828004Y606534D02*
Y630534D01*
X866004Y606534D02*
Y630534D01*
X828004Y606534D02*
X866004D01*
X858004Y630534D02*
X866004D01*
X858004D02*
Y633534D01*
X836004D02*
X858004D01*
X836004Y630534D02*
Y633534D01*
X828004Y630534D02*
X836004D01*
X828004Y606534D02*
Y630534D01*
X866004Y606534D02*
Y630534D01*
X828004Y606534D02*
X866004D01*
X511004Y751004D02*
Y789004D01*
Y751004D02*
X535004D01*
X511004Y789004D02*
X535004D01*
Y781004D02*
Y789004D01*
Y781004D02*
X538004D01*
Y759004D02*
Y781004D01*
X535004Y759004D02*
X538004D01*
X535004Y751004D02*
Y759004D01*
X511004Y751004D02*
Y789004D01*
Y751004D02*
X535004D01*
X511004Y789004D02*
X535004D01*
Y781004D02*
Y789004D01*
Y781004D02*
X538004D01*
Y759004D02*
Y781004D01*
X535004Y759004D02*
X538004D01*
X535004Y751004D02*
Y759004D01*
X511004Y611004D02*
Y649004D01*
Y611004D02*
X535004D01*
X511004Y649004D02*
X535004D01*
Y641004D02*
Y649004D01*
Y641004D02*
X538004D01*
Y619004D02*
Y641004D01*
X535004Y619004D02*
X538004D01*
X535004Y611004D02*
Y619004D01*
X511004Y611004D02*
Y649004D01*
Y611004D02*
X535004D01*
X511004Y649004D02*
X535004D01*
Y641004D02*
Y649004D01*
Y641004D02*
X538004D01*
Y619004D02*
Y641004D01*
X535004Y619004D02*
X538004D01*
X535004Y611004D02*
Y619004D01*
X858004Y830534D02*
X866004D01*
X858004D02*
Y833534D01*
X836004D02*
X858004D01*
X836004Y830534D02*
Y833534D01*
X828004Y830534D02*
X836004D01*
X828004Y806534D02*
Y830534D01*
X866004Y806534D02*
Y830534D01*
X828004Y806534D02*
X866004D01*
X858004Y830534D02*
X866004D01*
X858004D02*
Y833534D01*
X836004D02*
X858004D01*
X836004Y830534D02*
Y833534D01*
X828004Y830534D02*
X836004D01*
X828004Y806534D02*
Y830534D01*
X866004Y806534D02*
Y830534D01*
X828004Y806534D02*
X866004D01*
X511004Y951004D02*
Y989004D01*
Y951004D02*
X535004D01*
X511004Y989004D02*
X535004D01*
Y981004D02*
Y989004D01*
Y981004D02*
X538004D01*
Y959004D02*
Y981004D01*
X535004Y959004D02*
X538004D01*
X535004Y951004D02*
Y959004D01*
X511004Y951004D02*
Y989004D01*
Y951004D02*
X535004D01*
X511004Y989004D02*
X535004D01*
Y981004D02*
Y989004D01*
Y981004D02*
X538004D01*
Y959004D02*
Y981004D01*
X535004Y959004D02*
X538004D01*
X535004Y951004D02*
Y959004D01*
X511004Y811004D02*
Y849004D01*
Y811004D02*
X535004D01*
X511004Y849004D02*
X535004D01*
Y841004D02*
Y849004D01*
Y841004D02*
X538004D01*
Y819004D02*
Y841004D01*
X535004Y819004D02*
X538004D01*
X535004Y811004D02*
Y819004D01*
X511004Y811004D02*
Y849004D01*
Y811004D02*
X535004D01*
X511004Y849004D02*
X535004D01*
Y841004D02*
Y849004D01*
Y841004D02*
X538004D01*
Y819004D02*
Y841004D01*
X535004Y819004D02*
X538004D01*
X535004Y811004D02*
Y819004D01*
X358004Y30534D02*
X366004D01*
X358004D02*
Y33534D01*
X336004D02*
X358004D01*
X336004Y30534D02*
Y33534D01*
X328004Y30534D02*
X336004D01*
X328004Y6534D02*
Y30534D01*
X366004Y6534D02*
Y30534D01*
X328004Y6534D02*
X366004D01*
X358004Y30534D02*
X366004D01*
X358004D02*
Y33534D01*
X336004D02*
X358004D01*
X336004Y30534D02*
Y33534D01*
X328004Y30534D02*
X336004D01*
X328004Y6534D02*
Y30534D01*
X366004Y6534D02*
Y30534D01*
X328004Y6534D02*
X366004D01*
X11004Y151004D02*
Y189004D01*
Y151004D02*
X35004D01*
X11004Y189004D02*
X35004D01*
Y181004D02*
Y189004D01*
Y181004D02*
X38004D01*
Y159004D02*
Y181004D01*
X35004Y159004D02*
X38004D01*
X35004Y151004D02*
Y159004D01*
X11004Y151004D02*
Y189004D01*
Y151004D02*
X35004D01*
X11004Y189004D02*
X35004D01*
Y181004D02*
Y189004D01*
Y181004D02*
X38004D01*
Y159004D02*
Y181004D01*
X35004Y159004D02*
X38004D01*
X35004Y151004D02*
Y159004D01*
X11004Y11004D02*
Y49004D01*
Y11004D02*
X35004D01*
X11004Y49004D02*
X35004D01*
Y41004D02*
Y49004D01*
Y41004D02*
X38004D01*
Y19004D02*
Y41004D01*
X35004Y19004D02*
X38004D01*
X35004Y11004D02*
Y19004D01*
X11004Y11004D02*
Y49004D01*
Y11004D02*
X35004D01*
X11004Y49004D02*
X35004D01*
Y41004D02*
Y49004D01*
Y41004D02*
X38004D01*
Y19004D02*
Y41004D01*
X35004Y19004D02*
X38004D01*
X35004Y11004D02*
Y19004D01*
X358004Y230534D02*
X366004D01*
X358004D02*
Y233534D01*
X336004D02*
X358004D01*
X336004Y230534D02*
Y233534D01*
X328004Y230534D02*
X336004D01*
X328004Y206534D02*
Y230534D01*
X366004Y206534D02*
Y230534D01*
X328004Y206534D02*
X366004D01*
X358004Y230534D02*
X366004D01*
X358004D02*
Y233534D01*
X336004D02*
X358004D01*
X336004Y230534D02*
Y233534D01*
X328004Y230534D02*
X336004D01*
X328004Y206534D02*
Y230534D01*
X366004Y206534D02*
Y230534D01*
X328004Y206534D02*
X366004D01*
X11004Y351004D02*
Y389004D01*
Y351004D02*
X35004D01*
X11004Y389004D02*
X35004D01*
Y381004D02*
Y389004D01*
Y381004D02*
X38004D01*
Y359004D02*
Y381004D01*
X35004Y359004D02*
X38004D01*
X35004Y351004D02*
Y359004D01*
X11004Y351004D02*
Y389004D01*
Y351004D02*
X35004D01*
X11004Y389004D02*
X35004D01*
Y381004D02*
Y389004D01*
Y381004D02*
X38004D01*
Y359004D02*
Y381004D01*
X35004Y359004D02*
X38004D01*
X35004Y351004D02*
Y359004D01*
X11004Y211004D02*
Y249004D01*
Y211004D02*
X35004D01*
X11004Y249004D02*
X35004D01*
Y241004D02*
Y249004D01*
Y241004D02*
X38004D01*
Y219004D02*
Y241004D01*
X35004Y219004D02*
X38004D01*
X35004Y211004D02*
Y219004D01*
X11004Y211004D02*
Y249004D01*
Y211004D02*
X35004D01*
X11004Y249004D02*
X35004D01*
Y241004D02*
Y249004D01*
Y241004D02*
X38004D01*
Y219004D02*
Y241004D01*
X35004Y219004D02*
X38004D01*
X35004Y211004D02*
Y219004D01*
X358004Y430534D02*
X366004D01*
X358004D02*
Y433534D01*
X336004D02*
X358004D01*
X336004Y430534D02*
Y433534D01*
X328004Y430534D02*
X336004D01*
X328004Y406534D02*
Y430534D01*
X366004Y406534D02*
Y430534D01*
X328004Y406534D02*
X366004D01*
X358004Y430534D02*
X366004D01*
X358004D02*
Y433534D01*
X336004D02*
X358004D01*
X336004Y430534D02*
Y433534D01*
X328004Y430534D02*
X336004D01*
X328004Y406534D02*
Y430534D01*
X366004Y406534D02*
Y430534D01*
X328004Y406534D02*
X366004D01*
X11004Y551004D02*
Y589004D01*
Y551004D02*
X35004D01*
X11004Y589004D02*
X35004D01*
Y581004D02*
Y589004D01*
Y581004D02*
X38004D01*
Y559004D02*
Y581004D01*
X35004Y559004D02*
X38004D01*
X35004Y551004D02*
Y559004D01*
X11004Y551004D02*
Y589004D01*
Y551004D02*
X35004D01*
X11004Y589004D02*
X35004D01*
Y581004D02*
Y589004D01*
Y581004D02*
X38004D01*
Y559004D02*
Y581004D01*
X35004Y559004D02*
X38004D01*
X35004Y551004D02*
Y559004D01*
X11004Y411004D02*
Y449004D01*
Y411004D02*
X35004D01*
X11004Y449004D02*
X35004D01*
Y441004D02*
Y449004D01*
Y441004D02*
X38004D01*
Y419004D02*
Y441004D01*
X35004Y419004D02*
X38004D01*
X35004Y411004D02*
Y419004D01*
X11004Y411004D02*
Y449004D01*
Y411004D02*
X35004D01*
X11004Y449004D02*
X35004D01*
Y441004D02*
Y449004D01*
Y441004D02*
X38004D01*
Y419004D02*
Y441004D01*
X35004Y419004D02*
X38004D01*
X35004Y411004D02*
Y419004D01*
X358004Y630534D02*
X366004D01*
X358004D02*
Y633534D01*
X336004D02*
X358004D01*
X336004Y630534D02*
Y633534D01*
X328004Y630534D02*
X336004D01*
X328004Y606534D02*
Y630534D01*
X366004Y606534D02*
Y630534D01*
X328004Y606534D02*
X366004D01*
X358004Y630534D02*
X366004D01*
X358004D02*
Y633534D01*
X336004D02*
X358004D01*
X336004Y630534D02*
Y633534D01*
X328004Y630534D02*
X336004D01*
X328004Y606534D02*
Y630534D01*
X366004Y606534D02*
Y630534D01*
X328004Y606534D02*
X366004D01*
X11004Y751004D02*
Y789004D01*
Y751004D02*
X35004D01*
X11004Y789004D02*
X35004D01*
Y781004D02*
Y789004D01*
Y781004D02*
X38004D01*
Y759004D02*
Y781004D01*
X35004Y759004D02*
X38004D01*
X35004Y751004D02*
Y759004D01*
X11004Y751004D02*
Y789004D01*
Y751004D02*
X35004D01*
X11004Y789004D02*
X35004D01*
Y781004D02*
Y789004D01*
Y781004D02*
X38004D01*
Y759004D02*
Y781004D01*
X35004Y759004D02*
X38004D01*
X35004Y751004D02*
Y759004D01*
X11004Y611004D02*
Y649004D01*
Y611004D02*
X35004D01*
X11004Y649004D02*
X35004D01*
Y641004D02*
Y649004D01*
Y641004D02*
X38004D01*
Y619004D02*
Y641004D01*
X35004Y619004D02*
X38004D01*
X35004Y611004D02*
Y619004D01*
X11004Y611004D02*
Y649004D01*
Y611004D02*
X35004D01*
X11004Y649004D02*
X35004D01*
Y641004D02*
Y649004D01*
Y641004D02*
X38004D01*
Y619004D02*
Y641004D01*
X35004Y619004D02*
X38004D01*
X35004Y611004D02*
Y619004D01*
X358004Y830534D02*
X366004D01*
X358004D02*
Y833534D01*
X336004D02*
X358004D01*
X336004Y830534D02*
Y833534D01*
X328004Y830534D02*
X336004D01*
X328004Y806534D02*
Y830534D01*
X366004Y806534D02*
Y830534D01*
X328004Y806534D02*
X366004D01*
X358004Y830534D02*
X366004D01*
X358004D02*
Y833534D01*
X336004D02*
X358004D01*
X336004Y830534D02*
Y833534D01*
X328004Y830534D02*
X336004D01*
X328004Y806534D02*
Y830534D01*
X366004Y806534D02*
Y830534D01*
X328004Y806534D02*
X366004D01*
X11004Y951004D02*
Y989004D01*
Y951004D02*
X35004D01*
X11004Y989004D02*
X35004D01*
Y981004D02*
Y989004D01*
Y981004D02*
X38004D01*
Y959004D02*
Y981004D01*
X35004Y959004D02*
X38004D01*
X35004Y951004D02*
Y959004D01*
X11004Y951004D02*
Y989004D01*
Y951004D02*
X35004D01*
X11004Y989004D02*
X35004D01*
Y981004D02*
Y989004D01*
Y981004D02*
X38004D01*
Y959004D02*
Y981004D01*
X35004Y959004D02*
X38004D01*
X35004Y951004D02*
Y959004D01*
X11004Y811004D02*
Y849004D01*
Y811004D02*
X35004D01*
X11004Y849004D02*
X35004D01*
Y841004D02*
Y849004D01*
Y841004D02*
X38004D01*
Y819004D02*
Y841004D01*
X35004Y819004D02*
X38004D01*
X35004Y811004D02*
Y819004D01*
X11004Y811004D02*
Y849004D01*
Y811004D02*
X35004D01*
X11004Y849004D02*
X35004D01*
Y841004D02*
Y849004D01*
Y841004D02*
X38004D01*
Y819004D02*
Y841004D01*
X35004Y819004D02*
X38004D01*
X35004Y811004D02*
Y819004D01*
M02*
