G04*
G04 #@! TF.GenerationSoftware,Altium Limited,Altium Designer,19.0.14 (431)*
G04*
G04 Layer_Color=32768*
%FSLAX44Y44*%
%MOMM*%
G71*
G01*
G75*
%ADD54C,0.1000*%
%ADD135C,0.0500*%
D54*
X1311721Y186694D02*
X1317721D01*
X1314721Y183694D02*
Y189694D01*
X1311221Y177694D02*
Y195694D01*
X1318221Y177694D02*
Y195694D01*
X1311221Y177694D02*
X1318221D01*
X1311221Y195694D02*
X1318221D01*
X1302554Y179674D02*
X1308554D01*
X1305554Y176674D02*
Y182674D01*
X1309054Y170674D02*
Y188674D01*
X1302054Y170674D02*
Y188674D01*
X1309054D01*
X1302054Y170674D02*
X1309054D01*
X1036504Y58334D02*
Y65334D01*
X1018504Y58334D02*
Y65334D01*
X1036504D01*
X1018504Y58334D02*
X1036504D01*
X1024504Y61834D02*
X1030504D01*
X1027504Y58834D02*
Y64834D01*
X1158484Y170494D02*
Y177494D01*
X1140484Y170494D02*
Y177494D01*
Y170494D02*
X1158484D01*
X1140484Y177494D02*
X1158484D01*
X1146484Y173994D02*
X1152484D01*
X1149484Y170994D02*
Y176994D01*
X1026195Y48004D02*
Y55004D01*
X1008195Y48004D02*
Y55004D01*
X1026195D01*
X1008195Y48004D02*
X1026195D01*
X1014195Y51504D02*
X1020195D01*
X1017195Y48504D02*
Y54504D01*
X1190294Y100444D02*
X1197294D01*
X1190294Y82444D02*
X1197294D01*
Y100444D01*
X1190294Y82444D02*
Y100444D01*
X1193794Y88444D02*
Y94444D01*
X1190794Y91444D02*
X1196794D01*
X1199104Y100444D02*
X1206104D01*
X1199104Y82444D02*
X1206104D01*
Y100444D01*
X1199104Y82444D02*
Y100444D01*
X1202604Y88444D02*
Y94444D01*
X1199604Y91444D02*
X1205604D01*
X1219304Y12904D02*
Y19904D01*
X1201304Y12904D02*
Y19904D01*
Y12904D02*
X1219304D01*
X1201304Y19904D02*
X1219304D01*
X1207304Y16404D02*
X1213304D01*
X1210304Y13404D02*
Y19404D01*
X1166854Y12904D02*
Y19904D01*
X1184854Y12904D02*
Y19904D01*
X1166854D02*
X1184854D01*
X1166854Y12904D02*
X1184854D01*
X1172854Y16404D02*
X1178854D01*
X1175854Y13404D02*
Y19404D01*
X1185104Y46334D02*
X1195104D01*
X1190104Y41334D02*
Y51334D01*
X1126883Y183454D02*
X1137883D01*
X1126883Y159454D02*
X1137883D01*
Y183454D01*
X1126883Y159454D02*
Y183454D01*
X1132383Y166704D02*
Y176204D01*
X1127633Y171454D02*
X1137133D01*
X1157314Y148113D02*
X1164314D01*
X1157314Y130113D02*
X1164314D01*
Y148113D01*
X1157314Y130113D02*
Y148113D01*
X1160814Y136113D02*
Y142113D01*
X1157814Y139113D02*
X1163814D01*
X1259444Y83363D02*
X1269444D01*
X1264444Y78363D02*
Y88363D01*
X1023424Y77784D02*
Y84784D01*
X1041424Y77784D02*
Y84784D01*
X1023424D02*
X1041424D01*
X1023424Y77784D02*
X1041424D01*
X1029424Y81284D02*
X1035424D01*
X1032424Y78284D02*
Y84284D01*
X1023424Y68304D02*
Y75304D01*
X1041424Y68304D02*
Y75304D01*
X1023424D02*
X1041424D01*
X1023424Y68304D02*
X1041424D01*
X1029424Y71804D02*
X1035424D01*
X1032424Y68804D02*
Y74804D01*
X1292744Y39003D02*
Y46003D01*
X1310744Y39003D02*
Y46003D01*
X1292744D02*
X1310744D01*
X1292744Y39003D02*
X1310744D01*
X1298744Y42503D02*
X1304744D01*
X1301744Y39503D02*
Y45503D01*
X1292736Y27034D02*
Y34034D01*
X1310736Y27034D02*
Y34034D01*
X1292736D02*
X1310736D01*
X1292736Y27034D02*
X1310736D01*
X1298736Y30534D02*
X1304736D01*
X1301736Y27534D02*
Y33534D01*
X1311794Y49844D02*
Y56844D01*
X1329794Y49844D02*
Y56844D01*
X1311794D02*
X1329794D01*
X1311794Y49844D02*
X1329794D01*
X1317794Y53344D02*
X1323794D01*
X1320794Y50344D02*
Y56344D01*
X1329964Y61274D02*
Y68274D01*
X1311964Y61274D02*
Y68274D01*
Y61274D02*
X1329964D01*
X1311964Y68274D02*
X1329964D01*
X1317964Y64774D02*
X1323964D01*
X1320964Y61774D02*
Y67774D01*
X1262944Y112884D02*
Y119884D01*
X1280944Y112884D02*
Y119884D01*
X1262944D02*
X1280944D01*
X1262944Y112884D02*
X1280944D01*
X1268944Y116384D02*
X1274944D01*
X1271944Y113384D02*
Y119384D01*
X1350314Y110384D02*
X1357314D01*
X1350314Y128384D02*
X1357314D01*
X1350314Y110384D02*
Y128384D01*
X1357314Y110384D02*
Y128384D01*
X1353814Y116384D02*
Y122384D01*
X1350814Y119384D02*
X1356814D01*
X1327064Y89304D02*
X1337064D01*
X1332064Y84304D02*
Y94304D01*
X1323964Y154024D02*
Y160024D01*
X1320964Y157024D02*
X1326964D01*
X1314964Y153524D02*
X1332964D01*
X1314964Y160524D02*
X1332964D01*
Y153524D02*
Y160524D01*
X1314964Y153524D02*
Y160524D01*
X1287314Y111764D02*
X1293314D01*
X1290314Y108764D02*
Y114764D01*
X1286814Y102764D02*
Y120764D01*
X1293814Y102764D02*
Y120764D01*
X1286814Y102764D02*
X1293814D01*
X1286814Y120764D02*
X1293814D01*
X1180714Y169924D02*
Y175924D01*
X1177714Y172924D02*
X1183714D01*
X1171714Y176424D02*
X1189714D01*
X1171714Y169424D02*
X1189714D01*
X1171714D02*
Y176424D01*
X1189714Y169424D02*
Y176424D01*
X1178854Y157024D02*
Y163024D01*
X1175854Y160024D02*
X1181854D01*
X1169854Y163524D02*
X1187854D01*
X1169854Y156524D02*
X1187854D01*
X1169854D02*
Y163524D01*
X1187854Y156524D02*
Y163524D01*
X1159014Y35504D02*
Y42504D01*
X1177014Y35504D02*
Y42504D01*
X1159014D02*
X1177014D01*
X1159014Y35504D02*
X1177014D01*
X1165014Y39004D02*
X1171014D01*
X1168014Y36004D02*
Y42004D01*
X1178854Y148004D02*
Y154004D01*
X1175854Y151004D02*
X1181854D01*
X1169854Y154504D02*
X1187854D01*
X1169854Y147504D02*
X1187854D01*
X1169854D02*
Y154504D01*
X1187854Y147504D02*
Y154504D01*
X1230042Y155963D02*
Y161963D01*
X1227042Y158963D02*
X1233042D01*
X1221042Y155463D02*
X1239042D01*
X1221042Y162463D02*
X1239042D01*
Y155463D02*
Y162463D01*
X1221042Y155463D02*
Y162463D01*
X1339734Y41503D02*
Y48503D01*
X1357734Y41503D02*
Y48503D01*
X1339734D02*
X1357734D01*
X1339734Y41503D02*
X1357734D01*
X1345734Y45003D02*
X1351734D01*
X1348734Y42003D02*
Y48003D01*
X1230042Y139113D02*
X1239542D01*
X1234792Y134363D02*
Y143863D01*
X1240292Y127113D02*
Y151113D01*
X1229292Y127113D02*
Y151113D01*
X1240292D01*
X1229292Y127113D02*
X1240292D01*
X1027114Y88754D02*
Y95754D01*
X1045114Y88754D02*
Y95754D01*
X1027114D02*
X1045114D01*
X1027114Y88754D02*
X1045114D01*
X1033114Y92254D02*
X1039114D01*
X1036114Y89254D02*
Y95254D01*
X1262944Y102503D02*
Y109503D01*
X1280944Y102503D02*
Y109503D01*
X1262944D02*
X1280944D01*
X1262944Y102503D02*
X1280944D01*
X1268944Y106003D02*
X1274944D01*
X1271944Y103003D02*
Y109003D01*
X1294195Y71804D02*
Y78804D01*
X1312195Y71804D02*
Y78804D01*
X1294195D02*
X1312195D01*
X1294195Y71804D02*
X1312195D01*
X1300195Y75304D02*
X1306195D01*
X1303195Y72304D02*
Y78304D01*
X1029174Y22084D02*
Y32084D01*
X1024174Y27084D02*
X1034174D01*
X1311721Y386694D02*
X1317721D01*
X1314721Y383694D02*
Y389694D01*
X1311221Y377694D02*
Y395694D01*
X1318221Y377694D02*
Y395694D01*
X1311221Y377694D02*
X1318221D01*
X1311221Y395694D02*
X1318221D01*
X1302554Y379674D02*
X1308554D01*
X1305554Y376674D02*
Y382674D01*
X1309054Y370674D02*
Y388674D01*
X1302054Y370674D02*
Y388674D01*
X1309054D01*
X1302054Y370674D02*
X1309054D01*
X1036504Y258334D02*
Y265334D01*
X1018504Y258334D02*
Y265334D01*
X1036504D01*
X1018504Y258334D02*
X1036504D01*
X1024504Y261834D02*
X1030504D01*
X1027504Y258834D02*
Y264834D01*
X1158484Y370494D02*
Y377494D01*
X1140484Y370494D02*
Y377494D01*
Y370494D02*
X1158484D01*
X1140484Y377494D02*
X1158484D01*
X1146484Y373994D02*
X1152484D01*
X1149484Y370994D02*
Y376994D01*
X1026195Y248004D02*
Y255004D01*
X1008195Y248004D02*
Y255004D01*
X1026195D01*
X1008195Y248004D02*
X1026195D01*
X1014195Y251504D02*
X1020195D01*
X1017195Y248504D02*
Y254504D01*
X1190294Y300444D02*
X1197294D01*
X1190294Y282444D02*
X1197294D01*
Y300444D01*
X1190294Y282444D02*
Y300444D01*
X1193794Y288444D02*
Y294444D01*
X1190794Y291444D02*
X1196794D01*
X1199104Y300444D02*
X1206104D01*
X1199104Y282444D02*
X1206104D01*
Y300444D01*
X1199104Y282444D02*
Y300444D01*
X1202604Y288444D02*
Y294444D01*
X1199604Y291444D02*
X1205604D01*
X1219304Y212904D02*
Y219904D01*
X1201304Y212904D02*
Y219904D01*
Y212904D02*
X1219304D01*
X1201304Y219904D02*
X1219304D01*
X1207304Y216404D02*
X1213304D01*
X1210304Y213404D02*
Y219404D01*
X1166854Y212904D02*
Y219904D01*
X1184854Y212904D02*
Y219904D01*
X1166854D02*
X1184854D01*
X1166854Y212904D02*
X1184854D01*
X1172854Y216404D02*
X1178854D01*
X1175854Y213404D02*
Y219404D01*
X1185104Y246334D02*
X1195104D01*
X1190104Y241334D02*
Y251334D01*
X1126883Y383454D02*
X1137883D01*
X1126883Y359454D02*
X1137883D01*
Y383454D01*
X1126883Y359454D02*
Y383454D01*
X1132383Y366704D02*
Y376204D01*
X1127633Y371454D02*
X1137133D01*
X1157314Y348113D02*
X1164314D01*
X1157314Y330113D02*
X1164314D01*
Y348113D01*
X1157314Y330113D02*
Y348113D01*
X1160814Y336113D02*
Y342113D01*
X1157814Y339113D02*
X1163814D01*
X1259444Y283363D02*
X1269444D01*
X1264444Y278363D02*
Y288363D01*
X1023424Y277784D02*
Y284784D01*
X1041424Y277784D02*
Y284784D01*
X1023424D02*
X1041424D01*
X1023424Y277784D02*
X1041424D01*
X1029424Y281284D02*
X1035424D01*
X1032424Y278284D02*
Y284284D01*
X1023424Y268304D02*
Y275304D01*
X1041424Y268304D02*
Y275304D01*
X1023424D02*
X1041424D01*
X1023424Y268304D02*
X1041424D01*
X1029424Y271804D02*
X1035424D01*
X1032424Y268804D02*
Y274804D01*
X1292744Y239003D02*
Y246003D01*
X1310744Y239003D02*
Y246003D01*
X1292744D02*
X1310744D01*
X1292744Y239003D02*
X1310744D01*
X1298744Y242503D02*
X1304744D01*
X1301744Y239503D02*
Y245503D01*
X1292736Y227034D02*
Y234034D01*
X1310736Y227034D02*
Y234034D01*
X1292736D02*
X1310736D01*
X1292736Y227034D02*
X1310736D01*
X1298736Y230534D02*
X1304736D01*
X1301736Y227534D02*
Y233534D01*
X1311794Y249844D02*
Y256844D01*
X1329794Y249844D02*
Y256844D01*
X1311794D02*
X1329794D01*
X1311794Y249844D02*
X1329794D01*
X1317794Y253344D02*
X1323794D01*
X1320794Y250344D02*
Y256344D01*
X1329964Y261274D02*
Y268274D01*
X1311964Y261274D02*
Y268274D01*
Y261274D02*
X1329964D01*
X1311964Y268274D02*
X1329964D01*
X1317964Y264774D02*
X1323964D01*
X1320964Y261774D02*
Y267774D01*
X1262944Y312884D02*
Y319884D01*
X1280944Y312884D02*
Y319884D01*
X1262944D02*
X1280944D01*
X1262944Y312884D02*
X1280944D01*
X1268944Y316384D02*
X1274944D01*
X1271944Y313384D02*
Y319384D01*
X1350314Y310384D02*
X1357314D01*
X1350314Y328384D02*
X1357314D01*
X1350314Y310384D02*
Y328384D01*
X1357314Y310384D02*
Y328384D01*
X1353814Y316384D02*
Y322384D01*
X1350814Y319384D02*
X1356814D01*
X1327064Y289304D02*
X1337064D01*
X1332064Y284304D02*
Y294304D01*
X1323964Y354024D02*
Y360024D01*
X1320964Y357024D02*
X1326964D01*
X1314964Y353524D02*
X1332964D01*
X1314964Y360524D02*
X1332964D01*
Y353524D02*
Y360524D01*
X1314964Y353524D02*
Y360524D01*
X1287314Y311764D02*
X1293314D01*
X1290314Y308764D02*
Y314764D01*
X1286814Y302764D02*
Y320764D01*
X1293814Y302764D02*
Y320764D01*
X1286814Y302764D02*
X1293814D01*
X1286814Y320764D02*
X1293814D01*
X1180714Y369924D02*
Y375924D01*
X1177714Y372924D02*
X1183714D01*
X1171714Y376424D02*
X1189714D01*
X1171714Y369424D02*
X1189714D01*
X1171714D02*
Y376424D01*
X1189714Y369424D02*
Y376424D01*
X1178854Y357024D02*
Y363024D01*
X1175854Y360024D02*
X1181854D01*
X1169854Y363524D02*
X1187854D01*
X1169854Y356524D02*
X1187854D01*
X1169854D02*
Y363524D01*
X1187854Y356524D02*
Y363524D01*
X1159014Y235504D02*
Y242504D01*
X1177014Y235504D02*
Y242504D01*
X1159014D02*
X1177014D01*
X1159014Y235504D02*
X1177014D01*
X1165014Y239004D02*
X1171014D01*
X1168014Y236004D02*
Y242004D01*
X1178854Y348004D02*
Y354004D01*
X1175854Y351004D02*
X1181854D01*
X1169854Y354504D02*
X1187854D01*
X1169854Y347504D02*
X1187854D01*
X1169854D02*
Y354504D01*
X1187854Y347504D02*
Y354504D01*
X1230042Y355963D02*
Y361963D01*
X1227042Y358963D02*
X1233042D01*
X1221042Y355463D02*
X1239042D01*
X1221042Y362463D02*
X1239042D01*
Y355463D02*
Y362463D01*
X1221042Y355463D02*
Y362463D01*
X1339734Y241503D02*
Y248503D01*
X1357734Y241503D02*
Y248503D01*
X1339734D02*
X1357734D01*
X1339734Y241503D02*
X1357734D01*
X1345734Y245003D02*
X1351734D01*
X1348734Y242003D02*
Y248003D01*
X1230042Y339113D02*
X1239542D01*
X1234792Y334363D02*
Y343863D01*
X1240292Y327113D02*
Y351113D01*
X1229292Y327113D02*
Y351113D01*
X1240292D01*
X1229292Y327113D02*
X1240292D01*
X1027114Y288754D02*
Y295754D01*
X1045114Y288754D02*
Y295754D01*
X1027114D02*
X1045114D01*
X1027114Y288754D02*
X1045114D01*
X1033114Y292254D02*
X1039114D01*
X1036114Y289254D02*
Y295254D01*
X1262944Y302503D02*
Y309503D01*
X1280944Y302503D02*
Y309503D01*
X1262944D02*
X1280944D01*
X1262944Y302503D02*
X1280944D01*
X1268944Y306003D02*
X1274944D01*
X1271944Y303003D02*
Y309003D01*
X1294195Y271804D02*
Y278804D01*
X1312195Y271804D02*
Y278804D01*
X1294195D02*
X1312195D01*
X1294195Y271804D02*
X1312195D01*
X1300195Y275304D02*
X1306195D01*
X1303195Y272304D02*
Y278304D01*
X1029174Y222084D02*
Y232084D01*
X1024174Y227084D02*
X1034174D01*
X1311721Y586694D02*
X1317721D01*
X1314721Y583694D02*
Y589694D01*
X1311221Y577694D02*
Y595694D01*
X1318221Y577694D02*
Y595694D01*
X1311221Y577694D02*
X1318221D01*
X1311221Y595694D02*
X1318221D01*
X1302554Y579674D02*
X1308554D01*
X1305554Y576674D02*
Y582674D01*
X1309054Y570674D02*
Y588674D01*
X1302054Y570674D02*
Y588674D01*
X1309054D01*
X1302054Y570674D02*
X1309054D01*
X1036504Y458334D02*
Y465334D01*
X1018504Y458334D02*
Y465334D01*
X1036504D01*
X1018504Y458334D02*
X1036504D01*
X1024504Y461834D02*
X1030504D01*
X1027504Y458834D02*
Y464834D01*
X1158484Y570494D02*
Y577494D01*
X1140484Y570494D02*
Y577494D01*
Y570494D02*
X1158484D01*
X1140484Y577494D02*
X1158484D01*
X1146484Y573994D02*
X1152484D01*
X1149484Y570994D02*
Y576994D01*
X1026195Y448004D02*
Y455004D01*
X1008195Y448004D02*
Y455004D01*
X1026195D01*
X1008195Y448004D02*
X1026195D01*
X1014195Y451504D02*
X1020195D01*
X1017195Y448504D02*
Y454504D01*
X1190294Y500444D02*
X1197294D01*
X1190294Y482444D02*
X1197294D01*
Y500444D01*
X1190294Y482444D02*
Y500444D01*
X1193794Y488444D02*
Y494444D01*
X1190794Y491444D02*
X1196794D01*
X1199104Y500444D02*
X1206104D01*
X1199104Y482444D02*
X1206104D01*
Y500444D01*
X1199104Y482444D02*
Y500444D01*
X1202604Y488444D02*
Y494444D01*
X1199604Y491444D02*
X1205604D01*
X1219304Y412904D02*
Y419904D01*
X1201304Y412904D02*
Y419904D01*
Y412904D02*
X1219304D01*
X1201304Y419904D02*
X1219304D01*
X1207304Y416404D02*
X1213304D01*
X1210304Y413404D02*
Y419404D01*
X1166854Y412904D02*
Y419904D01*
X1184854Y412904D02*
Y419904D01*
X1166854D02*
X1184854D01*
X1166854Y412904D02*
X1184854D01*
X1172854Y416404D02*
X1178854D01*
X1175854Y413404D02*
Y419404D01*
X1185104Y446334D02*
X1195104D01*
X1190104Y441334D02*
Y451334D01*
X1126883Y583454D02*
X1137883D01*
X1126883Y559454D02*
X1137883D01*
Y583454D01*
X1126883Y559454D02*
Y583454D01*
X1132383Y566704D02*
Y576204D01*
X1127633Y571454D02*
X1137133D01*
X1157314Y548113D02*
X1164314D01*
X1157314Y530113D02*
X1164314D01*
Y548113D01*
X1157314Y530113D02*
Y548113D01*
X1160814Y536113D02*
Y542113D01*
X1157814Y539113D02*
X1163814D01*
X1259444Y483363D02*
X1269444D01*
X1264444Y478363D02*
Y488363D01*
X1023424Y477784D02*
Y484784D01*
X1041424Y477784D02*
Y484784D01*
X1023424D02*
X1041424D01*
X1023424Y477784D02*
X1041424D01*
X1029424Y481284D02*
X1035424D01*
X1032424Y478284D02*
Y484284D01*
X1023424Y468304D02*
Y475304D01*
X1041424Y468304D02*
Y475304D01*
X1023424D02*
X1041424D01*
X1023424Y468304D02*
X1041424D01*
X1029424Y471804D02*
X1035424D01*
X1032424Y468804D02*
Y474804D01*
X1292744Y439003D02*
Y446003D01*
X1310744Y439003D02*
Y446003D01*
X1292744D02*
X1310744D01*
X1292744Y439003D02*
X1310744D01*
X1298744Y442503D02*
X1304744D01*
X1301744Y439503D02*
Y445503D01*
X1292736Y427034D02*
Y434034D01*
X1310736Y427034D02*
Y434034D01*
X1292736D02*
X1310736D01*
X1292736Y427034D02*
X1310736D01*
X1298736Y430534D02*
X1304736D01*
X1301736Y427534D02*
Y433534D01*
X1311794Y449844D02*
Y456844D01*
X1329794Y449844D02*
Y456844D01*
X1311794D02*
X1329794D01*
X1311794Y449844D02*
X1329794D01*
X1317794Y453344D02*
X1323794D01*
X1320794Y450344D02*
Y456344D01*
X1329964Y461274D02*
Y468274D01*
X1311964Y461274D02*
Y468274D01*
Y461274D02*
X1329964D01*
X1311964Y468274D02*
X1329964D01*
X1317964Y464774D02*
X1323964D01*
X1320964Y461774D02*
Y467774D01*
X1262944Y512884D02*
Y519884D01*
X1280944Y512884D02*
Y519884D01*
X1262944D02*
X1280944D01*
X1262944Y512884D02*
X1280944D01*
X1268944Y516384D02*
X1274944D01*
X1271944Y513384D02*
Y519384D01*
X1350314Y510384D02*
X1357314D01*
X1350314Y528384D02*
X1357314D01*
X1350314Y510384D02*
Y528384D01*
X1357314Y510384D02*
Y528384D01*
X1353814Y516384D02*
Y522384D01*
X1350814Y519384D02*
X1356814D01*
X1327064Y489304D02*
X1337064D01*
X1332064Y484304D02*
Y494304D01*
X1323964Y554024D02*
Y560024D01*
X1320964Y557024D02*
X1326964D01*
X1314964Y553524D02*
X1332964D01*
X1314964Y560524D02*
X1332964D01*
Y553524D02*
Y560524D01*
X1314964Y553524D02*
Y560524D01*
X1287314Y511764D02*
X1293314D01*
X1290314Y508764D02*
Y514764D01*
X1286814Y502764D02*
Y520764D01*
X1293814Y502764D02*
Y520764D01*
X1286814Y502764D02*
X1293814D01*
X1286814Y520764D02*
X1293814D01*
X1180714Y569924D02*
Y575924D01*
X1177714Y572924D02*
X1183714D01*
X1171714Y576424D02*
X1189714D01*
X1171714Y569424D02*
X1189714D01*
X1171714D02*
Y576424D01*
X1189714Y569424D02*
Y576424D01*
X1178854Y557024D02*
Y563024D01*
X1175854Y560024D02*
X1181854D01*
X1169854Y563524D02*
X1187854D01*
X1169854Y556524D02*
X1187854D01*
X1169854D02*
Y563524D01*
X1187854Y556524D02*
Y563524D01*
X1159014Y435504D02*
Y442504D01*
X1177014Y435504D02*
Y442504D01*
X1159014D02*
X1177014D01*
X1159014Y435504D02*
X1177014D01*
X1165014Y439004D02*
X1171014D01*
X1168014Y436004D02*
Y442004D01*
X1178854Y548004D02*
Y554004D01*
X1175854Y551004D02*
X1181854D01*
X1169854Y554504D02*
X1187854D01*
X1169854Y547504D02*
X1187854D01*
X1169854D02*
Y554504D01*
X1187854Y547504D02*
Y554504D01*
X1230042Y555963D02*
Y561963D01*
X1227042Y558963D02*
X1233042D01*
X1221042Y555463D02*
X1239042D01*
X1221042Y562463D02*
X1239042D01*
Y555463D02*
Y562463D01*
X1221042Y555463D02*
Y562463D01*
X1339734Y441503D02*
Y448503D01*
X1357734Y441503D02*
Y448503D01*
X1339734D02*
X1357734D01*
X1339734Y441503D02*
X1357734D01*
X1345734Y445003D02*
X1351734D01*
X1348734Y442003D02*
Y448003D01*
X1230042Y539113D02*
X1239542D01*
X1234792Y534363D02*
Y543863D01*
X1240292Y527113D02*
Y551113D01*
X1229292Y527113D02*
Y551113D01*
X1240292D01*
X1229292Y527113D02*
X1240292D01*
X1027114Y488754D02*
Y495754D01*
X1045114Y488754D02*
Y495754D01*
X1027114D02*
X1045114D01*
X1027114Y488754D02*
X1045114D01*
X1033114Y492254D02*
X1039114D01*
X1036114Y489254D02*
Y495254D01*
X1262944Y502503D02*
Y509503D01*
X1280944Y502503D02*
Y509503D01*
X1262944D02*
X1280944D01*
X1262944Y502503D02*
X1280944D01*
X1268944Y506003D02*
X1274944D01*
X1271944Y503003D02*
Y509003D01*
X1294195Y471804D02*
Y478804D01*
X1312195Y471804D02*
Y478804D01*
X1294195D02*
X1312195D01*
X1294195Y471804D02*
X1312195D01*
X1300195Y475304D02*
X1306195D01*
X1303195Y472304D02*
Y478304D01*
X1029174Y422084D02*
Y432084D01*
X1024174Y427084D02*
X1034174D01*
X1311721Y786694D02*
X1317721D01*
X1314721Y783694D02*
Y789694D01*
X1311221Y777694D02*
Y795694D01*
X1318221Y777694D02*
Y795694D01*
X1311221Y777694D02*
X1318221D01*
X1311221Y795694D02*
X1318221D01*
X1302554Y779674D02*
X1308554D01*
X1305554Y776674D02*
Y782674D01*
X1309054Y770674D02*
Y788674D01*
X1302054Y770674D02*
Y788674D01*
X1309054D01*
X1302054Y770674D02*
X1309054D01*
X1036504Y658334D02*
Y665334D01*
X1018504Y658334D02*
Y665334D01*
X1036504D01*
X1018504Y658334D02*
X1036504D01*
X1024504Y661834D02*
X1030504D01*
X1027504Y658834D02*
Y664834D01*
X1158484Y770494D02*
Y777494D01*
X1140484Y770494D02*
Y777494D01*
Y770494D02*
X1158484D01*
X1140484Y777494D02*
X1158484D01*
X1146484Y773994D02*
X1152484D01*
X1149484Y770994D02*
Y776994D01*
X1026195Y648004D02*
Y655004D01*
X1008195Y648004D02*
Y655004D01*
X1026195D01*
X1008195Y648004D02*
X1026195D01*
X1014195Y651504D02*
X1020195D01*
X1017195Y648504D02*
Y654504D01*
X1190294Y700444D02*
X1197294D01*
X1190294Y682444D02*
X1197294D01*
Y700444D01*
X1190294Y682444D02*
Y700444D01*
X1193794Y688444D02*
Y694444D01*
X1190794Y691444D02*
X1196794D01*
X1199104Y700444D02*
X1206104D01*
X1199104Y682444D02*
X1206104D01*
Y700444D01*
X1199104Y682444D02*
Y700444D01*
X1202604Y688444D02*
Y694444D01*
X1199604Y691444D02*
X1205604D01*
X1219304Y612904D02*
Y619904D01*
X1201304Y612904D02*
Y619904D01*
Y612904D02*
X1219304D01*
X1201304Y619904D02*
X1219304D01*
X1207304Y616404D02*
X1213304D01*
X1210304Y613404D02*
Y619404D01*
X1166854Y612904D02*
Y619904D01*
X1184854Y612904D02*
Y619904D01*
X1166854D02*
X1184854D01*
X1166854Y612904D02*
X1184854D01*
X1172854Y616404D02*
X1178854D01*
X1175854Y613404D02*
Y619404D01*
X1185104Y646334D02*
X1195104D01*
X1190104Y641334D02*
Y651334D01*
X1126883Y783454D02*
X1137883D01*
X1126883Y759454D02*
X1137883D01*
Y783454D01*
X1126883Y759454D02*
Y783454D01*
X1132383Y766704D02*
Y776204D01*
X1127633Y771454D02*
X1137133D01*
X1157314Y748113D02*
X1164314D01*
X1157314Y730113D02*
X1164314D01*
Y748113D01*
X1157314Y730113D02*
Y748113D01*
X1160814Y736113D02*
Y742113D01*
X1157814Y739113D02*
X1163814D01*
X1259444Y683363D02*
X1269444D01*
X1264444Y678363D02*
Y688363D01*
X1023424Y677784D02*
Y684784D01*
X1041424Y677784D02*
Y684784D01*
X1023424D02*
X1041424D01*
X1023424Y677784D02*
X1041424D01*
X1029424Y681284D02*
X1035424D01*
X1032424Y678284D02*
Y684284D01*
X1023424Y668304D02*
Y675304D01*
X1041424Y668304D02*
Y675304D01*
X1023424D02*
X1041424D01*
X1023424Y668304D02*
X1041424D01*
X1029424Y671804D02*
X1035424D01*
X1032424Y668804D02*
Y674804D01*
X1292744Y639003D02*
Y646003D01*
X1310744Y639003D02*
Y646003D01*
X1292744D02*
X1310744D01*
X1292744Y639003D02*
X1310744D01*
X1298744Y642503D02*
X1304744D01*
X1301744Y639503D02*
Y645503D01*
X1292736Y627034D02*
Y634034D01*
X1310736Y627034D02*
Y634034D01*
X1292736D02*
X1310736D01*
X1292736Y627034D02*
X1310736D01*
X1298736Y630534D02*
X1304736D01*
X1301736Y627534D02*
Y633534D01*
X1311794Y649844D02*
Y656844D01*
X1329794Y649844D02*
Y656844D01*
X1311794D02*
X1329794D01*
X1311794Y649844D02*
X1329794D01*
X1317794Y653344D02*
X1323794D01*
X1320794Y650344D02*
Y656344D01*
X1329964Y661274D02*
Y668274D01*
X1311964Y661274D02*
Y668274D01*
Y661274D02*
X1329964D01*
X1311964Y668274D02*
X1329964D01*
X1317964Y664774D02*
X1323964D01*
X1320964Y661774D02*
Y667774D01*
X1262944Y712884D02*
Y719884D01*
X1280944Y712884D02*
Y719884D01*
X1262944D02*
X1280944D01*
X1262944Y712884D02*
X1280944D01*
X1268944Y716384D02*
X1274944D01*
X1271944Y713384D02*
Y719384D01*
X1350314Y710384D02*
X1357314D01*
X1350314Y728384D02*
X1357314D01*
X1350314Y710384D02*
Y728384D01*
X1357314Y710384D02*
Y728384D01*
X1353814Y716384D02*
Y722384D01*
X1350814Y719384D02*
X1356814D01*
X1327064Y689304D02*
X1337064D01*
X1332064Y684304D02*
Y694304D01*
X1323964Y754024D02*
Y760024D01*
X1320964Y757024D02*
X1326964D01*
X1314964Y753524D02*
X1332964D01*
X1314964Y760524D02*
X1332964D01*
Y753524D02*
Y760524D01*
X1314964Y753524D02*
Y760524D01*
X1287314Y711764D02*
X1293314D01*
X1290314Y708764D02*
Y714764D01*
X1286814Y702764D02*
Y720764D01*
X1293814Y702764D02*
Y720764D01*
X1286814Y702764D02*
X1293814D01*
X1286814Y720764D02*
X1293814D01*
X1180714Y769924D02*
Y775924D01*
X1177714Y772924D02*
X1183714D01*
X1171714Y776424D02*
X1189714D01*
X1171714Y769424D02*
X1189714D01*
X1171714D02*
Y776424D01*
X1189714Y769424D02*
Y776424D01*
X1178854Y757024D02*
Y763024D01*
X1175854Y760024D02*
X1181854D01*
X1169854Y763524D02*
X1187854D01*
X1169854Y756524D02*
X1187854D01*
X1169854D02*
Y763524D01*
X1187854Y756524D02*
Y763524D01*
X1159014Y635504D02*
Y642504D01*
X1177014Y635504D02*
Y642504D01*
X1159014D02*
X1177014D01*
X1159014Y635504D02*
X1177014D01*
X1165014Y639004D02*
X1171014D01*
X1168014Y636004D02*
Y642004D01*
X1178854Y748004D02*
Y754004D01*
X1175854Y751004D02*
X1181854D01*
X1169854Y754504D02*
X1187854D01*
X1169854Y747504D02*
X1187854D01*
X1169854D02*
Y754504D01*
X1187854Y747504D02*
Y754504D01*
X1230042Y755963D02*
Y761963D01*
X1227042Y758963D02*
X1233042D01*
X1221042Y755463D02*
X1239042D01*
X1221042Y762463D02*
X1239042D01*
Y755463D02*
Y762463D01*
X1221042Y755463D02*
Y762463D01*
X1339734Y641503D02*
Y648503D01*
X1357734Y641503D02*
Y648503D01*
X1339734D02*
X1357734D01*
X1339734Y641503D02*
X1357734D01*
X1345734Y645003D02*
X1351734D01*
X1348734Y642003D02*
Y648003D01*
X1230042Y739113D02*
X1239542D01*
X1234792Y734363D02*
Y743863D01*
X1240292Y727113D02*
Y751113D01*
X1229292Y727113D02*
Y751113D01*
X1240292D01*
X1229292Y727113D02*
X1240292D01*
X1027114Y688754D02*
Y695754D01*
X1045114Y688754D02*
Y695754D01*
X1027114D02*
X1045114D01*
X1027114Y688754D02*
X1045114D01*
X1033114Y692254D02*
X1039114D01*
X1036114Y689254D02*
Y695254D01*
X1262944Y702503D02*
Y709503D01*
X1280944Y702503D02*
Y709503D01*
X1262944D02*
X1280944D01*
X1262944Y702503D02*
X1280944D01*
X1268944Y706003D02*
X1274944D01*
X1271944Y703003D02*
Y709003D01*
X1294195Y671804D02*
Y678804D01*
X1312195Y671804D02*
Y678804D01*
X1294195D02*
X1312195D01*
X1294195Y671804D02*
X1312195D01*
X1300195Y675304D02*
X1306195D01*
X1303195Y672304D02*
Y678304D01*
X1029174Y622084D02*
Y632084D01*
X1024174Y627084D02*
X1034174D01*
X1311721Y986694D02*
X1317721D01*
X1314721Y983694D02*
Y989694D01*
X1311221Y977694D02*
Y995694D01*
X1318221Y977694D02*
Y995694D01*
X1311221Y977694D02*
X1318221D01*
X1311221Y995694D02*
X1318221D01*
X1302554Y979674D02*
X1308554D01*
X1305554Y976674D02*
Y982674D01*
X1309054Y970674D02*
Y988674D01*
X1302054Y970674D02*
Y988674D01*
X1309054D01*
X1302054Y970674D02*
X1309054D01*
X1036504Y858334D02*
Y865334D01*
X1018504Y858334D02*
Y865334D01*
X1036504D01*
X1018504Y858334D02*
X1036504D01*
X1024504Y861834D02*
X1030504D01*
X1027504Y858834D02*
Y864834D01*
X1158484Y970494D02*
Y977494D01*
X1140484Y970494D02*
Y977494D01*
Y970494D02*
X1158484D01*
X1140484Y977494D02*
X1158484D01*
X1146484Y973994D02*
X1152484D01*
X1149484Y970994D02*
Y976994D01*
X1026195Y848004D02*
Y855004D01*
X1008195Y848004D02*
Y855004D01*
X1026195D01*
X1008195Y848004D02*
X1026195D01*
X1014195Y851504D02*
X1020195D01*
X1017195Y848504D02*
Y854504D01*
X1190294Y900444D02*
X1197294D01*
X1190294Y882444D02*
X1197294D01*
Y900444D01*
X1190294Y882444D02*
Y900444D01*
X1193794Y888444D02*
Y894444D01*
X1190794Y891444D02*
X1196794D01*
X1199104Y900444D02*
X1206104D01*
X1199104Y882444D02*
X1206104D01*
Y900444D01*
X1199104Y882444D02*
Y900444D01*
X1202604Y888444D02*
Y894444D01*
X1199604Y891444D02*
X1205604D01*
X1219304Y812904D02*
Y819904D01*
X1201304Y812904D02*
Y819904D01*
Y812904D02*
X1219304D01*
X1201304Y819904D02*
X1219304D01*
X1207304Y816404D02*
X1213304D01*
X1210304Y813404D02*
Y819404D01*
X1166854Y812904D02*
Y819904D01*
X1184854Y812904D02*
Y819904D01*
X1166854D02*
X1184854D01*
X1166854Y812904D02*
X1184854D01*
X1172854Y816404D02*
X1178854D01*
X1175854Y813404D02*
Y819404D01*
X1185104Y846334D02*
X1195104D01*
X1190104Y841334D02*
Y851334D01*
X1126883Y983454D02*
X1137883D01*
X1126883Y959454D02*
X1137883D01*
Y983454D01*
X1126883Y959454D02*
Y983454D01*
X1132383Y966704D02*
Y976204D01*
X1127633Y971454D02*
X1137133D01*
X1157314Y948113D02*
X1164314D01*
X1157314Y930113D02*
X1164314D01*
Y948113D01*
X1157314Y930113D02*
Y948113D01*
X1160814Y936113D02*
Y942113D01*
X1157814Y939113D02*
X1163814D01*
X1259444Y883363D02*
X1269444D01*
X1264444Y878363D02*
Y888363D01*
X1023424Y877784D02*
Y884784D01*
X1041424Y877784D02*
Y884784D01*
X1023424D02*
X1041424D01*
X1023424Y877784D02*
X1041424D01*
X1029424Y881284D02*
X1035424D01*
X1032424Y878284D02*
Y884284D01*
X1023424Y868304D02*
Y875304D01*
X1041424Y868304D02*
Y875304D01*
X1023424D02*
X1041424D01*
X1023424Y868304D02*
X1041424D01*
X1029424Y871804D02*
X1035424D01*
X1032424Y868804D02*
Y874804D01*
X1292744Y839003D02*
Y846003D01*
X1310744Y839003D02*
Y846003D01*
X1292744D02*
X1310744D01*
X1292744Y839003D02*
X1310744D01*
X1298744Y842503D02*
X1304744D01*
X1301744Y839503D02*
Y845503D01*
X1292736Y827034D02*
Y834034D01*
X1310736Y827034D02*
Y834034D01*
X1292736D02*
X1310736D01*
X1292736Y827034D02*
X1310736D01*
X1298736Y830534D02*
X1304736D01*
X1301736Y827534D02*
Y833534D01*
X1311794Y849844D02*
Y856844D01*
X1329794Y849844D02*
Y856844D01*
X1311794D02*
X1329794D01*
X1311794Y849844D02*
X1329794D01*
X1317794Y853344D02*
X1323794D01*
X1320794Y850344D02*
Y856344D01*
X1329964Y861274D02*
Y868274D01*
X1311964Y861274D02*
Y868274D01*
Y861274D02*
X1329964D01*
X1311964Y868274D02*
X1329964D01*
X1317964Y864774D02*
X1323964D01*
X1320964Y861774D02*
Y867774D01*
X1262944Y912884D02*
Y919884D01*
X1280944Y912884D02*
Y919884D01*
X1262944D02*
X1280944D01*
X1262944Y912884D02*
X1280944D01*
X1268944Y916384D02*
X1274944D01*
X1271944Y913384D02*
Y919384D01*
X1350314Y910384D02*
X1357314D01*
X1350314Y928384D02*
X1357314D01*
X1350314Y910384D02*
Y928384D01*
X1357314Y910384D02*
Y928384D01*
X1353814Y916384D02*
Y922384D01*
X1350814Y919384D02*
X1356814D01*
X1327064Y889304D02*
X1337064D01*
X1332064Y884304D02*
Y894304D01*
X1323964Y954024D02*
Y960024D01*
X1320964Y957024D02*
X1326964D01*
X1314964Y953524D02*
X1332964D01*
X1314964Y960524D02*
X1332964D01*
Y953524D02*
Y960524D01*
X1314964Y953524D02*
Y960524D01*
X1287314Y911764D02*
X1293314D01*
X1290314Y908764D02*
Y914764D01*
X1286814Y902764D02*
Y920764D01*
X1293814Y902764D02*
Y920764D01*
X1286814Y902764D02*
X1293814D01*
X1286814Y920764D02*
X1293814D01*
X1180714Y969924D02*
Y975924D01*
X1177714Y972924D02*
X1183714D01*
X1171714Y976424D02*
X1189714D01*
X1171714Y969424D02*
X1189714D01*
X1171714D02*
Y976424D01*
X1189714Y969424D02*
Y976424D01*
X1178854Y957024D02*
Y963024D01*
X1175854Y960024D02*
X1181854D01*
X1169854Y963524D02*
X1187854D01*
X1169854Y956524D02*
X1187854D01*
X1169854D02*
Y963524D01*
X1187854Y956524D02*
Y963524D01*
X1159014Y835504D02*
Y842504D01*
X1177014Y835504D02*
Y842504D01*
X1159014D02*
X1177014D01*
X1159014Y835504D02*
X1177014D01*
X1165014Y839004D02*
X1171014D01*
X1168014Y836004D02*
Y842004D01*
X1178854Y948004D02*
Y954004D01*
X1175854Y951004D02*
X1181854D01*
X1169854Y954504D02*
X1187854D01*
X1169854Y947504D02*
X1187854D01*
X1169854D02*
Y954504D01*
X1187854Y947504D02*
Y954504D01*
X1230042Y955963D02*
Y961963D01*
X1227042Y958963D02*
X1233042D01*
X1221042Y955463D02*
X1239042D01*
X1221042Y962463D02*
X1239042D01*
Y955463D02*
Y962463D01*
X1221042Y955463D02*
Y962463D01*
X1339734Y841503D02*
Y848503D01*
X1357734Y841503D02*
Y848503D01*
X1339734D02*
X1357734D01*
X1339734Y841503D02*
X1357734D01*
X1345734Y845003D02*
X1351734D01*
X1348734Y842003D02*
Y848003D01*
X1230042Y939113D02*
X1239542D01*
X1234792Y934363D02*
Y943863D01*
X1240292Y927113D02*
Y951113D01*
X1229292Y927113D02*
Y951113D01*
X1240292D01*
X1229292Y927113D02*
X1240292D01*
X1027114Y888754D02*
Y895754D01*
X1045114Y888754D02*
Y895754D01*
X1027114D02*
X1045114D01*
X1027114Y888754D02*
X1045114D01*
X1033114Y892254D02*
X1039114D01*
X1036114Y889254D02*
Y895254D01*
X1262944Y902503D02*
Y909503D01*
X1280944Y902503D02*
Y909503D01*
X1262944D02*
X1280944D01*
X1262944Y902503D02*
X1280944D01*
X1268944Y906003D02*
X1274944D01*
X1271944Y903003D02*
Y909003D01*
X1294195Y871804D02*
Y878804D01*
X1312195Y871804D02*
Y878804D01*
X1294195D02*
X1312195D01*
X1294195Y871804D02*
X1312195D01*
X1300195Y875304D02*
X1306195D01*
X1303195Y872304D02*
Y878304D01*
X1029174Y822084D02*
Y832084D01*
X1024174Y827084D02*
X1034174D01*
X811721Y186694D02*
X817721D01*
X814721Y183694D02*
Y189694D01*
X811221Y177694D02*
Y195694D01*
X818221Y177694D02*
Y195694D01*
X811221Y177694D02*
X818221D01*
X811221Y195694D02*
X818221D01*
X802554Y179674D02*
X808554D01*
X805554Y176674D02*
Y182674D01*
X809054Y170674D02*
Y188674D01*
X802054Y170674D02*
Y188674D01*
X809054D01*
X802054Y170674D02*
X809054D01*
X536504Y58334D02*
Y65334D01*
X518504Y58334D02*
Y65334D01*
X536504D01*
X518504Y58334D02*
X536504D01*
X524504Y61834D02*
X530504D01*
X527504Y58834D02*
Y64834D01*
X658484Y170494D02*
Y177494D01*
X640484Y170494D02*
Y177494D01*
Y170494D02*
X658484D01*
X640484Y177494D02*
X658484D01*
X646484Y173994D02*
X652484D01*
X649484Y170994D02*
Y176994D01*
X526195Y48004D02*
Y55004D01*
X508195Y48004D02*
Y55004D01*
X526195D01*
X508195Y48004D02*
X526195D01*
X514195Y51504D02*
X520195D01*
X517195Y48504D02*
Y54504D01*
X690294Y100444D02*
X697294D01*
X690294Y82444D02*
X697294D01*
Y100444D01*
X690294Y82444D02*
Y100444D01*
X693794Y88444D02*
Y94444D01*
X690794Y91444D02*
X696794D01*
X699104Y100444D02*
X706104D01*
X699104Y82444D02*
X706104D01*
Y100444D01*
X699104Y82444D02*
Y100444D01*
X702604Y88444D02*
Y94444D01*
X699604Y91444D02*
X705604D01*
X719304Y12904D02*
Y19904D01*
X701304Y12904D02*
Y19904D01*
Y12904D02*
X719304D01*
X701304Y19904D02*
X719304D01*
X707304Y16404D02*
X713304D01*
X710304Y13404D02*
Y19404D01*
X666854Y12904D02*
Y19904D01*
X684854Y12904D02*
Y19904D01*
X666854D02*
X684854D01*
X666854Y12904D02*
X684854D01*
X672854Y16404D02*
X678854D01*
X675854Y13404D02*
Y19404D01*
X685104Y46334D02*
X695104D01*
X690104Y41334D02*
Y51334D01*
X626883Y183454D02*
X637883D01*
X626883Y159454D02*
X637883D01*
Y183454D01*
X626883Y159454D02*
Y183454D01*
X632383Y166704D02*
Y176204D01*
X627633Y171454D02*
X637133D01*
X657314Y148113D02*
X664314D01*
X657314Y130113D02*
X664314D01*
Y148113D01*
X657314Y130113D02*
Y148113D01*
X660814Y136113D02*
Y142113D01*
X657814Y139113D02*
X663814D01*
X759444Y83363D02*
X769444D01*
X764444Y78363D02*
Y88363D01*
X523424Y77784D02*
Y84784D01*
X541424Y77784D02*
Y84784D01*
X523424D02*
X541424D01*
X523424Y77784D02*
X541424D01*
X529424Y81284D02*
X535424D01*
X532424Y78284D02*
Y84284D01*
X523424Y68304D02*
Y75304D01*
X541424Y68304D02*
Y75304D01*
X523424D02*
X541424D01*
X523424Y68304D02*
X541424D01*
X529424Y71804D02*
X535424D01*
X532424Y68804D02*
Y74804D01*
X792744Y39003D02*
Y46003D01*
X810744Y39003D02*
Y46003D01*
X792744D02*
X810744D01*
X792744Y39003D02*
X810744D01*
X798744Y42503D02*
X804744D01*
X801744Y39503D02*
Y45503D01*
X792736Y27034D02*
Y34034D01*
X810736Y27034D02*
Y34034D01*
X792736D02*
X810736D01*
X792736Y27034D02*
X810736D01*
X798736Y30534D02*
X804736D01*
X801736Y27534D02*
Y33534D01*
X811794Y49844D02*
Y56844D01*
X829794Y49844D02*
Y56844D01*
X811794D02*
X829794D01*
X811794Y49844D02*
X829794D01*
X817794Y53344D02*
X823794D01*
X820794Y50344D02*
Y56344D01*
X829964Y61274D02*
Y68274D01*
X811964Y61274D02*
Y68274D01*
Y61274D02*
X829964D01*
X811964Y68274D02*
X829964D01*
X817964Y64774D02*
X823964D01*
X820964Y61774D02*
Y67774D01*
X762944Y112884D02*
Y119884D01*
X780944Y112884D02*
Y119884D01*
X762944D02*
X780944D01*
X762944Y112884D02*
X780944D01*
X768944Y116384D02*
X774944D01*
X771944Y113384D02*
Y119384D01*
X850314Y110384D02*
X857314D01*
X850314Y128384D02*
X857314D01*
X850314Y110384D02*
Y128384D01*
X857314Y110384D02*
Y128384D01*
X853814Y116384D02*
Y122384D01*
X850814Y119384D02*
X856814D01*
X827064Y89304D02*
X837064D01*
X832064Y84304D02*
Y94304D01*
X823964Y154024D02*
Y160024D01*
X820964Y157024D02*
X826964D01*
X814964Y153524D02*
X832964D01*
X814964Y160524D02*
X832964D01*
Y153524D02*
Y160524D01*
X814964Y153524D02*
Y160524D01*
X787314Y111764D02*
X793314D01*
X790314Y108764D02*
Y114764D01*
X786814Y102764D02*
Y120764D01*
X793814Y102764D02*
Y120764D01*
X786814Y102764D02*
X793814D01*
X786814Y120764D02*
X793814D01*
X680714Y169924D02*
Y175924D01*
X677714Y172924D02*
X683714D01*
X671714Y176424D02*
X689714D01*
X671714Y169424D02*
X689714D01*
X671714D02*
Y176424D01*
X689714Y169424D02*
Y176424D01*
X678854Y157024D02*
Y163024D01*
X675854Y160024D02*
X681854D01*
X669854Y163524D02*
X687854D01*
X669854Y156524D02*
X687854D01*
X669854D02*
Y163524D01*
X687854Y156524D02*
Y163524D01*
X659014Y35504D02*
Y42504D01*
X677014Y35504D02*
Y42504D01*
X659014D02*
X677014D01*
X659014Y35504D02*
X677014D01*
X665014Y39004D02*
X671014D01*
X668014Y36004D02*
Y42004D01*
X678854Y148004D02*
Y154004D01*
X675854Y151004D02*
X681854D01*
X669854Y154504D02*
X687854D01*
X669854Y147504D02*
X687854D01*
X669854D02*
Y154504D01*
X687854Y147504D02*
Y154504D01*
X730042Y155963D02*
Y161963D01*
X727042Y158963D02*
X733042D01*
X721042Y155463D02*
X739042D01*
X721042Y162463D02*
X739042D01*
Y155463D02*
Y162463D01*
X721042Y155463D02*
Y162463D01*
X839734Y41503D02*
Y48503D01*
X857734Y41503D02*
Y48503D01*
X839734D02*
X857734D01*
X839734Y41503D02*
X857734D01*
X845734Y45003D02*
X851734D01*
X848734Y42003D02*
Y48003D01*
X730042Y139113D02*
X739542D01*
X734792Y134363D02*
Y143863D01*
X740292Y127113D02*
Y151113D01*
X729292Y127113D02*
Y151113D01*
X740292D01*
X729292Y127113D02*
X740292D01*
X527114Y88754D02*
Y95754D01*
X545114Y88754D02*
Y95754D01*
X527114D02*
X545114D01*
X527114Y88754D02*
X545114D01*
X533114Y92254D02*
X539114D01*
X536114Y89254D02*
Y95254D01*
X762944Y102503D02*
Y109503D01*
X780944Y102503D02*
Y109503D01*
X762944D02*
X780944D01*
X762944Y102503D02*
X780944D01*
X768944Y106003D02*
X774944D01*
X771944Y103003D02*
Y109003D01*
X794195Y71804D02*
Y78804D01*
X812195Y71804D02*
Y78804D01*
X794195D02*
X812195D01*
X794195Y71804D02*
X812195D01*
X800195Y75304D02*
X806195D01*
X803195Y72304D02*
Y78304D01*
X529174Y22084D02*
Y32084D01*
X524174Y27084D02*
X534174D01*
X811721Y386694D02*
X817721D01*
X814721Y383694D02*
Y389694D01*
X811221Y377694D02*
Y395694D01*
X818221Y377694D02*
Y395694D01*
X811221Y377694D02*
X818221D01*
X811221Y395694D02*
X818221D01*
X802554Y379674D02*
X808554D01*
X805554Y376674D02*
Y382674D01*
X809054Y370674D02*
Y388674D01*
X802054Y370674D02*
Y388674D01*
X809054D01*
X802054Y370674D02*
X809054D01*
X536504Y258334D02*
Y265334D01*
X518504Y258334D02*
Y265334D01*
X536504D01*
X518504Y258334D02*
X536504D01*
X524504Y261834D02*
X530504D01*
X527504Y258834D02*
Y264834D01*
X658484Y370494D02*
Y377494D01*
X640484Y370494D02*
Y377494D01*
Y370494D02*
X658484D01*
X640484Y377494D02*
X658484D01*
X646484Y373994D02*
X652484D01*
X649484Y370994D02*
Y376994D01*
X526195Y248004D02*
Y255004D01*
X508195Y248004D02*
Y255004D01*
X526195D01*
X508195Y248004D02*
X526195D01*
X514195Y251504D02*
X520195D01*
X517195Y248504D02*
Y254504D01*
X690294Y300444D02*
X697294D01*
X690294Y282444D02*
X697294D01*
Y300444D01*
X690294Y282444D02*
Y300444D01*
X693794Y288444D02*
Y294444D01*
X690794Y291444D02*
X696794D01*
X699104Y300444D02*
X706104D01*
X699104Y282444D02*
X706104D01*
Y300444D01*
X699104Y282444D02*
Y300444D01*
X702604Y288444D02*
Y294444D01*
X699604Y291444D02*
X705604D01*
X719304Y212904D02*
Y219904D01*
X701304Y212904D02*
Y219904D01*
Y212904D02*
X719304D01*
X701304Y219904D02*
X719304D01*
X707304Y216404D02*
X713304D01*
X710304Y213404D02*
Y219404D01*
X666854Y212904D02*
Y219904D01*
X684854Y212904D02*
Y219904D01*
X666854D02*
X684854D01*
X666854Y212904D02*
X684854D01*
X672854Y216404D02*
X678854D01*
X675854Y213404D02*
Y219404D01*
X685104Y246334D02*
X695104D01*
X690104Y241334D02*
Y251334D01*
X626883Y383454D02*
X637883D01*
X626883Y359454D02*
X637883D01*
Y383454D01*
X626883Y359454D02*
Y383454D01*
X632383Y366704D02*
Y376204D01*
X627633Y371454D02*
X637133D01*
X657314Y348113D02*
X664314D01*
X657314Y330113D02*
X664314D01*
Y348113D01*
X657314Y330113D02*
Y348113D01*
X660814Y336113D02*
Y342113D01*
X657814Y339113D02*
X663814D01*
X759444Y283363D02*
X769444D01*
X764444Y278363D02*
Y288363D01*
X523424Y277784D02*
Y284784D01*
X541424Y277784D02*
Y284784D01*
X523424D02*
X541424D01*
X523424Y277784D02*
X541424D01*
X529424Y281284D02*
X535424D01*
X532424Y278284D02*
Y284284D01*
X523424Y268304D02*
Y275304D01*
X541424Y268304D02*
Y275304D01*
X523424D02*
X541424D01*
X523424Y268304D02*
X541424D01*
X529424Y271804D02*
X535424D01*
X532424Y268804D02*
Y274804D01*
X792744Y239003D02*
Y246003D01*
X810744Y239003D02*
Y246003D01*
X792744D02*
X810744D01*
X792744Y239003D02*
X810744D01*
X798744Y242503D02*
X804744D01*
X801744Y239503D02*
Y245503D01*
X792736Y227034D02*
Y234034D01*
X810736Y227034D02*
Y234034D01*
X792736D02*
X810736D01*
X792736Y227034D02*
X810736D01*
X798736Y230534D02*
X804736D01*
X801736Y227534D02*
Y233534D01*
X811794Y249844D02*
Y256844D01*
X829794Y249844D02*
Y256844D01*
X811794D02*
X829794D01*
X811794Y249844D02*
X829794D01*
X817794Y253344D02*
X823794D01*
X820794Y250344D02*
Y256344D01*
X829964Y261274D02*
Y268274D01*
X811964Y261274D02*
Y268274D01*
Y261274D02*
X829964D01*
X811964Y268274D02*
X829964D01*
X817964Y264774D02*
X823964D01*
X820964Y261774D02*
Y267774D01*
X762944Y312884D02*
Y319884D01*
X780944Y312884D02*
Y319884D01*
X762944D02*
X780944D01*
X762944Y312884D02*
X780944D01*
X768944Y316384D02*
X774944D01*
X771944Y313384D02*
Y319384D01*
X850314Y310384D02*
X857314D01*
X850314Y328384D02*
X857314D01*
X850314Y310384D02*
Y328384D01*
X857314Y310384D02*
Y328384D01*
X853814Y316384D02*
Y322384D01*
X850814Y319384D02*
X856814D01*
X827064Y289304D02*
X837064D01*
X832064Y284304D02*
Y294304D01*
X823964Y354024D02*
Y360024D01*
X820964Y357024D02*
X826964D01*
X814964Y353524D02*
X832964D01*
X814964Y360524D02*
X832964D01*
Y353524D02*
Y360524D01*
X814964Y353524D02*
Y360524D01*
X787314Y311764D02*
X793314D01*
X790314Y308764D02*
Y314764D01*
X786814Y302764D02*
Y320764D01*
X793814Y302764D02*
Y320764D01*
X786814Y302764D02*
X793814D01*
X786814Y320764D02*
X793814D01*
X680714Y369924D02*
Y375924D01*
X677714Y372924D02*
X683714D01*
X671714Y376424D02*
X689714D01*
X671714Y369424D02*
X689714D01*
X671714D02*
Y376424D01*
X689714Y369424D02*
Y376424D01*
X678854Y357024D02*
Y363024D01*
X675854Y360024D02*
X681854D01*
X669854Y363524D02*
X687854D01*
X669854Y356524D02*
X687854D01*
X669854D02*
Y363524D01*
X687854Y356524D02*
Y363524D01*
X659014Y235504D02*
Y242504D01*
X677014Y235504D02*
Y242504D01*
X659014D02*
X677014D01*
X659014Y235504D02*
X677014D01*
X665014Y239004D02*
X671014D01*
X668014Y236004D02*
Y242004D01*
X678854Y348004D02*
Y354004D01*
X675854Y351004D02*
X681854D01*
X669854Y354504D02*
X687854D01*
X669854Y347504D02*
X687854D01*
X669854D02*
Y354504D01*
X687854Y347504D02*
Y354504D01*
X730042Y355963D02*
Y361963D01*
X727042Y358963D02*
X733042D01*
X721042Y355463D02*
X739042D01*
X721042Y362463D02*
X739042D01*
Y355463D02*
Y362463D01*
X721042Y355463D02*
Y362463D01*
X839734Y241503D02*
Y248503D01*
X857734Y241503D02*
Y248503D01*
X839734D02*
X857734D01*
X839734Y241503D02*
X857734D01*
X845734Y245003D02*
X851734D01*
X848734Y242003D02*
Y248003D01*
X730042Y339113D02*
X739542D01*
X734792Y334363D02*
Y343863D01*
X740292Y327113D02*
Y351113D01*
X729292Y327113D02*
Y351113D01*
X740292D01*
X729292Y327113D02*
X740292D01*
X527114Y288754D02*
Y295754D01*
X545114Y288754D02*
Y295754D01*
X527114D02*
X545114D01*
X527114Y288754D02*
X545114D01*
X533114Y292254D02*
X539114D01*
X536114Y289254D02*
Y295254D01*
X762944Y302503D02*
Y309503D01*
X780944Y302503D02*
Y309503D01*
X762944D02*
X780944D01*
X762944Y302503D02*
X780944D01*
X768944Y306003D02*
X774944D01*
X771944Y303003D02*
Y309003D01*
X794195Y271804D02*
Y278804D01*
X812195Y271804D02*
Y278804D01*
X794195D02*
X812195D01*
X794195Y271804D02*
X812195D01*
X800195Y275304D02*
X806195D01*
X803195Y272304D02*
Y278304D01*
X529174Y222084D02*
Y232084D01*
X524174Y227084D02*
X534174D01*
X811721Y586694D02*
X817721D01*
X814721Y583694D02*
Y589694D01*
X811221Y577694D02*
Y595694D01*
X818221Y577694D02*
Y595694D01*
X811221Y577694D02*
X818221D01*
X811221Y595694D02*
X818221D01*
X802554Y579674D02*
X808554D01*
X805554Y576674D02*
Y582674D01*
X809054Y570674D02*
Y588674D01*
X802054Y570674D02*
Y588674D01*
X809054D01*
X802054Y570674D02*
X809054D01*
X536504Y458334D02*
Y465334D01*
X518504Y458334D02*
Y465334D01*
X536504D01*
X518504Y458334D02*
X536504D01*
X524504Y461834D02*
X530504D01*
X527504Y458834D02*
Y464834D01*
X658484Y570494D02*
Y577494D01*
X640484Y570494D02*
Y577494D01*
Y570494D02*
X658484D01*
X640484Y577494D02*
X658484D01*
X646484Y573994D02*
X652484D01*
X649484Y570994D02*
Y576994D01*
X526195Y448004D02*
Y455004D01*
X508195Y448004D02*
Y455004D01*
X526195D01*
X508195Y448004D02*
X526195D01*
X514195Y451504D02*
X520195D01*
X517195Y448504D02*
Y454504D01*
X690294Y500444D02*
X697294D01*
X690294Y482444D02*
X697294D01*
Y500444D01*
X690294Y482444D02*
Y500444D01*
X693794Y488444D02*
Y494444D01*
X690794Y491444D02*
X696794D01*
X699104Y500444D02*
X706104D01*
X699104Y482444D02*
X706104D01*
Y500444D01*
X699104Y482444D02*
Y500444D01*
X702604Y488444D02*
Y494444D01*
X699604Y491444D02*
X705604D01*
X719304Y412904D02*
Y419904D01*
X701304Y412904D02*
Y419904D01*
Y412904D02*
X719304D01*
X701304Y419904D02*
X719304D01*
X707304Y416404D02*
X713304D01*
X710304Y413404D02*
Y419404D01*
X666854Y412904D02*
Y419904D01*
X684854Y412904D02*
Y419904D01*
X666854D02*
X684854D01*
X666854Y412904D02*
X684854D01*
X672854Y416404D02*
X678854D01*
X675854Y413404D02*
Y419404D01*
X685104Y446334D02*
X695104D01*
X690104Y441334D02*
Y451334D01*
X626883Y583454D02*
X637883D01*
X626883Y559454D02*
X637883D01*
Y583454D01*
X626883Y559454D02*
Y583454D01*
X632383Y566704D02*
Y576204D01*
X627633Y571454D02*
X637133D01*
X657314Y548113D02*
X664314D01*
X657314Y530113D02*
X664314D01*
Y548113D01*
X657314Y530113D02*
Y548113D01*
X660814Y536113D02*
Y542113D01*
X657814Y539113D02*
X663814D01*
X759444Y483363D02*
X769444D01*
X764444Y478363D02*
Y488363D01*
X523424Y477784D02*
Y484784D01*
X541424Y477784D02*
Y484784D01*
X523424D02*
X541424D01*
X523424Y477784D02*
X541424D01*
X529424Y481284D02*
X535424D01*
X532424Y478284D02*
Y484284D01*
X523424Y468304D02*
Y475304D01*
X541424Y468304D02*
Y475304D01*
X523424D02*
X541424D01*
X523424Y468304D02*
X541424D01*
X529424Y471804D02*
X535424D01*
X532424Y468804D02*
Y474804D01*
X792744Y439003D02*
Y446003D01*
X810744Y439003D02*
Y446003D01*
X792744D02*
X810744D01*
X792744Y439003D02*
X810744D01*
X798744Y442503D02*
X804744D01*
X801744Y439503D02*
Y445503D01*
X792736Y427034D02*
Y434034D01*
X810736Y427034D02*
Y434034D01*
X792736D02*
X810736D01*
X792736Y427034D02*
X810736D01*
X798736Y430534D02*
X804736D01*
X801736Y427534D02*
Y433534D01*
X811794Y449844D02*
Y456844D01*
X829794Y449844D02*
Y456844D01*
X811794D02*
X829794D01*
X811794Y449844D02*
X829794D01*
X817794Y453344D02*
X823794D01*
X820794Y450344D02*
Y456344D01*
X829964Y461274D02*
Y468274D01*
X811964Y461274D02*
Y468274D01*
Y461274D02*
X829964D01*
X811964Y468274D02*
X829964D01*
X817964Y464774D02*
X823964D01*
X820964Y461774D02*
Y467774D01*
X762944Y512884D02*
Y519884D01*
X780944Y512884D02*
Y519884D01*
X762944D02*
X780944D01*
X762944Y512884D02*
X780944D01*
X768944Y516384D02*
X774944D01*
X771944Y513384D02*
Y519384D01*
X850314Y510384D02*
X857314D01*
X850314Y528384D02*
X857314D01*
X850314Y510384D02*
Y528384D01*
X857314Y510384D02*
Y528384D01*
X853814Y516384D02*
Y522384D01*
X850814Y519384D02*
X856814D01*
X827064Y489304D02*
X837064D01*
X832064Y484304D02*
Y494304D01*
X823964Y554024D02*
Y560024D01*
X820964Y557024D02*
X826964D01*
X814964Y553524D02*
X832964D01*
X814964Y560524D02*
X832964D01*
Y553524D02*
Y560524D01*
X814964Y553524D02*
Y560524D01*
X787314Y511764D02*
X793314D01*
X790314Y508764D02*
Y514764D01*
X786814Y502764D02*
Y520764D01*
X793814Y502764D02*
Y520764D01*
X786814Y502764D02*
X793814D01*
X786814Y520764D02*
X793814D01*
X680714Y569924D02*
Y575924D01*
X677714Y572924D02*
X683714D01*
X671714Y576424D02*
X689714D01*
X671714Y569424D02*
X689714D01*
X671714D02*
Y576424D01*
X689714Y569424D02*
Y576424D01*
X678854Y557024D02*
Y563024D01*
X675854Y560024D02*
X681854D01*
X669854Y563524D02*
X687854D01*
X669854Y556524D02*
X687854D01*
X669854D02*
Y563524D01*
X687854Y556524D02*
Y563524D01*
X659014Y435504D02*
Y442504D01*
X677014Y435504D02*
Y442504D01*
X659014D02*
X677014D01*
X659014Y435504D02*
X677014D01*
X665014Y439004D02*
X671014D01*
X668014Y436004D02*
Y442004D01*
X678854Y548004D02*
Y554004D01*
X675854Y551004D02*
X681854D01*
X669854Y554504D02*
X687854D01*
X669854Y547504D02*
X687854D01*
X669854D02*
Y554504D01*
X687854Y547504D02*
Y554504D01*
X730042Y555963D02*
Y561963D01*
X727042Y558963D02*
X733042D01*
X721042Y555463D02*
X739042D01*
X721042Y562463D02*
X739042D01*
Y555463D02*
Y562463D01*
X721042Y555463D02*
Y562463D01*
X839734Y441503D02*
Y448503D01*
X857734Y441503D02*
Y448503D01*
X839734D02*
X857734D01*
X839734Y441503D02*
X857734D01*
X845734Y445003D02*
X851734D01*
X848734Y442003D02*
Y448003D01*
X730042Y539113D02*
X739542D01*
X734792Y534363D02*
Y543863D01*
X740292Y527113D02*
Y551113D01*
X729292Y527113D02*
Y551113D01*
X740292D01*
X729292Y527113D02*
X740292D01*
X527114Y488754D02*
Y495754D01*
X545114Y488754D02*
Y495754D01*
X527114D02*
X545114D01*
X527114Y488754D02*
X545114D01*
X533114Y492254D02*
X539114D01*
X536114Y489254D02*
Y495254D01*
X762944Y502503D02*
Y509503D01*
X780944Y502503D02*
Y509503D01*
X762944D02*
X780944D01*
X762944Y502503D02*
X780944D01*
X768944Y506003D02*
X774944D01*
X771944Y503003D02*
Y509003D01*
X794195Y471804D02*
Y478804D01*
X812195Y471804D02*
Y478804D01*
X794195D02*
X812195D01*
X794195Y471804D02*
X812195D01*
X800195Y475304D02*
X806195D01*
X803195Y472304D02*
Y478304D01*
X529174Y422084D02*
Y432084D01*
X524174Y427084D02*
X534174D01*
X811721Y786694D02*
X817721D01*
X814721Y783694D02*
Y789694D01*
X811221Y777694D02*
Y795694D01*
X818221Y777694D02*
Y795694D01*
X811221Y777694D02*
X818221D01*
X811221Y795694D02*
X818221D01*
X802554Y779674D02*
X808554D01*
X805554Y776674D02*
Y782674D01*
X809054Y770674D02*
Y788674D01*
X802054Y770674D02*
Y788674D01*
X809054D01*
X802054Y770674D02*
X809054D01*
X536504Y658334D02*
Y665334D01*
X518504Y658334D02*
Y665334D01*
X536504D01*
X518504Y658334D02*
X536504D01*
X524504Y661834D02*
X530504D01*
X527504Y658834D02*
Y664834D01*
X658484Y770494D02*
Y777494D01*
X640484Y770494D02*
Y777494D01*
Y770494D02*
X658484D01*
X640484Y777494D02*
X658484D01*
X646484Y773994D02*
X652484D01*
X649484Y770994D02*
Y776994D01*
X526195Y648004D02*
Y655004D01*
X508195Y648004D02*
Y655004D01*
X526195D01*
X508195Y648004D02*
X526195D01*
X514195Y651504D02*
X520195D01*
X517195Y648504D02*
Y654504D01*
X690294Y700444D02*
X697294D01*
X690294Y682444D02*
X697294D01*
Y700444D01*
X690294Y682444D02*
Y700444D01*
X693794Y688444D02*
Y694444D01*
X690794Y691444D02*
X696794D01*
X699104Y700444D02*
X706104D01*
X699104Y682444D02*
X706104D01*
Y700444D01*
X699104Y682444D02*
Y700444D01*
X702604Y688444D02*
Y694444D01*
X699604Y691444D02*
X705604D01*
X719304Y612904D02*
Y619904D01*
X701304Y612904D02*
Y619904D01*
Y612904D02*
X719304D01*
X701304Y619904D02*
X719304D01*
X707304Y616404D02*
X713304D01*
X710304Y613404D02*
Y619404D01*
X666854Y612904D02*
Y619904D01*
X684854Y612904D02*
Y619904D01*
X666854D02*
X684854D01*
X666854Y612904D02*
X684854D01*
X672854Y616404D02*
X678854D01*
X675854Y613404D02*
Y619404D01*
X685104Y646334D02*
X695104D01*
X690104Y641334D02*
Y651334D01*
X626883Y783454D02*
X637883D01*
X626883Y759454D02*
X637883D01*
Y783454D01*
X626883Y759454D02*
Y783454D01*
X632383Y766704D02*
Y776204D01*
X627633Y771454D02*
X637133D01*
X657314Y748113D02*
X664314D01*
X657314Y730113D02*
X664314D01*
Y748113D01*
X657314Y730113D02*
Y748113D01*
X660814Y736113D02*
Y742113D01*
X657814Y739113D02*
X663814D01*
X759444Y683363D02*
X769444D01*
X764444Y678363D02*
Y688363D01*
X523424Y677784D02*
Y684784D01*
X541424Y677784D02*
Y684784D01*
X523424D02*
X541424D01*
X523424Y677784D02*
X541424D01*
X529424Y681284D02*
X535424D01*
X532424Y678284D02*
Y684284D01*
X523424Y668304D02*
Y675304D01*
X541424Y668304D02*
Y675304D01*
X523424D02*
X541424D01*
X523424Y668304D02*
X541424D01*
X529424Y671804D02*
X535424D01*
X532424Y668804D02*
Y674804D01*
X792744Y639003D02*
Y646003D01*
X810744Y639003D02*
Y646003D01*
X792744D02*
X810744D01*
X792744Y639003D02*
X810744D01*
X798744Y642503D02*
X804744D01*
X801744Y639503D02*
Y645503D01*
X792736Y627034D02*
Y634034D01*
X810736Y627034D02*
Y634034D01*
X792736D02*
X810736D01*
X792736Y627034D02*
X810736D01*
X798736Y630534D02*
X804736D01*
X801736Y627534D02*
Y633534D01*
X811794Y649844D02*
Y656844D01*
X829794Y649844D02*
Y656844D01*
X811794D02*
X829794D01*
X811794Y649844D02*
X829794D01*
X817794Y653344D02*
X823794D01*
X820794Y650344D02*
Y656344D01*
X829964Y661274D02*
Y668274D01*
X811964Y661274D02*
Y668274D01*
Y661274D02*
X829964D01*
X811964Y668274D02*
X829964D01*
X817964Y664774D02*
X823964D01*
X820964Y661774D02*
Y667774D01*
X762944Y712884D02*
Y719884D01*
X780944Y712884D02*
Y719884D01*
X762944D02*
X780944D01*
X762944Y712884D02*
X780944D01*
X768944Y716384D02*
X774944D01*
X771944Y713384D02*
Y719384D01*
X850314Y710384D02*
X857314D01*
X850314Y728384D02*
X857314D01*
X850314Y710384D02*
Y728384D01*
X857314Y710384D02*
Y728384D01*
X853814Y716384D02*
Y722384D01*
X850814Y719384D02*
X856814D01*
X827064Y689304D02*
X837064D01*
X832064Y684304D02*
Y694304D01*
X823964Y754024D02*
Y760024D01*
X820964Y757024D02*
X826964D01*
X814964Y753524D02*
X832964D01*
X814964Y760524D02*
X832964D01*
Y753524D02*
Y760524D01*
X814964Y753524D02*
Y760524D01*
X787314Y711764D02*
X793314D01*
X790314Y708764D02*
Y714764D01*
X786814Y702764D02*
Y720764D01*
X793814Y702764D02*
Y720764D01*
X786814Y702764D02*
X793814D01*
X786814Y720764D02*
X793814D01*
X680714Y769924D02*
Y775924D01*
X677714Y772924D02*
X683714D01*
X671714Y776424D02*
X689714D01*
X671714Y769424D02*
X689714D01*
X671714D02*
Y776424D01*
X689714Y769424D02*
Y776424D01*
X678854Y757024D02*
Y763024D01*
X675854Y760024D02*
X681854D01*
X669854Y763524D02*
X687854D01*
X669854Y756524D02*
X687854D01*
X669854D02*
Y763524D01*
X687854Y756524D02*
Y763524D01*
X659014Y635504D02*
Y642504D01*
X677014Y635504D02*
Y642504D01*
X659014D02*
X677014D01*
X659014Y635504D02*
X677014D01*
X665014Y639004D02*
X671014D01*
X668014Y636004D02*
Y642004D01*
X678854Y748004D02*
Y754004D01*
X675854Y751004D02*
X681854D01*
X669854Y754504D02*
X687854D01*
X669854Y747504D02*
X687854D01*
X669854D02*
Y754504D01*
X687854Y747504D02*
Y754504D01*
X730042Y755963D02*
Y761963D01*
X727042Y758963D02*
X733042D01*
X721042Y755463D02*
X739042D01*
X721042Y762463D02*
X739042D01*
Y755463D02*
Y762463D01*
X721042Y755463D02*
Y762463D01*
X839734Y641503D02*
Y648503D01*
X857734Y641503D02*
Y648503D01*
X839734D02*
X857734D01*
X839734Y641503D02*
X857734D01*
X845734Y645003D02*
X851734D01*
X848734Y642003D02*
Y648003D01*
X730042Y739113D02*
X739542D01*
X734792Y734363D02*
Y743863D01*
X740292Y727113D02*
Y751113D01*
X729292Y727113D02*
Y751113D01*
X740292D01*
X729292Y727113D02*
X740292D01*
X527114Y688754D02*
Y695754D01*
X545114Y688754D02*
Y695754D01*
X527114D02*
X545114D01*
X527114Y688754D02*
X545114D01*
X533114Y692254D02*
X539114D01*
X536114Y689254D02*
Y695254D01*
X762944Y702503D02*
Y709503D01*
X780944Y702503D02*
Y709503D01*
X762944D02*
X780944D01*
X762944Y702503D02*
X780944D01*
X768944Y706003D02*
X774944D01*
X771944Y703003D02*
Y709003D01*
X794195Y671804D02*
Y678804D01*
X812195Y671804D02*
Y678804D01*
X794195D02*
X812195D01*
X794195Y671804D02*
X812195D01*
X800195Y675304D02*
X806195D01*
X803195Y672304D02*
Y678304D01*
X529174Y622084D02*
Y632084D01*
X524174Y627084D02*
X534174D01*
X811721Y986694D02*
X817721D01*
X814721Y983694D02*
Y989694D01*
X811221Y977694D02*
Y995694D01*
X818221Y977694D02*
Y995694D01*
X811221Y977694D02*
X818221D01*
X811221Y995694D02*
X818221D01*
X802554Y979674D02*
X808554D01*
X805554Y976674D02*
Y982674D01*
X809054Y970674D02*
Y988674D01*
X802054Y970674D02*
Y988674D01*
X809054D01*
X802054Y970674D02*
X809054D01*
X536504Y858334D02*
Y865334D01*
X518504Y858334D02*
Y865334D01*
X536504D01*
X518504Y858334D02*
X536504D01*
X524504Y861834D02*
X530504D01*
X527504Y858834D02*
Y864834D01*
X658484Y970494D02*
Y977494D01*
X640484Y970494D02*
Y977494D01*
Y970494D02*
X658484D01*
X640484Y977494D02*
X658484D01*
X646484Y973994D02*
X652484D01*
X649484Y970994D02*
Y976994D01*
X526195Y848004D02*
Y855004D01*
X508195Y848004D02*
Y855004D01*
X526195D01*
X508195Y848004D02*
X526195D01*
X514195Y851504D02*
X520195D01*
X517195Y848504D02*
Y854504D01*
X690294Y900444D02*
X697294D01*
X690294Y882444D02*
X697294D01*
Y900444D01*
X690294Y882444D02*
Y900444D01*
X693794Y888444D02*
Y894444D01*
X690794Y891444D02*
X696794D01*
X699104Y900444D02*
X706104D01*
X699104Y882444D02*
X706104D01*
Y900444D01*
X699104Y882444D02*
Y900444D01*
X702604Y888444D02*
Y894444D01*
X699604Y891444D02*
X705604D01*
X719304Y812904D02*
Y819904D01*
X701304Y812904D02*
Y819904D01*
Y812904D02*
X719304D01*
X701304Y819904D02*
X719304D01*
X707304Y816404D02*
X713304D01*
X710304Y813404D02*
Y819404D01*
X666854Y812904D02*
Y819904D01*
X684854Y812904D02*
Y819904D01*
X666854D02*
X684854D01*
X666854Y812904D02*
X684854D01*
X672854Y816404D02*
X678854D01*
X675854Y813404D02*
Y819404D01*
X685104Y846334D02*
X695104D01*
X690104Y841334D02*
Y851334D01*
X626883Y983454D02*
X637883D01*
X626883Y959454D02*
X637883D01*
Y983454D01*
X626883Y959454D02*
Y983454D01*
X632383Y966704D02*
Y976204D01*
X627633Y971454D02*
X637133D01*
X657314Y948113D02*
X664314D01*
X657314Y930113D02*
X664314D01*
Y948113D01*
X657314Y930113D02*
Y948113D01*
X660814Y936113D02*
Y942113D01*
X657814Y939113D02*
X663814D01*
X759444Y883363D02*
X769444D01*
X764444Y878363D02*
Y888363D01*
X523424Y877784D02*
Y884784D01*
X541424Y877784D02*
Y884784D01*
X523424D02*
X541424D01*
X523424Y877784D02*
X541424D01*
X529424Y881284D02*
X535424D01*
X532424Y878284D02*
Y884284D01*
X523424Y868304D02*
Y875304D01*
X541424Y868304D02*
Y875304D01*
X523424D02*
X541424D01*
X523424Y868304D02*
X541424D01*
X529424Y871804D02*
X535424D01*
X532424Y868804D02*
Y874804D01*
X792744Y839003D02*
Y846003D01*
X810744Y839003D02*
Y846003D01*
X792744D02*
X810744D01*
X792744Y839003D02*
X810744D01*
X798744Y842503D02*
X804744D01*
X801744Y839503D02*
Y845503D01*
X792736Y827034D02*
Y834034D01*
X810736Y827034D02*
Y834034D01*
X792736D02*
X810736D01*
X792736Y827034D02*
X810736D01*
X798736Y830534D02*
X804736D01*
X801736Y827534D02*
Y833534D01*
X811794Y849844D02*
Y856844D01*
X829794Y849844D02*
Y856844D01*
X811794D02*
X829794D01*
X811794Y849844D02*
X829794D01*
X817794Y853344D02*
X823794D01*
X820794Y850344D02*
Y856344D01*
X829964Y861274D02*
Y868274D01*
X811964Y861274D02*
Y868274D01*
Y861274D02*
X829964D01*
X811964Y868274D02*
X829964D01*
X817964Y864774D02*
X823964D01*
X820964Y861774D02*
Y867774D01*
X762944Y912884D02*
Y919884D01*
X780944Y912884D02*
Y919884D01*
X762944D02*
X780944D01*
X762944Y912884D02*
X780944D01*
X768944Y916384D02*
X774944D01*
X771944Y913384D02*
Y919384D01*
X850314Y910384D02*
X857314D01*
X850314Y928384D02*
X857314D01*
X850314Y910384D02*
Y928384D01*
X857314Y910384D02*
Y928384D01*
X853814Y916384D02*
Y922384D01*
X850814Y919384D02*
X856814D01*
X827064Y889304D02*
X837064D01*
X832064Y884304D02*
Y894304D01*
X823964Y954024D02*
Y960024D01*
X820964Y957024D02*
X826964D01*
X814964Y953524D02*
X832964D01*
X814964Y960524D02*
X832964D01*
Y953524D02*
Y960524D01*
X814964Y953524D02*
Y960524D01*
X787314Y911764D02*
X793314D01*
X790314Y908764D02*
Y914764D01*
X786814Y902764D02*
Y920764D01*
X793814Y902764D02*
Y920764D01*
X786814Y902764D02*
X793814D01*
X786814Y920764D02*
X793814D01*
X680714Y969924D02*
Y975924D01*
X677714Y972924D02*
X683714D01*
X671714Y976424D02*
X689714D01*
X671714Y969424D02*
X689714D01*
X671714D02*
Y976424D01*
X689714Y969424D02*
Y976424D01*
X678854Y957024D02*
Y963024D01*
X675854Y960024D02*
X681854D01*
X669854Y963524D02*
X687854D01*
X669854Y956524D02*
X687854D01*
X669854D02*
Y963524D01*
X687854Y956524D02*
Y963524D01*
X659014Y835504D02*
Y842504D01*
X677014Y835504D02*
Y842504D01*
X659014D02*
X677014D01*
X659014Y835504D02*
X677014D01*
X665014Y839004D02*
X671014D01*
X668014Y836004D02*
Y842004D01*
X678854Y948004D02*
Y954004D01*
X675854Y951004D02*
X681854D01*
X669854Y954504D02*
X687854D01*
X669854Y947504D02*
X687854D01*
X669854D02*
Y954504D01*
X687854Y947504D02*
Y954504D01*
X730042Y955963D02*
Y961963D01*
X727042Y958963D02*
X733042D01*
X721042Y955463D02*
X739042D01*
X721042Y962463D02*
X739042D01*
Y955463D02*
Y962463D01*
X721042Y955463D02*
Y962463D01*
X839734Y841503D02*
Y848503D01*
X857734Y841503D02*
Y848503D01*
X839734D02*
X857734D01*
X839734Y841503D02*
X857734D01*
X845734Y845003D02*
X851734D01*
X848734Y842003D02*
Y848003D01*
X730042Y939113D02*
X739542D01*
X734792Y934363D02*
Y943863D01*
X740292Y927113D02*
Y951113D01*
X729292Y927113D02*
Y951113D01*
X740292D01*
X729292Y927113D02*
X740292D01*
X527114Y888754D02*
Y895754D01*
X545114Y888754D02*
Y895754D01*
X527114D02*
X545114D01*
X527114Y888754D02*
X545114D01*
X533114Y892254D02*
X539114D01*
X536114Y889254D02*
Y895254D01*
X762944Y902503D02*
Y909503D01*
X780944Y902503D02*
Y909503D01*
X762944D02*
X780944D01*
X762944Y902503D02*
X780944D01*
X768944Y906003D02*
X774944D01*
X771944Y903003D02*
Y909003D01*
X794195Y871804D02*
Y878804D01*
X812195Y871804D02*
Y878804D01*
X794195D02*
X812195D01*
X794195Y871804D02*
X812195D01*
X800195Y875304D02*
X806195D01*
X803195Y872304D02*
Y878304D01*
X529174Y822084D02*
Y832084D01*
X524174Y827084D02*
X534174D01*
X311721Y186694D02*
X317721D01*
X314721Y183694D02*
Y189694D01*
X311221Y177694D02*
Y195694D01*
X318221Y177694D02*
Y195694D01*
X311221Y177694D02*
X318221D01*
X311221Y195694D02*
X318221D01*
X302554Y179674D02*
X308554D01*
X305554Y176674D02*
Y182674D01*
X309054Y170674D02*
Y188674D01*
X302054Y170674D02*
Y188674D01*
X309054D01*
X302054Y170674D02*
X309054D01*
X36504Y58334D02*
Y65334D01*
X18504Y58334D02*
Y65334D01*
X36504D01*
X18504Y58334D02*
X36504D01*
X24504Y61834D02*
X30504D01*
X27504Y58834D02*
Y64834D01*
X158484Y170494D02*
Y177494D01*
X140484Y170494D02*
Y177494D01*
Y170494D02*
X158484D01*
X140484Y177494D02*
X158484D01*
X146484Y173994D02*
X152484D01*
X149484Y170994D02*
Y176994D01*
X26195Y48004D02*
Y55004D01*
X8195Y48004D02*
Y55004D01*
X26195D01*
X8195Y48004D02*
X26195D01*
X14195Y51504D02*
X20195D01*
X17195Y48504D02*
Y54504D01*
X190294Y100444D02*
X197294D01*
X190294Y82444D02*
X197294D01*
Y100444D01*
X190294Y82444D02*
Y100444D01*
X193794Y88444D02*
Y94444D01*
X190794Y91444D02*
X196794D01*
X199104Y100444D02*
X206104D01*
X199104Y82444D02*
X206104D01*
Y100444D01*
X199104Y82444D02*
Y100444D01*
X202604Y88444D02*
Y94444D01*
X199604Y91444D02*
X205604D01*
X219304Y12904D02*
Y19904D01*
X201304Y12904D02*
Y19904D01*
Y12904D02*
X219304D01*
X201304Y19904D02*
X219304D01*
X207304Y16404D02*
X213304D01*
X210304Y13404D02*
Y19404D01*
X166854Y12904D02*
Y19904D01*
X184854Y12904D02*
Y19904D01*
X166854D02*
X184854D01*
X166854Y12904D02*
X184854D01*
X172854Y16404D02*
X178854D01*
X175854Y13404D02*
Y19404D01*
X185104Y46334D02*
X195104D01*
X190104Y41334D02*
Y51334D01*
X126883Y183454D02*
X137883D01*
X126883Y159454D02*
X137883D01*
Y183454D01*
X126883Y159454D02*
Y183454D01*
X132383Y166704D02*
Y176204D01*
X127633Y171454D02*
X137133D01*
X157314Y148113D02*
X164314D01*
X157314Y130113D02*
X164314D01*
Y148113D01*
X157314Y130113D02*
Y148113D01*
X160814Y136113D02*
Y142113D01*
X157814Y139113D02*
X163814D01*
X259444Y83363D02*
X269444D01*
X264444Y78363D02*
Y88363D01*
X23424Y77784D02*
Y84784D01*
X41424Y77784D02*
Y84784D01*
X23424D02*
X41424D01*
X23424Y77784D02*
X41424D01*
X29424Y81284D02*
X35424D01*
X32424Y78284D02*
Y84284D01*
X23424Y68304D02*
Y75304D01*
X41424Y68304D02*
Y75304D01*
X23424D02*
X41424D01*
X23424Y68304D02*
X41424D01*
X29424Y71804D02*
X35424D01*
X32424Y68804D02*
Y74804D01*
X292744Y39003D02*
Y46003D01*
X310744Y39003D02*
Y46003D01*
X292744D02*
X310744D01*
X292744Y39003D02*
X310744D01*
X298744Y42503D02*
X304744D01*
X301744Y39503D02*
Y45503D01*
X292736Y27034D02*
Y34034D01*
X310736Y27034D02*
Y34034D01*
X292736D02*
X310736D01*
X292736Y27034D02*
X310736D01*
X298736Y30534D02*
X304736D01*
X301736Y27534D02*
Y33534D01*
X311794Y49844D02*
Y56844D01*
X329794Y49844D02*
Y56844D01*
X311794D02*
X329794D01*
X311794Y49844D02*
X329794D01*
X317794Y53344D02*
X323794D01*
X320794Y50344D02*
Y56344D01*
X329964Y61274D02*
Y68274D01*
X311964Y61274D02*
Y68274D01*
Y61274D02*
X329964D01*
X311964Y68274D02*
X329964D01*
X317964Y64774D02*
X323964D01*
X320964Y61774D02*
Y67774D01*
X262944Y112884D02*
Y119884D01*
X280944Y112884D02*
Y119884D01*
X262944D02*
X280944D01*
X262944Y112884D02*
X280944D01*
X268944Y116384D02*
X274944D01*
X271944Y113384D02*
Y119384D01*
X350314Y110384D02*
X357314D01*
X350314Y128384D02*
X357314D01*
X350314Y110384D02*
Y128384D01*
X357314Y110384D02*
Y128384D01*
X353814Y116384D02*
Y122384D01*
X350814Y119384D02*
X356814D01*
X327064Y89304D02*
X337064D01*
X332064Y84304D02*
Y94304D01*
X323964Y154024D02*
Y160024D01*
X320964Y157024D02*
X326964D01*
X314964Y153524D02*
X332964D01*
X314964Y160524D02*
X332964D01*
Y153524D02*
Y160524D01*
X314964Y153524D02*
Y160524D01*
X287314Y111764D02*
X293314D01*
X290314Y108764D02*
Y114764D01*
X286814Y102764D02*
Y120764D01*
X293814Y102764D02*
Y120764D01*
X286814Y102764D02*
X293814D01*
X286814Y120764D02*
X293814D01*
X180714Y169924D02*
Y175924D01*
X177714Y172924D02*
X183714D01*
X171714Y176424D02*
X189714D01*
X171714Y169424D02*
X189714D01*
X171714D02*
Y176424D01*
X189714Y169424D02*
Y176424D01*
X178854Y157024D02*
Y163024D01*
X175854Y160024D02*
X181854D01*
X169854Y163524D02*
X187854D01*
X169854Y156524D02*
X187854D01*
X169854D02*
Y163524D01*
X187854Y156524D02*
Y163524D01*
X159014Y35504D02*
Y42504D01*
X177014Y35504D02*
Y42504D01*
X159014D02*
X177014D01*
X159014Y35504D02*
X177014D01*
X165014Y39004D02*
X171014D01*
X168014Y36004D02*
Y42004D01*
X178854Y148004D02*
Y154004D01*
X175854Y151004D02*
X181854D01*
X169854Y154504D02*
X187854D01*
X169854Y147504D02*
X187854D01*
X169854D02*
Y154504D01*
X187854Y147504D02*
Y154504D01*
X230042Y155963D02*
Y161963D01*
X227042Y158963D02*
X233042D01*
X221042Y155463D02*
X239042D01*
X221042Y162463D02*
X239042D01*
Y155463D02*
Y162463D01*
X221042Y155463D02*
Y162463D01*
X339734Y41503D02*
Y48503D01*
X357734Y41503D02*
Y48503D01*
X339734D02*
X357734D01*
X339734Y41503D02*
X357734D01*
X345734Y45003D02*
X351734D01*
X348734Y42003D02*
Y48003D01*
X230042Y139113D02*
X239542D01*
X234792Y134363D02*
Y143863D01*
X240292Y127113D02*
Y151113D01*
X229292Y127113D02*
Y151113D01*
X240292D01*
X229292Y127113D02*
X240292D01*
X27114Y88754D02*
Y95754D01*
X45114Y88754D02*
Y95754D01*
X27114D02*
X45114D01*
X27114Y88754D02*
X45114D01*
X33114Y92254D02*
X39114D01*
X36114Y89254D02*
Y95254D01*
X262944Y102503D02*
Y109503D01*
X280944Y102503D02*
Y109503D01*
X262944D02*
X280944D01*
X262944Y102503D02*
X280944D01*
X268944Y106003D02*
X274944D01*
X271944Y103003D02*
Y109003D01*
X294195Y71804D02*
Y78804D01*
X312195Y71804D02*
Y78804D01*
X294195D02*
X312195D01*
X294195Y71804D02*
X312195D01*
X300195Y75304D02*
X306195D01*
X303195Y72304D02*
Y78304D01*
X29174Y22084D02*
Y32084D01*
X24174Y27084D02*
X34174D01*
X311721Y386694D02*
X317721D01*
X314721Y383694D02*
Y389694D01*
X311221Y377694D02*
Y395694D01*
X318221Y377694D02*
Y395694D01*
X311221Y377694D02*
X318221D01*
X311221Y395694D02*
X318221D01*
X302554Y379674D02*
X308554D01*
X305554Y376674D02*
Y382674D01*
X309054Y370674D02*
Y388674D01*
X302054Y370674D02*
Y388674D01*
X309054D01*
X302054Y370674D02*
X309054D01*
X36504Y258334D02*
Y265334D01*
X18504Y258334D02*
Y265334D01*
X36504D01*
X18504Y258334D02*
X36504D01*
X24504Y261834D02*
X30504D01*
X27504Y258834D02*
Y264834D01*
X158484Y370494D02*
Y377494D01*
X140484Y370494D02*
Y377494D01*
Y370494D02*
X158484D01*
X140484Y377494D02*
X158484D01*
X146484Y373994D02*
X152484D01*
X149484Y370994D02*
Y376994D01*
X26195Y248004D02*
Y255004D01*
X8195Y248004D02*
Y255004D01*
X26195D01*
X8195Y248004D02*
X26195D01*
X14195Y251504D02*
X20195D01*
X17195Y248504D02*
Y254504D01*
X190294Y300444D02*
X197294D01*
X190294Y282444D02*
X197294D01*
Y300444D01*
X190294Y282444D02*
Y300444D01*
X193794Y288444D02*
Y294444D01*
X190794Y291444D02*
X196794D01*
X199104Y300444D02*
X206104D01*
X199104Y282444D02*
X206104D01*
Y300444D01*
X199104Y282444D02*
Y300444D01*
X202604Y288444D02*
Y294444D01*
X199604Y291444D02*
X205604D01*
X219304Y212904D02*
Y219904D01*
X201304Y212904D02*
Y219904D01*
Y212904D02*
X219304D01*
X201304Y219904D02*
X219304D01*
X207304Y216404D02*
X213304D01*
X210304Y213404D02*
Y219404D01*
X166854Y212904D02*
Y219904D01*
X184854Y212904D02*
Y219904D01*
X166854D02*
X184854D01*
X166854Y212904D02*
X184854D01*
X172854Y216404D02*
X178854D01*
X175854Y213404D02*
Y219404D01*
X185104Y246334D02*
X195104D01*
X190104Y241334D02*
Y251334D01*
X126883Y383454D02*
X137883D01*
X126883Y359454D02*
X137883D01*
Y383454D01*
X126883Y359454D02*
Y383454D01*
X132383Y366704D02*
Y376204D01*
X127633Y371454D02*
X137133D01*
X157314Y348113D02*
X164314D01*
X157314Y330113D02*
X164314D01*
Y348113D01*
X157314Y330113D02*
Y348113D01*
X160814Y336113D02*
Y342113D01*
X157814Y339113D02*
X163814D01*
X259444Y283363D02*
X269444D01*
X264444Y278363D02*
Y288363D01*
X23424Y277784D02*
Y284784D01*
X41424Y277784D02*
Y284784D01*
X23424D02*
X41424D01*
X23424Y277784D02*
X41424D01*
X29424Y281284D02*
X35424D01*
X32424Y278284D02*
Y284284D01*
X23424Y268304D02*
Y275304D01*
X41424Y268304D02*
Y275304D01*
X23424D02*
X41424D01*
X23424Y268304D02*
X41424D01*
X29424Y271804D02*
X35424D01*
X32424Y268804D02*
Y274804D01*
X292744Y239003D02*
Y246003D01*
X310744Y239003D02*
Y246003D01*
X292744D02*
X310744D01*
X292744Y239003D02*
X310744D01*
X298744Y242503D02*
X304744D01*
X301744Y239503D02*
Y245503D01*
X292736Y227034D02*
Y234034D01*
X310736Y227034D02*
Y234034D01*
X292736D02*
X310736D01*
X292736Y227034D02*
X310736D01*
X298736Y230534D02*
X304736D01*
X301736Y227534D02*
Y233534D01*
X311794Y249844D02*
Y256844D01*
X329794Y249844D02*
Y256844D01*
X311794D02*
X329794D01*
X311794Y249844D02*
X329794D01*
X317794Y253344D02*
X323794D01*
X320794Y250344D02*
Y256344D01*
X329964Y261274D02*
Y268274D01*
X311964Y261274D02*
Y268274D01*
Y261274D02*
X329964D01*
X311964Y268274D02*
X329964D01*
X317964Y264774D02*
X323964D01*
X320964Y261774D02*
Y267774D01*
X262944Y312884D02*
Y319884D01*
X280944Y312884D02*
Y319884D01*
X262944D02*
X280944D01*
X262944Y312884D02*
X280944D01*
X268944Y316384D02*
X274944D01*
X271944Y313384D02*
Y319384D01*
X350314Y310384D02*
X357314D01*
X350314Y328384D02*
X357314D01*
X350314Y310384D02*
Y328384D01*
X357314Y310384D02*
Y328384D01*
X353814Y316384D02*
Y322384D01*
X350814Y319384D02*
X356814D01*
X327064Y289304D02*
X337064D01*
X332064Y284304D02*
Y294304D01*
X323964Y354024D02*
Y360024D01*
X320964Y357024D02*
X326964D01*
X314964Y353524D02*
X332964D01*
X314964Y360524D02*
X332964D01*
Y353524D02*
Y360524D01*
X314964Y353524D02*
Y360524D01*
X287314Y311764D02*
X293314D01*
X290314Y308764D02*
Y314764D01*
X286814Y302764D02*
Y320764D01*
X293814Y302764D02*
Y320764D01*
X286814Y302764D02*
X293814D01*
X286814Y320764D02*
X293814D01*
X180714Y369924D02*
Y375924D01*
X177714Y372924D02*
X183714D01*
X171714Y376424D02*
X189714D01*
X171714Y369424D02*
X189714D01*
X171714D02*
Y376424D01*
X189714Y369424D02*
Y376424D01*
X178854Y357024D02*
Y363024D01*
X175854Y360024D02*
X181854D01*
X169854Y363524D02*
X187854D01*
X169854Y356524D02*
X187854D01*
X169854D02*
Y363524D01*
X187854Y356524D02*
Y363524D01*
X159014Y235504D02*
Y242504D01*
X177014Y235504D02*
Y242504D01*
X159014D02*
X177014D01*
X159014Y235504D02*
X177014D01*
X165014Y239004D02*
X171014D01*
X168014Y236004D02*
Y242004D01*
X178854Y348004D02*
Y354004D01*
X175854Y351004D02*
X181854D01*
X169854Y354504D02*
X187854D01*
X169854Y347504D02*
X187854D01*
X169854D02*
Y354504D01*
X187854Y347504D02*
Y354504D01*
X230042Y355963D02*
Y361963D01*
X227042Y358963D02*
X233042D01*
X221042Y355463D02*
X239042D01*
X221042Y362463D02*
X239042D01*
Y355463D02*
Y362463D01*
X221042Y355463D02*
Y362463D01*
X339734Y241503D02*
Y248503D01*
X357734Y241503D02*
Y248503D01*
X339734D02*
X357734D01*
X339734Y241503D02*
X357734D01*
X345734Y245003D02*
X351734D01*
X348734Y242003D02*
Y248003D01*
X230042Y339113D02*
X239542D01*
X234792Y334363D02*
Y343863D01*
X240292Y327113D02*
Y351113D01*
X229292Y327113D02*
Y351113D01*
X240292D01*
X229292Y327113D02*
X240292D01*
X27114Y288754D02*
Y295754D01*
X45114Y288754D02*
Y295754D01*
X27114D02*
X45114D01*
X27114Y288754D02*
X45114D01*
X33114Y292254D02*
X39114D01*
X36114Y289254D02*
Y295254D01*
X262944Y302503D02*
Y309503D01*
X280944Y302503D02*
Y309503D01*
X262944D02*
X280944D01*
X262944Y302503D02*
X280944D01*
X268944Y306003D02*
X274944D01*
X271944Y303003D02*
Y309003D01*
X294195Y271804D02*
Y278804D01*
X312195Y271804D02*
Y278804D01*
X294195D02*
X312195D01*
X294195Y271804D02*
X312195D01*
X300195Y275304D02*
X306195D01*
X303195Y272304D02*
Y278304D01*
X29174Y222084D02*
Y232084D01*
X24174Y227084D02*
X34174D01*
X311721Y586694D02*
X317721D01*
X314721Y583694D02*
Y589694D01*
X311221Y577694D02*
Y595694D01*
X318221Y577694D02*
Y595694D01*
X311221Y577694D02*
X318221D01*
X311221Y595694D02*
X318221D01*
X302554Y579674D02*
X308554D01*
X305554Y576674D02*
Y582674D01*
X309054Y570674D02*
Y588674D01*
X302054Y570674D02*
Y588674D01*
X309054D01*
X302054Y570674D02*
X309054D01*
X36504Y458334D02*
Y465334D01*
X18504Y458334D02*
Y465334D01*
X36504D01*
X18504Y458334D02*
X36504D01*
X24504Y461834D02*
X30504D01*
X27504Y458834D02*
Y464834D01*
X158484Y570494D02*
Y577494D01*
X140484Y570494D02*
Y577494D01*
Y570494D02*
X158484D01*
X140484Y577494D02*
X158484D01*
X146484Y573994D02*
X152484D01*
X149484Y570994D02*
Y576994D01*
X26195Y448004D02*
Y455004D01*
X8195Y448004D02*
Y455004D01*
X26195D01*
X8195Y448004D02*
X26195D01*
X14195Y451504D02*
X20195D01*
X17195Y448504D02*
Y454504D01*
X190294Y500444D02*
X197294D01*
X190294Y482444D02*
X197294D01*
Y500444D01*
X190294Y482444D02*
Y500444D01*
X193794Y488444D02*
Y494444D01*
X190794Y491444D02*
X196794D01*
X199104Y500444D02*
X206104D01*
X199104Y482444D02*
X206104D01*
Y500444D01*
X199104Y482444D02*
Y500444D01*
X202604Y488444D02*
Y494444D01*
X199604Y491444D02*
X205604D01*
X219304Y412904D02*
Y419904D01*
X201304Y412904D02*
Y419904D01*
Y412904D02*
X219304D01*
X201304Y419904D02*
X219304D01*
X207304Y416404D02*
X213304D01*
X210304Y413404D02*
Y419404D01*
X166854Y412904D02*
Y419904D01*
X184854Y412904D02*
Y419904D01*
X166854D02*
X184854D01*
X166854Y412904D02*
X184854D01*
X172854Y416404D02*
X178854D01*
X175854Y413404D02*
Y419404D01*
X185104Y446334D02*
X195104D01*
X190104Y441334D02*
Y451334D01*
X126883Y583454D02*
X137883D01*
X126883Y559454D02*
X137883D01*
Y583454D01*
X126883Y559454D02*
Y583454D01*
X132383Y566704D02*
Y576204D01*
X127633Y571454D02*
X137133D01*
X157314Y548113D02*
X164314D01*
X157314Y530113D02*
X164314D01*
Y548113D01*
X157314Y530113D02*
Y548113D01*
X160814Y536113D02*
Y542113D01*
X157814Y539113D02*
X163814D01*
X259444Y483363D02*
X269444D01*
X264444Y478363D02*
Y488363D01*
X23424Y477784D02*
Y484784D01*
X41424Y477784D02*
Y484784D01*
X23424D02*
X41424D01*
X23424Y477784D02*
X41424D01*
X29424Y481284D02*
X35424D01*
X32424Y478284D02*
Y484284D01*
X23424Y468304D02*
Y475304D01*
X41424Y468304D02*
Y475304D01*
X23424D02*
X41424D01*
X23424Y468304D02*
X41424D01*
X29424Y471804D02*
X35424D01*
X32424Y468804D02*
Y474804D01*
X292744Y439003D02*
Y446003D01*
X310744Y439003D02*
Y446003D01*
X292744D02*
X310744D01*
X292744Y439003D02*
X310744D01*
X298744Y442503D02*
X304744D01*
X301744Y439503D02*
Y445503D01*
X292736Y427034D02*
Y434034D01*
X310736Y427034D02*
Y434034D01*
X292736D02*
X310736D01*
X292736Y427034D02*
X310736D01*
X298736Y430534D02*
X304736D01*
X301736Y427534D02*
Y433534D01*
X311794Y449844D02*
Y456844D01*
X329794Y449844D02*
Y456844D01*
X311794D02*
X329794D01*
X311794Y449844D02*
X329794D01*
X317794Y453344D02*
X323794D01*
X320794Y450344D02*
Y456344D01*
X329964Y461274D02*
Y468274D01*
X311964Y461274D02*
Y468274D01*
Y461274D02*
X329964D01*
X311964Y468274D02*
X329964D01*
X317964Y464774D02*
X323964D01*
X320964Y461774D02*
Y467774D01*
X262944Y512884D02*
Y519884D01*
X280944Y512884D02*
Y519884D01*
X262944D02*
X280944D01*
X262944Y512884D02*
X280944D01*
X268944Y516384D02*
X274944D01*
X271944Y513384D02*
Y519384D01*
X350314Y510384D02*
X357314D01*
X350314Y528384D02*
X357314D01*
X350314Y510384D02*
Y528384D01*
X357314Y510384D02*
Y528384D01*
X353814Y516384D02*
Y522384D01*
X350814Y519384D02*
X356814D01*
X327064Y489304D02*
X337064D01*
X332064Y484304D02*
Y494304D01*
X323964Y554024D02*
Y560024D01*
X320964Y557024D02*
X326964D01*
X314964Y553524D02*
X332964D01*
X314964Y560524D02*
X332964D01*
Y553524D02*
Y560524D01*
X314964Y553524D02*
Y560524D01*
X287314Y511764D02*
X293314D01*
X290314Y508764D02*
Y514764D01*
X286814Y502764D02*
Y520764D01*
X293814Y502764D02*
Y520764D01*
X286814Y502764D02*
X293814D01*
X286814Y520764D02*
X293814D01*
X180714Y569924D02*
Y575924D01*
X177714Y572924D02*
X183714D01*
X171714Y576424D02*
X189714D01*
X171714Y569424D02*
X189714D01*
X171714D02*
Y576424D01*
X189714Y569424D02*
Y576424D01*
X178854Y557024D02*
Y563024D01*
X175854Y560024D02*
X181854D01*
X169854Y563524D02*
X187854D01*
X169854Y556524D02*
X187854D01*
X169854D02*
Y563524D01*
X187854Y556524D02*
Y563524D01*
X159014Y435504D02*
Y442504D01*
X177014Y435504D02*
Y442504D01*
X159014D02*
X177014D01*
X159014Y435504D02*
X177014D01*
X165014Y439004D02*
X171014D01*
X168014Y436004D02*
Y442004D01*
X178854Y548004D02*
Y554004D01*
X175854Y551004D02*
X181854D01*
X169854Y554504D02*
X187854D01*
X169854Y547504D02*
X187854D01*
X169854D02*
Y554504D01*
X187854Y547504D02*
Y554504D01*
X230042Y555963D02*
Y561963D01*
X227042Y558963D02*
X233042D01*
X221042Y555463D02*
X239042D01*
X221042Y562463D02*
X239042D01*
Y555463D02*
Y562463D01*
X221042Y555463D02*
Y562463D01*
X339734Y441503D02*
Y448503D01*
X357734Y441503D02*
Y448503D01*
X339734D02*
X357734D01*
X339734Y441503D02*
X357734D01*
X345734Y445003D02*
X351734D01*
X348734Y442003D02*
Y448003D01*
X230042Y539113D02*
X239542D01*
X234792Y534363D02*
Y543863D01*
X240292Y527113D02*
Y551113D01*
X229292Y527113D02*
Y551113D01*
X240292D01*
X229292Y527113D02*
X240292D01*
X27114Y488754D02*
Y495754D01*
X45114Y488754D02*
Y495754D01*
X27114D02*
X45114D01*
X27114Y488754D02*
X45114D01*
X33114Y492254D02*
X39114D01*
X36114Y489254D02*
Y495254D01*
X262944Y502503D02*
Y509503D01*
X280944Y502503D02*
Y509503D01*
X262944D02*
X280944D01*
X262944Y502503D02*
X280944D01*
X268944Y506003D02*
X274944D01*
X271944Y503003D02*
Y509003D01*
X294195Y471804D02*
Y478804D01*
X312195Y471804D02*
Y478804D01*
X294195D02*
X312195D01*
X294195Y471804D02*
X312195D01*
X300195Y475304D02*
X306195D01*
X303195Y472304D02*
Y478304D01*
X29174Y422084D02*
Y432084D01*
X24174Y427084D02*
X34174D01*
X311721Y786694D02*
X317721D01*
X314721Y783694D02*
Y789694D01*
X311221Y777694D02*
Y795694D01*
X318221Y777694D02*
Y795694D01*
X311221Y777694D02*
X318221D01*
X311221Y795694D02*
X318221D01*
X302554Y779674D02*
X308554D01*
X305554Y776674D02*
Y782674D01*
X309054Y770674D02*
Y788674D01*
X302054Y770674D02*
Y788674D01*
X309054D01*
X302054Y770674D02*
X309054D01*
X36504Y658334D02*
Y665334D01*
X18504Y658334D02*
Y665334D01*
X36504D01*
X18504Y658334D02*
X36504D01*
X24504Y661834D02*
X30504D01*
X27504Y658834D02*
Y664834D01*
X158484Y770494D02*
Y777494D01*
X140484Y770494D02*
Y777494D01*
Y770494D02*
X158484D01*
X140484Y777494D02*
X158484D01*
X146484Y773994D02*
X152484D01*
X149484Y770994D02*
Y776994D01*
X26195Y648004D02*
Y655004D01*
X8195Y648004D02*
Y655004D01*
X26195D01*
X8195Y648004D02*
X26195D01*
X14195Y651504D02*
X20195D01*
X17195Y648504D02*
Y654504D01*
X190294Y700444D02*
X197294D01*
X190294Y682444D02*
X197294D01*
Y700444D01*
X190294Y682444D02*
Y700444D01*
X193794Y688444D02*
Y694444D01*
X190794Y691444D02*
X196794D01*
X199104Y700444D02*
X206104D01*
X199104Y682444D02*
X206104D01*
Y700444D01*
X199104Y682444D02*
Y700444D01*
X202604Y688444D02*
Y694444D01*
X199604Y691444D02*
X205604D01*
X219304Y612904D02*
Y619904D01*
X201304Y612904D02*
Y619904D01*
Y612904D02*
X219304D01*
X201304Y619904D02*
X219304D01*
X207304Y616404D02*
X213304D01*
X210304Y613404D02*
Y619404D01*
X166854Y612904D02*
Y619904D01*
X184854Y612904D02*
Y619904D01*
X166854D02*
X184854D01*
X166854Y612904D02*
X184854D01*
X172854Y616404D02*
X178854D01*
X175854Y613404D02*
Y619404D01*
X185104Y646334D02*
X195104D01*
X190104Y641334D02*
Y651334D01*
X126883Y783454D02*
X137883D01*
X126883Y759454D02*
X137883D01*
Y783454D01*
X126883Y759454D02*
Y783454D01*
X132383Y766704D02*
Y776204D01*
X127633Y771454D02*
X137133D01*
X157314Y748113D02*
X164314D01*
X157314Y730113D02*
X164314D01*
Y748113D01*
X157314Y730113D02*
Y748113D01*
X160814Y736113D02*
Y742113D01*
X157814Y739113D02*
X163814D01*
X259444Y683363D02*
X269444D01*
X264444Y678363D02*
Y688363D01*
X23424Y677784D02*
Y684784D01*
X41424Y677784D02*
Y684784D01*
X23424D02*
X41424D01*
X23424Y677784D02*
X41424D01*
X29424Y681284D02*
X35424D01*
X32424Y678284D02*
Y684284D01*
X23424Y668304D02*
Y675304D01*
X41424Y668304D02*
Y675304D01*
X23424D02*
X41424D01*
X23424Y668304D02*
X41424D01*
X29424Y671804D02*
X35424D01*
X32424Y668804D02*
Y674804D01*
X292744Y639003D02*
Y646003D01*
X310744Y639003D02*
Y646003D01*
X292744D02*
X310744D01*
X292744Y639003D02*
X310744D01*
X298744Y642503D02*
X304744D01*
X301744Y639503D02*
Y645503D01*
X292736Y627034D02*
Y634034D01*
X310736Y627034D02*
Y634034D01*
X292736D02*
X310736D01*
X292736Y627034D02*
X310736D01*
X298736Y630534D02*
X304736D01*
X301736Y627534D02*
Y633534D01*
X311794Y649844D02*
Y656844D01*
X329794Y649844D02*
Y656844D01*
X311794D02*
X329794D01*
X311794Y649844D02*
X329794D01*
X317794Y653344D02*
X323794D01*
X320794Y650344D02*
Y656344D01*
X329964Y661274D02*
Y668274D01*
X311964Y661274D02*
Y668274D01*
Y661274D02*
X329964D01*
X311964Y668274D02*
X329964D01*
X317964Y664774D02*
X323964D01*
X320964Y661774D02*
Y667774D01*
X262944Y712884D02*
Y719884D01*
X280944Y712884D02*
Y719884D01*
X262944D02*
X280944D01*
X262944Y712884D02*
X280944D01*
X268944Y716384D02*
X274944D01*
X271944Y713384D02*
Y719384D01*
X350314Y710384D02*
X357314D01*
X350314Y728384D02*
X357314D01*
X350314Y710384D02*
Y728384D01*
X357314Y710384D02*
Y728384D01*
X353814Y716384D02*
Y722384D01*
X350814Y719384D02*
X356814D01*
X327064Y689304D02*
X337064D01*
X332064Y684304D02*
Y694304D01*
X323964Y754024D02*
Y760024D01*
X320964Y757024D02*
X326964D01*
X314964Y753524D02*
X332964D01*
X314964Y760524D02*
X332964D01*
Y753524D02*
Y760524D01*
X314964Y753524D02*
Y760524D01*
X287314Y711764D02*
X293314D01*
X290314Y708764D02*
Y714764D01*
X286814Y702764D02*
Y720764D01*
X293814Y702764D02*
Y720764D01*
X286814Y702764D02*
X293814D01*
X286814Y720764D02*
X293814D01*
X180714Y769924D02*
Y775924D01*
X177714Y772924D02*
X183714D01*
X171714Y776424D02*
X189714D01*
X171714Y769424D02*
X189714D01*
X171714D02*
Y776424D01*
X189714Y769424D02*
Y776424D01*
X178854Y757024D02*
Y763024D01*
X175854Y760024D02*
X181854D01*
X169854Y763524D02*
X187854D01*
X169854Y756524D02*
X187854D01*
X169854D02*
Y763524D01*
X187854Y756524D02*
Y763524D01*
X159014Y635504D02*
Y642504D01*
X177014Y635504D02*
Y642504D01*
X159014D02*
X177014D01*
X159014Y635504D02*
X177014D01*
X165014Y639004D02*
X171014D01*
X168014Y636004D02*
Y642004D01*
X178854Y748004D02*
Y754004D01*
X175854Y751004D02*
X181854D01*
X169854Y754504D02*
X187854D01*
X169854Y747504D02*
X187854D01*
X169854D02*
Y754504D01*
X187854Y747504D02*
Y754504D01*
X230042Y755963D02*
Y761963D01*
X227042Y758963D02*
X233042D01*
X221042Y755463D02*
X239042D01*
X221042Y762463D02*
X239042D01*
Y755463D02*
Y762463D01*
X221042Y755463D02*
Y762463D01*
X339734Y641503D02*
Y648503D01*
X357734Y641503D02*
Y648503D01*
X339734D02*
X357734D01*
X339734Y641503D02*
X357734D01*
X345734Y645003D02*
X351734D01*
X348734Y642003D02*
Y648003D01*
X230042Y739113D02*
X239542D01*
X234792Y734363D02*
Y743863D01*
X240292Y727113D02*
Y751113D01*
X229292Y727113D02*
Y751113D01*
X240292D01*
X229292Y727113D02*
X240292D01*
X27114Y688754D02*
Y695754D01*
X45114Y688754D02*
Y695754D01*
X27114D02*
X45114D01*
X27114Y688754D02*
X45114D01*
X33114Y692254D02*
X39114D01*
X36114Y689254D02*
Y695254D01*
X262944Y702503D02*
Y709503D01*
X280944Y702503D02*
Y709503D01*
X262944D02*
X280944D01*
X262944Y702503D02*
X280944D01*
X268944Y706003D02*
X274944D01*
X271944Y703003D02*
Y709003D01*
X294195Y671804D02*
Y678804D01*
X312195Y671804D02*
Y678804D01*
X294195D02*
X312195D01*
X294195Y671804D02*
X312195D01*
X300195Y675304D02*
X306195D01*
X303195Y672304D02*
Y678304D01*
X29174Y622084D02*
Y632084D01*
X24174Y627084D02*
X34174D01*
X311721Y986694D02*
X317721D01*
X314721Y983694D02*
Y989694D01*
X311221Y977694D02*
Y995694D01*
X318221Y977694D02*
Y995694D01*
X311221Y977694D02*
X318221D01*
X311221Y995694D02*
X318221D01*
X302554Y979674D02*
X308554D01*
X305554Y976674D02*
Y982674D01*
X309054Y970674D02*
Y988674D01*
X302054Y970674D02*
Y988674D01*
X309054D01*
X302054Y970674D02*
X309054D01*
X36504Y858334D02*
Y865334D01*
X18504Y858334D02*
Y865334D01*
X36504D01*
X18504Y858334D02*
X36504D01*
X24504Y861834D02*
X30504D01*
X27504Y858834D02*
Y864834D01*
X158484Y970494D02*
Y977494D01*
X140484Y970494D02*
Y977494D01*
Y970494D02*
X158484D01*
X140484Y977494D02*
X158484D01*
X146484Y973994D02*
X152484D01*
X149484Y970994D02*
Y976994D01*
X26195Y848004D02*
Y855004D01*
X8195Y848004D02*
Y855004D01*
X26195D01*
X8195Y848004D02*
X26195D01*
X14195Y851504D02*
X20195D01*
X17195Y848504D02*
Y854504D01*
X190294Y900444D02*
X197294D01*
X190294Y882444D02*
X197294D01*
Y900444D01*
X190294Y882444D02*
Y900444D01*
X193794Y888444D02*
Y894444D01*
X190794Y891444D02*
X196794D01*
X199104Y900444D02*
X206104D01*
X199104Y882444D02*
X206104D01*
Y900444D01*
X199104Y882444D02*
Y900444D01*
X202604Y888444D02*
Y894444D01*
X199604Y891444D02*
X205604D01*
X219304Y812904D02*
Y819904D01*
X201304Y812904D02*
Y819904D01*
Y812904D02*
X219304D01*
X201304Y819904D02*
X219304D01*
X207304Y816404D02*
X213304D01*
X210304Y813404D02*
Y819404D01*
X166854Y812904D02*
Y819904D01*
X184854Y812904D02*
Y819904D01*
X166854D02*
X184854D01*
X166854Y812904D02*
X184854D01*
X172854Y816404D02*
X178854D01*
X175854Y813404D02*
Y819404D01*
X185104Y846334D02*
X195104D01*
X190104Y841334D02*
Y851334D01*
X126883Y983454D02*
X137883D01*
X126883Y959454D02*
X137883D01*
Y983454D01*
X126883Y959454D02*
Y983454D01*
X132383Y966704D02*
Y976204D01*
X127633Y971454D02*
X137133D01*
X157314Y948113D02*
X164314D01*
X157314Y930113D02*
X164314D01*
Y948113D01*
X157314Y930113D02*
Y948113D01*
X160814Y936113D02*
Y942113D01*
X157814Y939113D02*
X163814D01*
X259444Y883363D02*
X269444D01*
X264444Y878363D02*
Y888363D01*
X23424Y877784D02*
Y884784D01*
X41424Y877784D02*
Y884784D01*
X23424D02*
X41424D01*
X23424Y877784D02*
X41424D01*
X29424Y881284D02*
X35424D01*
X32424Y878284D02*
Y884284D01*
X23424Y868304D02*
Y875304D01*
X41424Y868304D02*
Y875304D01*
X23424D02*
X41424D01*
X23424Y868304D02*
X41424D01*
X29424Y871804D02*
X35424D01*
X32424Y868804D02*
Y874804D01*
X292744Y839003D02*
Y846003D01*
X310744Y839003D02*
Y846003D01*
X292744D02*
X310744D01*
X292744Y839003D02*
X310744D01*
X298744Y842503D02*
X304744D01*
X301744Y839503D02*
Y845503D01*
X292736Y827034D02*
Y834034D01*
X310736Y827034D02*
Y834034D01*
X292736D02*
X310736D01*
X292736Y827034D02*
X310736D01*
X298736Y830534D02*
X304736D01*
X301736Y827534D02*
Y833534D01*
X311794Y849844D02*
Y856844D01*
X329794Y849844D02*
Y856844D01*
X311794D02*
X329794D01*
X311794Y849844D02*
X329794D01*
X317794Y853344D02*
X323794D01*
X320794Y850344D02*
Y856344D01*
X329964Y861274D02*
Y868274D01*
X311964Y861274D02*
Y868274D01*
Y861274D02*
X329964D01*
X311964Y868274D02*
X329964D01*
X317964Y864774D02*
X323964D01*
X320964Y861774D02*
Y867774D01*
X262944Y912884D02*
Y919884D01*
X280944Y912884D02*
Y919884D01*
X262944D02*
X280944D01*
X262944Y912884D02*
X280944D01*
X268944Y916384D02*
X274944D01*
X271944Y913384D02*
Y919384D01*
X350314Y910384D02*
X357314D01*
X350314Y928384D02*
X357314D01*
X350314Y910384D02*
Y928384D01*
X357314Y910384D02*
Y928384D01*
X353814Y916384D02*
Y922384D01*
X350814Y919384D02*
X356814D01*
X327064Y889304D02*
X337064D01*
X332064Y884304D02*
Y894304D01*
X323964Y954024D02*
Y960024D01*
X320964Y957024D02*
X326964D01*
X314964Y953524D02*
X332964D01*
X314964Y960524D02*
X332964D01*
Y953524D02*
Y960524D01*
X314964Y953524D02*
Y960524D01*
X287314Y911764D02*
X293314D01*
X290314Y908764D02*
Y914764D01*
X286814Y902764D02*
Y920764D01*
X293814Y902764D02*
Y920764D01*
X286814Y902764D02*
X293814D01*
X286814Y920764D02*
X293814D01*
X180714Y969924D02*
Y975924D01*
X177714Y972924D02*
X183714D01*
X171714Y976424D02*
X189714D01*
X171714Y969424D02*
X189714D01*
X171714D02*
Y976424D01*
X189714Y969424D02*
Y976424D01*
X178854Y957024D02*
Y963024D01*
X175854Y960024D02*
X181854D01*
X169854Y963524D02*
X187854D01*
X169854Y956524D02*
X187854D01*
X169854D02*
Y963524D01*
X187854Y956524D02*
Y963524D01*
X159014Y835504D02*
Y842504D01*
X177014Y835504D02*
Y842504D01*
X159014D02*
X177014D01*
X159014Y835504D02*
X177014D01*
X165014Y839004D02*
X171014D01*
X168014Y836004D02*
Y842004D01*
X178854Y948004D02*
Y954004D01*
X175854Y951004D02*
X181854D01*
X169854Y954504D02*
X187854D01*
X169854Y947504D02*
X187854D01*
X169854D02*
Y954504D01*
X187854Y947504D02*
Y954504D01*
X230042Y955963D02*
Y961963D01*
X227042Y958963D02*
X233042D01*
X221042Y955463D02*
X239042D01*
X221042Y962463D02*
X239042D01*
Y955463D02*
Y962463D01*
X221042Y955463D02*
Y962463D01*
X339734Y841503D02*
Y848503D01*
X357734Y841503D02*
Y848503D01*
X339734D02*
X357734D01*
X339734Y841503D02*
X357734D01*
X345734Y845003D02*
X351734D01*
X348734Y842003D02*
Y848003D01*
X230042Y939113D02*
X239542D01*
X234792Y934363D02*
Y943863D01*
X240292Y927113D02*
Y951113D01*
X229292Y927113D02*
Y951113D01*
X240292D01*
X229292Y927113D02*
X240292D01*
X27114Y888754D02*
Y895754D01*
X45114Y888754D02*
Y895754D01*
X27114D02*
X45114D01*
X27114Y888754D02*
X45114D01*
X33114Y892254D02*
X39114D01*
X36114Y889254D02*
Y895254D01*
X262944Y902503D02*
Y909503D01*
X280944Y902503D02*
Y909503D01*
X262944D02*
X280944D01*
X262944Y902503D02*
X280944D01*
X268944Y906003D02*
X274944D01*
X271944Y903003D02*
Y909003D01*
X294195Y871804D02*
Y878804D01*
X312195Y871804D02*
Y878804D01*
X294195D02*
X312195D01*
X294195Y871804D02*
X312195D01*
X300195Y875304D02*
X306195D01*
X303195Y872304D02*
Y878304D01*
X29174Y822084D02*
Y832084D01*
X24174Y827084D02*
X34174D01*
D135*
X1247944Y66513D02*
Y100213D01*
X1280944Y66513D02*
Y100213D01*
X1247944Y66513D02*
X1280944D01*
X1247944Y100213D02*
X1280944D01*
X1319064Y73254D02*
Y105354D01*
X1345064Y73254D02*
Y105354D01*
X1319064Y73254D02*
X1345064D01*
X1319064Y105354D02*
X1345064D01*
X1008124Y9084D02*
X1050224D01*
X1008124Y45084D02*
X1050224D01*
X1008124Y9084D02*
Y45084D01*
X1050224Y9084D02*
Y45084D01*
X1247944Y266513D02*
Y300213D01*
X1280944Y266513D02*
Y300213D01*
X1247944Y266513D02*
X1280944D01*
X1247944Y300213D02*
X1280944D01*
X1319064Y273254D02*
Y305354D01*
X1345064Y273254D02*
Y305354D01*
X1319064Y273254D02*
X1345064D01*
X1319064Y305354D02*
X1345064D01*
X1008124Y209084D02*
X1050224D01*
X1008124Y245084D02*
X1050224D01*
X1008124Y209084D02*
Y245084D01*
X1050224Y209084D02*
Y245084D01*
X1247944Y466513D02*
Y500213D01*
X1280944Y466513D02*
Y500213D01*
X1247944Y466513D02*
X1280944D01*
X1247944Y500213D02*
X1280944D01*
X1319064Y473254D02*
Y505354D01*
X1345064Y473254D02*
Y505354D01*
X1319064Y473254D02*
X1345064D01*
X1319064Y505354D02*
X1345064D01*
X1008124Y409084D02*
X1050224D01*
X1008124Y445084D02*
X1050224D01*
X1008124Y409084D02*
Y445084D01*
X1050224Y409084D02*
Y445084D01*
X1247944Y666513D02*
Y700213D01*
X1280944Y666513D02*
Y700213D01*
X1247944Y666513D02*
X1280944D01*
X1247944Y700213D02*
X1280944D01*
X1319064Y673254D02*
Y705354D01*
X1345064Y673254D02*
Y705354D01*
X1319064Y673254D02*
X1345064D01*
X1319064Y705354D02*
X1345064D01*
X1008124Y609084D02*
X1050224D01*
X1008124Y645084D02*
X1050224D01*
X1008124Y609084D02*
Y645084D01*
X1050224Y609084D02*
Y645084D01*
X1247944Y866513D02*
Y900213D01*
X1280944Y866513D02*
Y900213D01*
X1247944Y866513D02*
X1280944D01*
X1247944Y900213D02*
X1280944D01*
X1319064Y873254D02*
Y905354D01*
X1345064Y873254D02*
Y905354D01*
X1319064Y873254D02*
X1345064D01*
X1319064Y905354D02*
X1345064D01*
X1008124Y809084D02*
X1050224D01*
X1008124Y845084D02*
X1050224D01*
X1008124Y809084D02*
Y845084D01*
X1050224Y809084D02*
Y845084D01*
X747944Y66513D02*
Y100213D01*
X780944Y66513D02*
Y100213D01*
X747944Y66513D02*
X780944D01*
X747944Y100213D02*
X780944D01*
X819064Y73254D02*
Y105354D01*
X845064Y73254D02*
Y105354D01*
X819064Y73254D02*
X845064D01*
X819064Y105354D02*
X845064D01*
X508124Y9084D02*
X550224D01*
X508124Y45084D02*
X550224D01*
X508124Y9084D02*
Y45084D01*
X550224Y9084D02*
Y45084D01*
X747944Y266513D02*
Y300213D01*
X780944Y266513D02*
Y300213D01*
X747944Y266513D02*
X780944D01*
X747944Y300213D02*
X780944D01*
X819064Y273254D02*
Y305354D01*
X845064Y273254D02*
Y305354D01*
X819064Y273254D02*
X845064D01*
X819064Y305354D02*
X845064D01*
X508124Y209084D02*
X550224D01*
X508124Y245084D02*
X550224D01*
X508124Y209084D02*
Y245084D01*
X550224Y209084D02*
Y245084D01*
X747944Y466513D02*
Y500213D01*
X780944Y466513D02*
Y500213D01*
X747944Y466513D02*
X780944D01*
X747944Y500213D02*
X780944D01*
X819064Y473254D02*
Y505354D01*
X845064Y473254D02*
Y505354D01*
X819064Y473254D02*
X845064D01*
X819064Y505354D02*
X845064D01*
X508124Y409084D02*
X550224D01*
X508124Y445084D02*
X550224D01*
X508124Y409084D02*
Y445084D01*
X550224Y409084D02*
Y445084D01*
X747944Y666513D02*
Y700213D01*
X780944Y666513D02*
Y700213D01*
X747944Y666513D02*
X780944D01*
X747944Y700213D02*
X780944D01*
X819064Y673254D02*
Y705354D01*
X845064Y673254D02*
Y705354D01*
X819064Y673254D02*
X845064D01*
X819064Y705354D02*
X845064D01*
X508124Y609084D02*
X550224D01*
X508124Y645084D02*
X550224D01*
X508124Y609084D02*
Y645084D01*
X550224Y609084D02*
Y645084D01*
X747944Y866513D02*
Y900213D01*
X780944Y866513D02*
Y900213D01*
X747944Y866513D02*
X780944D01*
X747944Y900213D02*
X780944D01*
X819064Y873254D02*
Y905354D01*
X845064Y873254D02*
Y905354D01*
X819064Y873254D02*
X845064D01*
X819064Y905354D02*
X845064D01*
X508124Y809084D02*
X550224D01*
X508124Y845084D02*
X550224D01*
X508124Y809084D02*
Y845084D01*
X550224Y809084D02*
Y845084D01*
X247944Y66513D02*
Y100213D01*
X280944Y66513D02*
Y100213D01*
X247944Y66513D02*
X280944D01*
X247944Y100213D02*
X280944D01*
X319064Y73254D02*
Y105354D01*
X345064Y73254D02*
Y105354D01*
X319064Y73254D02*
X345064D01*
X319064Y105354D02*
X345064D01*
X8124Y9084D02*
X50224D01*
X8124Y45084D02*
X50224D01*
X8124Y9084D02*
Y45084D01*
X50224Y9084D02*
Y45084D01*
X247944Y266513D02*
Y300213D01*
X280944Y266513D02*
Y300213D01*
X247944Y266513D02*
X280944D01*
X247944Y300213D02*
X280944D01*
X319064Y273254D02*
Y305354D01*
X345064Y273254D02*
Y305354D01*
X319064Y273254D02*
X345064D01*
X319064Y305354D02*
X345064D01*
X8124Y209084D02*
X50224D01*
X8124Y245084D02*
X50224D01*
X8124Y209084D02*
Y245084D01*
X50224Y209084D02*
Y245084D01*
X247944Y466513D02*
Y500213D01*
X280944Y466513D02*
Y500213D01*
X247944Y466513D02*
X280944D01*
X247944Y500213D02*
X280944D01*
X319064Y473254D02*
Y505354D01*
X345064Y473254D02*
Y505354D01*
X319064Y473254D02*
X345064D01*
X319064Y505354D02*
X345064D01*
X8124Y409084D02*
X50224D01*
X8124Y445084D02*
X50224D01*
X8124Y409084D02*
Y445084D01*
X50224Y409084D02*
Y445084D01*
X247944Y666513D02*
Y700213D01*
X280944Y666513D02*
Y700213D01*
X247944Y666513D02*
X280944D01*
X247944Y700213D02*
X280944D01*
X319064Y673254D02*
Y705354D01*
X345064Y673254D02*
Y705354D01*
X319064Y673254D02*
X345064D01*
X319064Y705354D02*
X345064D01*
X8124Y609084D02*
X50224D01*
X8124Y645084D02*
X50224D01*
X8124Y609084D02*
Y645084D01*
X50224Y609084D02*
Y645084D01*
X247944Y866513D02*
Y900213D01*
X280944Y866513D02*
Y900213D01*
X247944Y866513D02*
X280944D01*
X247944Y900213D02*
X280944D01*
X319064Y873254D02*
Y905354D01*
X345064Y873254D02*
Y905354D01*
X319064Y873254D02*
X345064D01*
X319064Y905354D02*
X345064D01*
X8124Y809084D02*
X50224D01*
X8124Y845084D02*
X50224D01*
X8124Y809084D02*
Y845084D01*
X50224Y809084D02*
Y845084D01*
M02*
