G04*
G04 #@! TF.GenerationSoftware,Altium Limited,Altium Designer,19.0.14 (431)*
G04*
G04 Layer_Color=255*
%FSLAX44Y44*%
%MOMM*%
G71*
G01*
G75*
%ADD10R,1.0000X1.0000*%
%ADD11R,0.5000X0.6000*%
%ADD12R,0.9000X1.8000*%
%ADD13R,0.6000X0.5000*%
%ADD14R,0.9000X0.8000*%
%ADD15R,2.7000X1.7000*%
%ADD16R,0.2500X0.5500*%
%ADD17R,0.5000X0.7500*%
%ADD18R,0.6500X0.6500*%
%ADD19R,1.3500X0.4000*%
%ADD20R,1.3500X0.6500*%
%ADD21R,1.2000X1.7000*%
%ADD22R,0.5000X1.0000*%
%ADD23R,1.0000X0.2500*%
%ADD24R,2.4000X1.6500*%
%ADD25R,0.2500X0.6000*%
%ADD26R,0.7000X0.9000*%
%ADD27R,1.0000X0.6000*%
%ADD28R,0.4100X0.9100*%
%ADD29R,0.9100X0.4100*%
%ADD30R,1.0000X1.1000*%
%ADD31R,1.3000X1.3000*%
%ADD32R,1.0000X0.5000*%
%ADD33R,1.7000X1.2000*%
%ADD39C,0.6000*%
%ADD40C,1.0000*%
D10*
X50000Y1050000D02*
D03*
Y-50000D02*
D03*
X1350000D02*
D03*
Y1050000D02*
D03*
X1064254Y174004D02*
D03*
Y374004D02*
D03*
Y574004D02*
D03*
Y774004D02*
D03*
Y974004D02*
D03*
X564254Y174004D02*
D03*
Y374004D02*
D03*
Y574004D02*
D03*
Y774004D02*
D03*
Y974004D02*
D03*
X64254Y174004D02*
D03*
Y374004D02*
D03*
Y574004D02*
D03*
Y774004D02*
D03*
Y974004D02*
D03*
D11*
X1314721Y181694D02*
D03*
Y191694D02*
D03*
X1305554Y184674D02*
D03*
Y174674D02*
D03*
X1193794Y96444D02*
D03*
Y86444D02*
D03*
X1202604Y96444D02*
D03*
Y86444D02*
D03*
X1160814Y144113D02*
D03*
Y134113D02*
D03*
X1353814Y114384D02*
D03*
Y124384D02*
D03*
X1290314Y106764D02*
D03*
Y116764D02*
D03*
X1314721Y381694D02*
D03*
Y391694D02*
D03*
X1305554Y384674D02*
D03*
Y374674D02*
D03*
X1193794Y296444D02*
D03*
Y286444D02*
D03*
X1202604Y296444D02*
D03*
Y286444D02*
D03*
X1160814Y344113D02*
D03*
Y334113D02*
D03*
X1353814Y314384D02*
D03*
Y324384D02*
D03*
X1290314Y306764D02*
D03*
Y316764D02*
D03*
X1314721Y581694D02*
D03*
Y591694D02*
D03*
X1305554Y584674D02*
D03*
Y574674D02*
D03*
X1193794Y496444D02*
D03*
Y486444D02*
D03*
X1202604Y496444D02*
D03*
Y486444D02*
D03*
X1160814Y544113D02*
D03*
Y534113D02*
D03*
X1353814Y514384D02*
D03*
Y524384D02*
D03*
X1290314Y506764D02*
D03*
Y516764D02*
D03*
X1314721Y781694D02*
D03*
Y791694D02*
D03*
X1305554Y784674D02*
D03*
Y774674D02*
D03*
X1193794Y696444D02*
D03*
Y686444D02*
D03*
X1202604Y696444D02*
D03*
Y686444D02*
D03*
X1160814Y744113D02*
D03*
Y734113D02*
D03*
X1353814Y714384D02*
D03*
Y724384D02*
D03*
X1290314Y706764D02*
D03*
Y716764D02*
D03*
X1314721Y981694D02*
D03*
Y991694D02*
D03*
X1305554Y984674D02*
D03*
Y974674D02*
D03*
X1193794Y896444D02*
D03*
Y886444D02*
D03*
X1202604Y896444D02*
D03*
Y886444D02*
D03*
X1160814Y944113D02*
D03*
Y934113D02*
D03*
X1353814Y914384D02*
D03*
Y924384D02*
D03*
X1290314Y906764D02*
D03*
Y916764D02*
D03*
X814721Y181694D02*
D03*
Y191694D02*
D03*
X805554Y184674D02*
D03*
Y174674D02*
D03*
X693794Y96444D02*
D03*
Y86444D02*
D03*
X702604Y96444D02*
D03*
Y86444D02*
D03*
X660814Y144113D02*
D03*
Y134113D02*
D03*
X853814Y114384D02*
D03*
Y124384D02*
D03*
X790314Y106764D02*
D03*
Y116764D02*
D03*
X814721Y381694D02*
D03*
Y391694D02*
D03*
X805554Y384674D02*
D03*
Y374674D02*
D03*
X693794Y296444D02*
D03*
Y286444D02*
D03*
X702604Y296444D02*
D03*
Y286444D02*
D03*
X660814Y344113D02*
D03*
Y334113D02*
D03*
X853814Y314384D02*
D03*
Y324384D02*
D03*
X790314Y306764D02*
D03*
Y316764D02*
D03*
X814721Y581694D02*
D03*
Y591694D02*
D03*
X805554Y584674D02*
D03*
Y574674D02*
D03*
X693794Y496444D02*
D03*
Y486444D02*
D03*
X702604Y496444D02*
D03*
Y486444D02*
D03*
X660814Y544113D02*
D03*
Y534113D02*
D03*
X853814Y514384D02*
D03*
Y524384D02*
D03*
X790314Y506764D02*
D03*
Y516764D02*
D03*
X814721Y781694D02*
D03*
Y791694D02*
D03*
X805554Y784674D02*
D03*
Y774674D02*
D03*
X693794Y696444D02*
D03*
Y686444D02*
D03*
X702604Y696444D02*
D03*
Y686444D02*
D03*
X660814Y744113D02*
D03*
Y734113D02*
D03*
X853814Y714384D02*
D03*
Y724384D02*
D03*
X790314Y706764D02*
D03*
Y716764D02*
D03*
X814721Y981694D02*
D03*
Y991694D02*
D03*
X805554Y984674D02*
D03*
Y974674D02*
D03*
X693794Y896444D02*
D03*
Y886444D02*
D03*
X702604Y896444D02*
D03*
Y886444D02*
D03*
X660814Y944113D02*
D03*
Y934113D02*
D03*
X853814Y914384D02*
D03*
Y924384D02*
D03*
X790314Y906764D02*
D03*
Y916764D02*
D03*
X314721Y181694D02*
D03*
Y191694D02*
D03*
X305554Y184674D02*
D03*
Y174674D02*
D03*
X193794Y96444D02*
D03*
Y86444D02*
D03*
X202604Y96444D02*
D03*
Y86444D02*
D03*
X160814Y144113D02*
D03*
Y134113D02*
D03*
X353814Y114384D02*
D03*
Y124384D02*
D03*
X290314Y106764D02*
D03*
Y116764D02*
D03*
X314721Y381694D02*
D03*
Y391694D02*
D03*
X305554Y384674D02*
D03*
Y374674D02*
D03*
X193794Y296444D02*
D03*
Y286444D02*
D03*
X202604Y296444D02*
D03*
Y286444D02*
D03*
X160814Y344113D02*
D03*
Y334113D02*
D03*
X353814Y314384D02*
D03*
Y324384D02*
D03*
X290314Y306764D02*
D03*
Y316764D02*
D03*
X314721Y581694D02*
D03*
Y591694D02*
D03*
X305554Y584674D02*
D03*
Y574674D02*
D03*
X193794Y496444D02*
D03*
Y486444D02*
D03*
X202604Y496444D02*
D03*
Y486444D02*
D03*
X160814Y544113D02*
D03*
Y534113D02*
D03*
X353814Y514384D02*
D03*
Y524384D02*
D03*
X290314Y506764D02*
D03*
Y516764D02*
D03*
X314721Y781694D02*
D03*
Y791694D02*
D03*
X305554Y784674D02*
D03*
Y774674D02*
D03*
X193794Y696444D02*
D03*
Y686444D02*
D03*
X202604Y696444D02*
D03*
Y686444D02*
D03*
X160814Y744113D02*
D03*
Y734113D02*
D03*
X353814Y714384D02*
D03*
Y724384D02*
D03*
X290314Y706764D02*
D03*
Y716764D02*
D03*
X314721Y981694D02*
D03*
Y991694D02*
D03*
X305554Y984674D02*
D03*
Y974674D02*
D03*
X193794Y896444D02*
D03*
Y886444D02*
D03*
X202604Y896444D02*
D03*
Y886444D02*
D03*
X160814Y944113D02*
D03*
Y934113D02*
D03*
X353814Y914384D02*
D03*
Y924384D02*
D03*
X290314Y906764D02*
D03*
Y916764D02*
D03*
D12*
X1223004Y43184D02*
D03*
X1188004D02*
D03*
X1223004Y243184D02*
D03*
X1188004D02*
D03*
X1223004Y443184D02*
D03*
X1188004D02*
D03*
X1223004Y643184D02*
D03*
X1188004D02*
D03*
X1223004Y843184D02*
D03*
X1188004D02*
D03*
X723004Y43184D02*
D03*
X688004D02*
D03*
X723004Y243184D02*
D03*
X688004D02*
D03*
X723004Y443184D02*
D03*
X688004D02*
D03*
X723004Y643184D02*
D03*
X688004D02*
D03*
X723004Y843184D02*
D03*
X688004D02*
D03*
X223004Y43184D02*
D03*
X188004D02*
D03*
X223004Y243184D02*
D03*
X188004D02*
D03*
X223004Y443184D02*
D03*
X188004D02*
D03*
X223004Y643184D02*
D03*
X188004D02*
D03*
X223004Y843184D02*
D03*
X188004D02*
D03*
D13*
X1154484Y173994D02*
D03*
X1144484D02*
D03*
X1215304Y16404D02*
D03*
X1205304D02*
D03*
X1170854D02*
D03*
X1180854D02*
D03*
X1027424Y81284D02*
D03*
X1037424D02*
D03*
X1027424Y71804D02*
D03*
X1037424D02*
D03*
X1296744Y42503D02*
D03*
X1306744D02*
D03*
X1296736Y30534D02*
D03*
X1306736D02*
D03*
X1315794Y53344D02*
D03*
X1325794D02*
D03*
X1325964Y64774D02*
D03*
X1315964D02*
D03*
X1266944Y116384D02*
D03*
X1276944D02*
D03*
X1328964Y157024D02*
D03*
X1318964D02*
D03*
X1175714Y172924D02*
D03*
X1185714D02*
D03*
X1173854Y160024D02*
D03*
X1183854D02*
D03*
X1163014Y39004D02*
D03*
X1173014D02*
D03*
X1173854Y151004D02*
D03*
X1183854D02*
D03*
X1235042Y158963D02*
D03*
X1225042D02*
D03*
X1343734Y45003D02*
D03*
X1353734D02*
D03*
X1031114Y92254D02*
D03*
X1041114D02*
D03*
X1266944Y106003D02*
D03*
X1276944D02*
D03*
X1298195Y75304D02*
D03*
X1308195D02*
D03*
X1154484Y373994D02*
D03*
X1144484D02*
D03*
X1215304Y216404D02*
D03*
X1205304D02*
D03*
X1170854D02*
D03*
X1180854D02*
D03*
X1027424Y281284D02*
D03*
X1037424D02*
D03*
X1027424Y271804D02*
D03*
X1037424D02*
D03*
X1296744Y242503D02*
D03*
X1306744D02*
D03*
X1296736Y230534D02*
D03*
X1306736D02*
D03*
X1315794Y253344D02*
D03*
X1325794D02*
D03*
X1325964Y264774D02*
D03*
X1315964D02*
D03*
X1266944Y316384D02*
D03*
X1276944D02*
D03*
X1328964Y357024D02*
D03*
X1318964D02*
D03*
X1175714Y372924D02*
D03*
X1185714D02*
D03*
X1173854Y360024D02*
D03*
X1183854D02*
D03*
X1163014Y239004D02*
D03*
X1173014D02*
D03*
X1173854Y351004D02*
D03*
X1183854D02*
D03*
X1235042Y358963D02*
D03*
X1225042D02*
D03*
X1343734Y245003D02*
D03*
X1353734D02*
D03*
X1031114Y292254D02*
D03*
X1041114D02*
D03*
X1266944Y306003D02*
D03*
X1276944D02*
D03*
X1298195Y275304D02*
D03*
X1308195D02*
D03*
X1154484Y573994D02*
D03*
X1144484D02*
D03*
X1215304Y416404D02*
D03*
X1205304D02*
D03*
X1170854D02*
D03*
X1180854D02*
D03*
X1027424Y481284D02*
D03*
X1037424D02*
D03*
X1027424Y471804D02*
D03*
X1037424D02*
D03*
X1296744Y442503D02*
D03*
X1306744D02*
D03*
X1296736Y430534D02*
D03*
X1306736D02*
D03*
X1315794Y453344D02*
D03*
X1325794D02*
D03*
X1325964Y464774D02*
D03*
X1315964D02*
D03*
X1266944Y516384D02*
D03*
X1276944D02*
D03*
X1328964Y557024D02*
D03*
X1318964D02*
D03*
X1175714Y572924D02*
D03*
X1185714D02*
D03*
X1173854Y560024D02*
D03*
X1183854D02*
D03*
X1163014Y439004D02*
D03*
X1173014D02*
D03*
X1173854Y551004D02*
D03*
X1183854D02*
D03*
X1235042Y558963D02*
D03*
X1225042D02*
D03*
X1343734Y445003D02*
D03*
X1353734D02*
D03*
X1031114Y492254D02*
D03*
X1041114D02*
D03*
X1266944Y506003D02*
D03*
X1276944D02*
D03*
X1298195Y475304D02*
D03*
X1308195D02*
D03*
X1154484Y773994D02*
D03*
X1144484D02*
D03*
X1215304Y616404D02*
D03*
X1205304D02*
D03*
X1170854D02*
D03*
X1180854D02*
D03*
X1027424Y681284D02*
D03*
X1037424D02*
D03*
X1027424Y671804D02*
D03*
X1037424D02*
D03*
X1296744Y642503D02*
D03*
X1306744D02*
D03*
X1296736Y630534D02*
D03*
X1306736D02*
D03*
X1315794Y653344D02*
D03*
X1325794D02*
D03*
X1325964Y664774D02*
D03*
X1315964D02*
D03*
X1266944Y716384D02*
D03*
X1276944D02*
D03*
X1328964Y757024D02*
D03*
X1318964D02*
D03*
X1175714Y772924D02*
D03*
X1185714D02*
D03*
X1173854Y760024D02*
D03*
X1183854D02*
D03*
X1163014Y639004D02*
D03*
X1173014D02*
D03*
X1173854Y751004D02*
D03*
X1183854D02*
D03*
X1235042Y758963D02*
D03*
X1225042D02*
D03*
X1343734Y645003D02*
D03*
X1353734D02*
D03*
X1031114Y692254D02*
D03*
X1041114D02*
D03*
X1266944Y706003D02*
D03*
X1276944D02*
D03*
X1298195Y675304D02*
D03*
X1308195D02*
D03*
X1154484Y973994D02*
D03*
X1144484D02*
D03*
X1215304Y816404D02*
D03*
X1205304D02*
D03*
X1170854D02*
D03*
X1180854D02*
D03*
X1027424Y881284D02*
D03*
X1037424D02*
D03*
X1027424Y871804D02*
D03*
X1037424D02*
D03*
X1296744Y842503D02*
D03*
X1306744D02*
D03*
X1296736Y830534D02*
D03*
X1306736D02*
D03*
X1315794Y853344D02*
D03*
X1325794D02*
D03*
X1325964Y864774D02*
D03*
X1315964D02*
D03*
X1266944Y916384D02*
D03*
X1276944D02*
D03*
X1328964Y957024D02*
D03*
X1318964D02*
D03*
X1175714Y972924D02*
D03*
X1185714D02*
D03*
X1173854Y960024D02*
D03*
X1183854D02*
D03*
X1163014Y839004D02*
D03*
X1173014D02*
D03*
X1173854Y951004D02*
D03*
X1183854D02*
D03*
X1235042Y958963D02*
D03*
X1225042D02*
D03*
X1343734Y845003D02*
D03*
X1353734D02*
D03*
X1031114Y892254D02*
D03*
X1041114D02*
D03*
X1266944Y906003D02*
D03*
X1276944D02*
D03*
X1298195Y875304D02*
D03*
X1308195D02*
D03*
X654484Y173994D02*
D03*
X644484D02*
D03*
X715304Y16404D02*
D03*
X705304D02*
D03*
X670854D02*
D03*
X680854D02*
D03*
X527424Y81284D02*
D03*
X537424D02*
D03*
X527424Y71804D02*
D03*
X537424D02*
D03*
X796744Y42503D02*
D03*
X806744D02*
D03*
X796736Y30534D02*
D03*
X806736D02*
D03*
X815794Y53344D02*
D03*
X825794D02*
D03*
X825964Y64774D02*
D03*
X815964D02*
D03*
X766944Y116384D02*
D03*
X776944D02*
D03*
X828964Y157024D02*
D03*
X818964D02*
D03*
X675714Y172924D02*
D03*
X685714D02*
D03*
X673854Y160024D02*
D03*
X683854D02*
D03*
X663014Y39004D02*
D03*
X673014D02*
D03*
X673854Y151004D02*
D03*
X683854D02*
D03*
X735042Y158963D02*
D03*
X725042D02*
D03*
X843734Y45003D02*
D03*
X853734D02*
D03*
X531114Y92254D02*
D03*
X541114D02*
D03*
X766944Y106003D02*
D03*
X776944D02*
D03*
X798195Y75304D02*
D03*
X808195D02*
D03*
X654484Y373994D02*
D03*
X644484D02*
D03*
X715304Y216404D02*
D03*
X705304D02*
D03*
X670854D02*
D03*
X680854D02*
D03*
X527424Y281284D02*
D03*
X537424D02*
D03*
X527424Y271804D02*
D03*
X537424D02*
D03*
X796744Y242503D02*
D03*
X806744D02*
D03*
X796736Y230534D02*
D03*
X806736D02*
D03*
X815794Y253344D02*
D03*
X825794D02*
D03*
X825964Y264774D02*
D03*
X815964D02*
D03*
X766944Y316384D02*
D03*
X776944D02*
D03*
X828964Y357024D02*
D03*
X818964D02*
D03*
X675714Y372924D02*
D03*
X685714D02*
D03*
X673854Y360024D02*
D03*
X683854D02*
D03*
X663014Y239004D02*
D03*
X673014D02*
D03*
X673854Y351004D02*
D03*
X683854D02*
D03*
X735042Y358963D02*
D03*
X725042D02*
D03*
X843734Y245003D02*
D03*
X853734D02*
D03*
X531114Y292254D02*
D03*
X541114D02*
D03*
X766944Y306003D02*
D03*
X776944D02*
D03*
X798195Y275304D02*
D03*
X808195D02*
D03*
X654484Y573994D02*
D03*
X644484D02*
D03*
X715304Y416404D02*
D03*
X705304D02*
D03*
X670854D02*
D03*
X680854D02*
D03*
X527424Y481284D02*
D03*
X537424D02*
D03*
X527424Y471804D02*
D03*
X537424D02*
D03*
X796744Y442503D02*
D03*
X806744D02*
D03*
X796736Y430534D02*
D03*
X806736D02*
D03*
X815794Y453344D02*
D03*
X825794D02*
D03*
X825964Y464774D02*
D03*
X815964D02*
D03*
X766944Y516384D02*
D03*
X776944D02*
D03*
X828964Y557024D02*
D03*
X818964D02*
D03*
X675714Y572924D02*
D03*
X685714D02*
D03*
X673854Y560024D02*
D03*
X683854D02*
D03*
X663014Y439004D02*
D03*
X673014D02*
D03*
X673854Y551004D02*
D03*
X683854D02*
D03*
X735042Y558963D02*
D03*
X725042D02*
D03*
X843734Y445003D02*
D03*
X853734D02*
D03*
X531114Y492254D02*
D03*
X541114D02*
D03*
X766944Y506003D02*
D03*
X776944D02*
D03*
X798195Y475304D02*
D03*
X808195D02*
D03*
X654484Y773994D02*
D03*
X644484D02*
D03*
X715304Y616404D02*
D03*
X705304D02*
D03*
X670854D02*
D03*
X680854D02*
D03*
X527424Y681284D02*
D03*
X537424D02*
D03*
X527424Y671804D02*
D03*
X537424D02*
D03*
X796744Y642503D02*
D03*
X806744D02*
D03*
X796736Y630534D02*
D03*
X806736D02*
D03*
X815794Y653344D02*
D03*
X825794D02*
D03*
X825964Y664774D02*
D03*
X815964D02*
D03*
X766944Y716384D02*
D03*
X776944D02*
D03*
X828964Y757024D02*
D03*
X818964D02*
D03*
X675714Y772924D02*
D03*
X685714D02*
D03*
X673854Y760024D02*
D03*
X683854D02*
D03*
X663014Y639004D02*
D03*
X673014D02*
D03*
X673854Y751004D02*
D03*
X683854D02*
D03*
X735042Y758963D02*
D03*
X725042D02*
D03*
X843734Y645003D02*
D03*
X853734D02*
D03*
X531114Y692254D02*
D03*
X541114D02*
D03*
X766944Y706003D02*
D03*
X776944D02*
D03*
X798195Y675304D02*
D03*
X808195D02*
D03*
X654484Y973994D02*
D03*
X644484D02*
D03*
X715304Y816404D02*
D03*
X705304D02*
D03*
X670854D02*
D03*
X680854D02*
D03*
X527424Y881284D02*
D03*
X537424D02*
D03*
X527424Y871804D02*
D03*
X537424D02*
D03*
X796744Y842503D02*
D03*
X806744D02*
D03*
X796736Y830534D02*
D03*
X806736D02*
D03*
X815794Y853344D02*
D03*
X825794D02*
D03*
X825964Y864774D02*
D03*
X815964D02*
D03*
X766944Y916384D02*
D03*
X776944D02*
D03*
X828964Y957024D02*
D03*
X818964D02*
D03*
X675714Y972924D02*
D03*
X685714D02*
D03*
X673854Y960024D02*
D03*
X683854D02*
D03*
X663014Y839004D02*
D03*
X673014D02*
D03*
X673854Y951004D02*
D03*
X683854D02*
D03*
X735042Y958963D02*
D03*
X725042D02*
D03*
X843734Y845003D02*
D03*
X853734D02*
D03*
X531114Y892254D02*
D03*
X541114D02*
D03*
X766944Y906003D02*
D03*
X776944D02*
D03*
X798195Y875304D02*
D03*
X808195D02*
D03*
X154484Y173994D02*
D03*
X144484D02*
D03*
X215304Y16404D02*
D03*
X205304D02*
D03*
X170854D02*
D03*
X180854D02*
D03*
X27424Y81284D02*
D03*
X37424D02*
D03*
X27424Y71804D02*
D03*
X37424D02*
D03*
X296744Y42503D02*
D03*
X306744D02*
D03*
X296736Y30534D02*
D03*
X306736D02*
D03*
X315794Y53344D02*
D03*
X325794D02*
D03*
X325964Y64774D02*
D03*
X315964D02*
D03*
X266944Y116384D02*
D03*
X276944D02*
D03*
X328964Y157024D02*
D03*
X318964D02*
D03*
X175714Y172924D02*
D03*
X185714D02*
D03*
X173854Y160024D02*
D03*
X183854D02*
D03*
X163014Y39004D02*
D03*
X173014D02*
D03*
X173854Y151004D02*
D03*
X183854D02*
D03*
X235042Y158963D02*
D03*
X225042D02*
D03*
X343734Y45003D02*
D03*
X353734D02*
D03*
X31114Y92254D02*
D03*
X41114D02*
D03*
X266944Y106003D02*
D03*
X276944D02*
D03*
X298195Y75304D02*
D03*
X308195D02*
D03*
X154484Y373994D02*
D03*
X144484D02*
D03*
X215304Y216404D02*
D03*
X205304D02*
D03*
X170854D02*
D03*
X180854D02*
D03*
X27424Y281284D02*
D03*
X37424D02*
D03*
X27424Y271804D02*
D03*
X37424D02*
D03*
X296744Y242503D02*
D03*
X306744D02*
D03*
X296736Y230534D02*
D03*
X306736D02*
D03*
X315794Y253344D02*
D03*
X325794D02*
D03*
X325964Y264774D02*
D03*
X315964D02*
D03*
X266944Y316384D02*
D03*
X276944D02*
D03*
X328964Y357024D02*
D03*
X318964D02*
D03*
X175714Y372924D02*
D03*
X185714D02*
D03*
X173854Y360024D02*
D03*
X183854D02*
D03*
X163014Y239004D02*
D03*
X173014D02*
D03*
X173854Y351004D02*
D03*
X183854D02*
D03*
X235042Y358963D02*
D03*
X225042D02*
D03*
X343734Y245003D02*
D03*
X353734D02*
D03*
X31114Y292254D02*
D03*
X41114D02*
D03*
X266944Y306003D02*
D03*
X276944D02*
D03*
X298195Y275304D02*
D03*
X308195D02*
D03*
X154484Y573994D02*
D03*
X144484D02*
D03*
X215304Y416404D02*
D03*
X205304D02*
D03*
X170854D02*
D03*
X180854D02*
D03*
X27424Y481284D02*
D03*
X37424D02*
D03*
X27424Y471804D02*
D03*
X37424D02*
D03*
X296744Y442503D02*
D03*
X306744D02*
D03*
X296736Y430534D02*
D03*
X306736D02*
D03*
X315794Y453344D02*
D03*
X325794D02*
D03*
X325964Y464774D02*
D03*
X315964D02*
D03*
X266944Y516384D02*
D03*
X276944D02*
D03*
X328964Y557024D02*
D03*
X318964D02*
D03*
X175714Y572924D02*
D03*
X185714D02*
D03*
X173854Y560024D02*
D03*
X183854D02*
D03*
X163014Y439004D02*
D03*
X173014D02*
D03*
X173854Y551004D02*
D03*
X183854D02*
D03*
X235042Y558963D02*
D03*
X225042D02*
D03*
X343734Y445003D02*
D03*
X353734D02*
D03*
X31114Y492254D02*
D03*
X41114D02*
D03*
X266944Y506003D02*
D03*
X276944D02*
D03*
X298195Y475304D02*
D03*
X308195D02*
D03*
X154484Y773994D02*
D03*
X144484D02*
D03*
X215304Y616404D02*
D03*
X205304D02*
D03*
X170854D02*
D03*
X180854D02*
D03*
X27424Y681284D02*
D03*
X37424D02*
D03*
X27424Y671804D02*
D03*
X37424D02*
D03*
X296744Y642503D02*
D03*
X306744D02*
D03*
X296736Y630534D02*
D03*
X306736D02*
D03*
X315794Y653344D02*
D03*
X325794D02*
D03*
X325964Y664774D02*
D03*
X315964D02*
D03*
X266944Y716384D02*
D03*
X276944D02*
D03*
X328964Y757024D02*
D03*
X318964D02*
D03*
X175714Y772924D02*
D03*
X185714D02*
D03*
X173854Y760024D02*
D03*
X183854D02*
D03*
X163014Y639004D02*
D03*
X173014D02*
D03*
X173854Y751004D02*
D03*
X183854D02*
D03*
X235042Y758963D02*
D03*
X225042D02*
D03*
X343734Y645003D02*
D03*
X353734D02*
D03*
X31114Y692254D02*
D03*
X41114D02*
D03*
X266944Y706003D02*
D03*
X276944D02*
D03*
X298195Y675304D02*
D03*
X308195D02*
D03*
X154484Y973994D02*
D03*
X144484D02*
D03*
X215304Y816404D02*
D03*
X205304D02*
D03*
X170854D02*
D03*
X180854D02*
D03*
X27424Y881284D02*
D03*
X37424D02*
D03*
X27424Y871804D02*
D03*
X37424D02*
D03*
X296744Y842503D02*
D03*
X306744D02*
D03*
X296736Y830534D02*
D03*
X306736D02*
D03*
X315794Y853344D02*
D03*
X325794D02*
D03*
X325964Y864774D02*
D03*
X315964D02*
D03*
X266944Y916384D02*
D03*
X276944D02*
D03*
X328964Y957024D02*
D03*
X318964D02*
D03*
X175714Y972924D02*
D03*
X185714D02*
D03*
X173854Y960024D02*
D03*
X183854D02*
D03*
X163014Y839004D02*
D03*
X173014D02*
D03*
X173854Y951004D02*
D03*
X183854D02*
D03*
X235042Y958963D02*
D03*
X225042D02*
D03*
X343734Y845003D02*
D03*
X353734D02*
D03*
X31114Y892254D02*
D03*
X41114D02*
D03*
X266944Y906003D02*
D03*
X276944D02*
D03*
X298195Y875304D02*
D03*
X308195D02*
D03*
D14*
X1132383Y178454D02*
D03*
Y164454D02*
D03*
X1234792Y146113D02*
D03*
Y132113D02*
D03*
X1132383Y378454D02*
D03*
Y364454D02*
D03*
X1234792Y346113D02*
D03*
Y332113D02*
D03*
X1132383Y578454D02*
D03*
Y564454D02*
D03*
X1234792Y546113D02*
D03*
Y532113D02*
D03*
X1132383Y778454D02*
D03*
Y764454D02*
D03*
X1234792Y746113D02*
D03*
Y732113D02*
D03*
X1132383Y978454D02*
D03*
Y964454D02*
D03*
X1234792Y946113D02*
D03*
Y932113D02*
D03*
X632383Y178454D02*
D03*
Y164454D02*
D03*
X734792Y146113D02*
D03*
Y132113D02*
D03*
X632383Y378454D02*
D03*
Y364454D02*
D03*
X734792Y346113D02*
D03*
Y332113D02*
D03*
X632383Y578454D02*
D03*
Y564454D02*
D03*
X734792Y546113D02*
D03*
Y532113D02*
D03*
X632383Y778454D02*
D03*
Y764454D02*
D03*
X734792Y746113D02*
D03*
Y732113D02*
D03*
X632383Y978454D02*
D03*
Y964454D02*
D03*
X734792Y946113D02*
D03*
Y932113D02*
D03*
X132383Y178454D02*
D03*
Y164454D02*
D03*
X234792Y146113D02*
D03*
Y132113D02*
D03*
X132383Y378454D02*
D03*
Y364454D02*
D03*
X234792Y346113D02*
D03*
Y332113D02*
D03*
X132383Y578454D02*
D03*
Y564454D02*
D03*
X234792Y546113D02*
D03*
Y532113D02*
D03*
X132383Y778454D02*
D03*
Y764454D02*
D03*
X234792Y746113D02*
D03*
Y732113D02*
D03*
X132383Y978454D02*
D03*
Y964454D02*
D03*
X234792Y946113D02*
D03*
Y932113D02*
D03*
D15*
X1264444Y83363D02*
D03*
Y283363D02*
D03*
Y483363D02*
D03*
Y683363D02*
D03*
Y883363D02*
D03*
X764444Y83363D02*
D03*
Y283363D02*
D03*
Y483363D02*
D03*
Y683363D02*
D03*
Y883363D02*
D03*
X264444Y83363D02*
D03*
Y283363D02*
D03*
Y483363D02*
D03*
Y683363D02*
D03*
Y883363D02*
D03*
D16*
X1251944Y70063D02*
D03*
X1256944D02*
D03*
X1261944D02*
D03*
X1266944D02*
D03*
X1271944D02*
D03*
X1276944D02*
D03*
X1251944Y96663D02*
D03*
X1256944D02*
D03*
X1261944D02*
D03*
X1266944D02*
D03*
X1271944D02*
D03*
X1276944D02*
D03*
X1251944Y270063D02*
D03*
X1256944D02*
D03*
X1261944D02*
D03*
X1266944D02*
D03*
X1271944D02*
D03*
X1276944D02*
D03*
X1251944Y296663D02*
D03*
X1256944D02*
D03*
X1261944D02*
D03*
X1266944D02*
D03*
X1271944D02*
D03*
X1276944D02*
D03*
X1251944Y470063D02*
D03*
X1256944D02*
D03*
X1261944D02*
D03*
X1266944D02*
D03*
X1271944D02*
D03*
X1276944D02*
D03*
X1251944Y496663D02*
D03*
X1256944D02*
D03*
X1261944D02*
D03*
X1266944D02*
D03*
X1271944D02*
D03*
X1276944D02*
D03*
X1251944Y670063D02*
D03*
X1256944D02*
D03*
X1261944D02*
D03*
X1266944D02*
D03*
X1271944D02*
D03*
X1276944D02*
D03*
X1251944Y696663D02*
D03*
X1256944D02*
D03*
X1261944D02*
D03*
X1266944D02*
D03*
X1271944D02*
D03*
X1276944D02*
D03*
X1251944Y870063D02*
D03*
X1256944D02*
D03*
X1261944D02*
D03*
X1266944D02*
D03*
X1271944D02*
D03*
X1276944D02*
D03*
X1251944Y896663D02*
D03*
X1256944D02*
D03*
X1261944D02*
D03*
X1266944D02*
D03*
X1271944D02*
D03*
X1276944D02*
D03*
X751944Y70063D02*
D03*
X756944D02*
D03*
X761944D02*
D03*
X766944D02*
D03*
X771944D02*
D03*
X776944D02*
D03*
X751944Y96663D02*
D03*
X756944D02*
D03*
X761944D02*
D03*
X766944D02*
D03*
X771944D02*
D03*
X776944D02*
D03*
X751944Y270063D02*
D03*
X756944D02*
D03*
X761944D02*
D03*
X766944D02*
D03*
X771944D02*
D03*
X776944D02*
D03*
X751944Y296663D02*
D03*
X756944D02*
D03*
X761944D02*
D03*
X766944D02*
D03*
X771944D02*
D03*
X776944D02*
D03*
X751944Y470063D02*
D03*
X756944D02*
D03*
X761944D02*
D03*
X766944D02*
D03*
X771944D02*
D03*
X776944D02*
D03*
X751944Y496663D02*
D03*
X756944D02*
D03*
X761944D02*
D03*
X766944D02*
D03*
X771944D02*
D03*
X776944D02*
D03*
X751944Y670063D02*
D03*
X756944D02*
D03*
X761944D02*
D03*
X766944D02*
D03*
X771944D02*
D03*
X776944D02*
D03*
X751944Y696663D02*
D03*
X756944D02*
D03*
X761944D02*
D03*
X766944D02*
D03*
X771944D02*
D03*
X776944D02*
D03*
X751944Y870063D02*
D03*
X756944D02*
D03*
X761944D02*
D03*
X766944D02*
D03*
X771944D02*
D03*
X776944D02*
D03*
X751944Y896663D02*
D03*
X756944D02*
D03*
X761944D02*
D03*
X766944D02*
D03*
X771944D02*
D03*
X776944D02*
D03*
X251944Y70063D02*
D03*
X256944D02*
D03*
X261944D02*
D03*
X266944D02*
D03*
X271944D02*
D03*
X276944D02*
D03*
X251944Y96663D02*
D03*
X256944D02*
D03*
X261944D02*
D03*
X266944D02*
D03*
X271944D02*
D03*
X276944D02*
D03*
X251944Y270063D02*
D03*
X256944D02*
D03*
X261944D02*
D03*
X266944D02*
D03*
X271944D02*
D03*
X276944D02*
D03*
X251944Y296663D02*
D03*
X256944D02*
D03*
X261944D02*
D03*
X266944D02*
D03*
X271944D02*
D03*
X276944D02*
D03*
X251944Y470063D02*
D03*
X256944D02*
D03*
X261944D02*
D03*
X266944D02*
D03*
X271944D02*
D03*
X276944D02*
D03*
X251944Y496663D02*
D03*
X256944D02*
D03*
X261944D02*
D03*
X266944D02*
D03*
X271944D02*
D03*
X276944D02*
D03*
X251944Y670063D02*
D03*
X256944D02*
D03*
X261944D02*
D03*
X266944D02*
D03*
X271944D02*
D03*
X276944D02*
D03*
X251944Y696663D02*
D03*
X256944D02*
D03*
X261944D02*
D03*
X266944D02*
D03*
X271944D02*
D03*
X276944D02*
D03*
X251944Y870063D02*
D03*
X256944D02*
D03*
X261944D02*
D03*
X266944D02*
D03*
X271944D02*
D03*
X276944D02*
D03*
X251944Y896663D02*
D03*
X256944D02*
D03*
X261944D02*
D03*
X266944D02*
D03*
X271944D02*
D03*
X276944D02*
D03*
D17*
X1010754Y107754D02*
D03*
X1020754D02*
D03*
X1010754Y92254D02*
D03*
X1020754D02*
D03*
X1010754Y307754D02*
D03*
X1020754D02*
D03*
X1010754Y292254D02*
D03*
X1020754D02*
D03*
X1010754Y507754D02*
D03*
X1020754D02*
D03*
X1010754Y492254D02*
D03*
X1020754D02*
D03*
X1010754Y707754D02*
D03*
X1020754D02*
D03*
X1010754Y692254D02*
D03*
X1020754D02*
D03*
X1010754Y907754D02*
D03*
X1020754D02*
D03*
X1010754Y892254D02*
D03*
X1020754D02*
D03*
X510754Y107754D02*
D03*
X520754D02*
D03*
X510754Y92254D02*
D03*
X520754D02*
D03*
X510754Y307754D02*
D03*
X520754D02*
D03*
X510754Y292254D02*
D03*
X520754D02*
D03*
X510754Y507754D02*
D03*
X520754D02*
D03*
X510754Y492254D02*
D03*
X520754D02*
D03*
X510754Y707754D02*
D03*
X520754D02*
D03*
X510754Y692254D02*
D03*
X520754D02*
D03*
X510754Y907754D02*
D03*
X520754D02*
D03*
X510754Y892254D02*
D03*
X520754D02*
D03*
X10754Y107754D02*
D03*
X20754D02*
D03*
X10754Y92254D02*
D03*
X20754D02*
D03*
X10754Y307754D02*
D03*
X20754D02*
D03*
X10754Y292254D02*
D03*
X20754D02*
D03*
X10754Y507754D02*
D03*
X20754D02*
D03*
X10754Y492254D02*
D03*
X20754D02*
D03*
X10754Y707754D02*
D03*
X20754D02*
D03*
X10754Y692254D02*
D03*
X20754D02*
D03*
X10754Y907754D02*
D03*
X20754D02*
D03*
X10754Y892254D02*
D03*
X20754D02*
D03*
D18*
X1373364Y126404D02*
D03*
X1372364Y73004D02*
D03*
X1373364Y326404D02*
D03*
X1372364Y273004D02*
D03*
X1373364Y526404D02*
D03*
X1372364Y473004D02*
D03*
X1373364Y726404D02*
D03*
X1372364Y673004D02*
D03*
X1373364Y926404D02*
D03*
X1372364Y873004D02*
D03*
X873364Y126404D02*
D03*
X872364Y73004D02*
D03*
X873364Y326404D02*
D03*
X872364Y273004D02*
D03*
X873364Y526404D02*
D03*
X872364Y473004D02*
D03*
X873364Y726404D02*
D03*
X872364Y673004D02*
D03*
X873364Y926404D02*
D03*
X872364Y873004D02*
D03*
X373364Y126404D02*
D03*
X372364Y73004D02*
D03*
X373364Y326404D02*
D03*
X372364Y273004D02*
D03*
X373364Y526404D02*
D03*
X372364Y473004D02*
D03*
X373364Y726404D02*
D03*
X372364Y673004D02*
D03*
X373364Y926404D02*
D03*
X372364Y873004D02*
D03*
D19*
X1372864Y100004D02*
D03*
Y106504D02*
D03*
Y93504D02*
D03*
Y300004D02*
D03*
Y306504D02*
D03*
Y293504D02*
D03*
Y500004D02*
D03*
Y506504D02*
D03*
Y493504D02*
D03*
Y700004D02*
D03*
Y706504D02*
D03*
Y693504D02*
D03*
Y900004D02*
D03*
Y906504D02*
D03*
Y893504D02*
D03*
X872864Y100004D02*
D03*
Y106504D02*
D03*
Y93504D02*
D03*
Y300004D02*
D03*
Y306504D02*
D03*
Y293504D02*
D03*
Y500004D02*
D03*
Y506504D02*
D03*
Y493504D02*
D03*
Y700004D02*
D03*
Y706504D02*
D03*
Y693504D02*
D03*
Y900004D02*
D03*
Y906504D02*
D03*
Y893504D02*
D03*
X372864Y100004D02*
D03*
Y106504D02*
D03*
Y93504D02*
D03*
Y300004D02*
D03*
Y306504D02*
D03*
Y293504D02*
D03*
Y500004D02*
D03*
Y506504D02*
D03*
Y493504D02*
D03*
Y700004D02*
D03*
Y706504D02*
D03*
Y693504D02*
D03*
Y900004D02*
D03*
Y906504D02*
D03*
Y893504D02*
D03*
D20*
X1372864Y114254D02*
D03*
Y85754D02*
D03*
Y314254D02*
D03*
Y285754D02*
D03*
Y514254D02*
D03*
Y485754D02*
D03*
Y714254D02*
D03*
Y685754D02*
D03*
Y914254D02*
D03*
Y885754D02*
D03*
X872864Y114254D02*
D03*
Y85754D02*
D03*
Y314254D02*
D03*
Y285754D02*
D03*
Y514254D02*
D03*
Y485754D02*
D03*
Y714254D02*
D03*
Y685754D02*
D03*
Y914254D02*
D03*
Y885754D02*
D03*
X372864Y114254D02*
D03*
Y85754D02*
D03*
Y314254D02*
D03*
Y285754D02*
D03*
Y514254D02*
D03*
Y485754D02*
D03*
Y714254D02*
D03*
Y685754D02*
D03*
Y914254D02*
D03*
Y885754D02*
D03*
D21*
X1366504Y11534D02*
D03*
X1327504D02*
D03*
X1366504Y211534D02*
D03*
X1327504D02*
D03*
X1366504Y411534D02*
D03*
X1327504D02*
D03*
X1366504Y611534D02*
D03*
X1327504D02*
D03*
X1366504Y811534D02*
D03*
X1327504D02*
D03*
X866504Y11534D02*
D03*
X827504D02*
D03*
X866504Y211534D02*
D03*
X827504D02*
D03*
X866504Y411534D02*
D03*
X827504D02*
D03*
X866504Y611534D02*
D03*
X827504D02*
D03*
X866504Y811534D02*
D03*
X827504D02*
D03*
X366504Y11534D02*
D03*
X327504D02*
D03*
X366504Y211534D02*
D03*
X327504D02*
D03*
X366504Y411534D02*
D03*
X327504D02*
D03*
X366504Y611534D02*
D03*
X327504D02*
D03*
X366504Y811534D02*
D03*
X327504D02*
D03*
D22*
X1351004Y31034D02*
D03*
X1343004D02*
D03*
X1351004Y231034D02*
D03*
X1343004D02*
D03*
X1351004Y431034D02*
D03*
X1343004D02*
D03*
X1351004Y631034D02*
D03*
X1343004D02*
D03*
X1351004Y831034D02*
D03*
X1343004D02*
D03*
X851004Y31034D02*
D03*
X843004D02*
D03*
X851004Y231034D02*
D03*
X843004D02*
D03*
X851004Y431034D02*
D03*
X843004D02*
D03*
X851004Y631034D02*
D03*
X843004D02*
D03*
X851004Y831034D02*
D03*
X843004D02*
D03*
X351004Y31034D02*
D03*
X343004D02*
D03*
X351004Y231034D02*
D03*
X343004D02*
D03*
X351004Y431034D02*
D03*
X343004D02*
D03*
X351004Y631034D02*
D03*
X343004D02*
D03*
X351004Y831034D02*
D03*
X343004D02*
D03*
D23*
X1320064Y91804D02*
D03*
Y86804D02*
D03*
X1344064D02*
D03*
Y91804D02*
D03*
X1320064Y291804D02*
D03*
Y286804D02*
D03*
X1344064D02*
D03*
Y291804D02*
D03*
X1320064Y491804D02*
D03*
Y486804D02*
D03*
X1344064D02*
D03*
Y491804D02*
D03*
X1320064Y691804D02*
D03*
Y686804D02*
D03*
X1344064D02*
D03*
Y691804D02*
D03*
X1320064Y891804D02*
D03*
Y886804D02*
D03*
X1344064D02*
D03*
Y891804D02*
D03*
X820064Y91804D02*
D03*
Y86804D02*
D03*
X844064D02*
D03*
Y91804D02*
D03*
X820064Y291804D02*
D03*
Y286804D02*
D03*
X844064D02*
D03*
Y291804D02*
D03*
X820064Y491804D02*
D03*
Y486804D02*
D03*
X844064D02*
D03*
Y491804D02*
D03*
X820064Y691804D02*
D03*
Y686804D02*
D03*
X844064D02*
D03*
Y691804D02*
D03*
X820064Y891804D02*
D03*
Y886804D02*
D03*
X844064D02*
D03*
Y891804D02*
D03*
X320064Y91804D02*
D03*
Y86804D02*
D03*
X344064D02*
D03*
Y91804D02*
D03*
X320064Y291804D02*
D03*
Y286804D02*
D03*
X344064D02*
D03*
Y291804D02*
D03*
X320064Y491804D02*
D03*
Y486804D02*
D03*
X344064D02*
D03*
Y491804D02*
D03*
X320064Y691804D02*
D03*
Y686804D02*
D03*
X344064D02*
D03*
Y691804D02*
D03*
X320064Y891804D02*
D03*
Y886804D02*
D03*
X344064D02*
D03*
Y891804D02*
D03*
D24*
X1332064Y89304D02*
D03*
Y289304D02*
D03*
Y489304D02*
D03*
Y689304D02*
D03*
Y889304D02*
D03*
X832064Y89304D02*
D03*
Y289304D02*
D03*
Y489304D02*
D03*
Y689304D02*
D03*
Y889304D02*
D03*
X332064Y89304D02*
D03*
Y289304D02*
D03*
Y489304D02*
D03*
Y689304D02*
D03*
Y889304D02*
D03*
D25*
X1322064Y75304D02*
D03*
X1327064D02*
D03*
X1332064D02*
D03*
X1337064D02*
D03*
X1342064D02*
D03*
X1322064Y103304D02*
D03*
X1327064D02*
D03*
X1332064D02*
D03*
X1337064D02*
D03*
X1342064D02*
D03*
X1322064Y275304D02*
D03*
X1327064D02*
D03*
X1332064D02*
D03*
X1337064D02*
D03*
X1342064D02*
D03*
X1322064Y303304D02*
D03*
X1327064D02*
D03*
X1332064D02*
D03*
X1337064D02*
D03*
X1342064D02*
D03*
X1322064Y475304D02*
D03*
X1327064D02*
D03*
X1332064D02*
D03*
X1337064D02*
D03*
X1342064D02*
D03*
X1322064Y503304D02*
D03*
X1327064D02*
D03*
X1332064D02*
D03*
X1337064D02*
D03*
X1342064D02*
D03*
X1322064Y675304D02*
D03*
X1327064D02*
D03*
X1332064D02*
D03*
X1337064D02*
D03*
X1342064D02*
D03*
X1322064Y703304D02*
D03*
X1327064D02*
D03*
X1332064D02*
D03*
X1337064D02*
D03*
X1342064D02*
D03*
X1322064Y875304D02*
D03*
X1327064D02*
D03*
X1332064D02*
D03*
X1337064D02*
D03*
X1342064D02*
D03*
X1322064Y903304D02*
D03*
X1327064D02*
D03*
X1332064D02*
D03*
X1337064D02*
D03*
X1342064D02*
D03*
X822064Y75304D02*
D03*
X827064D02*
D03*
X832064D02*
D03*
X837064D02*
D03*
X842064D02*
D03*
X822064Y103304D02*
D03*
X827064D02*
D03*
X832064D02*
D03*
X837064D02*
D03*
X842064D02*
D03*
X822064Y275304D02*
D03*
X827064D02*
D03*
X832064D02*
D03*
X837064D02*
D03*
X842064D02*
D03*
X822064Y303304D02*
D03*
X827064D02*
D03*
X832064D02*
D03*
X837064D02*
D03*
X842064D02*
D03*
X822064Y475304D02*
D03*
X827064D02*
D03*
X832064D02*
D03*
X837064D02*
D03*
X842064D02*
D03*
X822064Y503304D02*
D03*
X827064D02*
D03*
X832064D02*
D03*
X837064D02*
D03*
X842064D02*
D03*
X822064Y675304D02*
D03*
X827064D02*
D03*
X832064D02*
D03*
X837064D02*
D03*
X842064D02*
D03*
X822064Y703304D02*
D03*
X827064D02*
D03*
X832064D02*
D03*
X837064D02*
D03*
X842064D02*
D03*
X822064Y875304D02*
D03*
X827064D02*
D03*
X832064D02*
D03*
X837064D02*
D03*
X842064D02*
D03*
X822064Y903304D02*
D03*
X827064D02*
D03*
X832064D02*
D03*
X837064D02*
D03*
X842064D02*
D03*
X322064Y75304D02*
D03*
X327064D02*
D03*
X332064D02*
D03*
X337064D02*
D03*
X342064D02*
D03*
X322064Y103304D02*
D03*
X327064D02*
D03*
X332064D02*
D03*
X337064D02*
D03*
X342064D02*
D03*
X322064Y275304D02*
D03*
X327064D02*
D03*
X332064D02*
D03*
X337064D02*
D03*
X342064D02*
D03*
X322064Y303304D02*
D03*
X327064D02*
D03*
X332064D02*
D03*
X337064D02*
D03*
X342064D02*
D03*
X322064Y475304D02*
D03*
X327064D02*
D03*
X332064D02*
D03*
X337064D02*
D03*
X342064D02*
D03*
X322064Y503304D02*
D03*
X327064D02*
D03*
X332064D02*
D03*
X337064D02*
D03*
X342064D02*
D03*
X322064Y675304D02*
D03*
X327064D02*
D03*
X332064D02*
D03*
X337064D02*
D03*
X342064D02*
D03*
X322064Y703304D02*
D03*
X327064D02*
D03*
X332064D02*
D03*
X337064D02*
D03*
X342064D02*
D03*
X322064Y875304D02*
D03*
X327064D02*
D03*
X332064D02*
D03*
X337064D02*
D03*
X342064D02*
D03*
X322064Y903304D02*
D03*
X327064D02*
D03*
X332064D02*
D03*
X337064D02*
D03*
X342064D02*
D03*
D26*
X1293814Y156364D02*
D03*
Y143364D02*
D03*
Y356364D02*
D03*
Y343364D02*
D03*
Y556364D02*
D03*
Y543364D02*
D03*
Y756364D02*
D03*
Y743364D02*
D03*
Y956364D02*
D03*
Y943364D02*
D03*
X793814Y156364D02*
D03*
Y143364D02*
D03*
Y356364D02*
D03*
Y343364D02*
D03*
Y556364D02*
D03*
Y543364D02*
D03*
Y756364D02*
D03*
Y743364D02*
D03*
Y956364D02*
D03*
Y943364D02*
D03*
X293814Y156364D02*
D03*
Y143364D02*
D03*
Y356364D02*
D03*
Y343364D02*
D03*
Y556364D02*
D03*
Y543364D02*
D03*
Y756364D02*
D03*
Y743364D02*
D03*
Y956364D02*
D03*
Y943364D02*
D03*
D27*
X1249894Y134014D02*
D03*
Y153014D02*
D03*
X1277394D02*
D03*
Y143514D02*
D03*
Y134014D02*
D03*
X1249894Y334014D02*
D03*
Y353014D02*
D03*
X1277394D02*
D03*
Y343514D02*
D03*
Y334014D02*
D03*
X1249894Y534014D02*
D03*
Y553014D02*
D03*
X1277394D02*
D03*
Y543514D02*
D03*
Y534014D02*
D03*
X1249894Y734014D02*
D03*
Y753014D02*
D03*
X1277394D02*
D03*
Y743514D02*
D03*
Y734014D02*
D03*
X1249894Y934014D02*
D03*
Y953014D02*
D03*
X1277394D02*
D03*
Y943514D02*
D03*
Y934014D02*
D03*
X749894Y134014D02*
D03*
Y153014D02*
D03*
X777394D02*
D03*
Y143514D02*
D03*
Y134014D02*
D03*
X749894Y334014D02*
D03*
Y353014D02*
D03*
X777394D02*
D03*
Y343514D02*
D03*
Y334014D02*
D03*
X749894Y534014D02*
D03*
Y553014D02*
D03*
X777394D02*
D03*
Y543514D02*
D03*
Y534014D02*
D03*
X749894Y734014D02*
D03*
Y753014D02*
D03*
X777394D02*
D03*
Y743514D02*
D03*
Y734014D02*
D03*
X749894Y934014D02*
D03*
Y953014D02*
D03*
X777394D02*
D03*
Y943514D02*
D03*
Y934014D02*
D03*
X249894Y134014D02*
D03*
Y153014D02*
D03*
X277394D02*
D03*
Y143514D02*
D03*
Y134014D02*
D03*
X249894Y334014D02*
D03*
Y353014D02*
D03*
X277394D02*
D03*
Y343514D02*
D03*
Y334014D02*
D03*
X249894Y534014D02*
D03*
Y553014D02*
D03*
X277394D02*
D03*
Y543514D02*
D03*
Y534014D02*
D03*
X249894Y734014D02*
D03*
Y753014D02*
D03*
X277394D02*
D03*
Y743514D02*
D03*
Y734014D02*
D03*
X249894Y934014D02*
D03*
Y953014D02*
D03*
X277394D02*
D03*
Y943514D02*
D03*
Y934014D02*
D03*
D28*
X1084154Y151404D02*
D03*
X1076554D02*
D03*
X1061354D02*
D03*
X1068954D02*
D03*
X1099454D02*
D03*
X1091854D02*
D03*
X1107054D02*
D03*
X1114554D02*
D03*
X1144954D02*
D03*
X1137454D02*
D03*
X1122254D02*
D03*
X1129854D02*
D03*
X1084154Y351404D02*
D03*
X1076554D02*
D03*
X1061354D02*
D03*
X1068954D02*
D03*
X1099454D02*
D03*
X1091854D02*
D03*
X1107054D02*
D03*
X1114554D02*
D03*
X1144954D02*
D03*
X1137454D02*
D03*
X1122254D02*
D03*
X1129854D02*
D03*
X1084154Y551404D02*
D03*
X1076554D02*
D03*
X1061354D02*
D03*
X1068954D02*
D03*
X1099454D02*
D03*
X1091854D02*
D03*
X1107054D02*
D03*
X1114554D02*
D03*
X1144954D02*
D03*
X1137454D02*
D03*
X1122254D02*
D03*
X1129854D02*
D03*
X1084154Y751404D02*
D03*
X1076554D02*
D03*
X1061354D02*
D03*
X1068954D02*
D03*
X1099454D02*
D03*
X1091854D02*
D03*
X1107054D02*
D03*
X1114554D02*
D03*
X1144954D02*
D03*
X1137454D02*
D03*
X1122254D02*
D03*
X1129854D02*
D03*
X1084154Y951404D02*
D03*
X1076554D02*
D03*
X1061354D02*
D03*
X1068954D02*
D03*
X1099454D02*
D03*
X1091854D02*
D03*
X1107054D02*
D03*
X1114554D02*
D03*
X1144954D02*
D03*
X1137454D02*
D03*
X1122254D02*
D03*
X1129854D02*
D03*
X584154Y151404D02*
D03*
X576554D02*
D03*
X561354D02*
D03*
X568954D02*
D03*
X599454D02*
D03*
X591854D02*
D03*
X607054D02*
D03*
X614554D02*
D03*
X644954D02*
D03*
X637454D02*
D03*
X622254D02*
D03*
X629854D02*
D03*
X584154Y351404D02*
D03*
X576554D02*
D03*
X561354D02*
D03*
X568954D02*
D03*
X599454D02*
D03*
X591854D02*
D03*
X607054D02*
D03*
X614554D02*
D03*
X644954D02*
D03*
X637454D02*
D03*
X622254D02*
D03*
X629854D02*
D03*
X584154Y551404D02*
D03*
X576554D02*
D03*
X561354D02*
D03*
X568954D02*
D03*
X599454D02*
D03*
X591854D02*
D03*
X607054D02*
D03*
X614554D02*
D03*
X644954D02*
D03*
X637454D02*
D03*
X622254D02*
D03*
X629854D02*
D03*
X584154Y751404D02*
D03*
X576554D02*
D03*
X561354D02*
D03*
X568954D02*
D03*
X599454D02*
D03*
X591854D02*
D03*
X607054D02*
D03*
X614554D02*
D03*
X644954D02*
D03*
X637454D02*
D03*
X622254D02*
D03*
X629854D02*
D03*
X584154Y951404D02*
D03*
X576554D02*
D03*
X561354D02*
D03*
X568954D02*
D03*
X599454D02*
D03*
X591854D02*
D03*
X607054D02*
D03*
X614554D02*
D03*
X644954D02*
D03*
X637454D02*
D03*
X622254D02*
D03*
X629854D02*
D03*
X84154Y151404D02*
D03*
X76554D02*
D03*
X61354D02*
D03*
X68954D02*
D03*
X99454D02*
D03*
X91854D02*
D03*
X107054D02*
D03*
X114554D02*
D03*
X144954D02*
D03*
X137454D02*
D03*
X122254D02*
D03*
X129854D02*
D03*
X84154Y351404D02*
D03*
X76554D02*
D03*
X61354D02*
D03*
X68954D02*
D03*
X99454D02*
D03*
X91854D02*
D03*
X107054D02*
D03*
X114554D02*
D03*
X144954D02*
D03*
X137454D02*
D03*
X122254D02*
D03*
X129854D02*
D03*
X84154Y551404D02*
D03*
X76554D02*
D03*
X61354D02*
D03*
X68954D02*
D03*
X99454D02*
D03*
X91854D02*
D03*
X107054D02*
D03*
X114554D02*
D03*
X144954D02*
D03*
X137454D02*
D03*
X122254D02*
D03*
X129854D02*
D03*
X84154Y751404D02*
D03*
X76554D02*
D03*
X61354D02*
D03*
X68954D02*
D03*
X99454D02*
D03*
X91854D02*
D03*
X107054D02*
D03*
X114554D02*
D03*
X144954D02*
D03*
X137454D02*
D03*
X122254D02*
D03*
X129854D02*
D03*
X84154Y951404D02*
D03*
X76554D02*
D03*
X61354D02*
D03*
X68954D02*
D03*
X99454D02*
D03*
X91854D02*
D03*
X107054D02*
D03*
X114554D02*
D03*
X144954D02*
D03*
X137454D02*
D03*
X122254D02*
D03*
X129854D02*
D03*
D29*
X1058354Y33704D02*
D03*
Y41304D02*
D03*
Y56604D02*
D03*
Y48904D02*
D03*
Y79404D02*
D03*
Y87004D02*
D03*
Y71804D02*
D03*
Y64204D02*
D03*
X1148154Y125104D02*
D03*
Y117504D02*
D03*
Y132804D02*
D03*
Y140404D02*
D03*
Y109904D02*
D03*
Y102304D02*
D03*
Y87004D02*
D03*
Y94704D02*
D03*
Y64204D02*
D03*
Y56604D02*
D03*
Y71804D02*
D03*
Y79404D02*
D03*
X1058354Y233704D02*
D03*
Y241304D02*
D03*
Y256604D02*
D03*
Y248904D02*
D03*
Y279404D02*
D03*
Y287004D02*
D03*
Y271804D02*
D03*
Y264204D02*
D03*
X1148154Y325104D02*
D03*
Y317504D02*
D03*
Y332804D02*
D03*
Y340404D02*
D03*
Y309904D02*
D03*
Y302304D02*
D03*
Y287004D02*
D03*
Y294704D02*
D03*
Y264204D02*
D03*
Y256604D02*
D03*
Y271804D02*
D03*
Y279404D02*
D03*
X1058354Y433704D02*
D03*
Y441304D02*
D03*
Y456604D02*
D03*
Y448904D02*
D03*
Y479404D02*
D03*
Y487004D02*
D03*
Y471804D02*
D03*
Y464204D02*
D03*
X1148154Y525104D02*
D03*
Y517504D02*
D03*
Y532804D02*
D03*
Y540404D02*
D03*
Y509904D02*
D03*
Y502304D02*
D03*
Y487004D02*
D03*
Y494704D02*
D03*
Y464204D02*
D03*
Y456604D02*
D03*
Y471804D02*
D03*
Y479404D02*
D03*
X1058354Y633704D02*
D03*
Y641304D02*
D03*
Y656604D02*
D03*
Y648904D02*
D03*
Y679404D02*
D03*
Y687004D02*
D03*
Y671804D02*
D03*
Y664204D02*
D03*
X1148154Y725104D02*
D03*
Y717504D02*
D03*
Y732804D02*
D03*
Y740404D02*
D03*
Y709904D02*
D03*
Y702304D02*
D03*
Y687004D02*
D03*
Y694704D02*
D03*
Y664204D02*
D03*
Y656604D02*
D03*
Y671804D02*
D03*
Y679404D02*
D03*
X1058354Y833704D02*
D03*
Y841304D02*
D03*
Y856604D02*
D03*
Y848904D02*
D03*
Y879404D02*
D03*
Y887004D02*
D03*
Y871804D02*
D03*
Y864204D02*
D03*
X1148154Y925104D02*
D03*
Y917504D02*
D03*
Y932804D02*
D03*
Y940404D02*
D03*
Y909904D02*
D03*
Y902304D02*
D03*
Y887004D02*
D03*
Y894704D02*
D03*
Y864204D02*
D03*
Y856604D02*
D03*
Y871804D02*
D03*
Y879404D02*
D03*
X558354Y33704D02*
D03*
Y41304D02*
D03*
Y56604D02*
D03*
Y48904D02*
D03*
Y79404D02*
D03*
Y87004D02*
D03*
Y71804D02*
D03*
Y64204D02*
D03*
X648154Y125104D02*
D03*
Y117504D02*
D03*
Y132804D02*
D03*
Y140404D02*
D03*
Y109904D02*
D03*
Y102304D02*
D03*
Y87004D02*
D03*
Y94704D02*
D03*
Y64204D02*
D03*
Y56604D02*
D03*
Y71804D02*
D03*
Y79404D02*
D03*
X558354Y233704D02*
D03*
Y241304D02*
D03*
Y256604D02*
D03*
Y248904D02*
D03*
Y279404D02*
D03*
Y287004D02*
D03*
Y271804D02*
D03*
Y264204D02*
D03*
X648154Y325104D02*
D03*
Y317504D02*
D03*
Y332804D02*
D03*
Y340404D02*
D03*
Y309904D02*
D03*
Y302304D02*
D03*
Y287004D02*
D03*
Y294704D02*
D03*
Y264204D02*
D03*
Y256604D02*
D03*
Y271804D02*
D03*
Y279404D02*
D03*
X558354Y433704D02*
D03*
Y441304D02*
D03*
Y456604D02*
D03*
Y448904D02*
D03*
Y479404D02*
D03*
Y487004D02*
D03*
Y471804D02*
D03*
Y464204D02*
D03*
X648154Y525104D02*
D03*
Y517504D02*
D03*
Y532804D02*
D03*
Y540404D02*
D03*
Y509904D02*
D03*
Y502304D02*
D03*
Y487004D02*
D03*
Y494704D02*
D03*
Y464204D02*
D03*
Y456604D02*
D03*
Y471804D02*
D03*
Y479404D02*
D03*
X558354Y633704D02*
D03*
Y641304D02*
D03*
Y656604D02*
D03*
Y648904D02*
D03*
Y679404D02*
D03*
Y687004D02*
D03*
Y671804D02*
D03*
Y664204D02*
D03*
X648154Y725104D02*
D03*
Y717504D02*
D03*
Y732804D02*
D03*
Y740404D02*
D03*
Y709904D02*
D03*
Y702304D02*
D03*
Y687004D02*
D03*
Y694704D02*
D03*
Y664204D02*
D03*
Y656604D02*
D03*
Y671804D02*
D03*
Y679404D02*
D03*
X558354Y833704D02*
D03*
Y841304D02*
D03*
Y856604D02*
D03*
Y848904D02*
D03*
Y879404D02*
D03*
Y887004D02*
D03*
Y871804D02*
D03*
Y864204D02*
D03*
X648154Y925104D02*
D03*
Y917504D02*
D03*
Y932804D02*
D03*
Y940404D02*
D03*
Y909904D02*
D03*
Y902304D02*
D03*
Y887004D02*
D03*
Y894704D02*
D03*
Y864204D02*
D03*
Y856604D02*
D03*
Y871804D02*
D03*
Y879404D02*
D03*
X58354Y33704D02*
D03*
Y41304D02*
D03*
Y56604D02*
D03*
Y48904D02*
D03*
Y79404D02*
D03*
Y87004D02*
D03*
Y71804D02*
D03*
Y64204D02*
D03*
X148154Y125104D02*
D03*
Y117504D02*
D03*
Y132804D02*
D03*
Y140404D02*
D03*
Y109904D02*
D03*
Y102304D02*
D03*
Y87004D02*
D03*
Y94704D02*
D03*
Y64204D02*
D03*
Y56604D02*
D03*
Y71804D02*
D03*
Y79404D02*
D03*
X58354Y233704D02*
D03*
Y241304D02*
D03*
Y256604D02*
D03*
Y248904D02*
D03*
Y279404D02*
D03*
Y287004D02*
D03*
Y271804D02*
D03*
Y264204D02*
D03*
X148154Y325104D02*
D03*
Y317504D02*
D03*
Y332804D02*
D03*
Y340404D02*
D03*
Y309904D02*
D03*
Y302304D02*
D03*
Y287004D02*
D03*
Y294704D02*
D03*
Y264204D02*
D03*
Y256604D02*
D03*
Y271804D02*
D03*
Y279404D02*
D03*
X58354Y433704D02*
D03*
Y441304D02*
D03*
Y456604D02*
D03*
Y448904D02*
D03*
Y479404D02*
D03*
Y487004D02*
D03*
Y471804D02*
D03*
Y464204D02*
D03*
X148154Y525104D02*
D03*
Y517504D02*
D03*
Y532804D02*
D03*
Y540404D02*
D03*
Y509904D02*
D03*
Y502304D02*
D03*
Y487004D02*
D03*
Y494704D02*
D03*
Y464204D02*
D03*
Y456604D02*
D03*
Y471804D02*
D03*
Y479404D02*
D03*
X58354Y633704D02*
D03*
Y641304D02*
D03*
Y656604D02*
D03*
Y648904D02*
D03*
Y679404D02*
D03*
Y687004D02*
D03*
Y671804D02*
D03*
Y664204D02*
D03*
X148154Y725104D02*
D03*
Y717504D02*
D03*
Y732804D02*
D03*
Y740404D02*
D03*
Y709904D02*
D03*
Y702304D02*
D03*
Y687004D02*
D03*
Y694704D02*
D03*
Y664204D02*
D03*
Y656604D02*
D03*
Y671804D02*
D03*
Y679404D02*
D03*
X58354Y833704D02*
D03*
Y841304D02*
D03*
Y856604D02*
D03*
Y848904D02*
D03*
Y879404D02*
D03*
Y887004D02*
D03*
Y871804D02*
D03*
Y864204D02*
D03*
X148154Y925104D02*
D03*
Y917504D02*
D03*
Y932804D02*
D03*
Y940404D02*
D03*
Y909904D02*
D03*
Y902304D02*
D03*
Y887004D02*
D03*
Y894704D02*
D03*
Y864204D02*
D03*
Y856604D02*
D03*
Y871804D02*
D03*
Y879404D02*
D03*
D30*
X1234434Y89784D02*
D03*
Y72784D02*
D03*
Y289784D02*
D03*
Y272784D02*
D03*
Y489784D02*
D03*
Y472784D02*
D03*
Y689784D02*
D03*
Y672784D02*
D03*
Y889784D02*
D03*
Y872784D02*
D03*
X734434Y89784D02*
D03*
Y72784D02*
D03*
Y289784D02*
D03*
Y272784D02*
D03*
Y489784D02*
D03*
Y472784D02*
D03*
Y689784D02*
D03*
Y672784D02*
D03*
Y889784D02*
D03*
Y872784D02*
D03*
X234434Y89784D02*
D03*
Y72784D02*
D03*
Y289784D02*
D03*
Y272784D02*
D03*
Y489784D02*
D03*
Y472784D02*
D03*
Y689784D02*
D03*
Y672784D02*
D03*
Y889784D02*
D03*
Y872784D02*
D03*
D31*
X1277365Y41503D02*
D03*
X1247383D02*
D03*
X1277365Y241503D02*
D03*
X1247383D02*
D03*
X1277365Y441503D02*
D03*
X1247383D02*
D03*
X1277365Y641503D02*
D03*
X1247383D02*
D03*
X1277365Y841503D02*
D03*
X1247383D02*
D03*
X777365Y41503D02*
D03*
X747383D02*
D03*
X777365Y241503D02*
D03*
X747383D02*
D03*
X777365Y441503D02*
D03*
X747383D02*
D03*
X777365Y641503D02*
D03*
X747383D02*
D03*
X777365Y841503D02*
D03*
X747383D02*
D03*
X277365Y41503D02*
D03*
X247383D02*
D03*
X277365Y241503D02*
D03*
X247383D02*
D03*
X277365Y441503D02*
D03*
X247383D02*
D03*
X277365Y641503D02*
D03*
X247383D02*
D03*
X277365Y841503D02*
D03*
X247383D02*
D03*
D32*
X1035504Y174004D02*
D03*
Y166004D02*
D03*
Y34004D02*
D03*
Y26004D02*
D03*
Y374004D02*
D03*
Y366004D02*
D03*
Y234004D02*
D03*
Y226004D02*
D03*
Y574004D02*
D03*
Y566004D02*
D03*
Y434004D02*
D03*
Y426004D02*
D03*
Y774004D02*
D03*
Y766004D02*
D03*
Y634004D02*
D03*
Y626004D02*
D03*
Y974004D02*
D03*
Y966004D02*
D03*
Y834004D02*
D03*
Y826004D02*
D03*
X535504Y174004D02*
D03*
Y166004D02*
D03*
Y34004D02*
D03*
Y26004D02*
D03*
Y374004D02*
D03*
Y366004D02*
D03*
Y234004D02*
D03*
Y226004D02*
D03*
Y574004D02*
D03*
Y566004D02*
D03*
Y434004D02*
D03*
Y426004D02*
D03*
Y774004D02*
D03*
Y766004D02*
D03*
Y634004D02*
D03*
Y626004D02*
D03*
Y974004D02*
D03*
Y966004D02*
D03*
Y834004D02*
D03*
Y826004D02*
D03*
X35504Y174004D02*
D03*
Y166004D02*
D03*
Y34004D02*
D03*
Y26004D02*
D03*
Y374004D02*
D03*
Y366004D02*
D03*
Y234004D02*
D03*
Y226004D02*
D03*
Y574004D02*
D03*
Y566004D02*
D03*
Y434004D02*
D03*
Y426004D02*
D03*
Y774004D02*
D03*
Y766004D02*
D03*
Y634004D02*
D03*
Y626004D02*
D03*
Y974004D02*
D03*
Y966004D02*
D03*
Y834004D02*
D03*
Y826004D02*
D03*
D33*
X1016004Y189504D02*
D03*
Y150504D02*
D03*
Y49504D02*
D03*
Y10504D02*
D03*
Y389504D02*
D03*
Y350504D02*
D03*
Y249504D02*
D03*
Y210504D02*
D03*
Y589504D02*
D03*
Y550504D02*
D03*
Y449504D02*
D03*
Y410504D02*
D03*
Y789504D02*
D03*
Y750504D02*
D03*
Y649504D02*
D03*
Y610504D02*
D03*
Y989504D02*
D03*
Y950504D02*
D03*
Y849504D02*
D03*
Y810504D02*
D03*
X516004Y189504D02*
D03*
Y150504D02*
D03*
Y49504D02*
D03*
Y10504D02*
D03*
Y389504D02*
D03*
Y350504D02*
D03*
Y249504D02*
D03*
Y210504D02*
D03*
Y589504D02*
D03*
Y550504D02*
D03*
Y449504D02*
D03*
Y410504D02*
D03*
Y789504D02*
D03*
Y750504D02*
D03*
Y649504D02*
D03*
Y610504D02*
D03*
Y989504D02*
D03*
Y950504D02*
D03*
Y849504D02*
D03*
Y810504D02*
D03*
X16004Y189504D02*
D03*
Y150504D02*
D03*
Y49504D02*
D03*
Y10504D02*
D03*
Y389504D02*
D03*
Y350504D02*
D03*
Y249504D02*
D03*
Y210504D02*
D03*
Y589504D02*
D03*
Y550504D02*
D03*
Y449504D02*
D03*
Y410504D02*
D03*
Y789504D02*
D03*
Y750504D02*
D03*
Y649504D02*
D03*
Y610504D02*
D03*
Y989504D02*
D03*
Y950504D02*
D03*
Y849504D02*
D03*
Y810504D02*
D03*
D39*
X1255754Y180004D02*
D03*
Y380004D02*
D03*
Y580004D02*
D03*
Y780004D02*
D03*
Y980004D02*
D03*
X755754Y180004D02*
D03*
Y380004D02*
D03*
Y580004D02*
D03*
Y780004D02*
D03*
Y980004D02*
D03*
X255754Y180004D02*
D03*
Y380004D02*
D03*
Y580004D02*
D03*
Y780004D02*
D03*
Y980004D02*
D03*
D40*
X1115054Y174004D02*
D03*
X1102354D02*
D03*
X1089654D02*
D03*
X1076954D02*
D03*
X1115054Y374004D02*
D03*
X1102354D02*
D03*
X1089654D02*
D03*
X1076954D02*
D03*
X1115054Y574004D02*
D03*
X1102354D02*
D03*
X1089654D02*
D03*
X1076954D02*
D03*
X1115054Y774004D02*
D03*
X1102354D02*
D03*
X1089654D02*
D03*
X1076954D02*
D03*
X1115054Y974004D02*
D03*
X1102354D02*
D03*
X1089654D02*
D03*
X1076954D02*
D03*
X615054Y174004D02*
D03*
X602354D02*
D03*
X589654D02*
D03*
X576954D02*
D03*
X615054Y374004D02*
D03*
X602354D02*
D03*
X589654D02*
D03*
X576954D02*
D03*
X615054Y574004D02*
D03*
X602354D02*
D03*
X589654D02*
D03*
X576954D02*
D03*
X615054Y774004D02*
D03*
X602354D02*
D03*
X589654D02*
D03*
X576954D02*
D03*
X615054Y974004D02*
D03*
X602354D02*
D03*
X589654D02*
D03*
X576954D02*
D03*
X115054Y174004D02*
D03*
X102354D02*
D03*
X89654D02*
D03*
X76954D02*
D03*
X115054Y374004D02*
D03*
X102354D02*
D03*
X89654D02*
D03*
X76954D02*
D03*
X115054Y574004D02*
D03*
X102354D02*
D03*
X89654D02*
D03*
X76954D02*
D03*
X115054Y774004D02*
D03*
X102354D02*
D03*
X89654D02*
D03*
X76954D02*
D03*
X115054Y974004D02*
D03*
X102354D02*
D03*
X89654D02*
D03*
X76954D02*
D03*
M02*
