G04*
G04 #@! TF.GenerationSoftware,Altium Limited,Altium Designer,19.0.14 (431)*
G04*
G04 Layer_Color=32768*
%FSLAX44Y44*%
%MOMM*%
G71*
G01*
G75*
%ADD54C,0.1000*%
%ADD135C,0.0500*%
D54*
X1183714Y153674D02*
X1193714D01*
X1188714Y148674D02*
Y158674D01*
X1183714Y353674D02*
X1193714D01*
X1188714Y348674D02*
Y358674D01*
X1183714Y553674D02*
X1193714D01*
X1188714Y548674D02*
Y558674D01*
X1183714Y753674D02*
X1193714D01*
X1188714Y748674D02*
Y758674D01*
X1183714Y953674D02*
X1193714D01*
X1188714Y948674D02*
Y958674D01*
X683714Y153674D02*
X693714D01*
X688714Y148674D02*
Y158674D01*
X683714Y353674D02*
X693714D01*
X688714Y348674D02*
Y358674D01*
X683714Y553674D02*
X693714D01*
X688714Y548674D02*
Y558674D01*
X683714Y753674D02*
X693714D01*
X688714Y748674D02*
Y758674D01*
X683714Y953674D02*
X693714D01*
X688714Y948674D02*
Y958674D01*
X183714Y153674D02*
X193714D01*
X188714Y148674D02*
Y158674D01*
X183714Y353674D02*
X193714D01*
X188714Y348674D02*
Y358674D01*
X183714Y553674D02*
X193714D01*
X188714Y548674D02*
Y558674D01*
X183714Y753674D02*
X193714D01*
X188714Y748674D02*
Y758674D01*
X183714Y953674D02*
X193714D01*
X188714Y948674D02*
Y958674D01*
D135*
X1162714Y127674D02*
Y179674D01*
X1214714Y127674D02*
Y179674D01*
X1162714Y127674D02*
X1214714D01*
X1162714Y179674D02*
X1214714D01*
X1162714Y327674D02*
Y379674D01*
X1214714Y327674D02*
Y379674D01*
X1162714Y327674D02*
X1214714D01*
X1162714Y379674D02*
X1214714D01*
X1162714Y527674D02*
Y579674D01*
X1214714Y527674D02*
Y579674D01*
X1162714Y527674D02*
X1214714D01*
X1162714Y579674D02*
X1214714D01*
X1162714Y727674D02*
Y779674D01*
X1214714Y727674D02*
Y779674D01*
X1162714Y727674D02*
X1214714D01*
X1162714Y779674D02*
X1214714D01*
X1162714Y927674D02*
Y979674D01*
X1214714Y927674D02*
Y979674D01*
X1162714Y927674D02*
X1214714D01*
X1162714Y979674D02*
X1214714D01*
X662714Y127674D02*
Y179674D01*
X714714Y127674D02*
Y179674D01*
X662714Y127674D02*
X714714D01*
X662714Y179674D02*
X714714D01*
X662714Y327674D02*
Y379674D01*
X714714Y327674D02*
Y379674D01*
X662714Y327674D02*
X714714D01*
X662714Y379674D02*
X714714D01*
X662714Y527674D02*
Y579674D01*
X714714Y527674D02*
Y579674D01*
X662714Y527674D02*
X714714D01*
X662714Y579674D02*
X714714D01*
X662714Y727674D02*
Y779674D01*
X714714Y727674D02*
Y779674D01*
X662714Y727674D02*
X714714D01*
X662714Y779674D02*
X714714D01*
X662714Y927674D02*
Y979674D01*
X714714Y927674D02*
Y979674D01*
X662714Y927674D02*
X714714D01*
X662714Y979674D02*
X714714D01*
X162714Y127674D02*
Y179674D01*
X214714Y127674D02*
Y179674D01*
X162714Y127674D02*
X214714D01*
X162714Y179674D02*
X214714D01*
X162714Y327674D02*
Y379674D01*
X214714Y327674D02*
Y379674D01*
X162714Y327674D02*
X214714D01*
X162714Y379674D02*
X214714D01*
X162714Y527674D02*
Y579674D01*
X214714Y527674D02*
Y579674D01*
X162714Y527674D02*
X214714D01*
X162714Y579674D02*
X214714D01*
X162714Y727674D02*
Y779674D01*
X214714Y727674D02*
Y779674D01*
X162714Y727674D02*
X214714D01*
X162714Y779674D02*
X214714D01*
X162714Y927674D02*
Y979674D01*
X214714Y927674D02*
Y979674D01*
X162714Y927674D02*
X214714D01*
X162714Y979674D02*
X214714D01*
M02*
