G04*
G04 #@! TF.GenerationSoftware,Altium Limited,Altium Designer,19.0.14 (431)*
G04*
G04 Layer_Color=16711935*
%FSLAX44Y44*%
%MOMM*%
G71*
G01*
G75*
%ADD54C,0.1000*%
D54*
X-100000Y800000D02*
X1500000D01*
X-100000Y600000D02*
X1500000D01*
X-100000Y400000D02*
X1500000D01*
X-100000Y0D02*
X1500000D01*
X0Y-100000D02*
Y1100000D01*
X-100000Y1000000D02*
X1500000D01*
X-100000Y200000D02*
X1500000D01*
X1400000Y-100000D02*
Y1100000D01*
X400000Y-100000D02*
Y1100000D01*
X500000Y-100000D02*
Y1100000D01*
X900000Y-100000D02*
Y1100000D01*
X1000000Y-100000D02*
Y1100000D01*
X1182214Y142174D02*
G03*
X1182214Y142174I-5000J0D01*
G01*
X1168214Y133174D02*
Y174174D01*
X1209214Y133174D02*
Y174174D01*
X1168214Y133174D02*
X1209214D01*
X1168214Y174174D02*
X1209214D01*
X1182214Y342174D02*
G03*
X1182214Y342174I-5000J0D01*
G01*
X1168214Y333174D02*
Y374174D01*
X1209214Y333174D02*
Y374174D01*
X1168214Y333174D02*
X1209214D01*
X1168214Y374174D02*
X1209214D01*
X1182214Y542174D02*
G03*
X1182214Y542174I-5000J0D01*
G01*
X1168214Y533174D02*
Y574174D01*
X1209214Y533174D02*
Y574174D01*
X1168214Y533174D02*
X1209214D01*
X1168214Y574174D02*
X1209214D01*
X1182214Y742174D02*
G03*
X1182214Y742174I-5000J0D01*
G01*
X1168214Y733174D02*
Y774174D01*
X1209214Y733174D02*
Y774174D01*
X1168214Y733174D02*
X1209214D01*
X1168214Y774174D02*
X1209214D01*
X1182214Y942174D02*
G03*
X1182214Y942174I-5000J0D01*
G01*
X1168214Y933174D02*
Y974174D01*
X1209214Y933174D02*
Y974174D01*
X1168214Y933174D02*
X1209214D01*
X1168214Y974174D02*
X1209214D01*
X682214Y142174D02*
G03*
X682214Y142174I-5000J0D01*
G01*
X668214Y133174D02*
Y174174D01*
X709214Y133174D02*
Y174174D01*
X668214Y133174D02*
X709214D01*
X668214Y174174D02*
X709214D01*
X682214Y342174D02*
G03*
X682214Y342174I-5000J0D01*
G01*
X668214Y333174D02*
Y374174D01*
X709214Y333174D02*
Y374174D01*
X668214Y333174D02*
X709214D01*
X668214Y374174D02*
X709214D01*
X682214Y542174D02*
G03*
X682214Y542174I-5000J0D01*
G01*
X668214Y533174D02*
Y574174D01*
X709214Y533174D02*
Y574174D01*
X668214Y533174D02*
X709214D01*
X668214Y574174D02*
X709214D01*
X682214Y742174D02*
G03*
X682214Y742174I-5000J0D01*
G01*
X668214Y733174D02*
Y774174D01*
X709214Y733174D02*
Y774174D01*
X668214Y733174D02*
X709214D01*
X668214Y774174D02*
X709214D01*
X682214Y942174D02*
G03*
X682214Y942174I-5000J0D01*
G01*
X668214Y933174D02*
Y974174D01*
X709214Y933174D02*
Y974174D01*
X668214Y933174D02*
X709214D01*
X668214Y974174D02*
X709214D01*
X182214Y142174D02*
G03*
X182214Y142174I-5000J0D01*
G01*
X168214Y133174D02*
Y174174D01*
X209214Y133174D02*
Y174174D01*
X168214Y133174D02*
X209214D01*
X168214Y174174D02*
X209214D01*
X182214Y342174D02*
G03*
X182214Y342174I-5000J0D01*
G01*
X168214Y333174D02*
Y374174D01*
X209214Y333174D02*
Y374174D01*
X168214Y333174D02*
X209214D01*
X168214Y374174D02*
X209214D01*
X182214Y542174D02*
G03*
X182214Y542174I-5000J0D01*
G01*
X168214Y533174D02*
Y574174D01*
X209214Y533174D02*
Y574174D01*
X168214Y533174D02*
X209214D01*
X168214Y574174D02*
X209214D01*
X182214Y742174D02*
G03*
X182214Y742174I-5000J0D01*
G01*
X168214Y733174D02*
Y774174D01*
X209214Y733174D02*
Y774174D01*
X168214Y733174D02*
X209214D01*
X168214Y774174D02*
X209214D01*
X182214Y942174D02*
G03*
X182214Y942174I-5000J0D01*
G01*
X168214Y933174D02*
Y974174D01*
X209214Y933174D02*
Y974174D01*
X168214Y933174D02*
X209214D01*
X168214Y974174D02*
X209214D01*
M02*
