M48
;Layer_Color=9474304
;FILE_FORMAT=4:4
METRIC,LZ
;TYPE=PLATED
T1F00S00C0.3000
T2F00S00C0.6000
T3F00S00C1.5500
%
T01
X01331734Y00046523
X01363974Y00040003
X01336465Y00141674
X01337854Y00157024
X01339157Y00174954
X01351734
X01363974Y00240003
X01331734Y00246523
X01296075Y00236504
X01291584Y00254614
X01234434Y00244659
X01224111Y00271719
X01212844Y00276204
X01204114Y00277816
X01193794
X01176714Y00279734
X01170934Y00272394
X01155505Y00279592
X01159875Y00289304
X01160884Y00254135
X01168104Y00224334
X01186174Y00216514
X01198874
X01224842Y00216404
X01215239Y00183439
X01219194Y00175264
X01233042Y00177439
X01224568Y00152923
X01217924Y00137926
Y00129613
X01210304Y00113034
X01205714Y00105764
X01219194Y00102874
X01234434Y00100334
X01235042Y00108764
X01243324Y00093594
X01252214Y00120654
X01264444Y00136113
X01262944Y00148004
X01306824Y00139704
X01294124Y00125734
X01291584Y00054614
X01296075Y00036504
X01234434Y00044659
X01224111Y00071719
X01212844Y00076204
X01204114Y00077816
X01193794
X01176714Y00079734
X01170934Y00072394
X01155505Y00079592
X01159875Y00089304
X01160884Y00054135
X01168104Y00024334
X01186174Y00016514
X01198874
X01224842Y00016404
X01184714Y00118564
X01176014Y00110731
X01136644Y00124884
X01116154Y00141674
X01107094Y00139513
X01087074Y00134317
X01066794Y00136674
Y00079404
Y00071124
X01078224Y00085444
X01121404Y00084784
Y00068584
X01043004Y00051504
X01031234Y00045084
X01027224Y00114304
X01011195Y00127674
X01043004Y00173994
Y00251504
X01031234Y00245084
X01066794Y00271124
Y00279404
X01078224Y00285444
X01121404Y00284784
Y00268584
X01130554Y00193044
X01152538Y00182504
X01164584Y00176534
X01175514Y00182854
X01155694Y00158754
X01154883Y00150754
X01144264Y00165104
X01193854Y00151674
X01205714Y00305764
X01210304Y00313034
X01219194Y00302874
X01234434Y00300334
X01235042Y00308764
X01243324Y00293594
X01176014Y00310731
X01027224Y00314304
X00863974Y00240003
X00831734Y00246523
X00796075Y00236504
X00791584Y00254614
X00734434Y00244659
X00724111Y00271719
X00712844Y00276204
X00704114Y00277816
X00693794
X00676714Y00279734
X00670934Y00272394
X00655505Y00279592
X00659875Y00289304
X00660884Y00254135
X00668104Y00224334
X00686174Y00216514
X00698874
X00724842Y00216404
X00715239Y00183439
X00719194Y00175264
X00733042Y00177439
X00724568Y00152923
X00717924Y00137926
Y00129613
X00710304Y00113034
X00705714Y00105764
X00719194Y00102874
X00734434Y00100334
X00735042Y00108764
X00743324Y00093594
X00752214Y00120654
X00764444Y00136113
X00762944Y00148004
X00806824Y00139704
X00794124Y00125734
X00836464Y00141674
X00837854Y00157024
X00839157Y00174954
X00851734
X00863974Y00040003
X00831734Y00046523
X00796075Y00036504
X00791584Y00054614
X00734434Y00044659
X00724111Y00071719
X00712844Y00076204
X00704114Y00077816
X00693794
X00676714Y00079734
X00670934Y00072394
X00655505Y00079592
X00659875Y00089304
X00660884Y00054135
X00668104Y00024334
X00686174Y00016514
X00698874
X00724842Y00016404
X00684714Y00118564
X00676014Y00110731
X00636644Y00124884
X00616154Y00141674
X00607094Y00139513
X00587074Y00134317
X00566794Y00136674
Y00079404
Y00071124
X00578224Y00085444
X00621404Y00084784
Y00068584
X00543004Y00051504
X00531234Y00045084
X00543004Y00173994
Y00251504
X00531234Y00245084
X00566794Y00271124
Y00279404
X00578224Y00285444
X00621404Y00284784
Y00268584
X00630554Y00193044
X00652538Y00182504
X00664584Y00176534
X00675514Y00182854
X00655694Y00158754
X00654883Y00150754
X00644264Y00165104
X00693854Y00151674
X00705714Y00305764
X00710304Y00313034
X00719194Y00302874
X00734434Y00300334
X00735042Y00308764
X00743324Y00293594
X00676014Y00310731
X00527224Y00314304
Y00114304
X00511195Y00127674
X00336465Y00141674
X00337854Y00157024
X00339157Y00174954
X00351734
X00363974Y00240003
X00331734Y00246523
X00296075Y00236504
X00291584Y00254614
X00234434Y00244659
X00224111Y00271719
X00212844Y00276204
X00204114Y00277816
X00193794
X00176714Y00279734
X00170934Y00272394
X00155505Y00279592
X00159875Y00289304
X00160884Y00254135
X00168104Y00224334
X00186174Y00216514
X00198874
X00224842Y00216404
X00215239Y00183439
X00219194Y00175264
X00233042Y00177439
X00224568Y00152923
X00217924Y00137926
Y00129613
X00210304Y00113034
X00205714Y00105764
X00219194Y00102874
X00234434Y00100334
X00235042Y00108764
X00243324Y00093594
X00252214Y00120654
X00264444Y00136113
X00262944Y00148004
X00306824Y00139704
X00294124Y00125734
X00291584Y00054614
X00296075Y00036504
X00331734Y00046523
X00363974Y00040003
X00234434Y00044659
X00224111Y00071719
X00212844Y00076204
X00204114Y00077816
X00193794
X00176714Y00079734
X00170934Y00072394
X00155505Y00079592
X00159875Y00089304
X00160884Y00054135
X00168104Y00024334
X00186174Y00016514
X00198874
X00224842Y00016404
X00184714Y00118564
X00176014Y00110731
X00136644Y00124884
X00154883Y00150754
X00155694Y00158754
X00144264Y00165104
X00152538Y00182504
X00164584Y00176534
X00175514Y00182854
X00193854Y00151674
X00205714Y00305764
X00210304Y00313034
X00219194Y00302874
X00234434Y00300334
X00235042Y00308764
X00243324Y00293594
X00176014Y00310731
X00121404Y00284784
Y00268584
X00066794Y00271124
Y00279404
X00078224Y00285444
X00043004Y00251504
X00031234Y00245084
X00027224Y00314304
X00043004Y00173994
X00066794Y00136674
X00087074Y00134317
X00107094Y00139513
X00116154Y00141674
X00121404Y00084784
Y00068584
X00066794Y00071124
Y00079404
X00078224Y00085444
X00043004Y00051504
X00031234Y00045084
X00027224Y00114304
X00011195Y00127674
X00130554Y00193044
X00116154Y00341674
X00107094Y00339513
X00087074Y00334317
X00066794Y00336674
X00043004Y00373994
Y00451504
X00031234Y00445084
X00066794Y00471124
Y00479404
X00078224Y00485444
X00121404Y00484784
Y00468584
X00116154Y00541674
X00107094Y00539513
X00087074Y00534317
X00066794Y00536674
X00043004Y00573994
X00027224Y00514304
X00011195Y00527674
X00031234Y00645084
X00043004Y00651504
X00066794Y00671124
Y00679404
X00078224Y00685444
X00121404Y00684784
Y00668584
X00130554Y00593044
Y00393044
X00011195Y00327674
X00136644Y00324884
X00154883Y00350754
X00155694Y00358754
X00144264Y00365104
X00152538Y00382504
X00164584Y00376534
X00175514Y00382854
X00215239Y00383439
X00219194Y00375264
X00233042Y00377439
X00224568Y00352923
X00217924Y00337926
Y00329613
X00252214Y00320654
X00264444Y00336113
X00262944Y00348004
X00306824Y00339704
X00294124Y00325734
X00336465Y00341674
X00337854Y00357024
X00339157Y00374954
X00351734
X00363974Y00440003
X00331734Y00446524
X00296075Y00436504
X00291584Y00454614
X00234434Y00444659
X00224111Y00471719
X00212844Y00476204
X00204114Y00477816
X00193794
X00176714Y00479734
X00170934Y00472394
X00155505Y00479592
X00159875Y00489304
X00160884Y00454135
X00168104Y00424334
X00186174Y00416514
X00198874
X00224842Y00416404
X00219194Y00502874
X00205714Y00505764
X00210304Y00513034
X00217924Y00529613
Y00537926
X00224568Y00552923
X00219194Y00575264
X00215239Y00583439
X00233042Y00577439
X00224842Y00616404
X00198874Y00616514
X00186174
X00168104Y00624334
X00160884Y00654135
X00170934Y00672394
X00176714Y00679734
X00193794Y00677816
X00204114
X00212844Y00676204
X00224111Y00671719
X00219194Y00702874
X00205714Y00705764
X00235042Y00708764
X00234434Y00700334
X00243324Y00693594
X00234434Y00644659
X00291584Y00654614
X00296075Y00636504
X00331734Y00646524
X00363974Y00640003
X00351734Y00574954
X00339157
X00337854Y00557024
X00336465Y00541674
X00306824Y00539704
X00294124Y00525734
X00264444Y00536113
X00262944Y00548004
X00252214Y00520654
X00235042Y00508764
X00234434Y00500334
X00243324Y00493594
X00184714Y00518564
X00176014Y00510731
X00136644Y00524884
X00154883Y00550754
X00155694Y00558754
X00144264Y00565104
X00152538Y00582504
X00164584Y00576534
X00175514Y00582854
X00193854Y00551674
X00155505Y00679592
X00159875Y00689304
X00176014Y00710731
X00193854Y00351674
X00184714Y00318564
X00511195Y00327674
Y00527674
X00527224Y00514304
X00566794Y00536674
X00587074Y00534317
X00607094Y00539513
X00616154Y00541674
X00636644Y00524884
X00654883Y00550754
X00655694Y00558754
X00644264Y00565104
X00652538Y00582504
X00664584Y00576534
X00675514Y00582854
X00715239Y00583439
X00719194Y00575264
X00733042Y00577439
X00724568Y00552923
X00717924Y00537926
Y00529613
X00710304Y00513034
X00705714Y00505764
X00719194Y00502874
X00734434Y00500334
X00735042Y00508764
X00743324Y00493594
X00752214Y00520654
X00764444Y00536113
X00762944Y00548004
X00806824Y00539704
X00794124Y00525734
X00836464Y00541674
X00837854Y00557024
X00839157Y00574954
X00851734
X00863974Y00640003
X00831734Y00646524
X00796075Y00636504
X00791584Y00654614
X00734434Y00644659
X00724111Y00671719
X00712844Y00676204
X00704114Y00677816
X00693794
X00676714Y00679734
X00670934Y00672394
X00655505Y00679592
X00659875Y00689304
X00660884Y00654135
X00668104Y00624334
X00686174Y00616514
X00698874
X00724842Y00616404
X00719194Y00702874
X00705714Y00705764
X00735042Y00708764
X00734434Y00700334
X00743324Y00693594
X00676014Y00710731
X00621404Y00684784
Y00668584
X00566794Y00671124
Y00679404
X00578224Y00685444
X00543004Y00651504
X00531234Y00645084
X00543004Y00573994
X00630554Y00593044
X00693854Y00551674
X00684714Y00518564
X00676014Y00510731
X00676714Y00479734
X00670934Y00472394
X00655505Y00479592
X00659875Y00489304
X00660884Y00454135
X00668104Y00424334
X00686174Y00416514
X00698874
X00724842Y00416404
X00734434Y00444659
X00724111Y00471719
X00712844Y00476204
X00704114Y00477816
X00693794
X00621404Y00484784
Y00468584
X00566794Y00471124
Y00479404
X00578224Y00485444
X00543004Y00451504
X00531234Y00445084
X00543004Y00373994
X00566794Y00336674
X00587074Y00334317
X00607094Y00339513
X00616154Y00341674
X00636644Y00324884
X00654883Y00350754
X00655694Y00358754
X00644264Y00365104
X00652538Y00382504
X00664584Y00376534
X00675514Y00382854
X00715239Y00383439
X00719194Y00375264
X00733042Y00377439
X00724568Y00352923
X00717924Y00337926
Y00329613
X00752214Y00320654
X00764444Y00336113
X00762944Y00348004
X00806824Y00339704
X00794124Y00325734
X00836464Y00341674
X00837854Y00357024
X00839157Y00374954
X00851734
X00863974Y00440003
X00831734Y00446524
X00796075Y00436504
X00791584Y00454614
X00693854Y00351674
X00684714Y00318564
X00630554Y00393044
X01043004Y00373994
X01066794Y00336674
X01087074Y00334317
X01107094Y00339513
X01116154Y00341674
X01136644Y00324884
X01154883Y00350754
X01155694Y00358754
X01144264Y00365104
X01152538Y00382504
X01164584Y00376534
X01175514Y00382854
X01215239Y00383439
X01219194Y00375264
X01233042Y00377439
X01224568Y00352923
X01217924Y00337926
Y00329613
X01252214Y00320654
X01264444Y00336113
X01262944Y00348004
X01306824Y00339704
X01294124Y00325734
X01296075Y00436504
X01291584Y00454614
X01234434Y00444659
X01224111Y00471719
X01212844Y00476204
X01204114Y00477816
X01193794
X01176714Y00479734
X01170934Y00472394
X01155505Y00479592
X01159875Y00489304
X01160884Y00454135
X01168104Y00424334
X01186174Y00416514
X01198874
X01224842Y00416404
X01219194Y00502874
X01205714Y00505764
X01210304Y00513034
X01217924Y00529613
Y00537926
X01224568Y00552923
X01219194Y00575264
X01215239Y00583439
X01233042Y00577439
X01224842Y00616404
X01198874Y00616514
X01186174
X01168104Y00624334
X01160884Y00654135
X01170934Y00672394
X01176714Y00679734
X01193794Y00677816
X01204114
X01212844Y00676204
X01224111Y00671719
X01219194Y00702874
X01205714Y00705764
X01235042Y00708764
X01234434Y00700334
X01243324Y00693594
X01234434Y00644659
X01291584Y00654614
X01296075Y00636504
X01306824Y00539704
X01294124Y00525734
X01264444Y00536113
X01262944Y00548004
X01252214Y00520654
X01235042Y00508764
X01234434Y00500334
X01243324Y00493594
X01184714Y00518564
X01176014Y00510731
X01136644Y00524884
X01116154Y00541674
X01107094Y00539513
X01087074Y00534317
X01066794Y00536674
Y00479404
Y00471124
X01078224Y00485444
X01121404Y00484784
Y00468584
X01130554Y00393044
X01193854Y00351674
X01184714Y00318564
X01011195Y00327674
X01031234Y00445084
X01043004Y00451504
X01027224Y00514304
X01011195Y00527674
X01043004Y00573994
Y00651504
X01031234Y00645084
X01066794Y00671124
Y00679404
X01078224Y00685444
X01121404Y00684784
Y00668584
X01155505Y00679592
X01159875Y00689304
X01176014Y00710731
X01175514Y00582854
X01164584Y00576534
X01152538Y00582504
X01144264Y00565104
X01155694Y00558754
X01154883Y00550754
X01193854Y00551674
X01130554Y00593044
X01339157Y00574954
X01351734
X01337854Y00557024
X01336465Y00541674
X01331734Y00446524
X01363974Y00440003
X01351734Y00374954
X01339157
X01337854Y00357024
X01336465Y00341674
X01331734Y00646524
X01363974Y00640003
X01336465Y00741674
X01337854Y00757024
X01339157Y00774954
X01351734
X01363974Y00840003
X01331734Y00846524
X01336465Y00941674
X01337854Y00957024
X01339157Y00974954
X01351734
X01306824Y00939704
X01294124Y00925734
X01264444Y00936113
X01262944Y00948004
X01252214Y00920654
X01235042Y00908764
X01234434Y00900334
X01243324Y00893594
X01219194Y00902874
X01205714Y00905764
X01210304Y00913034
X01217924Y00929613
Y00937926
X01224568Y00952923
X01219194Y00975264
X01215239Y00983439
X01233042Y00977439
X01175514Y00982854
X01164584Y00976534
X01152538Y00982504
X01144264Y00965104
X01155694Y00958754
X01154883Y00950754
X01193854Y00951674
X01184714Y00918564
X01176014Y00910731
X01176714Y00879734
X01170934Y00872394
X01155505Y00879592
X01159875Y00889304
X01160884Y00854135
X01168104Y00824334
X01186174Y00816514
X01198874
X01224842Y00816404
X01234434Y00844659
X01224111Y00871719
X01212844Y00876204
X01204114Y00877816
X01193794
X01121404Y00884784
Y00868584
X01066794Y00871124
Y00879404
X01078224Y00885444
X01087074Y00934317
X01066794Y00936674
X01107094Y00939513
X01116154Y00941674
X01136644Y00924884
X01130554Y00993044
X01043004Y00973994
X01027224Y00914304
X01011195Y00927674
X01031234Y00845084
X01043004Y00851504
Y00773994
X01066794Y00736674
X01087074Y00734317
X01107094Y00739513
X01116154Y00741674
X01136644Y00724884
X01154883Y00750754
X01155694Y00758754
X01144264Y00765104
X01152538Y00782504
X01164584Y00776534
X01175514Y00782854
X01215239Y00783439
X01219194Y00775264
X01233042Y00777439
X01224568Y00752923
X01217924Y00737926
Y00729613
X01210304Y00713034
X01184714Y00718564
X01193854Y00751674
X01262944Y00748004
X01264444Y00736113
X01252214Y00720654
X01294124Y00725734
X01306824Y00739704
X01296075Y00836504
X01291584Y00854614
X01130554Y00793044
X01027224Y00714304
X01011195Y00727674
X00836464Y00741674
X00837854Y00757024
X00839157Y00774954
X00851734
X00863974Y00840003
X00831734Y00846524
X00796075Y00836504
X00791584Y00854614
X00734434Y00844659
X00724111Y00871719
X00712844Y00876204
X00704114Y00877816
X00693794
X00676714Y00879734
X00670934Y00872394
X00655505Y00879592
X00659875Y00889304
X00660884Y00854135
X00668104Y00824334
X00686174Y00816514
X00698874
X00724842Y00816404
X00715239Y00783439
X00719194Y00775264
X00733042Y00777439
X00724568Y00752923
X00717924Y00737926
Y00729613
X00710304Y00713034
X00684714Y00718564
X00693854Y00751674
X00654883Y00750754
X00655694Y00758754
X00644264Y00765104
X00652538Y00782504
X00664584Y00776534
X00675514Y00782854
X00630554Y00793044
X00616154Y00741674
X00607094Y00739513
X00587074Y00734317
X00566794Y00736674
X00543004Y00773994
Y00851504
X00531234Y00845084
X00566794Y00871124
Y00879404
X00578224Y00885444
X00621404Y00884784
Y00868584
X00636644Y00924884
X00616154Y00941674
X00607094Y00939513
X00587074Y00934317
X00566794Y00936674
X00543004Y00973994
X00630554Y00993044
X00652538Y00982504
X00664584Y00976534
X00675514Y00982854
X00715239Y00983439
X00719194Y00975264
X00733042Y00977439
X00724568Y00952923
X00717924Y00937926
Y00929613
X00710304Y00913034
X00705714Y00905764
X00719194Y00902874
X00734434Y00900334
X00735042Y00908764
X00743324Y00893594
X00752214Y00920654
X00764444Y00936113
X00762944Y00948004
X00806824Y00939704
X00794124Y00925734
X00836464Y00941674
X00837854Y00957024
X00839157Y00974954
X00851734
X00693854Y00951674
X00654883Y00950754
X00655694Y00958754
X00644264Y00965104
X00676014Y00910731
X00684714Y00918564
X00636644Y00724884
X00752214Y00720654
X00764444Y00736113
X00762944Y00748004
X00806824Y00739704
X00794124Y00725734
X00527224Y00714304
X00511195Y00727674
X00336465Y00741674
X00337854Y00757024
X00339157Y00774954
X00351734
X00363974Y00840003
X00331734Y00846524
X00296075Y00836504
X00291584Y00854614
X00234434Y00844659
X00224111Y00871719
X00212844Y00876204
X00204114Y00877816
X00193794
X00176714Y00879734
X00170934Y00872394
X00155505Y00879592
X00159875Y00889304
X00160884Y00854135
X00168104Y00824334
X00186174Y00816514
X00198874
X00224842Y00816404
X00215239Y00783439
X00219194Y00775264
X00233042Y00777439
X00224568Y00752923
X00217924Y00737926
Y00729613
X00210304Y00713034
X00184714Y00718564
X00193854Y00751674
X00154883Y00750754
X00155694Y00758754
X00144264Y00765104
X00152538Y00782504
X00164584Y00776534
X00175514Y00782854
X00136644Y00724884
X00252214Y00720654
X00264444Y00736113
X00262944Y00748004
X00306824Y00739704
X00294124Y00725734
Y00925734
X00306824Y00939704
X00336465Y00941674
X00337854Y00957024
X00339157Y00974954
X00351734
X00262944Y00948004
X00264444Y00936113
X00252214Y00920654
X00235042Y00908764
X00234434Y00900334
X00243324Y00893594
X00219194Y00902874
X00205714Y00905764
X00210304Y00913034
X00217924Y00929613
Y00937926
X00224568Y00952923
X00219194Y00975264
X00215239Y00983439
X00233042Y00977439
X00175514Y00982854
X00164584Y00976534
X00152538Y00982504
X00144264Y00965104
X00155694Y00958754
X00154883Y00950754
X00193854Y00951674
X00184714Y00918564
X00176014Y00910731
X00136644Y00924884
X00511195Y00927674
X00527224Y00914304
X00121404Y00884784
Y00868584
X00066794Y00871124
Y00879404
X00078224Y00885444
X00087074Y00934317
X00066794Y00936674
X00107094Y00939513
X00116154Y00941674
X00130554Y00993044
X00043004Y00973994
X00027224Y00914304
X00011195Y00927674
X00031234Y00845084
X00043004Y00851504
Y00773994
X00066794Y00736674
X00087074Y00734317
X00107094Y00739513
X00116154Y00741674
X00130554Y00793044
X00027224Y00714304
X00011195Y00727674
T02
X01064254Y00174004
X01076954
X01089654
X01102354
X01115054
X00615054
X00602354
X00589654
X00576954
X00564254
X00115054
X00102354
X00089654
X00076954
X00064254
Y00374004
X00076954
X00089654
X00102354
X00115054
Y00574004
X00102354
X00089654
X00076954
X00064254
X00564254
X00576954
X00589654
X00602354
X00615054
Y00374004
X00602354
X00589654
X00576954
X00564254
X01064254
X01076954
X01089654
X01102354
X01115054
Y00574004
X01102354
X01089654
X01076954
X01064254
Y00774004
X01076954
X01089654
X01102354
X01115054
Y00974004
X01102354
X01089654
X01076954
X01064254
X00615054
X00602354
X00589654
X00576954
X00564254
Y00774004
X00576954
X00589654
X00602354
X00615054
X00115054
X00102354
X00089654
X00076954
X00064254
Y00974004
X00076954
X00089654
X00102354
X00115054
T03
X01255754Y00180004
X00755754
X00255754
Y00380004
Y00580004
X00755754
Y00380004
X01255754
Y00580004
Y00780004
Y00980004
X00755754
Y00780004
X00255754
Y00980004
M30
