G04*
G04 #@! TF.GenerationSoftware,Altium Limited,Altium Designer,19.0.14 (431)*
G04*
G04 Layer_Color=16711935*
%FSLAX44Y44*%
%MOMM*%
G71*
G01*
G75*
%ADD57C,0.1500*%
D57*
X1000754Y200004D02*
X1400754D01*
X1149754Y4D02*
X1400754D01*
X1149484Y274D02*
X1149754Y4D01*
X1149484Y274D02*
Y49804D01*
X1083854D02*
X1149484D01*
X1083854Y554D02*
Y49804D01*
X1083304Y4D02*
X1083854Y554D01*
X1000754Y4D02*
X1083304D01*
X1000754D02*
Y200004D01*
X1106754D02*
X1107094Y199664D01*
Y200004D01*
X1400754Y4D02*
Y200004D01*
X1000754Y400004D02*
X1400754D01*
X1149754Y200004D02*
X1400754D01*
X1149484Y200274D02*
X1149754Y200004D01*
X1149484Y200274D02*
Y249804D01*
X1083854D02*
X1149484D01*
X1083854Y200554D02*
Y249804D01*
X1083304Y200004D02*
X1083854Y200554D01*
X1000754Y200004D02*
X1083304D01*
X1000754D02*
Y400004D01*
X1106754D02*
X1107094Y399664D01*
Y400004D01*
X1400754Y200004D02*
Y400004D01*
X1000754Y600004D02*
X1400754D01*
X1149754Y400004D02*
X1400754D01*
X1149484Y400274D02*
X1149754Y400004D01*
X1149484Y400274D02*
Y449804D01*
X1083854D02*
X1149484D01*
X1083854Y400554D02*
Y449804D01*
X1083304Y400004D02*
X1083854Y400554D01*
X1000754Y400004D02*
X1083304D01*
X1000754D02*
Y600004D01*
X1106754D02*
X1107094Y599664D01*
Y600004D01*
X1400754Y400004D02*
Y600004D01*
X1000754Y800004D02*
X1400754D01*
X1149754Y600004D02*
X1400754D01*
X1149484Y600274D02*
X1149754Y600004D01*
X1149484Y600274D02*
Y649804D01*
X1083854D02*
X1149484D01*
X1083854Y600554D02*
Y649804D01*
X1083304Y600004D02*
X1083854Y600554D01*
X1000754Y600004D02*
X1083304D01*
X1000754D02*
Y800004D01*
X1106754D02*
X1107094Y799664D01*
Y800004D01*
X1400754Y600004D02*
Y800004D01*
X1000754Y1000004D02*
X1400754D01*
X1149754Y800004D02*
X1400754D01*
X1149484Y800274D02*
X1149754Y800004D01*
X1149484Y800274D02*
Y849804D01*
X1083854D02*
X1149484D01*
X1083854Y800554D02*
Y849804D01*
X1083304Y800004D02*
X1083854Y800554D01*
X1000754Y800004D02*
X1083304D01*
X1000754D02*
Y1000004D01*
X1106754D02*
X1107094Y999664D01*
Y1000004D01*
X1400754Y800004D02*
Y1000004D01*
X500754Y200004D02*
X900754D01*
X649754Y4D02*
X900754D01*
X649484Y274D02*
X649754Y4D01*
X649484Y274D02*
Y49804D01*
X583854D02*
X649484D01*
X583854Y554D02*
Y49804D01*
X583304Y4D02*
X583854Y554D01*
X500754Y4D02*
X583304D01*
X500754D02*
Y200004D01*
X606754D02*
X607094Y199664D01*
Y200004D01*
X900754Y4D02*
Y200004D01*
X500754Y400004D02*
X900754D01*
X649754Y200004D02*
X900754D01*
X649484Y200274D02*
X649754Y200004D01*
X649484Y200274D02*
Y249804D01*
X583854D02*
X649484D01*
X583854Y200554D02*
Y249804D01*
X583304Y200004D02*
X583854Y200554D01*
X500754Y200004D02*
X583304D01*
X500754D02*
Y400004D01*
X606754D02*
X607094Y399664D01*
Y400004D01*
X900754Y200004D02*
Y400004D01*
X500754Y600004D02*
X900754D01*
X649754Y400004D02*
X900754D01*
X649484Y400274D02*
X649754Y400004D01*
X649484Y400274D02*
Y449804D01*
X583854D02*
X649484D01*
X583854Y400554D02*
Y449804D01*
X583304Y400004D02*
X583854Y400554D01*
X500754Y400004D02*
X583304D01*
X500754D02*
Y600004D01*
X606754D02*
X607094Y599664D01*
Y600004D01*
X900754Y400004D02*
Y600004D01*
X500754Y800004D02*
X900754D01*
X649754Y600004D02*
X900754D01*
X649484Y600274D02*
X649754Y600004D01*
X649484Y600274D02*
Y649804D01*
X583854D02*
X649484D01*
X583854Y600554D02*
Y649804D01*
X583304Y600004D02*
X583854Y600554D01*
X500754Y600004D02*
X583304D01*
X500754D02*
Y800004D01*
X606754D02*
X607094Y799664D01*
Y800004D01*
X900754Y600004D02*
Y800004D01*
X500754Y1000004D02*
X900754D01*
X649754Y800004D02*
X900754D01*
X649484Y800274D02*
X649754Y800004D01*
X649484Y800274D02*
Y849804D01*
X583854D02*
X649484D01*
X583854Y800554D02*
Y849804D01*
X583304Y800004D02*
X583854Y800554D01*
X500754Y800004D02*
X583304D01*
X500754D02*
Y1000004D01*
X606754D02*
X607094Y999664D01*
Y1000004D01*
X900754Y800004D02*
Y1000004D01*
X754Y200004D02*
X400754D01*
X149754Y4D02*
X400754D01*
X149484Y274D02*
X149754Y4D01*
X149484Y274D02*
Y49804D01*
X83854D02*
X149484D01*
X83854Y554D02*
Y49804D01*
X83304Y4D02*
X83854Y554D01*
X754Y4D02*
X83304D01*
X754D02*
Y200004D01*
X106754D02*
X107094Y199664D01*
Y200004D01*
X400754Y4D02*
Y200004D01*
X754Y400004D02*
X400754D01*
X149754Y200004D02*
X400754D01*
X149484Y200274D02*
X149754Y200004D01*
X149484Y200274D02*
Y249804D01*
X83854D02*
X149484D01*
X83854Y200554D02*
Y249804D01*
X83304Y200004D02*
X83854Y200554D01*
X754Y200004D02*
X83304D01*
X754D02*
Y400004D01*
X106754D02*
X107094Y399664D01*
Y400004D01*
X400754Y200004D02*
Y400004D01*
X754Y600004D02*
X400754D01*
X149754Y400004D02*
X400754D01*
X149484Y400274D02*
X149754Y400004D01*
X149484Y400274D02*
Y449804D01*
X83854D02*
X149484D01*
X83854Y400554D02*
Y449804D01*
X83304Y400004D02*
X83854Y400554D01*
X754Y400004D02*
X83304D01*
X754D02*
Y600004D01*
X106754D02*
X107094Y599664D01*
Y600004D01*
X400754Y400004D02*
Y600004D01*
X754Y800004D02*
X400754D01*
X149754Y600004D02*
X400754D01*
X149484Y600274D02*
X149754Y600004D01*
X149484Y600274D02*
Y649804D01*
X83854D02*
X149484D01*
X83854Y600554D02*
Y649804D01*
X83304Y600004D02*
X83854Y600554D01*
X754Y600004D02*
X83304D01*
X754D02*
Y800004D01*
X106754D02*
X107094Y799664D01*
Y800004D01*
X400754Y600004D02*
Y800004D01*
X754Y1000004D02*
X400754D01*
X149754Y800004D02*
X400754D01*
X149484Y800274D02*
X149754Y800004D01*
X149484Y800274D02*
Y849804D01*
X83854D02*
X149484D01*
X83854Y800554D02*
Y849804D01*
X83304Y800004D02*
X83854Y800554D01*
X754Y800004D02*
X83304D01*
X754D02*
Y1000004D01*
X106754D02*
X107094Y999664D01*
Y1000004D01*
X400754Y800004D02*
Y1000004D01*
M02*
