G04*
G04 #@! TF.GenerationSoftware,Altium Limited,Altium Designer,19.0.14 (431)*
G04*
G04 Layer_Color=255*
%FSLAX44Y44*%
%MOMM*%
G71*
G01*
G75*
%ADD10R,1.0000X1.0000*%
%ADD13R,0.6000X0.5000*%
%ADD30R,1.0000X1.1000*%
%ADD39C,0.6000*%
%ADD40C,1.0000*%
%ADD41R,0.7500X0.2500*%
%ADD42R,0.8500X0.2500*%
%ADD43R,0.2500X0.7500*%
%ADD44R,0.2500X0.8500*%
%ADD45R,2.6000X2.6000*%
%ADD46O,0.8500X0.2000*%
%ADD47O,0.2000X0.8500*%
%ADD48R,2.4000X2.4000*%
%ADD49R,3.1000X2.5000*%
%ADD50R,1.5500X1.0000*%
%ADD51R,1.1000X1.0000*%
%ADD52R,1.5000X2.3000*%
%ADD53R,0.8000X0.3000*%
D10*
X100000Y1050000D02*
D03*
X50000Y-50000D02*
D03*
X1350000D02*
D03*
Y1050000D02*
D03*
X1064254Y174004D02*
D03*
Y374004D02*
D03*
Y574004D02*
D03*
Y774004D02*
D03*
Y974004D02*
D03*
X564254Y174004D02*
D03*
Y374004D02*
D03*
Y574004D02*
D03*
Y774004D02*
D03*
Y974004D02*
D03*
X64254Y174004D02*
D03*
Y374004D02*
D03*
Y574004D02*
D03*
Y774004D02*
D03*
Y974004D02*
D03*
D13*
X1032504Y61834D02*
D03*
X1022504D02*
D03*
X1022195Y51504D02*
D03*
X1012195D02*
D03*
X1032504Y261834D02*
D03*
X1022504D02*
D03*
X1022195Y251504D02*
D03*
X1012195D02*
D03*
X1032504Y461834D02*
D03*
X1022504D02*
D03*
X1022195Y451504D02*
D03*
X1012195D02*
D03*
X1032504Y661834D02*
D03*
X1022504D02*
D03*
X1022195Y651504D02*
D03*
X1012195D02*
D03*
X1032504Y861834D02*
D03*
X1022504D02*
D03*
X1022195Y851504D02*
D03*
X1012195D02*
D03*
X532504Y61834D02*
D03*
X522504D02*
D03*
X522195Y51504D02*
D03*
X512195D02*
D03*
X532504Y261834D02*
D03*
X522504D02*
D03*
X522195Y251504D02*
D03*
X512195D02*
D03*
X532504Y461834D02*
D03*
X522504D02*
D03*
X522195Y451504D02*
D03*
X512195D02*
D03*
X532504Y661834D02*
D03*
X522504D02*
D03*
X522195Y651504D02*
D03*
X512195D02*
D03*
X532504Y861834D02*
D03*
X522504D02*
D03*
X522195Y851504D02*
D03*
X512195D02*
D03*
X32504Y61834D02*
D03*
X22504D02*
D03*
X22195Y51504D02*
D03*
X12195D02*
D03*
X32504Y261834D02*
D03*
X22504D02*
D03*
X22195Y251504D02*
D03*
X12195D02*
D03*
X32504Y461834D02*
D03*
X22504D02*
D03*
X22195Y451504D02*
D03*
X12195D02*
D03*
X32504Y661834D02*
D03*
X22504D02*
D03*
X22195Y651504D02*
D03*
X12195D02*
D03*
X32504Y861834D02*
D03*
X22504D02*
D03*
X22195Y851504D02*
D03*
X12195D02*
D03*
D30*
X1274754Y111804D02*
D03*
Y94804D02*
D03*
Y311804D02*
D03*
Y294804D02*
D03*
Y511804D02*
D03*
Y494804D02*
D03*
Y711804D02*
D03*
Y694804D02*
D03*
Y911804D02*
D03*
Y894804D02*
D03*
X774754Y111804D02*
D03*
Y94804D02*
D03*
Y311804D02*
D03*
Y294804D02*
D03*
Y511804D02*
D03*
Y494804D02*
D03*
Y711804D02*
D03*
Y694804D02*
D03*
Y911804D02*
D03*
Y894804D02*
D03*
X274754Y111804D02*
D03*
Y94804D02*
D03*
Y311804D02*
D03*
Y294804D02*
D03*
Y511804D02*
D03*
Y494804D02*
D03*
Y711804D02*
D03*
Y694804D02*
D03*
Y911804D02*
D03*
Y894804D02*
D03*
D39*
X1255754Y180004D02*
D03*
Y380004D02*
D03*
Y580004D02*
D03*
Y780004D02*
D03*
Y980004D02*
D03*
X755754Y180004D02*
D03*
Y380004D02*
D03*
Y580004D02*
D03*
Y780004D02*
D03*
Y980004D02*
D03*
X255754Y180004D02*
D03*
Y380004D02*
D03*
Y580004D02*
D03*
Y780004D02*
D03*
Y980004D02*
D03*
D40*
X1115054Y174004D02*
D03*
X1102354D02*
D03*
X1089654D02*
D03*
X1076954D02*
D03*
X1115054Y374004D02*
D03*
X1102354D02*
D03*
X1089654D02*
D03*
X1076954D02*
D03*
X1115054Y574004D02*
D03*
X1102354D02*
D03*
X1089654D02*
D03*
X1076954D02*
D03*
X1115054Y774004D02*
D03*
X1102354D02*
D03*
X1089654D02*
D03*
X1076954D02*
D03*
X1115054Y974004D02*
D03*
X1102354D02*
D03*
X1089654D02*
D03*
X1076954D02*
D03*
X615054Y174004D02*
D03*
X602354D02*
D03*
X589654D02*
D03*
X576954D02*
D03*
X615054Y374004D02*
D03*
X602354D02*
D03*
X589654D02*
D03*
X576954D02*
D03*
X615054Y574004D02*
D03*
X602354D02*
D03*
X589654D02*
D03*
X576954D02*
D03*
X615054Y774004D02*
D03*
X602354D02*
D03*
X589654D02*
D03*
X576954D02*
D03*
X615054Y974004D02*
D03*
X602354D02*
D03*
X589654D02*
D03*
X576954D02*
D03*
X115054Y174004D02*
D03*
X102354D02*
D03*
X89654D02*
D03*
X76954D02*
D03*
X115054Y374004D02*
D03*
X102354D02*
D03*
X89654D02*
D03*
X76954D02*
D03*
X115054Y574004D02*
D03*
X102354D02*
D03*
X89654D02*
D03*
X76954D02*
D03*
X115054Y774004D02*
D03*
X102354D02*
D03*
X89654D02*
D03*
X76954D02*
D03*
X115054Y974004D02*
D03*
X102354D02*
D03*
X89654D02*
D03*
X76954D02*
D03*
D41*
X1209854Y58834D02*
D03*
Y33834D02*
D03*
X1170354D02*
D03*
Y58834D02*
D03*
X1209854Y258834D02*
D03*
Y233834D02*
D03*
X1170354D02*
D03*
Y258834D02*
D03*
X1209854Y458834D02*
D03*
Y433834D02*
D03*
X1170354D02*
D03*
Y458834D02*
D03*
X1209854Y658834D02*
D03*
Y633834D02*
D03*
X1170354D02*
D03*
Y658834D02*
D03*
X1209854Y858834D02*
D03*
Y833834D02*
D03*
X1170354D02*
D03*
Y858834D02*
D03*
X709854Y58834D02*
D03*
Y33834D02*
D03*
X670354D02*
D03*
Y58834D02*
D03*
X709854Y258834D02*
D03*
Y233834D02*
D03*
X670354D02*
D03*
Y258834D02*
D03*
X709854Y458834D02*
D03*
Y433834D02*
D03*
X670354D02*
D03*
Y458834D02*
D03*
X709854Y658834D02*
D03*
Y633834D02*
D03*
X670354D02*
D03*
Y658834D02*
D03*
X709854Y858834D02*
D03*
Y833834D02*
D03*
X670354D02*
D03*
Y858834D02*
D03*
X209854Y58834D02*
D03*
Y33834D02*
D03*
X170354D02*
D03*
Y58834D02*
D03*
X209854Y258834D02*
D03*
Y233834D02*
D03*
X170354D02*
D03*
Y258834D02*
D03*
X209854Y458834D02*
D03*
Y433834D02*
D03*
X170354D02*
D03*
Y458834D02*
D03*
X209854Y658834D02*
D03*
Y633834D02*
D03*
X170354D02*
D03*
Y658834D02*
D03*
X209854Y858834D02*
D03*
Y833834D02*
D03*
X170354D02*
D03*
Y858834D02*
D03*
D42*
X1209354Y53834D02*
D03*
Y48834D02*
D03*
Y43834D02*
D03*
Y38834D02*
D03*
X1170854D02*
D03*
Y43834D02*
D03*
Y48834D02*
D03*
Y53834D02*
D03*
X1209354Y253834D02*
D03*
Y248834D02*
D03*
Y243834D02*
D03*
Y238834D02*
D03*
X1170854D02*
D03*
Y243834D02*
D03*
Y248834D02*
D03*
Y253834D02*
D03*
X1209354Y453834D02*
D03*
Y448834D02*
D03*
Y443834D02*
D03*
Y438834D02*
D03*
X1170854D02*
D03*
Y443834D02*
D03*
Y448834D02*
D03*
Y453834D02*
D03*
X1209354Y653834D02*
D03*
Y648834D02*
D03*
Y643834D02*
D03*
Y638834D02*
D03*
X1170854D02*
D03*
Y643834D02*
D03*
Y648834D02*
D03*
Y653834D02*
D03*
X1209354Y853834D02*
D03*
Y848834D02*
D03*
Y843834D02*
D03*
Y838834D02*
D03*
X1170854D02*
D03*
Y843834D02*
D03*
Y848834D02*
D03*
Y853834D02*
D03*
X709354Y53834D02*
D03*
Y48834D02*
D03*
Y43834D02*
D03*
Y38834D02*
D03*
X670854D02*
D03*
Y43834D02*
D03*
Y48834D02*
D03*
Y53834D02*
D03*
X709354Y253834D02*
D03*
Y248834D02*
D03*
Y243834D02*
D03*
Y238834D02*
D03*
X670854D02*
D03*
Y243834D02*
D03*
Y248834D02*
D03*
Y253834D02*
D03*
X709354Y453834D02*
D03*
Y448834D02*
D03*
Y443834D02*
D03*
Y438834D02*
D03*
X670854D02*
D03*
Y443834D02*
D03*
Y448834D02*
D03*
Y453834D02*
D03*
X709354Y653834D02*
D03*
Y648834D02*
D03*
Y643834D02*
D03*
Y638834D02*
D03*
X670854D02*
D03*
Y643834D02*
D03*
Y648834D02*
D03*
Y653834D02*
D03*
X709354Y853834D02*
D03*
Y848834D02*
D03*
Y843834D02*
D03*
Y838834D02*
D03*
X670854D02*
D03*
Y843834D02*
D03*
Y848834D02*
D03*
Y853834D02*
D03*
X209354Y53834D02*
D03*
Y48834D02*
D03*
Y43834D02*
D03*
Y38834D02*
D03*
X170854D02*
D03*
Y43834D02*
D03*
Y48834D02*
D03*
Y53834D02*
D03*
X209354Y253834D02*
D03*
Y248834D02*
D03*
Y243834D02*
D03*
Y238834D02*
D03*
X170854D02*
D03*
Y243834D02*
D03*
Y248834D02*
D03*
Y253834D02*
D03*
X209354Y453834D02*
D03*
Y448834D02*
D03*
Y443834D02*
D03*
Y438834D02*
D03*
X170854D02*
D03*
Y443834D02*
D03*
Y448834D02*
D03*
Y453834D02*
D03*
X209354Y653834D02*
D03*
Y648834D02*
D03*
Y643834D02*
D03*
Y638834D02*
D03*
X170854D02*
D03*
Y643834D02*
D03*
Y648834D02*
D03*
Y653834D02*
D03*
X209354Y853834D02*
D03*
Y848834D02*
D03*
Y843834D02*
D03*
Y838834D02*
D03*
X170854D02*
D03*
Y843834D02*
D03*
Y848834D02*
D03*
Y853834D02*
D03*
D43*
X1202604Y26584D02*
D03*
X1177604D02*
D03*
Y66084D02*
D03*
X1202604D02*
D03*
Y226584D02*
D03*
X1177604D02*
D03*
Y266084D02*
D03*
X1202604D02*
D03*
Y426584D02*
D03*
X1177604D02*
D03*
Y466084D02*
D03*
X1202604D02*
D03*
Y626584D02*
D03*
X1177604D02*
D03*
Y666084D02*
D03*
X1202604D02*
D03*
Y826584D02*
D03*
X1177604D02*
D03*
Y866084D02*
D03*
X1202604D02*
D03*
X702604Y26584D02*
D03*
X677604D02*
D03*
Y66084D02*
D03*
X702604D02*
D03*
Y226584D02*
D03*
X677604D02*
D03*
Y266084D02*
D03*
X702604D02*
D03*
Y426584D02*
D03*
X677604D02*
D03*
Y466084D02*
D03*
X702604D02*
D03*
Y626584D02*
D03*
X677604D02*
D03*
Y666084D02*
D03*
X702604D02*
D03*
Y826584D02*
D03*
X677604D02*
D03*
Y866084D02*
D03*
X702604D02*
D03*
X202604Y26584D02*
D03*
X177604D02*
D03*
Y66084D02*
D03*
X202604D02*
D03*
Y226584D02*
D03*
X177604D02*
D03*
Y266084D02*
D03*
X202604D02*
D03*
Y426584D02*
D03*
X177604D02*
D03*
Y466084D02*
D03*
X202604D02*
D03*
Y626584D02*
D03*
X177604D02*
D03*
Y666084D02*
D03*
X202604D02*
D03*
Y826584D02*
D03*
X177604D02*
D03*
Y866084D02*
D03*
X202604D02*
D03*
D44*
X1197604Y27084D02*
D03*
X1192604D02*
D03*
X1187604D02*
D03*
X1182604D02*
D03*
Y65584D02*
D03*
X1187604D02*
D03*
X1192604D02*
D03*
X1197604D02*
D03*
Y227084D02*
D03*
X1192604D02*
D03*
X1187604D02*
D03*
X1182604D02*
D03*
Y265584D02*
D03*
X1187604D02*
D03*
X1192604D02*
D03*
X1197604D02*
D03*
Y427084D02*
D03*
X1192604D02*
D03*
X1187604D02*
D03*
X1182604D02*
D03*
Y465584D02*
D03*
X1187604D02*
D03*
X1192604D02*
D03*
X1197604D02*
D03*
Y627084D02*
D03*
X1192604D02*
D03*
X1187604D02*
D03*
X1182604D02*
D03*
Y665584D02*
D03*
X1187604D02*
D03*
X1192604D02*
D03*
X1197604D02*
D03*
Y827084D02*
D03*
X1192604D02*
D03*
X1187604D02*
D03*
X1182604D02*
D03*
Y865584D02*
D03*
X1187604D02*
D03*
X1192604D02*
D03*
X1197604D02*
D03*
X697604Y27084D02*
D03*
X692604D02*
D03*
X687604D02*
D03*
X682604D02*
D03*
Y65584D02*
D03*
X687604D02*
D03*
X692604D02*
D03*
X697604D02*
D03*
Y227084D02*
D03*
X692604D02*
D03*
X687604D02*
D03*
X682604D02*
D03*
Y265584D02*
D03*
X687604D02*
D03*
X692604D02*
D03*
X697604D02*
D03*
Y427084D02*
D03*
X692604D02*
D03*
X687604D02*
D03*
X682604D02*
D03*
Y465584D02*
D03*
X687604D02*
D03*
X692604D02*
D03*
X697604D02*
D03*
Y627084D02*
D03*
X692604D02*
D03*
X687604D02*
D03*
X682604D02*
D03*
Y665584D02*
D03*
X687604D02*
D03*
X692604D02*
D03*
X697604D02*
D03*
Y827084D02*
D03*
X692604D02*
D03*
X687604D02*
D03*
X682604D02*
D03*
Y865584D02*
D03*
X687604D02*
D03*
X692604D02*
D03*
X697604D02*
D03*
X197604Y27084D02*
D03*
X192604D02*
D03*
X187604D02*
D03*
X182604D02*
D03*
Y65584D02*
D03*
X187604D02*
D03*
X192604D02*
D03*
X197604D02*
D03*
Y227084D02*
D03*
X192604D02*
D03*
X187604D02*
D03*
X182604D02*
D03*
Y265584D02*
D03*
X187604D02*
D03*
X192604D02*
D03*
X197604D02*
D03*
Y427084D02*
D03*
X192604D02*
D03*
X187604D02*
D03*
X182604D02*
D03*
Y465584D02*
D03*
X187604D02*
D03*
X192604D02*
D03*
X197604D02*
D03*
Y627084D02*
D03*
X192604D02*
D03*
X187604D02*
D03*
X182604D02*
D03*
Y665584D02*
D03*
X187604D02*
D03*
X192604D02*
D03*
X197604D02*
D03*
Y827084D02*
D03*
X192604D02*
D03*
X187604D02*
D03*
X182604D02*
D03*
Y865584D02*
D03*
X187604D02*
D03*
X192604D02*
D03*
X197604D02*
D03*
D45*
X1190104Y46334D02*
D03*
Y246334D02*
D03*
Y446334D02*
D03*
Y646334D02*
D03*
Y846334D02*
D03*
X690104Y46334D02*
D03*
Y246334D02*
D03*
Y446334D02*
D03*
Y646334D02*
D03*
Y846334D02*
D03*
X190104Y46334D02*
D03*
Y246334D02*
D03*
Y446334D02*
D03*
Y646334D02*
D03*
Y846334D02*
D03*
D46*
X1169464Y141674D02*
D03*
Y145674D02*
D03*
Y149674D02*
D03*
Y153674D02*
D03*
Y157674D02*
D03*
Y161674D02*
D03*
Y165674D02*
D03*
X1207964D02*
D03*
Y161674D02*
D03*
Y157674D02*
D03*
Y153674D02*
D03*
Y149674D02*
D03*
Y145674D02*
D03*
Y141674D02*
D03*
X1169464Y341674D02*
D03*
Y345674D02*
D03*
Y349674D02*
D03*
Y353674D02*
D03*
Y357674D02*
D03*
Y361674D02*
D03*
Y365674D02*
D03*
X1207964D02*
D03*
Y361674D02*
D03*
Y357674D02*
D03*
Y353674D02*
D03*
Y349674D02*
D03*
Y345674D02*
D03*
Y341674D02*
D03*
X1169464Y541674D02*
D03*
Y545674D02*
D03*
Y549674D02*
D03*
Y553674D02*
D03*
Y557674D02*
D03*
Y561674D02*
D03*
Y565674D02*
D03*
X1207964D02*
D03*
Y561674D02*
D03*
Y557674D02*
D03*
Y553674D02*
D03*
Y549674D02*
D03*
Y545674D02*
D03*
Y541674D02*
D03*
X1169464Y741674D02*
D03*
Y745674D02*
D03*
Y749674D02*
D03*
Y753674D02*
D03*
Y757674D02*
D03*
Y761674D02*
D03*
Y765674D02*
D03*
X1207964D02*
D03*
Y761674D02*
D03*
Y757674D02*
D03*
Y753674D02*
D03*
Y749674D02*
D03*
Y745674D02*
D03*
Y741674D02*
D03*
X1169464Y941674D02*
D03*
Y945674D02*
D03*
Y949674D02*
D03*
Y953674D02*
D03*
Y957674D02*
D03*
Y961674D02*
D03*
Y965674D02*
D03*
X1207964D02*
D03*
Y961674D02*
D03*
Y957674D02*
D03*
Y953674D02*
D03*
Y949674D02*
D03*
Y945674D02*
D03*
Y941674D02*
D03*
X669464Y141674D02*
D03*
Y145674D02*
D03*
Y149674D02*
D03*
Y153674D02*
D03*
Y157674D02*
D03*
Y161674D02*
D03*
Y165674D02*
D03*
X707964D02*
D03*
Y161674D02*
D03*
Y157674D02*
D03*
Y153674D02*
D03*
Y149674D02*
D03*
Y145674D02*
D03*
Y141674D02*
D03*
X669464Y341674D02*
D03*
Y345674D02*
D03*
Y349674D02*
D03*
Y353674D02*
D03*
Y357674D02*
D03*
Y361674D02*
D03*
Y365674D02*
D03*
X707964D02*
D03*
Y361674D02*
D03*
Y357674D02*
D03*
Y353674D02*
D03*
Y349674D02*
D03*
Y345674D02*
D03*
Y341674D02*
D03*
X669464Y541674D02*
D03*
Y545674D02*
D03*
Y549674D02*
D03*
Y553674D02*
D03*
Y557674D02*
D03*
Y561674D02*
D03*
Y565674D02*
D03*
X707964D02*
D03*
Y561674D02*
D03*
Y557674D02*
D03*
Y553674D02*
D03*
Y549674D02*
D03*
Y545674D02*
D03*
Y541674D02*
D03*
X669464Y741674D02*
D03*
Y745674D02*
D03*
Y749674D02*
D03*
Y753674D02*
D03*
Y757674D02*
D03*
Y761674D02*
D03*
Y765674D02*
D03*
X707964D02*
D03*
Y761674D02*
D03*
Y757674D02*
D03*
Y753674D02*
D03*
Y749674D02*
D03*
Y745674D02*
D03*
Y741674D02*
D03*
X669464Y941674D02*
D03*
Y945674D02*
D03*
Y949674D02*
D03*
Y953674D02*
D03*
Y957674D02*
D03*
Y961674D02*
D03*
Y965674D02*
D03*
X707964D02*
D03*
Y961674D02*
D03*
Y957674D02*
D03*
Y953674D02*
D03*
Y949674D02*
D03*
Y945674D02*
D03*
Y941674D02*
D03*
X169464Y141674D02*
D03*
Y145674D02*
D03*
Y149674D02*
D03*
Y153674D02*
D03*
Y157674D02*
D03*
Y161674D02*
D03*
Y165674D02*
D03*
X207964D02*
D03*
Y161674D02*
D03*
Y157674D02*
D03*
Y153674D02*
D03*
Y149674D02*
D03*
Y145674D02*
D03*
Y141674D02*
D03*
X169464Y341674D02*
D03*
Y345674D02*
D03*
Y349674D02*
D03*
Y353674D02*
D03*
Y357674D02*
D03*
Y361674D02*
D03*
Y365674D02*
D03*
X207964D02*
D03*
Y361674D02*
D03*
Y357674D02*
D03*
Y353674D02*
D03*
Y349674D02*
D03*
Y345674D02*
D03*
Y341674D02*
D03*
X169464Y541674D02*
D03*
Y545674D02*
D03*
Y549674D02*
D03*
Y553674D02*
D03*
Y557674D02*
D03*
Y561674D02*
D03*
Y565674D02*
D03*
X207964D02*
D03*
Y561674D02*
D03*
Y557674D02*
D03*
Y553674D02*
D03*
Y549674D02*
D03*
Y545674D02*
D03*
Y541674D02*
D03*
X169464Y741674D02*
D03*
Y745674D02*
D03*
Y749674D02*
D03*
Y753674D02*
D03*
Y757674D02*
D03*
Y761674D02*
D03*
Y765674D02*
D03*
X207964D02*
D03*
Y761674D02*
D03*
Y757674D02*
D03*
Y753674D02*
D03*
Y749674D02*
D03*
Y745674D02*
D03*
Y741674D02*
D03*
X169464Y941674D02*
D03*
Y945674D02*
D03*
Y949674D02*
D03*
Y953674D02*
D03*
Y957674D02*
D03*
Y961674D02*
D03*
Y965674D02*
D03*
X207964D02*
D03*
Y961674D02*
D03*
Y957674D02*
D03*
Y953674D02*
D03*
Y949674D02*
D03*
Y945674D02*
D03*
Y941674D02*
D03*
D47*
X1176714Y172924D02*
D03*
X1180714D02*
D03*
X1184714D02*
D03*
X1188714D02*
D03*
X1192714D02*
D03*
X1196714D02*
D03*
X1200714D02*
D03*
Y134424D02*
D03*
X1196714D02*
D03*
X1192714D02*
D03*
X1188714D02*
D03*
X1184714D02*
D03*
X1180714D02*
D03*
X1176714D02*
D03*
Y372924D02*
D03*
X1180714D02*
D03*
X1184714D02*
D03*
X1188714D02*
D03*
X1192714D02*
D03*
X1196714D02*
D03*
X1200714D02*
D03*
Y334424D02*
D03*
X1196714D02*
D03*
X1192714D02*
D03*
X1188714D02*
D03*
X1184714D02*
D03*
X1180714D02*
D03*
X1176714D02*
D03*
Y572924D02*
D03*
X1180714D02*
D03*
X1184714D02*
D03*
X1188714D02*
D03*
X1192714D02*
D03*
X1196714D02*
D03*
X1200714D02*
D03*
Y534424D02*
D03*
X1196714D02*
D03*
X1192714D02*
D03*
X1188714D02*
D03*
X1184714D02*
D03*
X1180714D02*
D03*
X1176714D02*
D03*
Y772924D02*
D03*
X1180714D02*
D03*
X1184714D02*
D03*
X1188714D02*
D03*
X1192714D02*
D03*
X1196714D02*
D03*
X1200714D02*
D03*
Y734424D02*
D03*
X1196714D02*
D03*
X1192714D02*
D03*
X1188714D02*
D03*
X1184714D02*
D03*
X1180714D02*
D03*
X1176714D02*
D03*
Y972924D02*
D03*
X1180714D02*
D03*
X1184714D02*
D03*
X1188714D02*
D03*
X1192714D02*
D03*
X1196714D02*
D03*
X1200714D02*
D03*
Y934424D02*
D03*
X1196714D02*
D03*
X1192714D02*
D03*
X1188714D02*
D03*
X1184714D02*
D03*
X1180714D02*
D03*
X1176714D02*
D03*
X676714Y172924D02*
D03*
X680714D02*
D03*
X684714D02*
D03*
X688714D02*
D03*
X692714D02*
D03*
X696714D02*
D03*
X700714D02*
D03*
Y134424D02*
D03*
X696714D02*
D03*
X692714D02*
D03*
X688714D02*
D03*
X684714D02*
D03*
X680714D02*
D03*
X676714D02*
D03*
Y372924D02*
D03*
X680714D02*
D03*
X684714D02*
D03*
X688714D02*
D03*
X692714D02*
D03*
X696714D02*
D03*
X700714D02*
D03*
Y334424D02*
D03*
X696714D02*
D03*
X692714D02*
D03*
X688714D02*
D03*
X684714D02*
D03*
X680714D02*
D03*
X676714D02*
D03*
Y572924D02*
D03*
X680714D02*
D03*
X684714D02*
D03*
X688714D02*
D03*
X692714D02*
D03*
X696714D02*
D03*
X700714D02*
D03*
Y534424D02*
D03*
X696714D02*
D03*
X692714D02*
D03*
X688714D02*
D03*
X684714D02*
D03*
X680714D02*
D03*
X676714D02*
D03*
Y772924D02*
D03*
X680714D02*
D03*
X684714D02*
D03*
X688714D02*
D03*
X692714D02*
D03*
X696714D02*
D03*
X700714D02*
D03*
Y734424D02*
D03*
X696714D02*
D03*
X692714D02*
D03*
X688714D02*
D03*
X684714D02*
D03*
X680714D02*
D03*
X676714D02*
D03*
Y972924D02*
D03*
X680714D02*
D03*
X684714D02*
D03*
X688714D02*
D03*
X692714D02*
D03*
X696714D02*
D03*
X700714D02*
D03*
Y934424D02*
D03*
X696714D02*
D03*
X692714D02*
D03*
X688714D02*
D03*
X684714D02*
D03*
X680714D02*
D03*
X676714D02*
D03*
X176714Y172924D02*
D03*
X180714D02*
D03*
X184714D02*
D03*
X188714D02*
D03*
X192714D02*
D03*
X196714D02*
D03*
X200714D02*
D03*
Y134424D02*
D03*
X196714D02*
D03*
X192714D02*
D03*
X188714D02*
D03*
X184714D02*
D03*
X180714D02*
D03*
X176714D02*
D03*
Y372924D02*
D03*
X180714D02*
D03*
X184714D02*
D03*
X188714D02*
D03*
X192714D02*
D03*
X196714D02*
D03*
X200714D02*
D03*
Y334424D02*
D03*
X196714D02*
D03*
X192714D02*
D03*
X188714D02*
D03*
X184714D02*
D03*
X180714D02*
D03*
X176714D02*
D03*
Y572924D02*
D03*
X180714D02*
D03*
X184714D02*
D03*
X188714D02*
D03*
X192714D02*
D03*
X196714D02*
D03*
X200714D02*
D03*
Y534424D02*
D03*
X196714D02*
D03*
X192714D02*
D03*
X188714D02*
D03*
X184714D02*
D03*
X180714D02*
D03*
X176714D02*
D03*
Y772924D02*
D03*
X180714D02*
D03*
X184714D02*
D03*
X188714D02*
D03*
X192714D02*
D03*
X196714D02*
D03*
X200714D02*
D03*
Y734424D02*
D03*
X196714D02*
D03*
X192714D02*
D03*
X188714D02*
D03*
X184714D02*
D03*
X180714D02*
D03*
X176714D02*
D03*
Y972924D02*
D03*
X180714D02*
D03*
X184714D02*
D03*
X188714D02*
D03*
X192714D02*
D03*
X196714D02*
D03*
X200714D02*
D03*
Y934424D02*
D03*
X196714D02*
D03*
X192714D02*
D03*
X188714D02*
D03*
X184714D02*
D03*
X180714D02*
D03*
X176714D02*
D03*
D48*
X1188714Y153674D02*
D03*
Y353674D02*
D03*
Y553674D02*
D03*
Y753674D02*
D03*
Y953674D02*
D03*
X688714Y153674D02*
D03*
Y353674D02*
D03*
Y553674D02*
D03*
Y753674D02*
D03*
Y953674D02*
D03*
X188714Y153674D02*
D03*
Y353674D02*
D03*
Y553674D02*
D03*
Y753674D02*
D03*
Y953674D02*
D03*
D49*
X1319695Y102956D02*
D03*
Y302956D02*
D03*
Y502956D02*
D03*
Y702956D02*
D03*
Y902956D02*
D03*
X819695Y102956D02*
D03*
Y302956D02*
D03*
Y502956D02*
D03*
Y702956D02*
D03*
Y902956D02*
D03*
X319695Y102956D02*
D03*
Y302956D02*
D03*
Y502956D02*
D03*
Y702956D02*
D03*
Y902956D02*
D03*
D50*
X1306945Y81956D02*
D03*
X1332445Y123956D02*
D03*
X1306945D02*
D03*
X1332445Y81956D02*
D03*
X1306945Y281956D02*
D03*
X1332445Y323956D02*
D03*
X1306945D02*
D03*
X1332445Y281956D02*
D03*
X1306945Y481956D02*
D03*
X1332445Y523956D02*
D03*
X1306945D02*
D03*
X1332445Y481956D02*
D03*
X1306945Y681956D02*
D03*
X1332445Y723956D02*
D03*
X1306945D02*
D03*
X1332445Y681956D02*
D03*
X1306945Y881956D02*
D03*
X1332445Y923956D02*
D03*
X1306945D02*
D03*
X1332445Y881956D02*
D03*
X806945Y81956D02*
D03*
X832445Y123956D02*
D03*
X806945D02*
D03*
X832445Y81956D02*
D03*
X806945Y281956D02*
D03*
X832445Y323956D02*
D03*
X806945D02*
D03*
X832445Y281956D02*
D03*
X806945Y481956D02*
D03*
X832445Y523956D02*
D03*
X806945D02*
D03*
X832445Y481956D02*
D03*
X806945Y681956D02*
D03*
X832445Y723956D02*
D03*
X806945D02*
D03*
X832445Y681956D02*
D03*
X806945Y881956D02*
D03*
X832445Y923956D02*
D03*
X806945D02*
D03*
X832445Y881956D02*
D03*
X306945Y81956D02*
D03*
X332445Y123956D02*
D03*
X306945D02*
D03*
X332445Y81956D02*
D03*
X306945Y281956D02*
D03*
X332445Y323956D02*
D03*
X306945D02*
D03*
X332445Y281956D02*
D03*
X306945Y481956D02*
D03*
X332445Y523956D02*
D03*
X306945D02*
D03*
X332445Y481956D02*
D03*
X306945Y681956D02*
D03*
X332445Y723956D02*
D03*
X306945D02*
D03*
X332445Y681956D02*
D03*
X306945Y881956D02*
D03*
X332445Y923956D02*
D03*
X306945D02*
D03*
X332445Y881956D02*
D03*
D51*
X1311194Y61004D02*
D03*
X1328194D02*
D03*
X1311395Y155004D02*
D03*
X1328395D02*
D03*
X1311194Y261004D02*
D03*
X1328194D02*
D03*
X1311395Y355004D02*
D03*
X1328395D02*
D03*
X1311194Y461004D02*
D03*
X1328194D02*
D03*
X1311395Y555004D02*
D03*
X1328395D02*
D03*
X1311194Y661004D02*
D03*
X1328194D02*
D03*
X1311395Y755004D02*
D03*
X1328395D02*
D03*
X1311194Y861004D02*
D03*
X1328194D02*
D03*
X1311395Y955004D02*
D03*
X1328395D02*
D03*
X811194Y61004D02*
D03*
X828194D02*
D03*
X811395Y155004D02*
D03*
X828395D02*
D03*
X811194Y261004D02*
D03*
X828194D02*
D03*
X811395Y355004D02*
D03*
X828395D02*
D03*
X811194Y461004D02*
D03*
X828194D02*
D03*
X811395Y555004D02*
D03*
X828395D02*
D03*
X811194Y661004D02*
D03*
X828194D02*
D03*
X811395Y755004D02*
D03*
X828395D02*
D03*
X811194Y861004D02*
D03*
X828194D02*
D03*
X811395Y955004D02*
D03*
X828395D02*
D03*
X311194Y61004D02*
D03*
X328194D02*
D03*
X311395Y155004D02*
D03*
X328395D02*
D03*
X311194Y261004D02*
D03*
X328194D02*
D03*
X311395Y355004D02*
D03*
X328395D02*
D03*
X311194Y461004D02*
D03*
X328194D02*
D03*
X311395Y555004D02*
D03*
X328395D02*
D03*
X311194Y661004D02*
D03*
X328194D02*
D03*
X311395Y755004D02*
D03*
X328395D02*
D03*
X311194Y861004D02*
D03*
X328194D02*
D03*
X311395Y955004D02*
D03*
X328395D02*
D03*
D52*
X1029174Y27084D02*
D03*
Y227084D02*
D03*
Y427084D02*
D03*
Y627084D02*
D03*
Y827084D02*
D03*
X529174Y27084D02*
D03*
Y227084D02*
D03*
Y427084D02*
D03*
Y627084D02*
D03*
Y827084D02*
D03*
X29174Y27084D02*
D03*
Y227084D02*
D03*
Y427084D02*
D03*
Y627084D02*
D03*
Y827084D02*
D03*
D53*
X1014724Y17334D02*
D03*
Y23834D02*
D03*
Y30334D02*
D03*
Y36834D02*
D03*
X1043624Y17334D02*
D03*
Y23834D02*
D03*
Y30334D02*
D03*
Y36834D02*
D03*
X1014724Y217334D02*
D03*
Y223834D02*
D03*
Y230334D02*
D03*
Y236834D02*
D03*
X1043624Y217334D02*
D03*
Y223834D02*
D03*
Y230334D02*
D03*
Y236834D02*
D03*
X1014724Y417334D02*
D03*
Y423834D02*
D03*
Y430334D02*
D03*
Y436834D02*
D03*
X1043624Y417334D02*
D03*
Y423834D02*
D03*
Y430334D02*
D03*
Y436834D02*
D03*
X1014724Y617334D02*
D03*
Y623834D02*
D03*
Y630334D02*
D03*
Y636834D02*
D03*
X1043624Y617334D02*
D03*
Y623834D02*
D03*
Y630334D02*
D03*
Y636834D02*
D03*
X1014724Y817334D02*
D03*
Y823834D02*
D03*
Y830334D02*
D03*
Y836834D02*
D03*
X1043624Y817334D02*
D03*
Y823834D02*
D03*
Y830334D02*
D03*
Y836834D02*
D03*
X514724Y17334D02*
D03*
Y23834D02*
D03*
Y30334D02*
D03*
Y36834D02*
D03*
X543624Y17334D02*
D03*
Y23834D02*
D03*
Y30334D02*
D03*
Y36834D02*
D03*
X514724Y217334D02*
D03*
Y223834D02*
D03*
Y230334D02*
D03*
Y236834D02*
D03*
X543624Y217334D02*
D03*
Y223834D02*
D03*
Y230334D02*
D03*
Y236834D02*
D03*
X514724Y417334D02*
D03*
Y423834D02*
D03*
Y430334D02*
D03*
Y436834D02*
D03*
X543624Y417334D02*
D03*
Y423834D02*
D03*
Y430334D02*
D03*
Y436834D02*
D03*
X514724Y617334D02*
D03*
Y623834D02*
D03*
Y630334D02*
D03*
Y636834D02*
D03*
X543624Y617334D02*
D03*
Y623834D02*
D03*
Y630334D02*
D03*
Y636834D02*
D03*
X514724Y817334D02*
D03*
Y823834D02*
D03*
Y830334D02*
D03*
Y836834D02*
D03*
X543624Y817334D02*
D03*
Y823834D02*
D03*
Y830334D02*
D03*
Y836834D02*
D03*
X14724Y17334D02*
D03*
Y23834D02*
D03*
Y30334D02*
D03*
Y36834D02*
D03*
X43624Y17334D02*
D03*
Y23834D02*
D03*
Y30334D02*
D03*
Y36834D02*
D03*
X14724Y217334D02*
D03*
Y223834D02*
D03*
Y230334D02*
D03*
Y236834D02*
D03*
X43624Y217334D02*
D03*
Y223834D02*
D03*
Y230334D02*
D03*
Y236834D02*
D03*
X14724Y417334D02*
D03*
Y423834D02*
D03*
Y430334D02*
D03*
Y436834D02*
D03*
X43624Y417334D02*
D03*
Y423834D02*
D03*
Y430334D02*
D03*
Y436834D02*
D03*
X14724Y617334D02*
D03*
Y623834D02*
D03*
Y630334D02*
D03*
Y636834D02*
D03*
X43624Y617334D02*
D03*
Y623834D02*
D03*
Y630334D02*
D03*
Y636834D02*
D03*
X14724Y817334D02*
D03*
Y823834D02*
D03*
Y830334D02*
D03*
Y836834D02*
D03*
X43624Y817334D02*
D03*
Y823834D02*
D03*
Y830334D02*
D03*
Y836834D02*
D03*
M02*
